<svg width="36" height="36" viewBox="0 0 36 36" fill="none" xmlns="http://localhost/2000/svg">
<circle cx="18" cy="18" r="18" fill="white"/>
<path fill-rule="evenodd" clip-rule="evenodd" d="M19.3999 21.8999C19.3999 21.3476 18.9522 20.8999 18.3999 20.8999H17.5999C17.0476 20.8999 16.5999 21.3476 16.5999 21.8999V25.6001C16.5999 26.7047 15.7045 27.6001 14.5999 27.6001H11.3999C10.2953 27.6001 9.3999 26.7047 9.3999 25.6001V15.8757C9.3999 15.242 9.70023 14.6458 10.2094 14.2686L16.8094 9.3797C17.5166 8.85585 18.4832 8.85585 19.1904 9.3797L25.7904 14.2686C26.2996 14.6458 26.5999 15.242 26.5999 15.8757V25.6001C26.5999 26.7047 25.7045 27.6001 24.5999 27.6001H21.3999C20.2953 27.6001 19.3999 26.7047 19.3999 25.6001V21.8999ZM14.0249 26.1779C14.5772 26.1779 15.0249 25.7302 15.0249 25.1779V21.5112C15.0249 20.4066 15.9203 19.5112 17.0249 19.5112H18.9749C20.0795 19.5112 20.9749 20.4066 20.9749 21.5112V25.1779C20.9749 25.7302 21.4226 26.1779 21.9749 26.1779H24.1499C24.7022 26.1779 25.1499 25.7302 25.1499 25.1779V16.0801C25.1499 15.7633 24.9997 15.4652 24.7451 15.2766L18.5951 10.721C18.2415 10.4591 17.7583 10.4591 17.4047 10.721L11.2547 15.2766C11.0001 15.4652 10.8499 15.7633 10.8499 16.0801V25.1779C10.8499 25.7302 11.2976 26.1779 11.8499 26.1779H14.0249Z" fill="#858585"/>
</svg>
