<svg width="122" height="20" viewBox="0 0 122 20" fill="none" xmlns="http://localhost/2000/svg">
<g clip-path="url(#clip0_1524_72848)">
<path d="M115.303 2.42098C115.303 2.73677 115.251 3.10519 115.095 3.36835C114.524 4.15782 113.434 3.9473 112.915 4.68414C113.33 5.05256 113.953 5.05256 114.368 5.63151C114.472 6.05256 114.213 6.36835 114.109 6.73677C113.901 6.89467 113.642 7.05256 113.382 6.99993C112.655 6.63151 112.344 5.73677 111.617 5.47361C111.357 5.31572 111.461 4.89467 111.513 4.63151C112.188 4.10519 113.071 3.47361 112.967 2.52624C113.122 1.9473 112.084 1.57888 112.603 1.21046C113.642 1.15782 114.784 1.42098 115.303 2.42098Z" fill="#1060B4"/>
<path d="M118.781 3.05261C118.781 4.15787 117.379 4.10524 117.016 4.84208C116.964 4.94734 117.12 5.05261 117.172 5.10524C117.847 5.2105 118.677 5.2105 118.989 5.94734C119.145 6.42103 118.989 6.84208 118.781 7.31576C118.47 7.68418 118.002 8.10524 117.535 7.99997C116.705 7.15787 116.497 5.84208 115.407 5.26313C114.784 4.15787 116.549 4.10524 116.808 3.15787C117.276 2.63155 116.289 1.89471 116.964 1.73682C117.691 1.84208 118.574 2.26313 118.781 3.05261Z" fill="#1060B4"/>
<path d="M111.306 2.73661C111.306 3.94714 109.956 4.42082 109.229 5.2103C109.281 6.0524 110.268 5.84188 110.683 6.36819C110.994 6.63135 111.15 6.99977 110.994 7.31556C110.683 7.73661 110.371 8.47346 109.748 8.42083C109.177 7.47346 108.399 6.63135 107.672 5.73661C107.516 4.63135 109.489 4.26293 108.918 2.99977C108.658 2.68398 108.295 2.42082 108.399 2.0524C108.97 1.52609 110.008 1.78925 110.683 2.0524C110.891 2.26293 111.306 2.42082 111.306 2.73661Z" fill="#1060B4"/>
<path d="M103.155 6.26324C103.051 6.26324 102.999 6.31587 102.896 6.31587C102.584 6.3685 102.273 6.26324 102.169 6.05271C102.221 5.3685 102.013 4.5264 102.324 3.89482C102.48 3.94745 102.688 3.89482 102.896 3.89482C103.207 3.84219 103.518 3.84219 103.622 4.15798C103.415 4.84219 103.934 6.00008 103.155 6.26324ZM103.415 10.0527C103.311 10.2106 103.103 10.2106 102.896 10.2106C102.74 10.2106 102.584 10.158 102.48 10.158C102.169 9.78956 102.428 9.05271 102.169 8.5264C102.324 8.26324 102.273 7.73692 102.74 7.84219H102.896L103.415 7.89482C103.518 8.5264 103.467 9.3685 103.415 10.0527ZM106.166 2.47377C105.855 2.31587 105.595 1.89482 105.076 2.00008C104.349 2.31587 103.622 2.26324 102.844 2.15798C102.324 2.05271 101.805 2.00008 101.338 2.00008C100.871 2.05271 100.456 2.26324 100.196 2.73692C99.7806 4.68429 100.507 6.68429 100.456 8.73692C100.352 10.3159 100.196 11.8948 99.0019 12.8948C98.327 13.3685 97.4964 13.2106 96.8734 13.6317C96.8215 14.0001 96.8215 14.3159 97.133 14.579C98.0155 15.2632 99.3653 15.2632 100.3 14.8422C101.442 14.3159 101.857 13.0527 102.065 11.8948C102.273 11.7896 102.532 11.6317 102.792 11.579C102.947 11.5264 103.155 11.579 103.311 11.7369L103.415 15.6317C103.518 16.3159 103.415 17.158 103.882 17.7369C104.141 17.8422 104.401 18.0001 104.661 17.8948C105.958 17.579 105.491 16.0527 105.647 15.158C105.491 11.5264 105.543 8.10535 105.803 4.5264C106.01 3.84219 106.53 3.26324 106.166 2.47377Z" fill="#1060B4"/>
<path d="M114.472 10.7367C114.005 10.842 113.746 11.5788 113.174 11.3157C113.123 11.3157 113.071 11.263 113.071 11.263C112.707 11.1051 112.292 10.9472 111.929 10.6841C111.877 10.5262 112.188 10.5788 112.292 10.5262C112.551 10.5262 112.863 10.5262 113.226 10.5788C113.642 10.5788 114.109 10.5788 114.524 10.6315V10.7367H114.472ZM121.896 9.31567C120.806 9.2104 119.612 9.31567 118.574 9.05251C117.276 8.89461 116.03 8.78935 114.732 8.63145L114.784 8.10514C114.472 7.57882 113.849 7.3683 113.174 7.42093C112.759 7.47356 112.292 7.57882 112.032 7.73672C111.877 7.94724 112.188 8.10514 112.084 8.3683C111.825 9.05251 110.994 8.78935 110.371 8.89461C109.021 9.05251 107.516 8.99988 106.322 9.73672C106.166 10.1051 105.958 10.5262 106.218 10.8946C106.322 11.2104 106.685 11.2104 106.945 11.2104C108.191 10.9472 109.385 10.6315 110.734 10.5262C110.942 10.7893 110.527 10.9472 110.527 11.2104C110.838 11.7367 111.877 11.7367 111.877 12.5262C111.461 12.9472 110.942 13.3683 110.371 13.2104C110.475 12.6315 110.267 12.1051 110.06 11.6841C109.696 11.4736 109.281 11.1578 108.814 11.4209C107.671 11.6841 108.294 13.1051 108.294 13.9472C108.346 14.6315 107.879 15.3157 108.243 16.0525C108.606 16.6315 109.177 17.0525 109.956 16.9472C110.994 16.6841 112.136 16.5788 113.278 16.5788C113.901 16.5262 114.524 16.5788 115.147 16.6315C116.186 16.5788 117.068 17.3157 118.054 16.8946C118.366 16.6315 119.093 16.4209 118.989 15.7893C118.833 14.6315 119.3 13.3157 118.937 12.1051C118.885 11.7367 118.47 11.6315 118.106 11.5262C116.809 11.842 116.86 13.4209 116.653 14.4736C116.393 15.1051 115.614 14.7367 115.147 14.842C114.524 14.6841 113.901 14.6315 113.33 14.6315C113.019 14.6315 112.707 14.5788 112.396 14.5788C111.825 14.7367 110.994 14.9999 110.371 14.6315C110.319 14.4736 110.267 14.2104 110.423 14.0525C110.579 13.9999 110.734 14.1051 110.786 14.1578C111.617 14.6315 112.24 13.8946 112.915 13.4209C113.019 13.3683 113.174 13.3157 113.278 13.3157C114.161 13.263 114.576 14.7894 115.614 14.3157C115.978 14.1578 116.393 13.7367 116.497 13.263C115.978 12.7367 115.303 12.7367 114.732 12.2104C114.888 11.842 115.511 11.9999 115.77 11.6841C116.134 11.4209 115.614 11.1051 115.77 10.7893C117.172 10.6315 118.314 11.3683 119.664 11.4736C120.806 11.5262 121.533 10.3683 122.052 9.42093L121.896 9.31567Z" fill="#1060B4"/>
<path d="M82.5444 12.8421C81.9733 13 81.4023 13 80.8312 13.0527C80.5197 13.1053 80.1563 13.1053 79.8967 13.1579C79.6372 13.1579 79.2737 13.2632 79.118 13.0527C79.0661 12.4211 78.9103 11.579 79.3257 11.1053C79.7929 10.9474 80.312 10.8421 80.8312 10.7895C81.2465 10.7369 81.7137 10.7369 82.181 10.7369L82.3886 11C82.3886 11.1053 82.3367 11.1579 82.2329 11.2632C81.7657 11.2632 81.2984 11.2106 80.8312 11.3158C80.4678 11.3684 80.1563 11.4211 79.8967 11.6316C79.6372 11.7895 79.6372 11.9474 79.5852 12.1579C79.5852 12.4211 79.8448 12.579 80.1044 12.6842C80.364 12.6842 80.6235 12.6842 80.8831 12.6316C81.4542 12.579 82.0252 12.4737 82.5963 12.4737C82.5444 12.579 82.6482 12.7895 82.5444 12.8421ZM84.6729 12.579L84.7767 12.4211C85.4516 12.2632 86.0746 12.3684 86.6457 12.4737C87.5282 12.6316 88.1512 12.7369 88.2031 11.4737C87.7359 11.1053 87.1648 11.0527 86.6457 11.0527C86.0746 11.0527 85.5035 11.1053 84.8806 11C84.8286 10.9474 84.8806 10.7895 84.8806 10.7369C85.3997 10.3684 86.1265 10.6316 86.6457 10.6316C87.1648 10.7895 87.9435 10.6316 88.4627 10.8948C88.8261 11.4737 88.5665 12.2106 88.5665 12.8948C87.9955 13.2632 87.3206 13.0527 86.6457 13C86.438 12.9474 86.2823 12.9474 86.0746 12.9474C85.5555 12.9474 85.1401 13.0527 84.7248 12.8948C84.621 12.8421 84.621 12.6842 84.6729 12.579ZM94.7444 15.6316C94.1733 15.3684 93.6023 15.7369 93.0831 15.7895C90.9546 16.2632 88.7742 15.8948 86.6457 15.5263C86.0746 15.4211 85.5035 15.2632 84.8806 15.1579C84.7248 15.1053 84.5691 14.8948 84.5691 14.6316C84.9325 14.1053 85.7631 14.4737 86.2823 14.4737C86.3861 14.4737 86.4899 14.4737 86.5937 14.5263C87.5801 14.6316 88.4627 15.1579 89.4491 15.0527C89.9163 14.8948 90.4354 14.5263 90.4874 13.9474C90.7469 12.7895 90.3316 11.579 90.8508 10.4211C90.9546 10.1579 90.9546 9.6316 90.5912 9.47371C90.072 9.00003 89.4491 9.52634 88.8261 9.52634C88.0993 9.31581 87.3206 9.36845 86.5937 9.21055C86.5418 9.21055 86.5418 9.21055 86.5418 9.21055C85.9189 9.05266 85.192 9.31582 84.621 9.05266C84.621 8.89476 84.6729 8.73687 84.7767 8.6316C84.8806 7.68424 84.7248 6.68424 84.9325 5.7895C85.0882 5.42108 85.4516 5.36845 85.7631 5.26318C86.0227 5.31582 86.2823 5.31582 86.5937 5.36845C88.0993 5.42108 89.5529 5.26318 90.8508 5.89476C90.9546 6.68424 90.8508 7.63161 90.9546 8.47371C91.2142 8.73687 91.4737 9.31581 91.8891 9.15792C93.0312 8.21055 92.2525 6.6316 92.564 5.36845C92.564 5.10529 92.8754 4.84213 92.6678 4.52634C92.3044 3.52634 91.4737 4.36845 90.7988 4.36845C89.4491 4.00003 88.0474 3.89476 86.5937 3.84213C86.1784 3.84213 85.7112 3.84213 85.2959 3.7895C85.192 3.73687 85.0882 3.52634 85.0882 3.47371C85.4516 2.94739 86.0227 2.89476 86.5937 2.94739C87.0091 3.00003 87.4244 3.05266 87.8397 3.05266C89.1895 2.94739 90.7469 4.10529 91.8891 2.94739C92.2006 2.57897 92.9274 2.05266 92.6678 1.42108H92.3044C90.4355 1.15792 88.5665 0.947394 86.5937 0.842131C84.621 0.736868 82.6482 0.736868 80.7274 0.842131C78.9103 0.947394 77.0933 1.15792 75.3801 1.42108C75.0686 1.6316 74.8091 1.89476 74.9129 2.31582C75.0686 2.6316 75.3801 2.89476 75.6916 3.05266C76.9895 3.31582 78.3912 3.05266 79.6891 2.89476C80.0006 2.89476 80.364 2.84213 80.7274 2.84213C81.2984 2.7895 81.8695 2.7895 82.3367 3.21055C82.3886 3.42108 82.3886 3.68424 82.181 3.7895C81.7137 3.73687 81.2465 3.73687 80.7274 3.73687C79.3776 3.7895 78.0797 4.05266 76.7818 4.21055C76.3665 4.10529 75.8474 3.7895 75.4321 4.21055C74.861 5.15792 75.3282 6.42108 75.1206 7.42108C75.1206 8.05266 75.1206 8.63161 75.484 9.05266C75.7435 9.21055 76.0031 9.21055 76.2627 9.10529C76.7299 8.6316 76.7299 8.26318 76.7299 7.63161C76.8857 7.05266 76.678 6.36845 77.1972 5.94739C78.3393 5.63161 79.5333 5.42108 80.8312 5.42108C81.2984 5.36845 81.7657 5.42108 82.2329 5.47371L82.4925 5.68424V8.10529C82.3886 8.47371 82.9597 8.7895 82.5444 9.05266C81.9214 9.05266 81.3503 9.10529 80.8312 9.15792C80.2601 9.26318 79.6891 9.36845 79.118 9.42108C78.495 9.52634 77.924 8.89476 77.2491 9.26318C76.9376 9.36845 76.7299 9.73687 76.7818 10.1579C77.0933 10.8948 77.301 11.8421 77.2491 12.7369C76.9895 13.2106 76.8857 13.8948 77.1452 14.4737C77.6125 14.7895 77.8721 15.3158 78.4431 15.2106C79.2218 14.8421 80.0525 14.7369 80.8831 14.6316C81.0389 14.579 81.1946 14.579 81.4023 14.5263C81.8695 14.4737 82.3367 14.3684 82.7001 14.6316C82.752 15.3684 82.804 16.1579 83.5308 16.579C84.621 17.1053 85.6593 17.6842 86.7495 18.2632C87.2167 18.5263 87.684 18.7369 88.1512 19C89.0857 19.3158 90.072 19.8948 91.1623 19.579C92.8755 19.1579 93.7061 17.4737 94.6925 16.0527C94.6406 16.0527 94.9001 15.8421 94.7444 15.6316Z" fill="#1060B4"/>
<path d="M90.0723 6.26337C90.3319 6.52653 90.0723 6.78968 90.0204 7.00021C89.1897 7.26337 88.1514 6.94758 87.1651 7.00021C86.6978 6.94758 86.0229 7.26337 85.8672 6.68442C85.7634 6.42126 86.0229 6.1581 86.2825 6.1581C87.5285 5.84231 88.8783 6.05284 90.0723 6.26337Z" fill="#1060B4"/>
<path d="M81.6624 6.31571C81.8181 6.42097 81.6624 6.68413 81.6624 6.84202C81.299 7.36834 80.7279 7.31571 80.1568 7.21044L77.9764 7.4736C77.6649 7.36834 77.5611 6.99992 77.6649 6.73676C78.807 6.05255 80.3126 6.10518 81.6624 6.31571Z" fill="#1060B4"/>
<path d="M90.0202 7.89468C90.124 7.94732 90.1759 8.21047 90.0721 8.2631C89.3972 9.31574 88.0474 8.52626 86.9572 8.68416C86.5938 8.63153 86.0227 8.78942 85.8151 8.36837C85.7632 8.05258 85.867 7.68416 86.2823 7.68416C87.5283 7.63153 88.7742 7.84205 90.0202 7.89468Z" fill="#1060B4"/>
<path d="M81.7664 7.94747C81.6626 8.31589 81.5069 8.47378 81.2473 8.68431C80.1571 9.15799 79.2745 8.52642 78.1843 9.0001C78.0286 9.0001 77.7171 8.89484 77.6652 8.63168C77.5613 8.36852 77.8728 8.15799 78.0805 8.10536C79.2745 7.89484 80.5724 7.63168 81.7664 7.94747Z" fill="#1060B4"/>
<path d="M63.7 9.57873C63.5962 9.5261 63.4404 9.47347 63.3366 9.42083C62.9732 9.15768 62.5579 8.73662 62.2983 8.3682C62.2983 8.05241 62.5579 7.84189 62.7655 7.84189C62.9213 7.78925 63.1289 7.78925 63.3366 7.73662C63.6481 7.68399 64.0115 7.68399 64.2711 7.68399L64.3749 7.99978C64.2711 8.5261 64.2711 9.26294 63.7 9.57873ZM73.46 15.5787C72.3698 15.3156 71.3315 15.0524 70.3451 14.684C68.6838 13.9472 67.334 12.5787 65.9323 11.4735C65.6728 11.105 66.0881 10.684 66.1919 10.3156C66.6591 9.42083 66.3996 8.21031 67.0745 7.42083C67.2302 7.10504 67.4379 6.68399 67.0745 6.31557C66.6591 6.21031 66.14 5.84189 65.6728 6.21031C65.4132 6.31557 64.9979 6.31557 64.8421 6.10504C64.7383 5.73662 64.9979 5.42083 65.1536 4.99978C65.8804 4.10504 67.386 4.73662 68.3204 4.42083C68.8396 4.10504 68.9953 3.57873 69.1511 3.05241C69.1511 2.89452 68.9953 2.73662 68.8396 2.73662C67.8013 2.47346 66.6591 2.47346 65.5689 2.47346C65.0498 2.21031 65.5689 1.57873 65.517 1.10504C65.1536 0.262938 64.2711 0.68399 63.7519 0.789254C63.5962 0.894517 63.4923 1.05241 63.3885 1.15767C63.2328 1.57873 63.2328 2.10504 62.9732 2.47346C61.8311 2.94715 59.8583 2.47346 59.4949 4.15768C59.5468 4.42083 59.7025 4.63136 59.9102 4.73662C60.066 4.89452 60.3255 4.78925 60.5851 4.68399C61.26 4.63136 62.1425 4.26294 62.7136 4.73662C62.9732 5.10504 62.7655 5.63136 62.6617 5.99978C62.2983 6.68399 61.4157 6.57873 60.8447 6.89452C60.2217 6.78925 59.443 6.78925 59.0277 7.26294C58.7681 7.5261 58.9238 7.94715 58.9238 8.15768C59.9102 9.3682 61.2081 10.1577 62.2464 11.3682L62.3502 11.684C62.4021 11.8419 62.1945 11.9472 62.0906 12.0524C60.9485 12.5787 59.4949 12.7893 58.3528 12.2629C58.1451 12.3156 58.0413 12.4208 57.9894 12.6314C57.8336 12.9998 58.1451 13.3682 58.5085 13.6314C59.6506 14.4208 61.4677 14.5787 62.8174 13.9998C63.0251 13.9472 63.2328 13.8419 63.4404 13.684C63.8038 13.4735 64.1153 13.3156 64.4787 13.6314C65.6208 14.7893 66.3477 16.2103 67.2821 17.5261C67.957 18.2103 68.7877 18.2629 69.6702 18.0524C71.02 17.5261 72.5774 17.2629 73.7196 16.2103C73.7196 15.9998 73.7196 15.684 73.46 15.5787Z" fill="#1060B4"/>
<path d="M56.224 1.42114C56.3797 1.89483 55.8606 2.6843 56.5355 2.94746C56.9508 3.00009 57.5218 2.89483 57.7814 3.31588C57.7814 3.6843 57.6776 4.00009 57.4699 4.26325C56.8469 4.47378 56.0682 4.57904 55.8606 5.31588C55.9125 5.8422 55.601 6.57904 56.0682 7.00009C56.6393 7.10535 57.6257 6.73693 57.9372 7.36851C57.8333 7.6843 58.041 8.31588 57.5738 8.47378C57.0027 8.73693 56.1721 8.31588 55.9125 9.05272C55.8087 11.158 57.2623 14.3159 54.978 15.7369C54.3031 16.158 53.5244 16.3159 52.6938 16.2106C52.2265 16.1054 51.7593 15.8948 51.4478 15.4738C51.344 15.2106 51.4997 15.0001 51.5516 14.7369C51.9669 14.4738 52.3823 14.6317 52.8495 14.5264C53.3167 14.4738 53.7321 14.2106 53.9916 13.8422C54.4069 12.4738 54.1474 10.8948 54.355 9.47378C54.3031 9.31588 54.0955 9.21062 53.8878 9.21062C52.7976 9.31588 52.0189 9.8422 51.1363 10.3685C50.7729 10.579 50.6691 10.1054 50.4614 9.8422C50.3576 9.6843 50.2538 9.36851 50.4095 9.26325C51.2401 7.89483 52.7457 7.73693 54.1474 7.31588C54.5627 6.63167 54.407 5.78956 54.407 4.94746C54.407 4.78956 54.1993 4.63167 54.0955 4.57904C52.8495 4.21062 51.7074 5.57904 50.8248 4.42114C50.721 4.10535 50.9286 3.8422 50.9806 3.52641C52.0189 2.94746 53.2129 2.78956 54.4589 2.52641C54.7704 2.15799 54.5108 1.36851 54.9261 0.947459C55.3933 0.736933 55.9125 1.05272 56.224 1.42114Z" fill="#1060B4"/>
<path d="M40.3901 0.999829C40.4421 1.31562 40.2344 1.89457 40.6497 1.99983C41.7918 2.05246 42.8821 2.15772 43.9204 2.47351C44.0761 2.9472 43.6608 3.31562 43.4012 3.63141C42.5187 3.99983 41.7399 3.47351 40.8574 3.57878C40.5978 3.63141 40.2863 3.47351 40.1306 3.63141C40.0787 3.84193 40.1306 3.99983 40.2863 4.10509C41.2208 4.15772 42.2591 4.10509 43.1416 4.47351C43.1935 4.7893 43.0378 5.15772 42.934 5.42088C42.3629 6.05246 41.4804 5.31562 40.6497 5.52615C40.3382 5.47351 40.1306 5.63141 39.9748 5.84194C40.3382 6.10509 40.9612 6.10509 41.4804 6.10509C43.557 6.47351 45.6335 6.57878 47.814 6.31562C47.9178 6.36825 48.1255 6.47351 48.1255 6.68404L48.0216 6.9472C47.3467 8.05246 46.2046 9.21036 44.9067 9.47351C44.1799 9.36825 43.6089 8.89457 42.9859 8.52615C40.7536 7.47351 37.9501 7.9472 35.4582 8.10509C34.5238 8.15772 33.3816 9.42088 32.551 8.31562C32.1876 7.89457 32.8625 7.21036 32.1876 6.99983C31.7204 7.05246 31.0455 6.63141 30.734 7.10509C30.6301 8.05246 31.5127 8.68404 32.2914 9.05246C32.6029 9.21036 33.1221 9.05246 33.2778 9.42088C33.2259 9.9472 32.8625 10.684 32.1876 10.7893C31.5646 11.1577 31.305 10.3156 30.734 10.3156C30.3706 10.7367 30.4225 11.3683 30.3706 11.8946C30.6301 13.6314 30.2667 15.5788 30.2148 17.4209C30.0591 17.7367 29.7476 17.8946 29.488 18.0525C28.9689 18.0525 28.9689 17.4209 28.6574 17.1051C28.3459 15.2104 28.5535 13.3683 28.5016 11.3683C28.3978 11.1577 28.1901 11.263 28.0344 11.263C27.3076 12.1051 26.425 12.9472 25.231 12.684C24.6599 12.5261 24.3484 11.9998 24.0889 11.4209C24.1408 11.1051 24.0889 10.684 24.5042 10.6314C25.9059 10.7893 27.0999 10.1051 27.8787 8.89457C28.3459 8.42088 28.5016 7.73667 28.4497 7.15772C27.9825 6.7893 27.4114 7.05246 26.8923 7.05246C26.2174 7.10509 25.4906 7.57878 24.9195 7.05246C24.5561 6.7893 24.4004 6.26299 24.6599 5.89457C25.6463 4.99983 27.0999 5.10509 28.3978 4.89457L28.5535 4.68404C28.7093 3.52614 28.6055 2.10509 29.1246 1.05246C29.2284 0.789303 29.5399 0.684039 29.7995 0.684039C30.1629 0.736671 30.6301 0.894566 30.7859 1.26299C30.8378 2.47351 30.6301 3.63141 30.8378 4.7893C31.7204 5.42088 32.7587 4.89457 33.6931 5.15772C34.0046 5.68404 33.3297 6.10509 33.3297 6.63141C34.2642 6.68404 35.0948 6.36825 35.9774 6.26299C36.6004 6.05246 37.6387 6.36825 37.7425 5.68404C37.3272 5.42088 36.808 5.57878 36.3927 5.63141C36.0812 5.68404 35.7697 5.84194 35.4063 5.63141C35.2506 5.52615 35.0948 5.26299 35.0948 5.05246C35.4063 3.89457 36.7561 4.21036 37.7425 3.9472C37.8982 3.84193 38.054 3.68404 37.8982 3.57878C37.3791 3.31562 36.9638 3.63141 36.4965 3.63141C35.9774 3.73667 35.3025 4.15772 34.7314 3.73667C34.4718 3.57878 34.6795 3.21036 34.6795 2.89457C35.4063 1.89457 36.7561 2.15772 37.8463 1.89457C38.1578 1.57878 37.8982 0.841934 38.5212 0.736671C39.1442 0.578776 40.0267 0.0524604 40.3901 0.999829Z" fill="#1060B4"/>
<path d="M33.8482 1.73687C33.7963 2.57897 33.0176 3.15792 32.3427 3.52634L31.4082 3.84213C31.7716 3.10529 32.2388 2.26318 32.758 1.52634C33.1733 1.57897 33.6405 1.36845 33.8482 1.73687Z" fill="#1060B4"/>
<path d="M27.6185 2.15787C27.7743 2.84208 27.6704 3.68418 27.2551 4.2105C26.736 3.68418 26.3206 3.05261 26.3726 2.26313C26.5283 2.10524 26.4245 1.78945 26.684 1.73682C26.9955 1.84208 27.4109 1.73682 27.6185 2.15787Z" fill="#1060B4"/>
<path d="M40.3379 11.1055C39.9226 10.895 39.4034 10.8423 38.8843 10.8423C38.4689 10.8423 38.0017 10.895 37.6383 10.895C37.4826 10.7897 37.4826 10.4739 37.5864 10.316C37.8979 9.9476 38.3651 10.1055 38.7285 9.9476H38.8843C39.4034 10.0002 40.0783 9.89497 40.4936 10.1055C40.4936 10.4739 40.5455 10.895 40.3379 11.1055ZM40.2341 13.316C39.7668 13.2108 39.3515 13.1581 38.8843 13.1581C38.417 13.1581 37.9498 13.1581 37.4826 13.1055C37.3268 12.9476 37.2749 12.6844 37.3268 12.4213L37.6383 12.2634C38.0017 12.1581 38.4689 12.2108 38.8843 12.2634C39.4034 12.316 39.9226 12.316 40.2341 11.895C40.4936 11.895 40.3898 12.1581 40.4936 12.316C40.4417 12.6844 40.5975 13.2108 40.2341 13.316ZM42.8298 9.31602C42.6741 8.78971 42.103 8.78971 41.7915 8.63181C41.4281 8.52655 41.0128 8.57918 40.7532 8.89497C40.1821 8.84234 39.5592 8.78971 38.9362 8.78971C38.5209 8.78971 38.1055 8.78971 37.6902 8.89497C37.3268 8.68444 36.9634 8.47392 36.5481 8.36865C36.1328 8.47392 35.7694 9.00023 35.6136 9.42128C35.5098 11.3687 35.7175 13.5792 34.4715 15.1581C33.9524 16.0529 32.9141 15.8423 32.1872 16.4739C32.0834 16.5792 32.0834 16.8423 32.1872 17.0002C32.5507 17.7371 33.3294 17.7897 34.0562 17.7371C35.5098 17.5265 36.6519 16.0529 37.0672 14.7897C37.5864 14.4739 38.2613 14.4213 38.8843 14.5265C38.9362 14.5792 38.9881 14.5792 39.04 14.5792C39.5592 14.9476 39.9745 14.2108 40.3898 14.5792C40.5455 15.895 40.2341 17.1581 40.8051 18.316C41.2204 18.6844 41.6877 18.4739 42.1549 18.4213C42.4145 18.316 42.6741 18.0529 42.7779 17.7371L42.5702 12.2634C42.5702 11.2634 42.7779 10.1581 42.8298 9.31602Z" fill="#1060B4"/>
<path d="M16.0417 18.4212H1.92085C0.726809 18.4212 0 17.5791 0 16.4739V2.21071C0.0519149 1.05281 0.311489 0.842285 1.24596 0.842285L1.92085 0.894917L5.76255 4.78965C6.07404 5.15807 6.59319 5.3686 5.71064 6.05281L1.86894 10.0002C1.60936 10.2633 1.4017 10.8423 1.92085 11.2633L7.00851 16.4739C7.32 16.7897 7.89106 17.0002 8.3583 16.4739L12.2519 12.5791C12.6153 12.0528 13.1345 12.1581 13.446 12.5265L17.3396 16.4212V17.1581C17.3396 18.1581 16.6647 18.4212 16.0417 18.4212Z" fill="#1060B4"/>
<path d="M3.73767 0.210346L15.3666 0.157715C16.9241 0.210346 17.9624 1.42087 17.9104 2.78929L17.9624 14.5261L14.1207 10.5788C13.5496 9.84193 13.0304 10.3682 12.8228 10.5788L8.98108 14.5261C8.7215 14.8419 8.09852 15.1051 7.73512 14.5261L3.8415 10.5788C3.37427 10.2103 3.27044 9.84193 3.78959 9.31561L7.73512 5.36824C8.41001 4.68403 7.99469 4.26298 7.73512 4.05245L3.73767 0.210346Z" fill="#ED1C24"/>
</g>
<defs>
<clipPath id="clip0_1524_72848">
<rect width="122" height="20" fill="white"/>
</clipPath>
</defs>
</svg>
