<?xml version="1.0" encoding="UTF-8"?><svg id="a" xmlns="http://localhost/2000/svg" viewBox="0 0 177.74 38"><path d="M45.39,29.57c0,.15-.01.33-.12.46-.28.38-.82.31-1.08.65.22.17.52.19.72.46.05.2-.08.36-.14.54-.09.09-.2.17-.35.13-.36-.17-.5-.59-.87-.73-.14-.09-.1-.28-.06-.4.35-.27.78-.58.73-1.04.09-.28-.42-.46-.19-.63.54-.06,1.09.08,1.36.55Z" fill="#004ea2" stroke-width="0"/><path d="M47.09,29.9c0,.51-.69.5-.87.86-.03.05.05.09.06.12.35.05.76.05.91.4.09.23,0,.45-.1.68-.15.17-.38.38-.61.35-.4-.41-.49-1.06-1.02-1.34-.31-.54.58-.58.69-1.04.2-.27-.27-.59.08-.69.33.06.76.27.87.68Z" fill="#004ea2" stroke-width="0"/><path d="M43.4,29.72c0,.6-.68.83-1.02,1.2.03.41.5.31.73.58.15.12.22.31.14.46-.14.22-.31.56-.6.54-.28-.46-.67-.86-1.01-1.28-.1-.56.9-.7.59-1.32-.12-.18-.31-.31-.24-.49.31-.24.81-.13,1.13,0,.1.08.29.15.29.31Z" fill="#004ea2" stroke-width="0"/><path d="M40.87,29.59c-.15-.08-.28-.27-.54-.22-.35.17-.72.13-1.09.06-.26-.04-.5-.08-.76-.08-.2.01-.44.13-.55.36-.2.96.15,1.92.14,2.93-.06.77-.12,1.55-.72,2.04-.32.23-.73.15-1.04.36-.04.18-.04.35.12.46.42.33,1.1.33,1.57.12.55-.27.78-.88.88-1.43.1-.05.23-.14.35-.17.09-.01.18,0,.27.06l.05,1.9c.06.35,0,.76.23,1.04.12.06.26.12.38.08.64-.15.41-.9.49-1.33-.08-1.77-.04-3.46.08-5.17.05-.33.32-.61.13-1ZM39.51,33.27c-.06.08-.17.09-.27.09-.06-.01-.14-.03-.19-.04-.18-.18-.03-.53-.15-.78.08-.12.04-.38.28-.35h.06s.27.04.27.04c.05.31.01.72,0,1.04ZM39.37,31.43s-.08.03-.13.03c-.15.01-.31-.01-.37-.12.03-.33-.08-.74.08-1.05.09.01.19.01.29,0,.15-.01.31-.01.38.13-.12.32.15.88-.26,1.01Z" fill="#004ea2" stroke-width="0"/><path d="M48.63,32.92c-.51-.05-1.11,0-1.65-.12-.63-.08-1.24-.13-1.87-.2l.04-.27c-.15-.27-.49-.35-.81-.32-.2.01-.42.06-.58.14-.08.1.08.18.04.31-.14.33-.54.22-.86.27-.65.08-1.41.06-2,.41-.08.18-.19.37-.05.56.05.15.2.15.33.15.61-.13,1.22-.28,1.88-.35.1.14-.12.22-.12.35.15.27.67.27.67.64-.2.2-.45.4-.74.32.06-.28-.05-.54-.17-.74-.18-.12-.38-.27-.6-.14-.58.14-.24.83-.27,1.23.03.35-.2.69-.04,1.01.19.29.49.5.87.45.5-.12,1.06-.17,1.63-.18.31,0,.63,0,.92.03.5-.03.93.32,1.41.13.18-.13.5-.23.49-.54-.08-.56.15-1.18-.04-1.78-.03-.19-.23-.23-.41-.27-.64.14-.6.91-.72,1.45-.14.31-.52.12-.76.17-.31-.08-.6-.09-.9-.1-.15,0-.31,0-.46-.01-.28.08-.69.22-1,.03-.01-.08-.04-.22.04-.29.08-.01.14.04.19.06.38.23.7-.14,1.04-.35.06-.04.13-.05.19-.05.44-.03.64.73,1.17.49.18-.09.38-.28.42-.51-.24-.26-.59-.27-.86-.53.08-.17.38-.09.51-.27.18-.13-.08-.28,0-.44.69-.08,1.24.28,1.92.35.58.01.92-.54,1.19-1l-.06-.08ZM44.97,33.62c-.23.05-.36.41-.63.29-.03,0-.04-.01-.06-.03-.19-.08-.38-.18-.58-.31-.01-.08.12-.06.18-.08h.46c.22.01.44.01.63.04v.08Z" fill="#004ea2" stroke-width="0"/><path d="M35.25,36.01c-.29-.12-.56.05-.83.09-1.05.24-2.13.06-3.16-.14-.28-.05-.58-.12-.86-.17-.09-.04-.17-.13-.15-.24.19-.27.6-.08.86-.08h.15c.5.05.93.32,1.42.27.23-.08.49-.27.53-.54.12-.56-.08-1.17.17-1.7.04-.14.04-.38-.13-.46-.27-.22-.56.04-.87.04-.36-.12-.73-.08-1.11-.17h-.01c-.31-.09-.67.05-.93-.09,0-.08.01-.15.08-.2.05-.46-.03-.96.08-1.38.08-.19.24-.2.4-.24.13.01.27.03.4.03.74.04,1.49-.05,2.11.28.04.38,0,.83.04,1.24.14.13.24.4.47.35.58-.46.19-1.23.33-1.86,0-.14.13-.27.04-.41-.19-.47-.6-.08-.92-.08-.65-.15-1.36-.22-2.07-.24-.2-.01-.42-.01-.63-.03-.05-.04-.09-.12-.09-.15.17-.26.44-.28.72-.24.2.01.42.06.61.05.69-.05,1.45.5,2-.05.15-.19.5-.42.38-.73h-.18c-.91-.14-1.86-.24-2.82-.29-.96-.05-1.93-.06-2.89,0-.9.05-1.78.14-2.64.29-.15.09-.28.23-.23.44.08.15.23.27.38.37.65.12,1.34,0,1.97-.08.15,0,.33-.01.51-.03.28-.01.58-.01.79.18.04.09.04.2-.08.27-.24-.03-.49-.03-.72-.01-.65.03-1.31.15-1.95.22-.22-.04-.49-.2-.69,0-.28.46-.05,1.08-.15,1.57,0,.31,0,.59.17.81.12.08.27.08.38.01.23-.2.23-.4.23-.7.1-.27-.01-.61.23-.82.56-.15,1.17-.26,1.78-.27.23,0,.46,0,.69.01l.14.12v1.17c-.06.19.23.35.01.49-.29-.01-.58.01-.85.05-.28.05-.55.1-.83.14-.31.04-.6-.27-.92-.08-.15.04-.27.23-.26.44.18.37.27.81.23,1.27-.12.23-.19.58-.05.85.2.13.35.4.63.35.38-.18.79-.22,1.2-.29.09-.01.17-.04.26-.05.23-.03.46-.08.65.04.01.36.05.74.4.96.54.24,1.06.52,1.59.79.23.13.46.24.69.37.49.15.96.44,1.5.28.85-.2,1.27-1.04,1.73-1.7.01-.08.15-.19.08-.28ZM30.28,34.51l.05-.1c.33-.06.65,0,.92.05.44.08.74.1.78-.5-.23-.17-.5-.19-.78-.19s-.56.03-.86-.04c-.01-.01,0-.1,0-.14.26-.17.59-.04.86-.05.27.08.64,0,.91.13.19.29.05.65.05.97-.28.18-.61.09-.96.04-.09-.01-.19-.01-.28-.01-.24,0-.47.04-.67-.03-.06,0-.06-.08-.03-.13ZM29.2,34.64c-.27.08-.56.09-.85.1-.17.01-.32.03-.47.05-.13,0-.31.06-.38-.04-.01-.31-.09-.7.12-.93.23-.08.49-.13.74-.15.22-.03.44-.04.65-.04l.12.14c0,.05-.04.08-.08.12-.23,0-.46-.01-.69.01-.17.01-.33.05-.47.14-.12.08-.13.15-.17.26,0,.13.15.2.27.27.12,0,.24-.01.37-.03.28-.03.56-.08.85-.08.03.06.06.17,0,.18Z" fill="#004ea2" stroke-width="0"/><path d="M32.93,31.45c.13.13,0,.27-.04.36-.41.12-.92-.04-1.41,0-.2-.03-.55.12-.63-.17-.05-.14.08-.27.2-.27.61-.14,1.29-.04,1.87.08Z" fill="#004ea2" stroke-width="0"/><path d="M28.78,31.46c.08.06,0,.19,0,.27-.19.24-.45.2-.74.19l-1.08.12c-.15-.06-.2-.23-.15-.36.56-.35,1.31-.31,1.97-.22Z" fill="#004ea2" stroke-width="0"/><path d="M32.9,32.25c.06.03.08.14.03.18-.35.5-1,.12-1.54.2-.19-.04-.46.04-.55-.15-.04-.15.01-.35.2-.32.63-.04,1.24.04,1.86.09Z" fill="#004ea2" stroke-width="0"/><path d="M28.84,32.27c-.04.19-.14.27-.27.36-.51.23-.97-.08-1.5.14-.09,0-.23-.06-.24-.18-.06-.13.09-.23.2-.24.58-.12,1.22-.23,1.81-.08Z" fill="#004ea2" stroke-width="0"/><path d="M24.73,35.96c-.54-.12-1.05-.24-1.52-.44-.81-.35-1.49-1.02-2.16-1.57-.14-.19.06-.38.1-.55.22-.45.1-1.02.45-1.41.08-.15.17-.36,0-.53-.22-.04-.49-.22-.69-.04-.13.04-.32.04-.42-.06-.05-.19.08-.35.15-.54.35-.42,1.09-.12,1.55-.27.27-.15.35-.42.42-.69,0-.08-.09-.13-.15-.15-.51-.12-1.08-.12-1.6-.13-.27-.14,0-.44-.04-.67-.18-.42-.6-.22-.88-.15-.09.04-.14.12-.18.19-.09.19-.09.46-.2.64-.58.22-1.54,0-1.73.83.03.12.12.2.22.28.08.1.2.04.32-.01.32-.03.77-.19,1.05.01.12.19.04.45-.01.61-.19.33-.61.27-.91.45-.29-.06-.68-.06-.9.17-.12.12-.05.32-.04.44.49.6,1.13.99,1.63,1.56l.06.17c.01.08-.1.14-.14.18-.55.24-1.28.36-1.86.09-.09.03-.13.08-.17.19-.01.03-.03.06-.03.09v.03c.01.14.13.28.27.38.58.38,1.46.46,2.13.17.1-.01.2-.09.31-.15.17-.1.35-.2.53-.04.58.56.91,1.25,1.37,1.88.33.32.76.36,1.18.27.69-.27,1.43-.38,1.98-.9.06-.1.06-.27-.08-.33ZM19.93,33.05c-.06-.03-.12-.05-.18-.09-.19-.13-.38-.33-.51-.51,0-.17.13-.24.23-.27.09-.01.19-.03.28-.04.17-.03.33-.03.46-.01l.06.15c-.08.27-.08.61-.35.77Z" fill="#004ea2" stroke-width="0"/><path d="M16.23,29.11c.09.22-.18.6.15.74.2.01.47-.04.61.17,0,.18-.06.33-.15.46-.31.1-.69.15-.81.5.01.27-.12.61.12.81.28.05.77-.13.9.19-.04.17.06.47-.19.54-.27.12-.69-.1-.82.28-.06,1.04.67,2.57-.46,3.27-.35.2-.73.28-1.13.23-.26-.06-.49-.15-.61-.35-.06-.14.01-.23.05-.37.22-.12.42-.04.64-.09.23-.03.44-.15.58-.35.2-.65.09-1.43.19-2.13-.03-.08-.14-.12-.22-.12-.54.04-.93.31-1.36.58-.19.09-.23-.14-.33-.26-.04-.09-.09-.23-.01-.28.4-.68,1.17-.76,1.86-.95.22-.32.14-.74.14-1.14,0-.08-.1-.15-.15-.18-.6-.19-1.18.49-1.6-.09-.05-.15.04-.29.08-.45.5-.28,1.11-.35,1.72-.47.17-.19.04-.55.23-.77.19-.13.45.03.59.22Z" fill="#004ea2" stroke-width="0"/><path d="M8.42,28.88c.03.15-.08.44.14.47.55.04,1.09.1,1.61.23.09.22-.14.41-.26.56-.44.19-.81-.1-1.27-.04-.13.01-.28-.06-.35.04-.01.09,0,.19.08.23.49.01,1,0,1.41.17.04.18-.06.33-.1.46-.28.31-.73-.04-1.13.04-.18-.01-.27.06-.33.18.19.13.49.13.76.13,1.04.19,2.05.22,3.14.1.06.04.15.09.14.19l-.04.12c-.35.55-.91,1.09-1.54,1.24-.35-.06-.65-.29-.96-.46-1.09-.53-2.47-.29-3.7-.22-.47.04-1.02.65-1.43.12-.19-.2.15-.55-.19-.63-.23.01-.55-.19-.7.04-.04.46.38.78.77.93.15.08.42,0,.5.19-.03.27-.22.61-.54.68-.31.17-.45-.26-.73-.26-.18.22-.14.53-.18.79.12.83-.05,1.78-.08,2.68-.08.15-.2.23-.36.31-.27,0-.26-.31-.4-.47-.18-.91-.06-1.81-.08-2.78-.06-.1-.18-.06-.23-.04-.37.4-.79.79-1.38.68-.29-.08-.45-.33-.58-.6.01-.15,0-.37.2-.38.69.08,1.29-.27,1.68-.85.2-.23.31-.56.27-.85-.22-.17-.5-.06-.77-.06-.33.03-.69.27-.99,0-.17-.13-.24-.37-.13-.55.47-.44,1.19-.38,1.86-.47l.08-.12c.08-.58.03-1.25.28-1.77.06-.12.22-.17.33-.17.19.01.4.09.47.28.03.59-.08,1.15.03,1.73.44.31.93.05,1.42.17.13.27-.19.49-.19.72.46.04.87-.14,1.29-.19.31-.1.83.05.88-.29-.2-.13-.45-.06-.67-.03-.14.03-.29.12-.47,0-.09-.05-.17-.17-.17-.27.14-.58.83-.4,1.29-.55.05-.04.13-.12.08-.19-.26-.12-.46.03-.69.03-.27.04-.6.27-.87.05-.13-.09-.04-.27-.04-.4.37-.49,1.04-.37,1.58-.49.15-.15.04-.49.35-.56.29-.08.73-.31.9.13Z" fill="#004ea2" stroke-width="0"/><path d="M5.21,29.24c-.04.41-.4.69-.74.88l-.46.15c.17-.36.4-.78.67-1.13.19.01.42-.09.54.09Z" fill="#004ea2" stroke-width="0"/><path d="M2.12,29.45c.08.32.04.74-.19,1-.24-.27-.46-.58-.42-.95.08-.08.03-.23.15-.27.15.06.37,0,.46.22Z" fill="#004ea2" stroke-width="0"/><path d="M9.61,32.92c-.08-.26-.35-.27-.51-.33-.19-.05-.38-.01-.52.14-.26-.01-.55-.04-.83-.05-.22,0-.45,0-.65.05-.18-.1-.37-.22-.58-.27-.22.05-.38.31-.46.51-.06.96.05,2.04-.56,2.8-.26.44-.76.35-1.1.63-.06.06-.06.19,0,.27.17.35.58.38.92.35.72-.09,1.28-.82,1.49-1.43.27-.15.63-.19.95-.1h.01c.26.18.47-.19.67,0,.08.64-.08,1.27.22,1.81.19.19.42.08.67.05.14-.05.27-.17.31-.32l-.09-2.66c0-.5.08-1.01.09-1.43ZM8.34,34.87c-.19-.05-.4-.06-.6-.08-.26,0-.5,0-.76-.04-.08-.08-.12-.2-.08-.32l.15-.08c.22-.04.46,0,.68.01.26.01.47,0,.63-.18.12,0,.08.12.12.2-.04.15.04.42-.14.47ZM8.38,33.78c-.18-.09-.41-.1-.64-.12-.23,0-.46.03-.68.03-.08-.04-.08-.22-.01-.29.13-.19.38-.09.58-.17.04,0,.08,0,.12.01.26,0,.55-.04.74.08,0,.15.01.37-.1.46Z" fill="#004ea2" stroke-width="0"/><path d="M34.4,25.47H14.69c-1.64.01-2.66-1.15-2.68-2.71V3.15c.04-1.52.44-1.81,1.77-1.81h.95s5.34,5.39,5.34,5.39c.45.49,1.2.82-.01,1.75l-5.35,5.42c-.41.36-.68,1.15.01,1.74l7.09,7.18c.42.42,1.25.69,1.86-.01l5.44-5.34c.55-.69,1.23-.56,1.68-.08l5.42,5.34v.97c.01,1.4-.95,1.72-1.81,1.75Z" fill="#004ea2" stroke-width="0"/><path d="M17.28.43l16.2-.05c2.16.06,3.61,1.75,3.59,3.62l.04,16.12-5.38-5.42c-.81-1.01-1.54-.28-1.83.01l-5.37,5.4c-.35.4-1.18.78-1.75-.01l-5.4-5.38c-.6-.5-.76-1.02-.08-1.73l5.48-5.43c.99-.92.33-1.5.04-1.79L17.28.43Z" fill="#e60012" stroke-width="0"/><rect x="60.87" y="6.69" width=".57" height="25.51" rx=".2" ry=".2" transform="translate(122.3 38.9) rotate(-180)" fill="#9fa0a0" stroke-width="0"/><path d="M101.76,8.78c.25-.07.66-.03.9.08l10.45,4.9c.24.11.23.28-.02.36l-13.79,4.87c-.25.09-.64.05-.87-.08l-10.57-6c-.23-.13-.21-.29.05-.36l13.86-3.78Z" fill="#cf9041" stroke-width="0"/><path d="M102.65,8.86c-.24-.11-.43.01-.43.27v15.2c0,.26.2.55.44.65l10.44,4.27c.24.1.44-.03.44-.29v-14.54c0-.26-.19-.56-.43-.67l-10.46-4.9Z" fill="#b5803a" stroke-width="0"/><path d="M126.11,15.17c-.1-.11-.24-.16-.4-.16h-3.26c-3.58,0-5.37,1.28-5.37,3.83v8.76c.02.45.16.83.51,1.2.34.32.6.47,1.18.51h1.75v-9.8c0-1.01.44-1.64,1.32-1.9.41-.1,1.9-.15,4.47-.15v-1.84c0-.14-.07-.3-.19-.42Z" fill="#004da0" stroke-width="0"/><path d="M163.81,20.72v-1.77c0-2.55-1.65-3.83-4.94-3.83h-5.83c-3.53,0-5.3,1.2-5.3,3.6v6.71c0,1.4.54,2.41,1.62,3.05.85.54,2.18.81,3.98.81h10.42v-1.84c0-.14-.07-.3-.19-.42-.1-.11-.24-.16-.4-.16h-9.21c-.96,0-1.63-.1-2.02-.3-.57-.34-.85-.88-.85-1.62v-.47l12.71-3.75ZM151.07,22.12v-2.77c0-1.22,1.02-1.83,3.05-1.83h3.66c1.76,0,2.64.54,2.64,1.62v.21l-9.35,2.77Z" fill="#004da0" stroke-width="0"/><path d="M175.42,15.17c-.1-.11-.24-.16-.4-.16h-3.26c-3.58,0-5.37,1.28-5.37,3.83v8.76c.02.45.16.83.51,1.2.34.32.6.47,1.18.51h1.75v-9.8c0-1.01.44-1.64,1.32-1.9.41-.1,1.9-.15,4.47-.15v-1.84c0-.14-.07-.3-.19-.42Z" fill="#004da0" stroke-width="0"/><path d="M83.56,15.21c-.11-.12-.26-.18-.44-.18h-3.08v12.39c.02.49.18.92.56,1.32.38.35.66.51,1.29.56h1.88v-13.62c0-.15-.07-.33-.21-.47Z" fill="#004da0" fill-rule="evenodd" stroke-width="0"/><path d="M81.9,8.6c-1.2,0-2.17.98-2.17,2.2s.98,2.18,2.17,2.18,2.18-.98,2.18-2.18-.98-2.2-2.18-2.2h0Z" fill="#e50012" fill-rule="evenodd" stroke-width="0"/><path d="M95.08,8.92c0-.88.26-1.49.77-1.84.52-.35,1.38-.52,2.58-.52h3.94c1.18,0,2.03.17,2.54.52.52.35.77.96.77,1.84v8.65l3.69-1.67v-7.77c0-2.88-2.04-4.32-6.13-4.32h-5.71c-1.99,0-3.46.33-4.41.98-1.21.79-1.81,1.9-1.81,3.34v7.4l3.75,1.63v-8.24Z" fill="#004da0" stroke-width="0"/><path d="M113.54,28.96c0,.26-.2.54-.45.63l-13.7,4.84c-.25.09-.45-.06-.45-.32v-15.42c0-.26.2-.53.45-.61l13.68-4.01c.25-.07.45.08.45.34v14.54Z" fill="#de9e53" stroke-width="0"/><path d="M87.95,12.68c-.23-.12-.42,0-.42.26v14.22c0,.26.18.58.4.72l10.62,6.48c.22.14.4.03.4-.23v-15.42c0-.26-.19-.57-.42-.69l-10.58-5.34Z" fill="#d9b16f" stroke-width="0"/><path d="M144.82,8.74c-.1-.11-.24-.16-.4-.16h-2.73v6.28h-7.92c-1.55,0-2.77.34-3.67,1.03-.9.69-1.35,1.61-1.35,2.76v6.79c0,2.58,1.68,3.87,5.05,3.87h5.84c1.48,0,2.75-.31,3.79-.92,1.04-.62,1.56-1.63,1.56-3.05V9.17c0-.14-.07-.3-.19-.42ZM141.69,24.98c0,1.23-.97,1.85-2.9,1.85h-4.02c-.99,0-1.72-.18-2.19-.55-.34-.28-.51-.77-.51-1.47v-5.47c0-1.34.9-2.02,2.7-2.02h6.11c.54,0,.81.2.81.58v7.07Z" fill="#004da0" stroke-width="0"/><path d="M99.04,33.67s-.06,0-.09,0v.84s.06,0,.09,0c.33,0,.6-.19.6-.43s-.27-.43-.6-.43Z" fill="#de9e53" stroke-width="0"/><path d="M98.57,33.83v.52c.09.08.22.14.38.16v-.84c-.15.02-.28.08-.38.16Z" fill="#d9b16f" stroke-width="0"/></svg>
