<?xml version="1.0" encoding="UTF-8"?><svg id="a" xmlns="http://localhost/2000/svg" viewBox="0 0 689.34 221.6"><path d="M166.33,37.43c1.79-.49,4.64-.24,6.32.55l73.53,34.52c1.68.79,1.62,1.94-.13,2.56l-97.08,34.26c-1.75.62-4.51.37-6.13-.54l-74.43-42.21c-1.62-.92-1.47-2.07.32-2.56l97.59-26.58Z" fill="#cf9041" stroke-width="0"/><path d="M172.61,37.96c-1.66-.78-3.02.09-3.02,1.92v107.02c0,1.83,1.39,3.9,3.09,4.6l73.52,30.06c1.7.69,3.09-.24,3.09-2.07v-102.32c0-1.83-1.36-3.97-3.02-4.75l-73.65-34.46Z" fill="#b5803a" stroke-width="0"/><path d="M337.76,82.41c-.69-.75-1.67-1.15-2.82-1.15h-22.94c-25.21,0-37.82,8.98-37.82,26.94v61.65c.11,3.16,1.15,5.86,3.56,8.45,2.41,2.24,4.25,3.28,8.27,3.56h12.32v-69.01c0-7.08,3.09-11.55,9.29-13.4,2.92-.71,13.4-1.07,31.45-1.07v-12.98c0-.98-.46-2.13-1.32-2.99Z" fill="#004da0" stroke-width="0"/><path d="M603.17,121.48v-12.48c0-17.96-11.59-26.94-34.77-26.94h-41.01c-24.86,0-37.29,8.45-37.29,25.35v47.24c0,9.83,3.8,17,11.42,21.5,6.01,3.81,15.35,5.71,28,5.71h73.37v-12.98c0-.98-.46-2.13-1.32-2.99-.69-.75-1.67-1.15-2.82-1.15h-64.85c-6.73,0-11.46-.71-14.2-2.12-3.98-2.39-5.97-6.19-5.97-11.42v-3.32l89.45-26.41ZM513.46,131.3v-19.52c0-8.58,7.16-12.87,21.5-12.87h25.75c12.38,0,18.58,3.8,18.58,11.41v1.46l-65.83,19.52Z" fill="#004da0" stroke-width="0"/><path d="M684.85,82.41c-.69-.75-1.67-1.15-2.82-1.15h-22.94c-25.21,0-37.82,8.98-37.82,26.94v61.65c.11,3.16,1.15,5.86,3.56,8.45,2.41,2.24,4.25,3.28,8.27,3.56h12.32v-69.01c0-7.08,3.09-11.55,9.29-13.4,2.92-.71,13.4-1.07,31.45-1.07v-12.98c0-.98-.46-2.13-1.32-2.99Z" fill="#004da0" stroke-width="0"/><path d="M38.22,82.66c-.76-.82-1.83-1.26-3.1-1.26H13.44v87.25c.13,3.48,1.26,6.45,3.92,9.29,2.66,2.47,4.68,3.6,9.1,3.92h13.21v-95.91c0-1.07-.51-2.34-1.45-3.29Z" fill="#004da0" fill-rule="evenodd" stroke-width="0"/><path d="M26.56,36.17c-8.42,0-15.3,6.88-15.3,15.5s6.88,15.37,15.3,15.37,15.37-6.88,15.37-15.37-6.88-15.5-15.37-15.5h0Z" fill="#e50012" fill-rule="evenodd" stroke-width="0"/><path d="M119.31,38.42c0-6.19,1.81-10.5,5.44-12.94,3.63-2.44,9.69-3.65,18.19-3.65h27.74c8.31,0,14.28,1.22,17.91,3.65,3.63,2.44,5.45,6.75,5.45,12.94v60.9l26.01-11.77v-54.7c0-20.26-14.38-30.39-43.13-30.39h-40.21c-13.99,0-24.34,2.3-31.06,6.9-8.49,5.58-12.74,13.4-12.74,23.49v52.11l26.41,11.47v-58.01Z" fill="#004da0" stroke-width="0"/><path d="M249.29,179.49c0,1.83-1.41,3.84-3.14,4.45l-96.44,34.1c-1.73.61-3.14-.39-3.14-2.22v-108.55c0-1.83,1.44-3.76,3.2-4.27l96.33-28.21c1.76-.52,3.2.56,3.2,2.4v102.32Z" fill="#de9e53" stroke-width="0"/><path d="M69.11,64.82c-1.64-.83-2.98,0-2.98,1.83v100.1c0,1.83,1.28,4.12,2.85,5.07l74.73,45.58c1.57.96,2.85.24,2.85-1.6v-108.55c0-1.83-1.34-4.01-2.98-4.84l-74.47-37.6Z" fill="#d9b16f" stroke-width="0"/><path d="M469.47,37.15c-.69-.75-1.67-1.15-2.82-1.15h-19.22v44.2h-55.74c-10.89,0-19.49,2.41-25.82,7.23-6.33,4.82-9.49,11.3-9.49,19.44v47.77c0,18.15,11.86,27.21,35.57,27.21h41.14c10.44,0,19.33-2.16,26.68-6.5,7.34-4.34,11.01-11.5,11.01-21.5V40.14c0-.98-.46-2.13-1.32-2.99ZM447.44,151.47c0,8.67-6.82,13-20.44,13h-28.27c-6.99,0-12.12-1.28-15.4-3.84-2.39-1.95-3.58-5.4-3.58-10.35v-38.49c0-9.46,6.32-14.2,18.97-14.2h43c3.81,0,5.71,1.37,5.71,4.12v49.77Z" fill="#004da0" stroke-width="0"/><path d="M147.22,212.59c-.23,0-.44.02-.66.05v5.89c.22.02.43.05.66.05,2.32,0,4.2-1.34,4.2-2.99s-1.88-2.99-4.2-2.99Z" fill="#de9e53" stroke-width="0"/><path d="M143.92,213.75v3.66c.64.58,1.57.99,2.64,1.11v-5.89c-1.07.12-2,.53-2.64,1.11Z" fill="#d9b16f" stroke-width="0"/></svg>
