<?xml version="1.0" encoding="UTF-8"?><svg id="a" xmlns="http://localhost/2000/svg" viewBox="0 0 256.27 26.53"><rect x="149.29" y=".51" width=".57" height="25.51" rx=".2" ry=".2" transform="translate(299.15 26.53) rotate(-180)" fill="#9fa0a0" stroke-width="0"/><path d="M81.94,10.79c-.52-.09-.69.43-.6.86.26.52,1.03.26,1.55.35,1.38-.26,3.19.78,4.05-.52.17-.09.09-.43,0-.43-1.64-.17-3.37-.43-5-.26ZM4.57,3.55c-.26-.6-.86-.43-1.29-.6-.34.09-.17.52-.34.78-.17.95.43,1.73,1.12,2.5.6-.69.69-1.81.52-2.67ZM12.77,2.95c-.26-.52-.86-.17-1.38-.26-.77.95-1.38,2.07-1.81,3.02l1.21-.34c.95-.52,1.9-1.29,1.98-2.41ZM112.99,11.66c.78.09,1.21-.86,1.55-1.38.26-.43.09-.95-.35-1.29-.6-.69-1.9-.43-1.9-1.47.86-1.04,2.67-1.64,2.67-3.28,0-.43-.52-.6-.78-.78-.86-.34-2.16-.69-3.02,0-.17.43.34.78.69,1.29.77,1.64-1.9,1.98-1.64,3.54.95,1.12,1.98,2.16,2.76,3.36ZM120.5,7.52c1.38.78,1.64,2.5,2.76,3.62.61.09,1.21-.52,1.64-.95.26-.6.52-1.21.26-1.81-.43-.86-1.55-.86-2.42-1.03-.09-.09-.26-.17-.26-.35.52-.95,2.42-.86,2.42-2.24-.34-1.12-1.47-1.64-2.42-1.81-.86.26.43,1.12-.17,1.81-.34,1.21-2.67,1.38-1.81,2.76ZM117.74,9.85c.34.09.69-.09.95-.34.17-.52.52-.86.35-1.47-.52-.69-1.29-.78-1.9-1.21.69-.95,2.07-.69,2.85-1.72.26-.35.34-.86.34-1.29-.78-1.21-2.24-1.64-3.62-1.47-.69.52.78.95.52,1.73.09,1.21-1.03,2.07-1.98,2.76-.09.26-.17.78.17,1.04,1.03.43,1.38,1.55,2.33,1.98ZM128.95,12.78c-1.38-.09-2.93,0-4.4-.26-1.64-.26-3.28-.34-5.01-.6l.09-.69c-.43-.69-1.29-.95-2.16-.86-.52.09-1.12.17-1.55.43-.17.26.26.43.09.78-.34.86-1.38.6-2.24.69-1.73.26-3.8.17-5.35,1.12-.17.52-.52,1.03-.17,1.55.17.43.61.43.95.43,1.64-.43,3.19-.78,5-.95.26.34-.26.52-.26.95.34.69,1.73.69,1.73,1.64-.52.6-1.21,1.12-1.99.86.17-.78-.17-1.38-.43-1.98-.52-.26-1.04-.69-1.64-.34-1.47.34-.6,2.16-.69,3.28.09.95-.52,1.81-.09,2.68.52.78,1.29,1.38,2.33,1.21,1.29-.26,2.85-.43,4.31-.43.86-.09,1.64,0,2.5,0,1.29,0,2.5.86,3.8.43.43-.43,1.29-.69,1.21-1.47-.17-1.55.43-3.19-.09-4.74,0-.52-.6-.69-1.03-.78-1.73.35-1.64,2.42-1.99,3.88-.34.78-1.38.26-1.98.43-.78-.17-1.55-.26-2.42-.26h-1.21c-.78.17-1.9.52-2.68,0-.09-.17-.09-.52.09-.78.26,0,.34.17.52.17,1.04.6,1.9-.35,2.76-.95.17-.09.34-.09.52-.09,1.21-.09,1.73,1.9,3.11,1.29.52-.26,1.04-.78,1.12-1.38-.6-.69-1.55-.69-2.24-1.38.17-.43,1.04-.26,1.38-.69.43-.34-.26-.78,0-1.21,1.81-.17,3.28.78,5.09.95,1.55,0,2.5-1.47,3.19-2.67l-.17-.26ZM119.2,14.68c-.61.09-1.04,1.12-1.73.78,0,0-.09,0-.17-.09-.52-.17-1.03-.43-1.47-.78-.08-.26.26-.17.43-.26h1.21c.6,0,1.21.09,1.73.09v.26ZM70.64,9.5c-.17.34,0,.78.35.95l2.93-.35c.69.09,1.47.17,1.98-.52,0-.17.17-.52,0-.69-1.81-.26-3.79-.34-5.26.6ZM23.2,11.92c-.52-.17-1.04,0-1.38.34-.78,0-1.55-.09-2.42-.09-.52,0-1.04,0-1.55.09-.52-.26-1.03-.52-1.55-.69-.6.17-1.03.86-1.21,1.38-.17,2.59.09,5.43-1.55,7.5-.69,1.21-1.98.95-2.93,1.64-.17.17-.17.52,0,.78.43.95,1.55,1.03,2.41.95,1.98-.26,3.45-2.24,4.05-3.88.6-.43,1.55-.52,2.33-.34.09.09.17.09.17.09.69.43,1.29-.52,1.81,0,.26,1.73-.17,3.36.6,4.83.52.52,1.12.17,1.81.17.35-.17.69-.52.78-.86l-.26-7.16c0-1.38.17-2.76.26-3.88-.17-.6-.95-.69-1.38-.86ZM21.22,18.04c-.6-.17-1.21-.17-1.81-.17-.6-.09-1.21-.09-1.81-.17-.26-.17-.35-.52-.26-.86l.43-.17c.52-.09,1.12,0,1.64,0,.78.09,1.38.09,1.81-.43.34,0,.26.26.34.52-.09.43.09,1.12-.34,1.29ZM21.31,15.11c-.52-.26-1.21-.26-1.9-.26h-1.64c-.17-.09-.17-.52-.09-.78.43-.52,1.04-.26,1.55-.43h.17c.69.09,1.55-.09,2.16.26,0,.43.09.95-.26,1.21ZM71.25,11.22c-.34.09-.78.35-.6.69.09.34.43.52.69.52,1.38-.6,2.59.26,3.97-.43.34-.26.6-.43.78-.95-1.64-.43-3.28-.09-4.83.17ZM86.94,8.9c-1.55-.34-3.37-.6-5-.26-.35,0-.69.34-.52.69.17.78,1.12.43,1.72.52,1.21-.09,2.59.26,3.71,0,.09-.26.43-.6.09-.95ZM90.91,21.32c-2.76.6-5.69.17-8.45-.34-.78-.17-1.55-.34-2.24-.52-.26-.09-.52-.35-.43-.6.52-.78,1.55-.26,2.33-.26.09,0,.26,0,.34.09,1.38.09,2.5.78,3.8.69.69-.26,1.29-.78,1.38-1.47.35-1.47-.17-3.1.52-4.57.09-.34.09-1.04-.34-1.21-.78-.6-1.55.09-2.33.09-.95-.26-1.98-.17-3.02-.43-.86-.26-1.81.17-2.5-.26,0-.17,0-.34.17-.52.17-1.21-.09-2.59.17-3.71.26-.52.69-.6,1.12-.69.34.09.69.09,1.03.09,1.99.09,3.97-.09,5.69.78.09,1.03,0,2.24.09,3.28.35.43.69,1.12,1.3.95,1.55-1.21.52-3.28.86-5,0-.34.35-.69.09-1.04-.52-1.29-1.55-.17-2.42-.17-1.81-.43-3.71-.6-5.61-.69-.52,0-1.12-.09-1.64-.09-.17-.09-.26-.26-.26-.34.43-.78,1.21-.78,1.9-.69.6,0,1.12.17,1.64.17,1.9-.17,3.88,1.29,5.35-.17.43-.52,1.38-1.12,1.03-1.98h-.43c-2.5-.35-5-.6-7.59-.78-2.5-.17-5.18-.17-7.76,0-2.33.17-4.75.43-6.99.78-.43.26-.78.6-.6,1.21.17.43.6.69.95.95,1.81.34,3.62,0,5.35-.17.43,0,.86-.09,1.3-.09.78-.09,1.55,0,2.16.52.09.26.09.52-.17.69-.69-.09-1.29-.09-1.98,0-1.73,0-3.45.35-5.18.52-.52-.09-1.3-.52-1.81,0-.78,1.29-.17,2.93-.43,4.23,0,.86,0,1.64.43,2.16.35.26.78.26,1.04.09.6-.6.6-1.12.6-1.9.26-.78,0-1.64.6-2.24,1.55-.43,3.11-.6,4.75-.69h1.9l.35.35v3.1c-.17.52.6.95.09,1.29-.78,0-1.55.09-2.33.17-.69.09-1.47.26-2.16.35-.86.09-1.64-.69-2.5-.17-.43.09-.69.6-.69,1.12.52,1.03.78,2.16.6,3.45-.26.6-.52,1.47-.09,2.24.52.35.86,1.03,1.64.86,1.04-.43,2.16-.52,3.19-.78.26,0,.52-.09.69-.09.69-.09,1.29-.26,1.81.09,0,.95.09,1.98,1.04,2.59,1.47.69,2.85,1.38,4.23,2.16.69.26,1.29.6,1.9.95,1.29.43,2.59,1.21,3.97.78,2.24-.6,3.37-2.76,4.66-4.57,0-.17.35-.52.17-.78-.78-.34-1.47.17-2.24.26ZM79.87,17.09l.17-.26c.86-.17,1.72,0,2.41.09,1.21.17,1.99.26,2.07-1.29-.61-.52-1.3-.6-2.07-.6-.69,0-1.47.09-2.24,0-.08-.09,0-.34,0-.43.61-.43,1.55-.09,2.24-.17.78.26,1.73,0,2.42.34.52.78.17,1.81.17,2.67-.78.43-1.64.17-2.59.09-.26,0-.52-.09-.69-.09-.69,0-1.29.17-1.81,0-.17,0-.17-.26-.09-.35ZM77.03,17.44c-.78.17-1.55.17-2.33.26-.43,0-.78.09-1.21.17-.34,0-.86.09-1.03-.17-.09-.78-.26-1.9.26-2.5.69-.17,1.3-.34,1.99-.43.6,0,1.21-.09,1.81-.09l.26.34c0,.17-.09.26-.17.35h-1.9c-.43.09-.86.17-1.21.43-.34.17-.34.43-.43.69,0,.34.34.52.69.69.34,0,.69,0,.95-.09.78,0,1.55-.17,2.33-.17,0,.17.17.43,0,.52ZM31.31,8.9c-2.93.26-5.61.26-8.45-.26-.69,0-1.46,0-1.98-.43.17-.26.43-.43.86-.43,1.12-.17,2.33.69,3.02-.09.17-.34.43-.78.26-1.21-1.04-.52-2.42-.43-3.71-.52-.17-.09-.26-.34-.17-.6.09-.26.52,0,.86-.09,1.29-.17,2.24.6,3.45.09.26-.43.86-.95.6-1.47-1.38-.35-2.76-.52-4.31-.6-.52-.09-.26-.86-.34-1.29-.43-1.21-1.64-.6-2.42-.35-.78.17-.52,1.12-.86,1.55-1.47.26-3.28,0-4.23,1.21,0,.43-.26.86.09,1.12.69.52,1.55-.09,2.33-.17.6,0,1.12-.34,1.81,0,.17.17,0,.34-.17.43-1.29.43-3.1,0-3.45,1.55,0,.26.17.52.43.69.43.26.86.09,1.29,0,.52-.09,1.21-.34,1.73.09-.09.86-1.47.52-2.33.78-1.12.09-2.24.6-3.45.43,0-.6.86-1.12.52-1.81-1.29-.34-2.67.35-3.8-.52-.26-1.55,0-3.02-.09-4.57-.17-.52-.77-.78-1.29-.78-.26,0-.69.17-.86.43-.69,1.38-.52,3.19-.78,4.74l-.17.26c-1.81.26-3.71.17-5,1.29-.26.52-.09,1.12.35,1.47.78.78,1.73.09,2.67,0,.69,0,1.47-.26,1.98.17.17.78-.09,1.64-.69,2.24-1.03,1.55-2.59,2.5-4.49,2.33-.52,0-.52.6-.52.95.34.78.78,1.47,1.55,1.64,1.55.34,2.67-.69,3.62-1.81.17-.09.52-.17.69.09,0,2.67-.26,5,.17,7.42.43.52.34,1.29,1.03,1.29.43-.17.78-.35,1.03-.78,0-2.42.52-4.92.17-7.16.09-.78,0-1.55.43-2.16.77,0,1.12,1.12,1.98.69.86-.17,1.38-1.12,1.47-1.81-.26-.52-.95-.26-1.38-.52-1.03-.43-2.16-1.29-2.07-2.5.43-.6,1.29-.09,1.9-.09.95.17,0,1.12.52,1.64,1.12,1.47,2.59-.17,3.88-.26,3.28-.17,6.99-.86,9.92.52.78.52,1.64,1.12,2.5,1.29,1.72-.43,3.19-1.9,4.14-3.36l.09-.34c.09-.17-.17-.35-.35-.43ZM108.25,3.89c-.43-.17-.77-.69-1.46-.6-.95.43-1.9.34-2.94.26-.69-.17-1.29-.26-1.98-.26-.6,0-1.21.34-1.47.95-.6,2.59.34,5.18.34,7.85-.17,2.07-.34,4.14-1.9,5.43-.86.6-1.98.43-2.76.95-.09.52-.09.95.26,1.29,1.12.86,2.93.86,4.23.26,1.47-.69,2.07-2.33,2.33-3.79.34-.17.6-.35.95-.43.26-.09.52-.09.69.17l.17,5.09c.17.86,0,1.98.6,2.76.35.09.69.26,1.04.17,1.73-.43,1.12-2.42,1.29-3.62-.17-4.66-.09-9.23.17-13.8.17-.86.86-1.64.43-2.67ZM104.54,13.73c-.08.26-.43.26-.69.26-.17,0-.34-.09-.52-.09-.43-.52-.09-1.47-.43-2.07.26-.35.17-1.04.78-.95h.17l.69.09c.17.86.09,1.9,0,2.76ZM104.2,8.81c-.09,0-.17.09-.35.09-.43,0-.78-.09-.95-.34,0-.86-.26-1.98.17-2.85.26.09.52.09.78.09.43-.09.86-.09,1.04.35-.35.86.43,2.33-.69,2.67ZM61.24,20.02c-.35-.09-.69.17-1.47.26-.86.09-2.07-.09-2.41-.17-.95-.09-2.42-.26-3.02-.78-.43-.17-.35-.35.17-.17.43,0,1.21,0,1.73-.26.69-.26,1.03-.86,1.03-1.29.17-.69-.43-.86-1.03-.78-.78.43-2.33.52-3.54.43-.69-.09-2.24-.34-3.02-.6-.69-.26-1.29-.69-1.73-1.21-.17-.17-.26-.43.26-.43.6,0,1.55.17,2.24.26,1.03.34,1.73.43,2.85.6.26,0,.95-.26,1.21-.6.95-.52,1.9-1.73,1.64-2.07-2.5-.35-5.78-.69-8.88-.69h-.17c-2.41.09-4.74.35-6.73.52-.34.09-.95.17-1.03.6-.09.35-.09.69,0,.95.26.17.95.35,1.12.35.69-.09,1.21-.17,1.73-.26.26-.09.34.09.09.34-.52.43-1.46.95-2.07,1.12-1.21.43-1.81.17-2.85,0-.52-.09-.77.43-.77.86.09.43.34.78.77,1.03.78.35,1.29.35,2.07.35.95-.26,2.07-.52,2.59-.78.6-.35,1.21-.69,2.07-1.21.26-.17.69-.26.52.35-.86.78-2.33,1.73-3.45,2.07-1.38.43-2.76.69-3.97.43-.78-.09-1.29-.26-2.33-.35-.43-.09-.6.17-.6.52-.09.43.34,1.29,1.12,1.64.95.43,1.98.52,3.19.52,2.24-.26,2.93-.69,4.92-1.55,1.03-.6,1.64-1.12,2.59-1.98.26-.17.52,0,.34.52-.26.43-1.38,1.55-1.98,1.9-.69.43-2.16.95-2.93,1.29-1.12.6-2.24.6-3.28.6-.34.09-.43.52-.34.86.09.34.43.69.78.86.78.34,2.16.34,3.19-.09,1.12-.43,2.59-1.12,3.8-1.9.69-.43,1.12-.86,1.47-1.29.26-.34.52-.6.69-.78.17,0,.34,0,.43.35.09.52-.17,1.21-.6,1.72-.09.09-.26.26-.52.34-.43.17-1.03.26-1.64.35-.43.09-.69.6-.34,1.03.52.6,1.29.86,1.98.78.17,0,.34-.09.52-.09.86-.26,1.72-.6,2.41-1.38.52-.69,1.04-1.55.95-2.59-.09-.26,0-.26.09-.17.43.34.95.95,1.64,1.38.26.17.95.69,1.64,1.04.69.52,1.47.95,1.9,1.03.43.17.95.26,1.72,0,.86-.26,1.47-.86,1.81-1.38.78-.86,1.21-1.55,1.55-1.9.17-.35.17-.43-.09-.52ZM36.14,14.42c.09.34.6.78.95.78.69.09.86-.52,1.03-1.03.09-.35.09-.52.17-.86.09-.6.26-.95.86-.95,1.81-.09,3.02-.26,4.92-.34,1.38-.09,2.33-.09,3.02-.09,1.38-.09,2.07,0,3.28.09,1.21,0,4.83.34,5.61.43.69-.09.78.35.86.6,0,.43,0,.6.17,1.12.09.34.78.95,1.21.78.43-.17.6-.6.69-.95l.09-1.9c0-.17.09-.34.26-1.12-.17-.78-.86-1.29-1.21-1.12-.26,0-.86.26-1.29.69-.26.17-.69.09-1.12.17-1.29,0-2.33-.09-3.71-.17-1.98-.17-3.54-.17-4.83-.26-2.76,0-3.97.09-5.09.17-.86.09-3.28.17-3.97.09-.43-.26-.69-.35-1.12-.43-.52.26-1.04.78-1.12,1.29-.09.26.26.35.26.69,0,.86-.17,1.9.09,2.33ZM43.3,9.93c.52-.09.86-.26,1.46-.52.86-.09,1.64,0,2.33,0,.78,0,1.55.09,2.5,0,.26.34.86.26,1.29.52.26-.09.78.17,1.38-.43.09-.17.17-1.64.34-2.07.43-.43.26-1.12-.17-1.73-.35-.6-1.29-.09-1.9.26-1.12-.09-2.33-.17-3.45-.09-.78,0-1.47.09-2.24.26-.26-.17-.43-.43-.69-.6-.6-.09-2.16.17-2.33.78.09.43.26.86.6,1.21-.09.6-.09,1.12-.17,1.64,0,.6.43.86,1.04.78ZM44.59,7.26c.86,0,1.72.09,2.5.09s1.47-.09,2.24-.17c.52.17.43.34.35.86-.35.35-.6.17-.95.26-.6,0-1.12,0-1.64-.09h-1.55c-.34.09-.95.17-1.03-.17,0-.34,0-.52.09-.78ZM38.12,5.36c.86,0,1.81-.17,3.11-.34,1.98-.17,3.02-.26,4.66-.26.43,0,.86.09,1.21.09,2.16.09,4.05.17,6.73.26,1.29-.09,1.98.17,2.93,0,1.03-.26,1.38-.78,1.9-1.47.43-1.12.17-.86-1.21-.86-1.55,0-3.1.17-4.66.17-1.21-.09-2.33-.17-3.45-.26-.17,0-.34-.09-.34-.26-.09-.43,0-.26,0-.69-.09-.52-.69-.52-1.21-.52h-.69c-.34,0-.69.09-1.03.52-.09.26-.09.43-.26.69-.09.17-.69.17-1.12.17-1.81,0-3.71.09-5.52.35-2.16.17-2.59.69-2.59,1.38.09.6.43.95,1.55,1.03Z" fill="#004ea2" stroke-width="0"/><path d="M192.32,4.28c.22-.06.57-.03.77.07l8.99,4.22c.21.1.2.24-.02.31l-11.87,4.19c-.21.08-.55.05-.75-.07l-9.1-5.16c-.2-.11-.18-.25.04-.31l11.94-3.25Z" fill="#cf9041" stroke-width="0"/><path d="M193.08,4.34c-.2-.1-.37.01-.37.24v13.09c0,.22.17.48.38.56l8.99,3.68c.21.08.38-.03.38-.25v-12.52c0-.22-.17-.49-.37-.58l-9.01-4.22Z" fill="#b5803a" stroke-width="0"/><path d="M213.28,9.78c-.08-.09-.2-.14-.34-.14h-2.81c-3.08,0-4.63,1.1-4.63,3.3v7.54c.01.39.14.72.44,1.03.3.27.52.4,1.01.44h1.51v-8.44c0-.87.38-1.41,1.14-1.64.36-.09,1.64-.13,3.85-.13v-1.59c0-.12-.06-.26-.16-.37Z" fill="#004da0" stroke-width="0"/><path d="M245.75,14.56v-1.53c0-2.2-1.42-3.3-4.25-3.3h-5.02c-3.04,0-4.56,1.03-4.56,3.1v5.78c0,1.2.47,2.08,1.4,2.63.74.47,1.88.7,3.43.7h8.97v-1.59c0-.12-.06-.26-.16-.37-.08-.09-.2-.14-.34-.14h-7.93c-.82,0-1.4-.09-1.74-.26-.49-.29-.73-.76-.73-1.4v-.41l10.94-3.23ZM234.78,15.76v-2.39c0-1.05.88-1.57,2.63-1.57h3.15c1.51,0,2.27.47,2.27,1.4v.18l-8.05,2.39Z" fill="#004da0" stroke-width="0"/><path d="M255.74,9.78c-.08-.09-.2-.14-.34-.14h-2.81c-3.08,0-4.63,1.1-4.63,3.3v7.54c.01.39.14.72.44,1.03.3.27.52.4,1.01.44h1.51v-8.44c0-.87.38-1.41,1.14-1.64.36-.09,1.64-.13,3.85-.13v-1.59c0-.12-.06-.26-.16-.37Z" fill="#004da0" stroke-width="0"/><path d="M176.64,9.81c-.09-.1-.22-.15-.38-.15h-2.65v10.67c.02.43.15.79.48,1.14.32.3.57.44,1.11.48h1.62v-11.73c0-.13-.06-.29-.18-.4Z" fill="#004da0" fill-rule="evenodd" stroke-width="0"/><path d="M175.22,4.12c-1.03,0-1.87.84-1.87,1.9s.84,1.88,1.87,1.88,1.88-.84,1.88-1.88-.84-1.9-1.88-1.9h0Z" fill="#e50012" fill-rule="evenodd" stroke-width="0"/><path d="M186.56,4.4c0-.76.22-1.28.67-1.58.44-.3,1.19-.45,2.22-.45h3.39c1.02,0,1.75.15,2.19.45.44.3.67.83.67,1.58v7.45l3.18-1.44V3.72c0-2.48-1.76-3.72-5.28-3.72h-4.92c-1.71,0-2.98.28-3.8.84-1.04.68-1.56,1.64-1.56,2.87v6.37l3.23,1.4v-7.1Z" fill="#004da0" stroke-width="0"/><path d="M202.46,21.65c0,.22-.17.47-.38.54l-11.8,4.17c-.21.07-.38-.05-.38-.27v-13.28c0-.22.18-.46.39-.52l11.78-3.45c.22-.06.39.07.39.29v12.52Z" fill="#de9e53" stroke-width="0"/><path d="M180.42,7.63c-.2-.1-.36,0-.36.22v12.24c0,.22.16.5.35.62l9.14,5.58c.19.12.35.03.35-.2v-13.28c0-.22-.16-.49-.36-.59l-9.11-4.6Z" fill="#d9b16f" stroke-width="0"/><path d="M229.4,4.24c-.08-.09-.2-.14-.34-.14h-2.35v5.41h-6.82c-1.33,0-2.38.3-3.16.88-.77.59-1.16,1.38-1.16,2.38v5.84c0,2.22,1.45,3.33,4.35,3.33h5.03c1.28,0,2.36-.26,3.26-.8.9-.53,1.35-1.41,1.35-2.63V4.61c0-.12-.06-.26-.16-.37ZM226.7,18.23c0,1.06-.83,1.59-2.5,1.59h-3.46c-.85,0-1.48-.16-1.88-.47-.29-.24-.44-.66-.44-1.27v-4.71c0-1.16.77-1.74,2.32-1.74h5.26c.47,0,.7.17.7.5v6.09Z" fill="#004da0" stroke-width="0"/><path d="M189.98,25.7s-.05,0-.08,0v.72s.05,0,.08,0c.28,0,.51-.16.51-.37s-.23-.37-.51-.37Z" fill="#de9e53" stroke-width="0"/><path d="M189.57,25.85v.45c.08.07.19.12.32.14v-.72c-.13.01-.24.06-.32.14Z" fill="#d9b16f" stroke-width="0"/></svg>
