<svg width="12" height="13" viewBox="0 0 12 13" fill="none" xmlns="http://localhost/2000/svg">
<path d="M6 12.125C5.81933 12.125 5.663 12.059 5.531 11.927C5.399 11.795 5.333 11.6387 5.333 11.458V7.167H1.042C0.861333 7.167 0.705 7.101 0.573 6.969C0.441 6.837 0.375 6.68067 0.375 6.5C0.375 6.31933 0.441 6.163 0.573 6.031C0.705 5.899 0.861333 5.833 1.042 5.833H5.333V1.542C5.333 1.36133 5.399 1.205 5.531 1.073C5.663 0.941 5.81933 0.875 6 0.875C6.18067 0.875 6.337 0.941 6.469 1.073C6.601 1.205 6.667 1.36133 6.667 1.542V5.833H10.958C11.1387 5.833 11.295 5.899 11.427 6.031C11.559 6.163 11.625 6.31933 11.625 6.5C11.625 6.68067 11.559 6.837 11.427 6.969C11.295 7.101 11.1387 7.167 10.958 7.167H6.667V11.458C6.667 11.6387 6.601 11.795 6.469 11.927C6.337 12.059 6.18067 12.125 6 12.125Z" fill="#5C5C5C"/>
</svg>
