<?xml version="1.0" standalone="no"?>
<!DOCTYPE svg PUBLIC "-//W3C//DTD SVG 20010904//EN"
 "http://localhost/TR/2001/REC-SVG-20010904/DTD/svg10.dtd">
<svg version="1.0" xmlns="http://localhost/2000/svg"
 width="48.000000pt" height="48.000000pt" viewBox="0 0 48.000000 48.000000"
 preserveAspectRatio="xMidYMid meet">

<g transform="translate(0.000000,48.000000) scale(0.100000,-0.100000)"
fill="#000000" stroke="none">
<path d="M180 471 c-112 -36 -174 -119 -174 -231 0 -137 96 -234 234 -234 138
0 234 97 234 234 0 95 -44 169 -128 212 -43 22 -128 32 -166 19z m-10 -119 c0
-14 -49 -56 -57 -49 -3 4 4 18 17 32 24 25 40 32 40 17z m180 -17 c13 -14 20
-28 17 -32 -8 -7 -57 35 -57 49 0 15 16 8 40 -17z m-45 -17 c39 -31 56 -77 45
-120 -30 -105 -173 -115 -215 -14 -43 101 84 202 170 134z"/>
<path d="M254 239 c-13 -14 -25 -18 -44 -14 l-25 6 22 -22 23 -23 30 29 c16
16 30 32 30 37 0 14 -16 9 -36 -13z"/>
</g>
</svg>
