<svg width="20" height="20" viewBox="0 0 20 20" xmlns="http://localhost/2000/svg">
<path d="M4.96842 14.4632C5.68421 13.9298 6.46316 13.5088 7.30526 13.2C8.14737 12.8912 9.04561 12.7368 10 12.7368C10.9544 12.7368 11.8526 12.8912 12.6947 13.2C13.5368 13.5088 14.3158 13.9298 15.0316 14.4632C15.5509 13.8877 15.9649 13.2211 16.2737 12.4632C16.5825 11.7053 16.7368 10.8842 16.7368 10C16.7368 8.13333 16.0808 6.54372 14.7688 5.23116C13.4563 3.91916 11.8667 3.26316 10 3.26316C8.13333 3.26316 6.544 3.91916 5.232 5.23116C3.91944 6.54372 3.26316 8.13333 3.26316 10C3.26316 10.8842 3.41754 11.7053 3.72632 12.4632C4.03509 13.2211 4.44912 13.8877 4.96842 14.4632ZM10 11.4316C9.22807 11.4316 8.57909 11.1683 8.05305 10.6417C7.52646 10.1157 7.26316 9.46667 7.26316 8.69474C7.26316 7.92281 7.52646 7.27383 8.05305 6.74779C8.57909 6.22119 9.22807 5.9579 10 5.9579C10.7719 5.9579 11.4209 6.22119 11.9469 6.74779C12.4735 7.27383 12.7368 7.92281 12.7368 8.69474C12.7368 9.46667 12.4735 10.1157 11.9469 10.6417C11.4209 11.1683 10.7719 11.4316 10 11.4316ZM10 18C8.89123 18 7.84926 17.7895 6.87411 17.3684C5.89839 16.9474 5.05263 16.3789 4.33684 15.6632C3.62105 14.9474 3.05263 14.1016 2.63158 13.1259C2.21053 12.1507 2 11.1088 2 10C2 8.89123 2.21053 7.84898 2.63158 6.87326C3.05263 5.89811 3.62105 5.05263 4.33684 4.33684C5.05263 3.62105 5.89839 3.05263 6.87411 2.63158C7.84926 2.21053 8.89123 2 10 2C11.1088 2 12.151 2.21053 13.1267 2.63158C14.1019 3.05263 14.9474 3.62105 15.6632 4.33684C16.3789 5.05263 16.9474 5.89811 17.3684 6.87326C17.7895 7.84898 18 8.89123 18 10C18 11.1088 17.7895 12.1507 17.3684 13.1259C16.9474 14.1016 16.3789 14.9474 15.6632 15.6632C14.9474 16.3789 14.1019 16.9474 13.1267 17.3684C12.151 17.7895 11.1088 18 10 18ZM10 16.7368C10.7579 16.7368 11.4914 16.6139 12.2004 16.368C12.9089 16.1227 13.5368 15.7825 14.0842 15.3474C13.5368 14.9263 12.9157 14.5965 12.2206 14.3579C11.5262 14.1193 10.786 14 10 14C9.21404 14 8.47382 14.1159 7.77937 14.3478C7.08435 14.5791 6.46316 14.9123 5.91579 15.3474C6.46316 15.7825 7.09109 16.1227 7.79958 16.368C8.50863 16.6139 9.24211 16.7368 10 16.7368ZM10 10.1684C10.4211 10.1684 10.7719 10.0281 11.0526 9.74737C11.3333 9.46667 11.4737 9.11579 11.4737 8.69474C11.4737 8.27368 11.3333 7.92281 11.0526 7.64211C10.7719 7.3614 10.4211 7.22105 10 7.22105C9.57895 7.22105 9.22807 7.3614 8.94737 7.64211C8.66667 7.92281 8.52632 8.27368 8.52632 8.69474C8.52632 9.11579 8.66667 9.46667 8.94737 9.74737C9.22807 10.0281 9.57895 10.1684 10 10.1684Z" />
</svg>
