<svg width="24" height="24" viewBox="0 0 24 24" fill="none" xmlns="http://localhost/2000/svg">
<circle cx="12" cy="12" r="12" fill="#ED1C24"/>
<path d="M11.3166 13.2826L10.3166 12.2658C10.1945 12.1548 10.0668 12.0994 9.93345 12.0994C9.80012 12.0994 9.67238 12.1548 9.55025 12.2658C9.44998 12.366 9.39718 12.4911 9.39185 12.641C9.38598 12.7908 9.43318 12.9159 9.53345 13.0162L10.8662 14.3826C10.9996 14.5159 11.1497 14.5826 11.3166 14.5826C11.483 14.5826 11.6385 14.5159 11.783 14.3826L14.4831 11.6658C14.594 11.5548 14.6495 11.4271 14.6495 11.2826C14.6495 11.138 14.594 11.0047 14.4831 10.8826C14.3833 10.7828 14.2583 10.73 14.1079 10.7242C13.958 10.7188 13.8276 10.7716 13.7167 10.8826L11.3166 13.2826ZM11.9998 18.333C11.2222 18.333 10.4889 18.1828 9.79985 17.8826C9.11078 17.5828 8.51078 17.1746 7.99985 16.6578C7.48892 16.141 7.08332 15.541 6.78305 14.8578C6.48332 14.1746 6.33345 13.4439 6.33345 12.6658C6.33345 11.877 6.48332 11.141 6.78305 10.4578C7.08332 9.77456 7.48892 9.17723 7.99985 8.66576C8.51078 8.15483 9.11078 7.74923 9.79985 7.44896C10.4889 7.14923 11.2222 6.99936 11.9998 6.99936C12.7887 6.99936 13.5276 7.14923 14.2167 7.44896C14.9052 7.74923 15.5052 8.15483 16.0167 8.66576C16.5276 9.17723 16.9303 9.77456 17.2247 10.4578C17.519 11.141 17.6663 11.877 17.6663 12.6658C17.6663 13.4439 17.519 14.1746 17.2247 14.8578C16.9303 15.541 16.5276 16.141 16.0167 16.6578C15.5052 17.1746 14.9052 17.5828 14.2167 17.8826C13.5276 18.1828 12.7887 18.333 11.9998 18.333ZM6.38305 8.91616C6.27212 9.02709 6.14438 9.08256 5.99985 9.08256C5.85532 9.08256 5.73318 9.02709 5.63345 8.91616C5.52198 8.81589 5.46918 8.69643 5.47505 8.55776C5.48038 8.41909 5.53852 8.28843 5.64945 8.16576L7.49985 6.31616C7.61078 6.20523 7.73852 6.14976 7.88305 6.14976C8.02758 6.14976 8.15532 6.20523 8.26625 6.31616C8.36652 6.41589 8.41665 6.53536 8.41665 6.67456C8.41665 6.81323 8.36652 6.93803 8.26625 7.04896L6.38305 8.91616ZM17.6334 8.91616L15.7502 7.04896C15.65 6.93803 15.6025 6.81323 15.6079 6.67456C15.6137 6.53536 15.6665 6.41589 15.7662 6.31616C15.8889 6.20523 16.0223 6.14683 16.1663 6.14096C16.3108 6.13563 16.4332 6.19403 16.5335 6.31616L18.3998 8.16576C18.5001 8.25483 18.5473 8.37429 18.5414 8.52416C18.5361 8.67456 18.4833 8.79963 18.383 8.89936C18.2609 9.02149 18.1305 9.08549 17.9918 9.09136C17.8526 9.09669 17.7332 9.03829 17.6334 8.91616Z" fill="white"/>
</svg>
