<svg width="20" height="22" viewBox="0 0 20 22" fill="none" xmlns="http://localhost/2000/svg">
<path d="M15.25 7.5H13.5C13.5 6.57174 13.1313 5.6815 12.4749 5.02513C11.8185 4.36875 10.9283 4 10 4C9.07174 4 8.1815 4.36875 7.52513 5.02513C6.86875 5.6815 6.5 6.57174 6.5 7.5H4.75C4.28587 7.5 3.84075 7.68437 3.51256 8.01256C3.18437 8.34075 3 8.78587 3 9.25L3 15.0833C3.00093 15.8566 3.30851 16.5979 3.85529 17.1447C4.40208 17.6915 5.1434 17.9991 5.91667 18H14.0833C14.8566 17.9991 15.5979 17.6915 16.1447 17.1447C16.6915 16.5979 16.9991 15.8566 17 15.0833V9.25C17 8.78587 16.8156 8.34075 16.4874 8.01256C16.1592 7.68437 15.7141 7.5 15.25 7.5ZM10 5.16667C10.6188 5.16667 11.2123 5.4125 11.6499 5.85008C12.0875 6.28767 12.3333 6.88116 12.3333 7.5H7.66667C7.66667 6.88116 7.9125 6.28767 8.35008 5.85008C8.78767 5.4125 9.38116 5.16667 10 5.16667ZM15.8333 15.0833C15.8333 15.5475 15.649 15.9926 15.3208 16.3208C14.9926 16.649 14.5475 16.8333 14.0833 16.8333H5.91667C5.45254 16.8333 5.00742 16.649 4.67923 16.3208C4.35104 15.9926 4.16667 15.5475 4.16667 15.0833V9.25C4.16667 9.09529 4.22812 8.94692 4.33752 8.83752C4.44692 8.72813 4.59529 8.66667 4.75 8.66667H6.5V9.83333C6.5 9.98804 6.56146 10.1364 6.67085 10.2458C6.78025 10.3552 6.92862 10.4167 7.08333 10.4167C7.23804 10.4167 7.38642 10.3552 7.49581 10.2458C7.60521 10.1364 7.66667 9.98804 7.66667 9.83333V8.66667H12.3333V9.83333C12.3333 9.98804 12.3948 10.1364 12.5042 10.2458C12.6136 10.3552 12.762 10.4167 12.9167 10.4167C13.0714 10.4167 13.2197 10.3552 13.3291 10.2458C13.4385 10.1364 13.5 9.98804 13.5 9.83333V8.66667H15.25C15.4047 8.66667 15.5531 8.72813 15.6625 8.83752C15.7719 8.94692 15.8333 9.09529 15.8333 9.25V15.0833Z" fill="#858585"/>
</svg>
