<svg width="28" height="28" viewBox="0 0 28 28" fill="none" xmlns="http://localhost/2000/svg">
<rect width="28" height="28" rx="14" fill="#0972E3"/>
<path fill-rule="evenodd" clip-rule="evenodd" d="M14 21.8873C14.8547 21.5332 18.6036 19.2241 20.283 17.3208C21.4377 16.0666 22 14.7977 22 13.3887C22 9.86975 18.4086 7 14 7C9.58388 7 6 9.86975 6 13.3887C6 16.5462 8.84161 19.1946 12.6879 19.6889C12.9503 19.7479 13.3027 19.8585 13.3927 20.0798C13.4752 20.279 13.4452 20.5889 13.4152 20.7954C13.3552 21.1643 13.3177 21.3881 13.3027 21.4668C13.3014 21.4754 13.2999 21.4847 13.2984 21.4946C13.2635 21.714 13.1822 22.2261 14 21.8873ZM8.49976 15.1521C8.49976 15.2333 8.56723 15.2997 8.64971 15.2997H10.899C10.9815 15.2997 11.049 15.2333 11.049 15.1521V14.5915C11.049 14.5103 10.9815 14.4439 10.899 14.4439H9.36949V11.7143C9.36949 11.6332 9.30201 11.5668 9.21953 11.5668H8.64971C8.56723 11.5668 8.49976 11.6332 8.49976 11.7143V15.1521ZM16.9646 15.2997H19.2139C19.2964 15.2997 19.3639 15.2333 19.3639 15.1521V14.5915C19.3639 14.5103 19.2964 14.4439 19.2139 14.4439H17.6844V13.8611H19.2139C19.2964 13.8611 19.3639 13.7947 19.3639 13.7136V13.1529C19.3639 13.0718 19.2964 13.0054 19.2139 13.0054H17.6844V12.4226H19.2139C19.2964 12.4226 19.3639 12.3562 19.3639 12.275V11.7143C19.3639 11.6332 19.2964 11.5668 19.2139 11.5668H16.9646C16.8821 11.5668 16.8147 11.6332 16.8147 11.7143V15.1521C16.8147 15.2333 16.8821 15.2997 16.9646 15.2997ZM12.2484 11.5668H11.6787C11.5959 11.5668 11.5288 11.6329 11.5288 11.7143V15.1521C11.5288 15.2336 11.5959 15.2997 11.6787 15.2997H12.2484C12.3312 15.2997 12.3984 15.2336 12.3984 15.1521V11.7143C12.3984 11.6329 12.3312 11.5668 12.2484 11.5668ZM16.2673 15.1521V11.7143C16.2673 11.6332 16.1999 11.5668 16.1099 11.5668H15.5476C15.4651 11.5668 15.3901 11.6332 15.3901 11.7143V13.7505L13.7931 11.6332C13.7931 11.6283 13.7906 11.6234 13.7856 11.6184L13.7631 11.5963H13.7556C13.7556 11.5914 13.7531 11.5889 13.7481 11.5889V11.5815H13.7331L13.7256 11.5742H13.7181C13.7131 11.5742 13.7106 11.5717 13.7106 11.5668H13.1033C13.0209 11.5668 12.9459 11.6332 12.9459 11.7143V15.1521C12.9459 15.2333 13.0209 15.2997 13.1033 15.2997H13.6657C13.7556 15.2997 13.8231 15.2333 13.8231 15.1521V13.1086L15.4201 15.2333C15.4301 15.248 15.4426 15.2603 15.4576 15.2702H15.4651C15.4651 15.2751 15.4676 15.2776 15.4726 15.2776L15.4801 15.2849H15.4951V15.2923H15.5101C15.5201 15.2972 15.5326 15.2997 15.5476 15.2997H16.1099C16.1999 15.2997 16.2673 15.2333 16.2673 15.1521Z" fill="white"/>
</svg>
