<svg width="20" height="20" viewBox="0 0 20 20" xmlns="http://localhost/2000/svg">
<path fill-rule="evenodd" clip-rule="evenodd" d="M15.7744 6.66699C15.3701 3.84008 12.9389 1.66699 10.0002 1.66699C7.06144 1.66699 4.63026 3.84008 4.2259 6.66699H3.75016C2.13933 6.66699 0.833496 8.15938 0.833496 10.0003C0.833496 11.8413 2.13933 13.3337 3.75016 13.3337H5.41683V7.50033C5.41683 4.96902 7.46886 2.91699 10.0002 2.91699C12.5315 2.91699 14.5835 4.96902 14.5835 7.50033V13.3337C14.5835 14.4843 13.6508 15.417 12.5002 15.417H12.3268C12.0053 14.6812 11.2711 14.167 10.4168 14.167C9.26624 14.167 8.3335 15.0997 8.3335 16.2503C8.3335 17.4009 9.26624 18.3337 10.4168 18.3337C11.4247 18.3337 12.2655 17.6179 12.4585 16.667H12.5002C12.6413 16.667 12.7803 16.6582 12.9168 16.6412C14.2828 16.4709 15.3921 15.4741 15.7285 14.167C15.797 13.9006 15.8335 13.6214 15.8335 13.3337H16.2502C17.861 13.3337 19.1668 11.8413 19.1668 10.0003C19.1668 8.15938 17.861 6.66699 16.2502 6.66699H15.7744ZM15.8335 11.9051L16.2502 11.9051C17.1706 11.9051 17.9168 11.0523 17.9168 10.0003C17.9168 8.94835 17.1706 8.09556 16.2502 8.09556H15.8335V11.9051ZM3.75016 8.09556H4.16683V11.9051L3.75016 11.9051C2.82969 11.9051 2.0835 11.0523 2.0835 10.0003C2.0835 8.94835 2.82969 8.09556 3.75016 8.09556ZM11.2502 16.2503C11.2502 16.7106 10.8771 17.0837 10.4168 17.0837C9.95659 17.0837 9.5835 16.7106 9.5835 16.2503C9.5835 15.7901 9.95659 15.417 10.4168 15.417C10.8771 15.417 11.2502 15.7901 11.2502 16.2503Z" />
</svg>
