<svg width="20" height="20" viewBox="0 0 20 20" fill="none" xmlns="http://localhost/2000/svg">
<path fill-rule="evenodd" clip-rule="evenodd" d="M15.7744 6.66666C15.3701 3.83974 12.9389 1.66666 10.0002 1.66666C7.06144 1.66666 4.63026 3.83974 4.2259 6.66666H3.75016C2.13933 6.66666 0.833496 8.15904 0.833496 9.99999C0.833496 11.8409 2.13933 13.3333 3.75016 13.3333H5.41683V7.49999C5.41683 4.96868 7.46886 2.91666 10.0002 2.91666C12.5315 2.91666 14.5835 4.96868 14.5835 7.49999V13.3333C14.5835 14.4839 13.6508 15.4167 12.5002 15.4167H12.3268C12.0053 14.6809 11.2711 14.1667 10.4168 14.1667C9.26624 14.1667 8.3335 15.0994 8.3335 16.25C8.3335 17.4006 9.26624 18.3333 10.4168 18.3333C11.4247 18.3333 12.2655 17.6176 12.4585 16.6667H12.5002C12.6413 16.6667 12.7803 16.6579 12.9168 16.6409C14.2828 16.4705 15.3921 15.4737 15.7285 14.1667C15.797 13.9003 15.8335 13.6211 15.8335 13.3333H16.2502C17.861 13.3333 19.1668 11.8409 19.1668 9.99999C19.1668 8.15904 17.861 6.66666 16.2502 6.66666H15.7744ZM15.8335 11.9048L16.2502 11.9048C17.1706 11.9048 17.9168 11.052 17.9168 9.99999C17.9168 8.94802 17.1706 8.09523 16.2502 8.09523H15.8335V11.9048ZM3.75016 8.09523H4.16683V11.9048L3.75016 11.9048C2.82969 11.9048 2.0835 11.052 2.0835 9.99999C2.0835 8.94802 2.82969 8.09523 3.75016 8.09523ZM11.2502 16.25C11.2502 16.7102 10.8771 17.0833 10.4168 17.0833C9.95659 17.0833 9.5835 16.7102 9.5835 16.25C9.5835 15.7898 9.95659 15.4167 10.4168 15.4167C10.8771 15.4167 11.2502 15.7898 11.2502 16.25Z" fill="#0972E3"/>
</svg>
