<svg width="24" height="24" viewBox="0 0 24 24" xmlns="http://localhost/2000/svg">
<path fill-rule="evenodd" clip-rule="evenodd" d="M3.24083 2.62589C2.86803 2.62589 2.56583 2.92809 2.56583 3.30088C2.56583 3.67368 2.86804 3.97589 3.24083 3.97589H4.88681L8.09761 11.546L6.51134 14.2195C6.20568 14.727 6.19852 15.348 6.49739 15.863C6.78917 16.376 7.31935 16.6899 7.91701 16.6899H18.3857C18.7584 16.6899 19.0607 16.3877 19.0607 16.0149C19.0607 15.6421 18.7584 15.3399 18.3857 15.3399H7.91701C7.77273 15.3399 7.70511 15.2537 7.66796 15.1946C7.63776 15.1367 7.59862 15.0294 7.66758 14.9096L9.15565 12.3999H16.7768C17.5626 12.3999 18.2752 11.9693 18.6442 11.2784L21.2738 6.32744C21.4436 6.00399 21.4794 5.63636 21.3838 5.29589H21.4458L21.2441 4.95605C20.9935 4.53374 20.5418 4.27589 20.0482 4.27589H6.4811L5.7788 2.62589H3.24083ZM9.35654 11.0499L7.05631 5.62589H20.0482C20.0569 5.62589 20.0627 5.62724 20.0664 5.6285C20.0703 5.62981 20.0735 5.63156 20.0763 5.6336C20.0793 5.63572 20.0819 5.6382 20.084 5.64063C20.0851 5.64197 20.0859 5.64308 20.0864 5.64378C20.0868 5.6443 20.0864 5.64378 20.0864 5.64378C20.0921 5.65377 20.0955 5.66206 20.0964 5.66798C20.0967 5.67047 20.0967 5.67265 20.0963 5.67498C20.096 5.67719 20.0949 5.6816 20.0911 5.68842L20.0907 5.68931L20.0901 5.69028L20.0896 5.69134L17.4607 10.6408C17.3251 10.8929 17.0645 11.0499 16.7828 11.0499H9.35654Z" />
<path d="M7.79095 17.6259C6.75512 17.6259 5.91525 18.4653 5.91525 19.5009C5.91525 20.5365 6.75512 21.3759 7.79095 21.3759C8.82678 21.3759 9.66666 20.5365 9.66666 19.5009C9.66666 18.4653 8.82679 17.6259 7.79095 17.6259Z" />
<path d="M17.413 17.6259C16.3772 17.6259 15.5373 18.4653 15.5373 19.5009C15.5373 20.5365 16.3772 21.3759 17.413 21.3759C18.4489 21.3759 19.2888 20.5365 19.2888 19.5009C19.2888 18.4653 18.4489 17.6259 17.413 17.6259Z" />
</svg>
