<svg width="20" height="20" viewBox="0 0 20 20" fill="none" xmlns="http://localhost/2000/svg">
<circle cx="10" cy="10" r="10" fill="#ED1C24"/>
<path d="M13.36 7.19672L12.8866 6.50347C12.7491 6.27889 12.4895 6.1373 12.1739 6.12754C11.8888 6.12754 11.619 6.25936 11.4714 6.4644L11.283 6.72317L10.4125 5.14138C10.1427 4.70199 9.42491 4.59945 9.01766 5.00466L6.7523 7.44082C5.94288 8.28542 5.5 9.35462 5.5 10.4531C5.5 10.6435 5.53054 10.8729 5.6069 11.2098C5.62217 11.2684 5.63745 11.3319 5.65781 11.4002L5.68326 11.5125C6.1516 13.1773 7.82135 14.3783 9.86271 14.5003H9.89325C11.9855 14.5003 13.8487 13.2505 14.312 11.532C14.3374 11.4637 14.3527 11.3953 14.373 11.327C14.3832 11.2879 14.3934 11.2489 14.4138 11.1756C14.4749 10.8827 14.5003 10.663 14.5003 10.4873V10.4238C14.5003 9.29115 13.9149 8.01202 13.36 7.19672ZM11.3594 12.5084C11.3492 12.5426 11.339 12.5768 11.3288 12.6159L11.3186 12.6598C11.2168 13.0259 10.9216 13.3335 10.5092 13.5044C10.3158 13.5874 10.1121 13.6313 9.89833 13.646H9.87798C9.72017 13.646 9.54199 13.5923 9.33328 13.5044C8.92602 13.3335 8.63075 13.0259 8.51367 12.6159C8.50349 12.5768 8.49841 12.5377 8.49332 12.5328C8.47296 12.4303 8.45768 12.3571 8.45768 12.3083C8.45768 11.9324 8.61548 11.5662 8.89547 11.2733L9.9238 10.1699L10.9521 11.2782C11.2321 11.5662 11.3848 11.9324 11.3848 12.3083C11.3848 12.3571 11.3746 12.4352 11.3594 12.5084Z" fill="white"/>
</svg>
