<svg width="40" height="40" viewBox="0 0 40 40" fill="none" xmlns="http://localhost/2000/svg">
<rect width="40" height="40" rx="20" fill="#C4CDD5"/>
<path d="M17.508 20.884L17.858 22.214C18.894 21.99 20.14 21.71 21.358 21.416L21.246 20.212C19.846 20.478 18.474 20.744 17.508 20.884ZM22.226 16.278V17.846H26.594V16.278H22.226ZM24.41 13.212V24.524C24.41 24.72 24.34 24.776 24.158 24.776C23.962 24.79 23.374 24.79 22.772 24.762C22.968 25.21 23.178 25.896 23.234 26.316C24.2 26.316 24.872 26.26 25.334 25.994C25.782 25.742 25.922 25.322 25.922 24.51V13.212H24.41ZM22.436 18.938C22.786 20.072 23.038 21.542 23.052 22.48L24.312 22.186C24.256 21.234 23.99 19.778 23.612 18.658L22.436 18.938ZM13.966 17.412V18.672H17.382V17.412H13.966ZM14.022 13.548V14.822H17.368V13.548H14.022ZM13.966 19.316V20.59H17.382V19.316H13.966ZM13.406 15.438V16.768H17.704V15.438H13.406ZM14.568 21.262V22.578H16.094V24.174H14.568V25.49H17.41V21.262H14.568ZM13.91 21.262V26.078H15.184V21.262H13.91ZM18.81 16.39V17.608H21.386V16.39H18.81ZM18.81 18.35V19.568H21.386V18.35H18.81ZM20.63 14.444V24.664C20.63 24.846 20.574 24.916 20.392 24.916C20.21 24.916 19.636 24.916 19.062 24.888C19.272 25.266 19.482 25.882 19.552 26.274C20.42 26.274 21.008 26.232 21.428 25.994C21.848 25.756 21.988 25.35 21.988 24.678V14.444H20.63ZM21.428 19.316C20.532 21.178 18.908 22.858 17.172 23.866C17.466 24.16 17.97 24.804 18.166 25.112C19.986 23.894 21.764 21.934 22.842 19.778L21.428 19.316ZM18.166 14.444V21.444H19.482V15.662H21.218V14.444H18.166ZM19.552 13.086C19.482 13.646 19.286 14.444 19.104 14.99L20.406 15.256C20.63 14.766 20.91 14.052 21.19 13.338L19.552 13.086Z" fill="#637381"/>
</svg>
