<svg width="22" height="22" viewBox="0 0 22 22" fill="none" xmlns="http://localhost/2000/svg">
<path opacity="0.48" d="M18.6367 1.8335C19.5648 1.8335 20.3172 2.58591 20.3172 3.51405C20.3172 4.4422 19.5648 5.19461 18.6367 5.19461C18.3471 5.19461 18.0747 5.12139 17.8369 4.99247L15.0641 8.18212C15.1875 8.41599 15.2573 8.6825 15.2573 8.96533C15.2573 9.89347 14.5049 10.6459 13.5768 10.6459C12.6765 10.6459 11.9416 9.93802 11.8982 9.04853L9.87847 8.35324C9.57023 8.72704 9.10356 8.96533 8.58124 8.96533C8.28137 8.96533 7.99985 8.88679 7.75612 8.74917L5.12015 10.9609C5.1698 11.1195 5.19656 11.2883 5.19656 11.4634C5.19656 12.3915 4.44415 13.1439 3.516 13.1439C2.58786 13.1439 1.83545 12.3915 1.83545 11.4634C1.83545 10.5352 2.58786 9.78281 3.516 9.78281C3.81933 9.78281 4.10389 9.86317 4.34956 10.0038L6.98003 7.79655C6.9285 7.63518 6.90068 7.46323 6.90068 7.28477C6.90068 6.35663 7.65309 5.60422 8.58124 5.60422C9.4757 5.60422 10.2069 6.303 10.2588 7.18444L12.2902 7.88409C12.5985 7.51764 13.0604 7.28477 13.5768 7.28477C13.7721 7.28477 13.9596 7.31809 14.1339 7.37934L17.0392 4.03734C16.9853 3.87265 16.9561 3.69676 16.9561 3.51405C16.9561 2.58591 17.7085 1.8335 18.6367 1.8335Z" fill="#637381"/>
<path d="M19.4793 9.72461C19.9434 9.72461 20.3196 10.1008 20.3196 10.5649V20.4228C20.3196 20.6759 20.1144 20.8811 19.8613 20.8811H17.4168C17.1637 20.8811 16.9585 20.6759 16.9585 20.4228V10.5649C16.9585 10.1008 17.3347 9.72461 17.7988 9.72461H19.4793ZM14.4377 15.6146C14.9017 15.6146 15.2779 15.9908 15.2779 16.4549V20.4228C15.2779 20.6759 15.0727 20.8811 14.8196 20.8811H12.3752C12.122 20.8811 11.9168 20.6759 11.9168 20.4228V16.4549C11.9168 15.9908 12.293 15.6146 12.7571 15.6146H14.4377ZM9.396 13.9275C9.86007 13.9275 10.2363 14.3037 10.2363 14.7678V20.4228C10.2363 20.6759 10.0311 20.8811 9.77794 20.8811H7.3335C7.08037 20.8811 6.87516 20.6759 6.87516 20.4228V14.7678C6.87516 14.3037 7.25137 13.9275 7.71544 13.9275H9.396ZM4.35433 18.2482C4.8184 18.2482 5.19461 18.6244 5.19461 19.0885V20.4228C5.19461 20.6759 4.9894 20.8811 4.73627 20.8811H2.29183C2.0387 20.8811 1.8335 20.6759 1.8335 20.4228V19.0885C1.8335 18.6244 2.2097 18.2482 2.67377 18.2482H4.35433Z" fill="#637381"/>
</svg>
