<svg width="22" height="22" viewBox="0 0 22 22" fill="none" xmlns="http://localhost/2000/svg">
<path d="M7.57721 5.6308V8.14673C7.57721 8.4583 7.82942 8.7105 8.14099 8.7105C8.42389 8.7105 8.65836 8.50207 8.69865 8.23008L8.70476 8.14673V5.6308H13.8914V8.14673C13.8914 8.4583 14.144 8.7105 14.4552 8.7105C14.7384 8.7105 14.9726 8.50207 15.0128 8.23008L15.019 8.14673V5.6308H16.717C17.3731 5.6308 17.9331 6.11111 18.0444 6.74622L18.0606 6.87521L18.9202 17.7074C18.9871 18.5767 18.6861 19.4404 18.0949 20.0786C17.5491 20.6677 16.793 21.0253 15.9956 21.0768L15.7955 21.0833H6.80074C5.93066 21.0833 5.09253 20.7168 4.50131 20.0786C3.9556 19.4896 3.65711 18.7083 3.66673 17.909L3.67559 17.7089L4.53552 6.87371C4.58554 6.22081 5.10763 5.6997 5.74932 5.63711L5.87915 5.6308H7.57721ZM11.3339 9.27079C11.1261 9.26779 10.9547 9.43367 10.9517 9.64206V10.3347C9.58469 10.4319 8.65512 11.2764 8.65512 12.4004C8.65512 13.7796 9.82772 14.1623 10.9517 14.4661V16.8964C10.3587 16.8168 9.79977 16.5707 9.34166 16.1855C9.25539 16.1169 9.14844 16.0786 9.03786 16.0762C8.75778 16.0956 8.5421 16.3301 8.54568 16.6108C8.54513 16.7336 8.59312 16.8514 8.67939 16.9389C9.30701 17.504 10.1139 17.829 10.9578 17.8563L10.9584 18.5374C10.9681 18.7452 11.1449 18.9056 11.3527 18.8953C11.5574 18.8953 11.7233 18.7294 11.7233 18.5247V17.8442C13.3819 17.7348 14.0503 16.7263 14.0503 15.657C14.0503 14.2231 12.8473 13.7856 11.7233 13.4819V11.3432C12.1808 11.4204 12.6122 11.6081 12.981 11.89C13.0545 11.9405 13.1408 11.9678 13.2301 11.969C13.5162 11.969 13.7496 11.7388 13.7526 11.4526C13.7532 11.3299 13.7052 11.212 13.6189 11.1245C13.0861 10.6682 12.4178 10.3991 11.7173 10.359V9.64206C11.7173 9.4373 11.5514 9.27144 11.3466 9.27144C11.3424 9.27079 11.3381 9.27079 11.3339 9.27079ZM11.7233 14.697C12.4099 14.8914 12.9445 15.1527 12.9384 15.7906C12.9384 16.2524 12.6225 16.7992 11.7233 16.9085V14.697ZM10.9578 11.3007V13.2874C10.2955 13.093 9.77912 12.8925 9.77912 12.3275C9.77912 11.7625 10.247 11.3554 10.9578 11.3007ZM11.2981 1.83325C13.3498 1.83325 15.019 3.50274 15.019 5.55448V5.63077H13.8915V5.55448C13.8915 4.12438 12.7282 2.96077 11.2981 2.96077C9.86803 2.96077 8.7048 4.12438 8.7048 5.55448V5.63077H7.57725V5.55448C7.57725 3.50274 9.24636 1.83325 11.2981 1.83325Z" fill="#637381"/>
</svg>
