<svg width="40" height="40" viewBox="0 0 40 40" fill="none" xmlns="http://localhost/2000/svg">
<path fill-rule="evenodd" clip-rule="evenodd" d="M25.6002 21.1666L27.1002 22.6749C27.4854 23.0665 27.5987 23.6507 27.3878 24.1579C27.1769 24.6652 26.6828 24.9968 26.1335 24.9999H23.3335V25.2832C23.2525 27.0446 21.7618 28.4086 20.0002 28.3332C18.2385 28.4086 16.7479 27.0446 16.6668 25.2832V24.9999H13.8668C13.3175 24.9968 12.8235 24.6652 12.6126 24.1579C12.4017 23.6507 12.515 23.0665 12.9002 22.6749L14.4002 21.1666V17.2749C14.4031 15.6592 15.1017 14.123 16.3175 13.0589C17.5332 11.9947 19.1483 11.5056 20.7502 11.7166C23.5714 12.149 25.6414 14.596 25.6002 17.4499V21.1666ZM20.0002 26.6666C20.8364 26.7256 21.5708 26.116 21.6668 25.2832V24.9999H18.3335V25.2832C18.4295 26.116 19.164 26.7256 20.0002 26.6666Z" fill="#637381"/>
</svg>
