<svg width="24" height="24" viewBox="0 0 24 24" fill="none" xmlns="http://localhost/2000/svg">
<path fill-rule="evenodd" clip-rule="evenodd" d="M8.48337 20.2895C9.58042 20.7632 10.7526 21 12 21C13.2474 21 14.4199 20.7632 15.5176 20.2895C16.6146 19.8158 17.5658 19.1763 18.3711 18.3711C19.1763 17.5658 19.8158 16.6143 20.2895 15.5166C20.7632 14.4196 21 13.2474 21 12C21 10.7526 20.7632 9.5801 20.2895 8.48242C19.8158 7.38537 19.1763 6.43421 18.3711 5.62895C17.5658 4.82368 16.6146 4.18421 15.5176 3.71053C14.4199 3.23684 13.2474 3 12 3C10.7526 3 9.58042 3.23684 8.48337 3.71053C7.38568 4.18421 6.43421 4.82368 5.62895 5.62895C4.82368 6.43421 4.18421 7.38537 3.71053 8.48242C3.23684 9.5801 3 10.7526 3 12C3 13.2474 3.23684 14.4196 3.71053 15.5166C4.18421 16.6143 4.82368 17.5658 5.62895 18.3711C6.43421 19.1763 7.38568 19.8158 8.48337 20.2895ZM12 9.70001C12.5523 9.70001 13 9.2523 13 8.70001C13 8.14773 12.5523 7.70001 12 7.70001C11.4477 7.70001 11 8.14773 11 8.70001C11 9.2523 11.4477 9.70001 12 9.70001ZM12 11C11.4477 11 11 11.4477 11 12V15.5C11 16.0523 11.4477 16.5 12 16.5C12.5523 16.5 13 16.0523 13 15.5V12C13 11.4477 12.5523 11 12 11Z" fill="#0972E3"/>
</svg>
