<?xml version="1.0" encoding="UTF-8"?>
<svg version="1.1" xmlns="http://localhost/2000/svg" width="1262" height="910">
<path d="M0 0 C4.5518021 -0.02612442 9.10361402 -0.04440065 13.65545982 -0.06098223 C15.71326003 -0.07034894 17.77104811 -0.0832319 19.82880038 -0.1001153 C44.76278803 -0.30208653 67.6141078 2.71336176 86.48009044 20.7039628 C87.65378185 21.87185343 87.65378185 21.87185343 88.85118419 23.0633378 C90.00940685 24.16935343 90.00940685 24.16935343 91.19102794 25.2977128 C95.805218 29.99866541 99.16984934 34.92902175 102.16368419 40.7508378 C102.63378917 41.64814615 102.63378917 41.64814615 103.11339122 42.56358194 C109.4455107 55.63901947 110.48880383 68.78067743 110.59508067 83.02891397 C110.62298721 84.9713306 110.6519659 86.91373204 110.68188697 88.85611868 C110.77472581 95.59170656 110.81694289 102.32722783 110.85118419 109.0633378 C110.85786947 110.31749884 110.86455475 111.57165988 110.87144262 112.8638258 C110.97226359 132.95599457 110.97257122 153.04799635 110.95472578 173.14035868 C110.94740647 181.58530901 110.94605811 190.03025775 110.94492625 198.47521081 C110.94276003 213.52436471 110.93616736 228.57351307 110.92662364 243.62266397 C110.91738561 258.20534599 110.91033643 272.78802648 110.90611583 287.37071085 C110.90572174 288.72848848 110.90572174 288.72848848 110.9053197 290.11369596 C110.90401427 294.65662727 110.90275065 299.1995586 110.90150779 303.74248993 C110.89121116 341.18277647 110.87366086 378.6230567 110.85118419 416.0633378 C107.09938814 412.88887483 103.38406313 409.72100181 99.90550548 406.24464273 C99.20762416 405.54958124 98.50974284 404.85451975 97.79071361 404.13839579 C97.05076656 403.3964245 96.3108195 402.65445322 95.54844981 401.88999796 C94.34946307 400.6936397 94.34946307 400.6936397 93.12625438 399.47311258 C90.50080382 396.85204106 87.87900226 394.22735462 85.25743419 391.6024003 C83.42347379 389.76911414 81.58936501 387.93597639 79.75511485 386.10298014 C75.91718282 382.26651979 72.08101074 378.42831214 68.24620372 374.58872843 C63.83045439 370.16754186 59.41111974 365.74996371 54.9898985 361.33424962 C50.71560009 357.06505978 46.44414711 352.79303568 42.1738618 348.51983118 C40.36618651 346.71149132 38.55777502 344.90388707 36.74859935 343.09704828 C34.21460356 340.56560768 31.68386201 338.03095643 29.15391856 335.49546671 C28.41397151 334.75754389 27.67402446 334.01962107 26.91165477 333.25933695 C22.90228885 329.23377099 19.0617612 325.11672329 15.36038333 320.80557299 C11.75819278 316.64716676 7.85637346 312.76471583 3.99083263 308.85288858 C2.97923397 307.82465823 1.97304121 306.79108192 0.97227794 305.75230265 C-8.02923899 296.13019463 -8.02923899 296.13019463 -20.15028065 291.88438272 C-29.57296683 292.4334447 -36.85541073 299.18121573 -43.12781972 305.57237101 C-44.2394624 306.68072809 -44.2394624 306.68072809 -45.37356251 307.81147623 C-47.80057034 310.23618839 -50.21303955 312.67481954 -52.62537831 315.11411905 C-54.32129944 316.81497026 -56.01803955 318.51500522 -57.71555775 320.21426249 C-61.26352647 323.76985258 -64.80495349 327.33178155 -68.34119862 330.89903116 C-72.85942953 335.45681985 -77.38834704 340.00379028 -81.92154568 344.5466876 C-86.26384508 348.89899379 -90.60120952 353.2562035 -94.93787831 357.61411905 C-95.75820168 358.43783817 -96.57852505 359.26155729 -97.42370671 360.1102376 C-99.76135407 362.45955334 -102.09552837 364.81226306 -104.42860097 367.16612101 C-105.1093015 367.84951044 -105.79000203 368.53289988 -106.49132985 369.23699808 C-110.34879426 373.13728805 -114.02420318 377.14628422 -117.61101598 381.29661131 C-119.40554951 383.35829051 -121.2689007 385.33608076 -123.18128651 387.2886796 C-123.8892487 388.01270472 -124.59721089 388.73672983 -125.32662648 389.4826951 C-128.52504374 392.72648676 -131.72607747 395.96757272 -134.93568105 399.20030069 C-136.61947226 400.90069381 -138.29787431 402.60644043 -139.9708373 404.31748819 C-142.40988124 406.81156796 -144.86521797 409.28854549 -147.32459706 411.76255655 C-148.06035466 412.52098352 -148.79611226 413.2794105 -149.55416554 414.0608201 C-155.35015193 419.8337812 -161.52690114 424.19609112 -169.68787831 425.7274003 C-170.70623769 425.71450968 -171.72459706 425.70161905 -172.77381581 425.6883378 C-173.79733144 425.70122843 -174.82084706 425.71411905 -175.87537831 425.7274003 C-185.7113611 423.73203387 -192.67732109 414.97414681 -199.48402089 408.1480546 C-200.71124354 406.92818064 -201.93908439 405.70892833 -203.16749257 404.4902482 C-206.48630521 401.19356964 -209.79549682 397.88739489 -213.10230917 394.57868409 C-215.86823282 391.81264043 -218.63849151 389.05095796 -221.40863216 386.28913862 C-227.94390464 379.77306894 -234.47100652 373.24889263 -240.99329823 366.71983194 C-247.71476454 359.99171855 -254.45087002 353.27851813 -261.19415998 346.57228392 C-266.99270561 340.80444548 -272.78152809 335.02697197 -278.56279361 329.24181348 C-282.01177541 325.79076624 -285.46440674 322.34358197 -288.92665738 318.9058423 C-292.18086119 315.67392109 -295.42274754 312.43012812 -298.65565938 309.17691278 C-299.8417204 307.98744511 -301.03203514 306.80220105 -302.2269389 305.62161684 C-314.45340819 293.5315813 -314.45340819 293.5315813 -315.43397206 284.41099405 C-314.26480082 272.41160502 -305.3582198 264.8407479 -297.20570058 256.76377726 C-296.10225013 255.65953442 -294.99945451 254.55463689 -293.89725941 253.44914103 C-290.92260604 250.46938656 -287.93877146 247.49898836 -284.9529857 244.53039432 C-281.81880612 241.41133807 -278.69281858 238.28409122 -275.56579274 235.157866 C-270.31616885 229.91192556 -265.06095909 224.67163675 -259.80189198 219.43516397 C-253.06508603 212.7272435 -246.33757848 206.01007744 -239.61297387 199.28992796 C-233.81264243 193.49358608 -228.00806246 187.70150406 -222.20280021 181.91010118 C-220.3456821 180.05706709 -218.48913962 178.20345776 -216.63267392 176.34977007 C-213.70894505 173.43096162 -210.78256753 170.51483319 -207.85417241 167.60070658 C-206.78391313 166.53494046 -205.71446764 165.46835634 -204.64592618 164.40086794 C-199.31154143 159.07291544 -193.92622938 153.91268521 -188.14881581 149.0633378 C-183.66508252 143.85202102 -180.37420615 138.05043839 -180.14881581 131.0633378 C-181.07480257 123.44634992 -187.02132195 118.26543148 -192.14881581 113.0633378 C-192.72841054 112.47004679 -193.30800526 111.87675577 -193.90516347 111.26548624 C-202.15936109 102.79146966 -202.15936109 102.79146966 -210.89490956 94.82505655 C-216.97431236 89.57195175 -222.51907208 83.74919581 -228.15809315 78.03355265 C-234.94846363 71.11427216 -234.94846363 71.11427216 -242.11756581 64.5945878 C-248.3464179 59.27291212 -253.97922027 53.28698366 -259.73084706 47.46079874 C-265.02765886 42.10155553 -270.32104727 36.82629211 -276.05750722 31.93199015 C-280.86002083 27.64078782 -285.31385676 22.95883655 -289.83631581 18.3758378 C-291.85807959 16.32729148 -293.88327438 14.28222461 -295.91053456 12.23911905 C-296.79700673 11.34104532 -297.6834789 10.44297159 -298.59681386 9.51768351 C-301.11320001 7.01179533 -301.11320001 7.01179533 -303.97620839 4.86485147 C-305.05164906 3.97310221 -305.05164906 3.97310221 -306.14881581 3.0633378 C-306.14881581 2.4033378 -306.14881581 1.7433378 -306.14881581 1.0633378 C-269.40162971 0.93494394 -232.65444055 0.80746295 -195.90724722 0.68115553 C-191.53912097 0.66614066 -187.17099475 0.65111845 -182.80286855 0.63609171 C-181.9334904 0.63310109 -181.06411225 0.63011048 -180.16838931 0.62702924 C-166.21116037 0.57899976 -152.25393355 0.53038088 -138.29670746 0.48153239 C-123.90576507 0.43117953 -109.5148205 0.3814873 -95.12387383 0.33237076 C-87.0700429 0.30486494 -79.01621318 0.27707344 -70.96238583 0.24853373 C-67.86751121 0.23760077 -64.7726365 0.22669569 -61.67776173 0.21580362 C-60.92297952 0.21314039 -60.1681973 0.21047715 -59.3905429 0.20773321 C-51.33593737 0.17942597 -43.28133299 0.15284348 -35.22670525 0.13167429 C-34.18693325 0.12893073 -34.18693325 0.12893073 -33.12615575 0.12613174 C-30.3820221 0.11892875 -27.63788842 0.11175695 -24.89375397 0.10486883 C-16.59571989 0.08385426 -8.29790914 0.05013095 0 0 Z " fill="#FF0000" transform="translate(779.1488158106804,70.93666219711304)"/>
<path d="M0 0 C6.10846326 4.89965492 11.4510972 10.48824789 16.72343612 16.2617569 C19.37795103 19.12924043 22.13284287 21.89733309 24.87693787 24.67871094 C30.03916523 29.94049761 35.10845842 35.28276975 40.14822131 40.66167831 C45.87108654 46.76043322 51.69537129 52.75817391 57.52866399 58.75108147 C66.61295801 68.08901977 75.64079115 77.47856014 84.58511353 86.95068359 C85.45095566 87.86634598 86.31679779 88.78200836 87.20887756 89.72541809 C91.46190079 94.2435483 95.64091273 98.80688274 99.69490528 103.50479126 C103.40840066 107.76544895 107.38875795 111.79898758 111.86172485 115.25537109 C115.36006466 118.17065427 117.67202121 120.89051322 118.5687561 125.45849609 C118.86286632 129.91802779 118.48917637 133.28580394 115.92422485 137.00537109 C113.02812695 140.29294985 109.8626571 143.22239201 106.6156311 146.15380859 C98.10668505 153.92872263 89.99159247 162.10022223 81.85293579 170.25878906 C79.22419076 172.89293092 76.59009307 175.52163613 73.95547485 178.14990234 C72.25984136 179.84619612 70.56451782 181.5427998 68.86953735 183.23974609 C67.70528732 184.40095978 67.70528732 184.40095978 66.51751709 185.58563232 C63.21432969 188.90292223 59.98583581 192.22690767 56.95742798 195.79785156 C51.92662771 201.63103218 46.34418158 206.93969358 40.85709763 212.33790207 C38.06956661 215.08291829 35.29172214 217.83765302 32.51319313 220.59177589 C27.35713 225.70234038 22.19729236 230.80894093 17.02090454 235.89892578 C13.40331047 239.45687666 9.79826735 243.02713641 6.20100784 246.60564041 C4.8364997 247.95847255 3.46748745 249.30677855 2.09376144 250.65024948 C-9.46084238 261.70498201 -9.46084238 261.70498201 -15.5171814 276.23193359 C-15.49526733 277.06466797 -15.47335327 277.89740234 -15.45077515 278.75537109 C-15.45206421 279.59326172 -15.45335327 280.43115234 -15.4546814 281.29443359 C-13.70804089 290.03968193 -8.16301216 295.38737404 -1.9937439 301.38037109 C-0.69537346 302.66669434 -0.69537346 302.66669434 0.62922668 303.97900391 C3.38487989 306.70579293 6.15383317 309.41856484 8.92422485 312.13037109 C11.68127775 314.84471078 14.43542813 317.5619318 17.18708801 320.28173828 C18.89522958 321.96843758 20.60687516 323.65159842 22.32261658 325.33056641 C23.50370247 326.49217285 23.50370247 326.49217285 24.70864868 327.67724609 C25.73312859 328.68029785 25.73312859 328.68029785 26.77830505 329.70361328 C28.74085385 331.74466505 30.5973648 333.82334311 32.44831848 335.96398926 C35.85807315 339.88787312 39.43904055 343.58664671 43.12930298 347.24560547 C44.12346474 348.23757683 44.12346474 348.23757683 45.13771057 349.24958801 C46.56281833 350.67091967 47.98907903 352.0910961 49.41639709 353.51020813 C51.68123303 355.76216165 53.94282635 358.01732805 56.2036438 360.27331543 C61.00352552 365.06182603 65.80732789 369.84639129 70.61172485 374.63037109 C76.18353025 380.1784981 81.75367385 385.72827255 87.31959534 391.28230286 C89.53702563 393.49329796 91.75746899 395.7012355 93.97805786 397.90905762 C95.35023693 399.27760083 96.72227392 400.64628651 98.09414673 402.01513672 C98.70318344 402.61900711 99.31222015 403.2228775 99.93971252 403.845047 C103.61545171 407.52033948 107.09182196 411.31890367 110.47821331 415.26270771 C115.31048575 420.78765079 120.59612962 425.92143516 125.76235962 431.13110352 C127.20364358 432.58898951 128.63953531 434.05222611 130.06997681 435.52075195 C132.1614862 437.66740833 134.26932581 439.7967926 136.3812561 441.92333984 C137.00764481 442.57239792 137.63403351 443.22145599 138.27940369 443.8901825 C144.7547315 450.33561483 152.39244894 454.8350527 161.6859436 455.23974609 C169.1249579 454.9043316 173.2873293 452.23392152 178.71621704 447.17041016 C179.23967083 446.6830048 179.76312462 446.19559944 180.30244064 445.69342422 C185.67490009 440.66132984 190.88361452 435.46775844 196.06484985 430.23974609 C197.05956362 429.24060531 198.05458629 428.24177198 199.04989624 427.2432251 C202.15673525 424.12514835 205.25954022 421.00307762 208.36172485 417.88037109 C211.9784338 414.23985511 215.59688987 410.60110849 219.21959686 406.96656036 C220.64840901 405.53137187 222.0741148 404.09309291 223.49972534 402.65472412 C227.27001338 398.87030967 231.03059425 395.13332941 235.08706665 391.6550293 C239.77632521 387.6303889 244.09900426 383.25586311 248.44781685 378.86944389 C249.9643427 377.33994343 251.48415505 375.81377394 253.004776 374.28834534 C256.23077813 371.05101957 259.45280197 367.8097528 262.67422485 364.56787109 C266.41578423 360.80257794 270.15902863 357.03899131 273.90653801 353.27961922 C275.39243981 351.78731004 276.87526038 350.29198728 278.35795593 348.79649353 C282.18221652 344.9584214 285.98030328 341.15739399 290.12319946 337.66186523 C292.37802752 335.75186506 293.86201213 334.27807757 295.61172485 332.00537109 C299.58012464 327.44171134 303.5972204 325.1573544 309.48672485 324.19287109 C316.41040708 323.73442694 321.85898761 325.78274334 327.11172485 330.25537109 C330.71693597 333.64598631 334.19702404 337.17214103 337.64297485 340.72412109 C339.50190513 342.53598985 341.35283914 344.1843637 343.33242798 345.85107422 C349.4894849 351.22508051 355.17774849 357.08634607 360.93597412 362.87945557 C363.08710823 365.0434815 365.24146275 367.20425587 367.39663696 369.36425781 C372.74589539 374.72680782 378.08967011 380.09481156 383.43362427 385.46264648 C387.96017463 390.00900096 392.48881747 394.55325184 397.02020264 399.0947876 C399.1314841 401.21250015 401.23970493 403.33322657 403.34780884 405.45410156 C411.06029193 413.19684631 418.75239008 420.6480968 427.48672485 427.24755859 C442.99763155 439.9349797 442.99763155 439.9349797 444.43023682 450.28378296 C444.74302413 453.95284249 444.78215269 457.57607826 444.67422485 461.25537109 C444.6451001 462.31398346 444.6451001 462.31398346 444.61538696 463.39398193 C444.18711449 474.12982398 442.5712641 485.56561569 434.8656311 493.63818359 C423.69021619 503.14599762 410.47667046 503.57109397 396.52706909 503.51805115 C394.73824948 503.52222779 392.94943252 503.52770712 391.16062045 503.53437096 C386.2619064 503.54880116 381.36336094 503.54458838 376.46463776 503.53720415 C371.17477345 503.53246871 365.88494541 503.54498574 360.59509277 503.55522156 C350.23777325 503.57240824 339.88051441 503.57324973 329.52318433 503.56800865 C321.10248355 503.56396503 312.68180069 503.56541281 304.26110077 503.57075691 C302.46243613 503.57187955 302.46243613 503.57187955 300.62743483 503.57302486 C298.19131241 503.57455636 295.75518999 503.57609471 293.31906757 503.57763983 C270.47827396 503.59136471 247.63751461 503.58592753 224.79672179 503.57445461 C203.91343437 503.56452504 183.03023559 503.57745819 162.14696184 503.6013888 C140.69215299 503.62578864 119.23738541 503.63538532 97.78256297 503.62873608 C85.74212362 503.62524547 73.7017524 503.62746535 61.66132355 503.64498711 C51.4101505 503.65972022 41.15909357 503.66033008 30.90792277 503.6429162 C25.68085837 503.63441253 20.45400129 503.63224123 15.22694778 503.64756775 C10.43511698 503.66144376 5.64367054 503.6566142 0.8518618 503.63732851 C-0.87485915 503.63357709 -2.60161112 503.63646553 -4.32830438 503.64694016 C-18.95130856 503.72928831 -31.6141742 501.83589084 -43.88827515 493.13037109 C-44.4606189 492.72947266 -45.03296265 492.32857422 -45.62265015 491.91552734 C-57.03696811 483.1782788 -62.5961905 468.85129261 -64.88827515 455.13037109 C-65.40617238 449.23256316 -65.2946151 443.30305757 -65.26922607 437.38822937 C-65.27268855 435.61887045 -65.27745705 433.84951369 -65.28340781 432.08016139 C-65.29586682 427.24908811 -65.28977071 422.41819389 -65.28044915 417.58712018 C-65.27363786 412.36475961 -65.28415028 407.142429 -65.29238892 401.92007446 C-65.30570712 391.70085544 -65.30285678 381.48170264 -65.29415099 371.26248106 C-65.28736622 362.95294931 -65.28646117 354.64343608 -65.28972244 346.33390236 C-65.29018214 345.14965332 -65.29064184 343.96540429 -65.29111547 342.74526891 C-65.29207468 340.33918755 -65.29304733 337.93310619 -65.29403324 335.52702484 C-65.30258183 312.98039783 -65.29276192 290.43380745 -65.27663215 267.88718645 C-65.26323467 248.56206102 -65.2655534 229.23698968 -65.27938843 209.91186523 C-65.29546261 187.44863791 -65.30175243 164.98544269 -65.29255164 142.52221042 C-65.29159603 140.12423599 -65.29065292 137.72626156 -65.28972244 135.32828712 C-65.28925962 134.14857005 -65.28879679 132.96885298 -65.28831994 131.75338691 C-65.28573518 123.46016824 -65.29009006 115.16697001 -65.2971611 106.8737545 C-65.30559697 96.7577708 -65.3032524 86.64185689 -65.28731887 76.52588113 C-65.2794634 71.3694661 -65.27629779 66.21316719 -65.28626633 61.05675316 C-65.29527077 56.32728957 -65.29018661 51.59804867 -65.27433367 46.868605 C-65.27100997 45.16683813 -65.27262487 43.46505206 -65.27996103 41.76329776 C-65.3981521 12.04359182 -65.3981521 12.04359182 -56.3609314 2.52099609 C-43.55572182 -7.83668035 -13.87964258 -9.24859318 0 0 Z " fill="#0E3192" transform="translate(427.8882751464844,95.86962890625)"/>
<path d="M0 0 C1.00686859 0.11177582 2.01373718 0.22355164 3.05111694 0.3387146 C5.89559748 0.65774874 8.7389898 0.98481358 11.58203125 1.31640625 C12.44055695 1.41428436 13.29908264 1.51216248 14.18362427 1.61300659 C20.06990811 2.31990811 20.06990811 2.31990811 21.1875 3.4375 C21.61803952 7.17243036 21.43429244 9.02046648 19.5 12.2890625 C10.02122039 23.65719345 10.02122039 23.65719345 1.734375 24.765625 C-4.79708693 25.03299479 -10.7494754 23.6365843 -17.078125 22.171875 C-23.61667792 20.88605079 -30.17081216 20.64281458 -36.8125 20.4375 C-37.50682129 20.41026855 -38.20114258 20.38303711 -38.91650391 20.35498047 C-40.96520062 20.27934945 -43.01284496 20.22856869 -45.0625 20.1875 C-46.26390625 20.16171875 -47.4653125 20.1359375 -48.703125 20.109375 C-52.067594 20.46441947 -53.46228674 21.04074787 -55.8125 23.4375 C-55.8125 24.0975 -55.8125 24.7575 -55.8125 25.4375 C-54.76610352 25.51266846 -53.71970703 25.58783691 -52.64160156 25.6652832 C-47.78117177 26.01727043 -42.92177044 26.38239482 -38.0625 26.75 C-37.19070099 26.81519836 -36.31890198 26.88039673 -35.42068481 26.9475708 C-25.61259981 27.6886125 -15.93520761 28.53745481 -6.25 30.3125 C0.56354836 31.55690137 5.97298201 31.2212986 12.55859375 28.90625 C15.1875 28.4375 15.1875 28.4375 17.97265625 29.71875 C20.1875 31.4375 20.1875 31.4375 21.1875 33.4375 C21.09369209 35.06526801 20.93443037 36.68949792 20.7421875 38.30859375 C20.0175306 45.41046285 20.19339451 52.43746713 20.40234375 59.56445312 C20.5110111 67.23538046 19.88649792 74.65890292 15.3125 81.0625 C13.1875 82.4375 13.1875 82.4375 10.8125 83.0625 C6.89301292 82.12928879 4.5247284 79.66228349 2.1875 76.4375 C1.1311288 73.19296357 1.07177312 70.19415395 1.08984375 66.796875 C1.09306641 65.72695313 1.09628906 64.65703125 1.09960938 63.5546875 C1.10798828 62.44351563 1.11636719 61.33234375 1.125 60.1875 C1.12951172 59.06085937 1.13402344 57.93421875 1.13867188 56.7734375 C1.15044603 53.99473783 1.1668916 51.21614591 1.1875 48.4375 C0.33422119 48.21698975 -0.51905762 47.99647949 -1.39819336 47.76928711 C-3.43343099 47.24332682 -5.46866862 46.71736654 -7.50390625 46.19140625 C-13.54135006 44.81569591 -19.54592361 44.24990038 -25.72265625 44.015625 C-26.4531871 43.98772888 -27.18371796 43.95983276 -27.93638611 43.93109131 C-29.46995881 43.87507731 -31.00361921 43.82141878 -32.53735352 43.77001953 C-34.09784123 43.71493391 -35.65809395 43.65273934 -37.21801758 43.58349609 C-39.49010657 43.48272662 -41.76208712 43.40311531 -44.03515625 43.328125 C-44.72593765 43.29390442 -45.41671906 43.25968384 -46.12843323 43.22442627 C-50.78201157 43.10399555 -53.90820654 43.89062649 -57.8125 46.4375 C-58.83677362 49.51032087 -58.98097701 51.76574922 -59.05859375 54.98828125 C-59.10790039 56.62506836 -59.10790039 56.62506836 -59.15820312 58.29492188 C-59.21908723 60.58649591 -59.27641625 62.87816734 -59.33007812 65.16992188 C-59.36423828 66.26498047 -59.39839844 67.36003906 -59.43359375 68.48828125 C-59.47117798 69.98355347 -59.47117798 69.98355347 -59.50952148 71.5090332 C-59.840923 74.71222518 -60.69393595 77.42641174 -61.8125 80.4375 C-60.61238281 80.47488281 -59.41226563 80.51226563 -58.17578125 80.55078125 C-47.97798003 80.93314712 -38.03451319 81.7755321 -27.9699707 83.5090332 C-21.65108383 84.53869957 -16.57915569 84.11549802 -10.2734375 82.98046875 C-6.29804523 82.30301426 -4.11635064 82.32555503 -0.25 83.75 C2.86020671 87.17920228 2.76735403 89.12460424 2.59375 93.609375 C2.1875 96.4375 2.1875 96.4375 1.18359375 99.94921875 C-0.59915519 106.77960671 -0.20814736 113.95846959 -0.29101562 120.97070312 C-0.4577092 128.00029306 -0.67927884 133.56354449 -5.25 139.21484375 C-10.60469313 143.1907034 -15.32502416 143.37361229 -21.8125 142.4375 C-26.03498861 141.52265745 -30.21667131 140.46004518 -34.37963867 139.30517578 C-42.43754528 137.09720256 -52.45245882 134.92404427 -60.8125 136.4375 C-61.4725 137.4275 -62.1325 138.4175 -62.8125 139.4375 C-58.91194342 142.08404328 -55.54150423 143.11889496 -50.921875 143.97265625 C-50.26456894 144.09639114 -49.60726288 144.22012604 -48.93003845 144.34761047 C-46.80941214 144.74297407 -44.68639478 145.1226193 -42.5625 145.5 C-41.09740674 145.76575816 -39.63231887 146.03154602 -38.16723633 146.29736328 C-15.54264272 150.36191684 6.81796223 153.07715344 29.33203125 146.84375 C31.7319854 146.31828635 33.98400376 146.34271715 36.4375 146.375 C37.32953125 146.38402344 38.2215625 146.39304687 39.140625 146.40234375 C40.15382813 146.41974609 40.15382813 146.41974609 41.1875 146.4375 C41.80053711 148.21630859 41.80053711 148.21630859 42.1875 150.4375 C40.80915914 153.13464216 39.40606851 155.54579283 37.75 158.0625 C37.29061035 158.77599609 36.8312207 159.48949219 36.35791016 160.22460938 C32.63993024 165.92078658 28.6946127 171.33493542 24.1875 176.4375 C23.55328125 177.16582031 22.9190625 177.89414062 22.265625 178.64453125 C15.69021602 185.73282213 7.4096185 190.46262144 -2.375 190.875 C-7.97654559 190.77203485 -12.67245561 189.85995827 -17.96875 188.06640625 C-18.74122574 187.80601562 -19.51370148 187.545625 -20.30958557 187.27734375 C-30.23886016 183.77188037 -39.45351554 178.83468681 -48.75 173.9375 C-50.54952009 173.00273078 -52.34964878 172.06913221 -54.15039062 171.13671875 C-58.3342805 168.96590966 -62.505995 166.77314604 -66.67138672 164.56707764 C-68.58253196 163.55882322 -70.4996032 162.56338036 -72.41992188 161.57275391 C-73.40412109 161.05632324 -74.38832031 160.53989258 -75.40234375 160.0078125 C-76.21179443 159.58773926 -77.02124512 159.16766602 -77.85522461 158.73486328 C-81.7339412 156.1638891 -82.92031136 152.74232066 -84.5625 148.5 C-84.96948027 145.14241281 -84.86883473 141.81758394 -84.8125 138.4375 C-92.8321723 138.04857091 -100.2188086 139.21869056 -108.0625 140.8125 C-109.2071875 141.03421875 -110.351875 141.2559375 -111.53125 141.484375 C-116.77630443 142.52118809 -121.74269257 143.73156652 -126.8125 145.4375 C-130.665282 146.091746 -132.8732088 146.02056082 -136.22265625 143.94140625 C-142.42421575 139.2140685 -142.42421575 139.2140685 -143.8125 136.4375 C-144.24415414 130.2939574 -143.87904482 125.24965731 -141.8125 119.4375 C-141.51741464 113.65874497 -142.22385453 108.9084239 -143.8125 103.375 C-145.25164511 98.33313012 -146.26635438 93.72166174 -145.8125 88.4375 C-143.6397578 85.80733839 -141.86576212 83.96413106 -138.8125 82.4375 C-135.08525843 82.2182505 -132.23918784 82.29242613 -128.6875 83.5 C-120.2503744 85.54124007 -111.3775458 83.4245698 -102.95703125 81.9140625 C-97.27548818 81.05300877 -91.54605028 80.75980016 -85.8125 80.4375 C-85.97169922 79.74817383 -86.13089844 79.05884766 -86.29492188 78.34863281 C-86.86333725 75.15156442 -87.00753417 72.10530928 -87.09375 68.859375 C-87.13113281 67.61671875 -87.16851563 66.3740625 -87.20703125 65.09375 C-87.27776532 62.47396968 -87.34807283 59.85417781 -87.41796875 57.234375 C-87.47404297 55.378125 -87.47404297 55.378125 -87.53125 53.484375 C-87.56154297 52.34838867 -87.59183594 51.21240234 -87.62304688 50.04199219 C-87.52184669 47.51017218 -87.52184669 47.51017218 -88.8125 46.4375 C-106.01548319 45.0799118 -124.33398212 45.94466071 -140.8125 51.4375 C-143.91820709 55.60709984 -143.54036968 61.53953806 -143.93554688 66.53125 C-144.44235821 71.9737645 -145.53129843 76.4463409 -147.8125 81.4375 C-151.50736103 83.90074069 -153.44543092 83.82741688 -157.8125 83.4375 C-160.60869795 81.8947701 -160.86343645 80.28393881 -161.87109375 77.24609375 C-163.27444603 71.40746339 -163.11118292 65.48446214 -163.07324219 59.51098633 C-163.06254273 57.50799937 -163.07419555 55.50493425 -163.0859375 53.50195312 C-163.0528578 36.97037191 -163.0528578 36.97037191 -159.1875 30.875 C-154.75934067 28.1947983 -150.0315078 29.25060814 -145.13720703 30.00097656 C-141.03826185 30.51253322 -137.33094999 30.21956095 -133.2265625 29.66015625 C-131.79413741 29.47405794 -130.36168186 29.28819391 -128.92919922 29.10253906 C-128.19409119 29.0036438 -127.45898315 28.90474854 -126.70159912 28.80285645 C-114.03183047 27.10808917 -101.61596977 25.78091181 -88.8125 26.4375 C-88.4825 25.1175 -88.1525 23.7975 -87.8125 22.4375 C-96.14583583 17.89204409 -104.59070124 19.16888227 -113.7331543 20.16162109 C-123.35404984 21.19064258 -132.95021915 21.79275548 -142.625 22 C-144.40390625 22.07637695 -144.40390625 22.07637695 -146.21875 22.15429688 C-153.27577575 22.23074128 -157.27419554 21.37843414 -162.4284668 16.43725586 C-164.07391558 14.05978699 -164.55805368 12.30787345 -164.8125 9.4375 C-163.42692213 6.60036436 -162.04248296 4.66748296 -159.8125 2.4375 C-157.39599609 1.875 -157.39599609 1.875 -154.3359375 1.4375 C-152.63546265 1.19157104 -152.63546265 1.19157104 -150.90063477 0.94067383 C-149.67530029 0.77462646 -148.44996582 0.6085791 -147.1875 0.4375 C-145.92800537 0.26307373 -144.66851074 0.08864746 -143.37084961 -0.09106445 C-131.54545132 -1.6816151 -119.71801166 -2.7987659 -107.8125 -3.5625 C-106.4819458 -3.64927002 -106.4819458 -3.64927002 -105.12451172 -3.73779297 C-69.98503727 -5.93768204 -34.94286061 -3.89895951 0 0 Z M-60.8125 98.4375 C-60.8125 98.7675 -60.8125 99.0975 -60.8125 99.4375 C-54.07346345 100.55758712 -47.37114136 100.75731662 -40.55078125 100.95507812 C-35.30049985 101.15584646 -30.79414625 101.7472986 -25.8125 103.4375 C-26.23619072 105.0661551 -26.6769623 106.69037378 -27.125 108.3125 C-27.36863281 109.21742188 -27.61226562 110.12234375 -27.86328125 111.0546875 C-28.8125 113.4375 -28.8125 113.4375 -31.8125 115.4375 C-36.3106909 115.74772006 -40.5464101 115.4958119 -45.0078125 114.9140625 C-45.75595215 114.81706055 -46.5040918 114.72005859 -47.27490234 114.62011719 C-48.77965856 114.41777003 -50.2827577 114.20261676 -51.78369141 113.97363281 C-56.07169159 113.38414295 -58.95505972 113.38728568 -62.8125 115.4375 C-62.8125 116.4275 -62.8125 117.4175 -62.8125 118.4375 C-57.00416107 119.33109061 -51.43543131 119.46497931 -45.5625 119.40625 C-42.55581597 119.44041686 -39.77107858 119.9229646 -36.8125 120.4375 C-29.37527778 121.16389871 -29.37527778 121.16389871 -22.8125 118.4375 C-22.28266619 115.86445648 -22.02644156 113.71665817 -21.9375 111.125 C-21.85757813 109.80886719 -21.77765625 108.49273438 -21.6953125 107.13671875 C-21.82942385 102.4917969 -21.82942385 102.4917969 -23.8125 98.4375 C-26.55801212 97.42308116 -26.55801212 97.42308116 -29.8125 97.1875 C-30.98554687 97.05085937 -32.15859375 96.91421875 -33.3671875 96.7734375 C-35.07261719 96.60714844 -35.07261719 96.60714844 -36.8125 96.4375 C-37.70195313 96.32664062 -38.59140625 96.21578125 -39.5078125 96.1015625 C-51.1970527 93.97127804 -51.1970527 93.97127804 -60.8125 98.4375 Z M-119.66015625 102.7109375 C-122.64523631 107.18349813 -121.98273288 114.00268 -121.375 119.125 C-121.189375 119.888125 -121.00375 120.65125 -120.8125 121.4375 C-113.426785 121.74884162 -106.15872931 121.19558258 -98.8125 120.5 C-97.88026611 120.41314941 -96.94803223 120.32629883 -95.98754883 120.23681641 C-90.82282856 119.73151344 -90.82282856 119.73151344 -85.8125 118.4375 C-85.8125 117.4475 -85.8125 116.4575 -85.8125 115.4375 C-87.35357422 115.54578125 -87.35357422 115.54578125 -88.92578125 115.65625 C-92.52884414 115.90246801 -96.13288412 116.12122843 -99.73876953 116.32177734 C-101.55407248 116.42307869 -103.36888547 116.53308335 -105.18359375 116.64453125 C-112.18941705 116.90118963 -112.18941705 116.90118963 -115.5 114.4375 C-116.8125 112.4375 -116.8125 112.4375 -116.3125 109.625 C-114.8125 106.4375 -114.8125 106.4375 -111.3125 104.78125 C-106.66743115 103.1927241 -102.1896311 102.88900618 -97.3125 102.75 C-96.07886719 102.69875977 -96.07886719 102.69875977 -94.8203125 102.64648438 C-92.8181545 102.5650012 -90.81535432 102.49955425 -88.8125 102.4375 C-88.8125 101.4475 -88.8125 100.4575 -88.8125 99.4375 C-90.65759161 97.59240839 -93.52344455 98.22048409 -96 98.1875 C-108.41644339 98.26218896 -108.41644339 98.26218896 -119.66015625 102.7109375 Z " fill="#0E3192" transform="translate(809.8125,672.5625)"/>
<path d="M0 0 C2.34259545 3.90432575 2.125 8.44028806 2.125 12.875 C3.22787354 12.99560791 3.22787354 12.99560791 4.35302734 13.11865234 C7.73587039 13.49121683 11.11792096 13.87056503 14.5 14.25 C15.65628906 14.37632812 16.81257812 14.50265625 18.00390625 14.6328125 C24.7949663 15.40016392 31.45260213 16.38949044 38.125 17.875 C39.15185628 21.75571659 39.22999668 22.64077665 37.5 26.5 C35.45070895 29.68855794 33.75546216 31.50349207 30.125 32.875 C23.44997583 33.40476382 17.14473564 32.38842623 10.5546875 31.3125 C7.04021485 30.86418458 3.66391069 30.80296111 0.125 30.875 C0.125 31.865 0.125 32.855 0.125 33.875 C0.74955078 33.9251123 1.37410156 33.97522461 2.01757812 34.02685547 C4.88732538 34.26104469 7.75611769 34.50545151 10.625 34.75 C11.60726562 34.82863281 12.58953125 34.90726563 13.6015625 34.98828125 C19.3108217 35.48308371 24.60941749 36.31225162 30.125 37.875 C30.5640692 46.51002756 30.5640692 46.51002756 27.125 50.875 C24.66490037 52.10504981 22.99327194 52.00814027 20.25 52 C19.38632812 52.00257813 18.52265625 52.00515625 17.6328125 52.0078125 C15.30132993 51.88433835 13.37436219 51.4518742 11.125 50.875 C9.60709216 50.76188035 8.08456257 50.70037701 6.5625 50.6875 C5.79808594 50.67332031 5.03367187 50.65914062 4.24609375 50.64453125 C1.82346497 50.7426625 1.82346497 50.7426625 -0.875 52.875 C19.94606187 59.6103646 43.42329413 58.15845631 65.01000977 57.85205078 C66.48648232 57.83562279 66.48648232 57.83562279 67.99278259 57.81886292 C69.86210621 57.79682251 71.73135161 57.76588973 73.60035706 57.72496033 C74.84739662 57.7104055 74.84739662 57.7104055 76.11962891 57.69555664 C76.84791901 57.6820668 77.57620911 57.66857697 78.3265686 57.65467834 C80.125 57.875 80.125 57.875 82.125 59.875 C82.01724762 65.78701368 79.90316347 69.18299117 76.0625 73.4375 C75.31432007 74.28828125 75.31432007 74.28828125 74.55102539 75.15625 C67.89703959 82.56168191 59.03829075 90.10957087 48.80859375 91.2421875 C44.26599666 90.78937294 41.20830538 89.28706355 37.25 87.125 C35.82860692 86.38579136 34.40673584 85.64750105 32.984375 84.91015625 C31.69778791 84.23201507 30.41131437 83.55365836 29.125 82.875 C16.77858314 76.49349312 3.93769256 75.36744788 -9.75 75.5625 C-10.46267029 75.56876404 -11.17534058 75.57502808 -11.90960693 75.58148193 C-38.01775885 75.48523297 -38.01775885 75.48523297 -62.8046875 82.58984375 C-67.29894818 84.4710292 -70.07472289 84.71314362 -74.875 83.875 C-79.39009847 81.65705689 -79.39009847 81.65705689 -80.875 78.875 C-81.3749536 74.74097504 -81.1513524 71.06634479 -80.875 66.875 C-85.825 66.545 -90.775 66.215 -95.875 65.875 C-97.04825217 70.56800867 -96.55610841 71.77761634 -94.37890625 75.84375 C-89.82039625 82.00069857 -82.26180129 84.9154063 -75.125 86.9375 C-71.875 87.875 -71.875 87.875 -70.875 88.875 C-71.24900033 95.23300557 -73.23130273 99.13688497 -77.625 103.6875 C-80.98401397 105.46031293 -84.11598508 106.2481874 -87.875 105.875 C-90.18588887 104.77631424 -92.14712884 103.51270661 -94.2109375 102.00390625 C-95.81570443 100.68786453 -95.81570443 100.68786453 -97.875 100.875 C-99.96130417 106.04755603 -100.18482258 110.57453002 -100.21875 116.05859375 C-100.24701777 117.88199951 -100.27534011 119.70540443 -100.30371094 121.52880859 C-100.31494995 122.47487976 -100.32618896 123.42095093 -100.33776855 124.39569092 C-100.39993122 129.26567683 -100.50347816 134.13470175 -100.609375 139.00390625 C-100.63002014 139.95414673 -100.65066528 140.90438721 -100.67193604 141.88342285 C-100.83980438 149.18466143 -101.08696968 156.46499543 -101.625 163.75 C-101.67462891 164.63743896 -101.72425781 165.52487793 -101.77539062 166.43920898 C-102.14743082 170.7615685 -102.51561278 172.44529789 -105.390625 175.8828125 C-106.21046875 176.54023437 -107.0303125 177.19765625 -107.875 177.875 C-108.205 178.205 -108.535 178.535 -108.875 178.875 C-111.1875 179.25 -111.1875 179.25 -113.875 178.875 C-119.95601562 173.33054459 -121.18608582 164.7067999 -121.875 156.875 C-122.00127778 153.25945968 -121.99200565 149.64862559 -121.97265625 146.03125 C-121.9712413 145.02155151 -121.96982635 144.01185303 -121.96836853 142.97155762 C-121.96280781 139.77267389 -121.9502627 136.57386228 -121.9375 133.375 C-121.93247992 131.19531352 -121.9279179 129.01562593 -121.92382812 126.8359375 C-121.91285128 121.51560074 -121.89615268 116.19530552 -121.875 110.875 C-122.865 110.38 -122.865 110.38 -123.875 109.875 C-124.58462891 110.52855469 -124.58462891 110.52855469 -125.30859375 111.1953125 C-140.39621394 124.78299384 -140.39621394 124.78299384 -150.09765625 124.90234375 C-155.33060999 124.56163391 -158.85456378 123.42794363 -162.875 119.875 C-166.81396246 115.04026103 -167.39404834 110.99977038 -166.875 104.875 C-165.875 102.875 -165.875 102.875 -164.25 102.25 C-161.875 101.875 -161.875 101.875 -158.75 102 C-148.94822032 101.68381356 -139.50772434 97.57162398 -132.609375 90.578125 C-127.57305098 84.57184228 -123.18496465 78.29199626 -122.625 70.3125 C-122.7075 69.508125 -122.79 68.70375 -122.875 67.875 C-127.99954747 65.31272627 -134.97026883 66.79097853 -140.375 67.875 C-153.16943644 70.35426138 -153.16943644 70.35426138 -157.796875 67.82421875 C-161.07240111 65.18040125 -162.69616542 63.21625937 -163.25 59.0625 C-162.875 55.875 -162.875 55.875 -160.9375 53.25 C-151.51310512 45.9412856 -140.55308835 45.03921046 -128.9765625 44.32421875 C-128.28989502 44.28018921 -127.60322754 44.23615967 -126.89575195 44.1907959 C-125.22228116 44.0837462 -123.54865569 43.97911897 -121.875 43.875 C-121.79983154 43.01334229 -121.72466309 42.15168457 -121.6472168 41.26391602 C-121.35948197 38.02575739 -121.06195422 34.78868064 -120.75805664 31.55200195 C-120.62920818 30.15879783 -120.50411518 28.7652405 -120.38305664 27.37133789 C-118.72897965 8.40050428 -118.72897965 8.40050428 -113.75 2.25 C-110.23751235 0.5701146 -107.96419528 0.65861665 -104.15625 1.02734375 C-100.72475213 2.30240375 -99.16122189 4.01868352 -96.875 6.875 C-96.20511016 9.75004697 -96.28992025 12.51807784 -96.38671875 15.45703125 C-96.39379349 16.27121017 -96.40086823 17.0853891 -96.40815735 17.92424011 C-96.43604402 20.51294643 -96.49876684 23.09945273 -96.5625 25.6875 C-96.5875905 27.44723428 -96.61040236 29.20700263 -96.63085938 30.96679688 C-96.68585128 35.27037296 -96.77208008 39.5723141 -96.875 43.875 C-90.45974535 45.6058245 -84.62294588 46.08392574 -78 45.875 C-76.33619852 45.82396314 -74.67209081 45.7819031 -73.0078125 45.75 C-72.28480957 45.72679687 -71.56180664 45.70359375 -70.81689453 45.6796875 C-68.875 45.875 -68.875 45.875 -65.875 47.875 C-66.34498432 53.63230793 -67.91194766 56.9385548 -70.875 61.875 C-59.37790092 60.11877816 -59.37790092 60.11877816 -48 57.75 C-43.56869305 56.67946644 -39.11714172 56.45628846 -34.57421875 56.21875 C-31.86633495 55.87389649 -30.16232736 55.34056444 -27.875 53.875 C-27.545 53.215 -27.215 52.555 -26.875 51.875 C-32.65640797 51.70544164 -32.65640797 51.70544164 -38.375 52.375 C-42.23789786 53.14757957 -45.96733404 53.51536239 -49.875 52.875 C-52.5 50.75 -52.5 50.75 -53.875 47.875 C-54 44.875 -54 44.875 -52.875 41.875 C-47.89498778 36.57763406 -43.03068322 35.6628305 -36 34.5625 C-35.02546875 34.39427734 -34.0509375 34.22605469 -33.046875 34.05273438 C-30.65858728 33.64297913 -28.26879254 33.25100338 -25.875 32.875 C-25.875 32.215 -25.875 31.555 -25.875 30.875 C-34.31615576 31.27935816 -34.31615576 31.27935816 -42.5625 32.9375 C-46.97650728 34.18674734 -51.31376216 34.41724506 -55.875 33.875 C-58.875 31.875 -58.875 31.875 -59.37890625 29.88671875 C-59.49264497 25.37508289 -59.4377732 23.52218918 -56.375 20 C-49.58686205 15.38434181 -42.35929494 14.31997685 -34.375 13.6875 C-32.99828125 13.5647168 -32.99828125 13.5647168 -31.59375 13.43945312 C-29.35483576 13.24121593 -27.11557592 13.05328583 -24.875 12.875 C-24.76285156 12.19953125 -24.65070313 11.5240625 -24.53515625 10.828125 C-22.95220224 3.66862059 -22.95220224 3.66862059 -19.8125 1.35546875 C-17.51446304 0.34629791 -15.29372732 -0.45848762 -12.875 -1.125 C-12.194375 -1.32480469 -11.51375 -1.52460937 -10.8125 -1.73046875 C-7.05487191 -2.49563092 -3.28979619 -1.97387772 0 0 Z " fill="#0E3192" transform="translate(286.875,666.125)"/>
<path d="M0 0 C2.49486434 3.74229651 2.03478936 5.23319583 1.5625 9.625 C1.34003387 11.74662439 1.14365327 13.87158627 1 16 C2.58482691 17.58482691 4.25517123 17.18300984 6.453125 17.24609375 C7.37706055 17.27759521 8.30099609 17.30909668 9.25292969 17.34155273 C10.73647949 17.38904663 10.73647949 17.38904663 12.25 17.4375 C35.33500126 18.33500126 35.33500126 18.33500126 39 22 C38.89082811 28.33196991 37.20109496 33.17610121 33 38 C29.80698841 39.97777088 27.29417096 40.26008785 23.5703125 40.30859375 C22.52746094 40.33373047 21.48460937 40.35886719 20.41015625 40.38476562 C18.22792199 40.41979554 16.04562412 40.45107299 13.86328125 40.47851562 C5.96710567 40.5858496 5.96710567 40.5858496 -1 44 C-2.55026316 46.36590935 -2.55026316 46.36590935 -3.375 49.0625 C-3.85066406 50.37927734 -3.85066406 50.37927734 -4.3359375 51.72265625 C-5.09331226 53.92464156 -5.09331226 53.92464156 -5 56 C-0.34947128 56.26932521 -0.34947128 56.26932521 4 55 C9.98595229 54.59417273 13.66243626 55.2767532 19 58 C20 59 20 59 20.4375 61.8125 C20.39960509 65.57925424 19.06532447 67.98973212 17.25 71.25 C13.95019462 77.40034149 12.68327888 83.32615692 11.40820312 90.10766602 C10.26787423 96.06853083 8.65170106 101.51323557 6 107 C8.6607548 110.51708968 11.36739329 113.31594027 14.8125 116.0625 C16.2665625 117.22265625 16.2665625 117.22265625 17.75 118.40625 C18.27335938 118.82132813 18.79671875 119.23640625 19.3359375 119.6640625 C21.09669338 121.07762708 22.83034525 122.52031025 24.5625 123.96875 C41.63469444 138.14426698 59.88970444 146.17972239 81.69921875 150.39453125 C84 151 84 151 86 153 C86.5625 155.75 86.5625 155.75 86 159 C77.10535013 170.77858072 54.44308109 176.93700839 40.68701172 179.41699219 C33.39353495 180.24663173 25.99287878 179.46253352 20 175 C14.0855227 169.2143529 10.00532675 161.92083497 5.72216797 154.90771484 C2.2286452 149.22989764 -1.6932862 144.08887483 -6 139 C-6.47179687 138.37222656 -6.94359375 137.74445313 -7.4296875 137.09765625 C-9.20877741 134.74947858 -10.48109272 133.18652374 -13.29296875 132.17578125 C-16.84507937 131.94512472 -18.54401445 133.00604591 -21.625 134.75 C-33.80788041 141.13080216 -46.3866902 143.17059277 -59.9375 139.75 C-67.485681 137.33861974 -73.67080441 134.89965547 -78 128 C-78.80254012 122.08126663 -78.80254012 122.08126663 -76.6953125 119.2421875 C-76.13585937 118.83226562 -75.57640625 118.42234375 -75 118 C-72.98607206 118.45139764 -70.97455348 118.91619869 -68.9765625 119.43359375 C-57.09482686 121.69455394 -44.85951568 120.42975784 -34 115 C-34.45208955 110.21196065 -35.3857077 107.98432244 -38.875 104.6875 C-39.69226563 103.91277344 -40.50953125 103.13804687 -41.3515625 102.33984375 C-43.92880671 100.06289791 -46.56370477 97.89667287 -49.25 95.75 C-53.72666805 92.13569294 -57.98183379 88.36276891 -62.125 84.375 C-62.69379883 83.84874023 -63.26259766 83.32248047 -63.84863281 82.78027344 C-67.61210597 79.0812512 -68.83695829 76.46515827 -69 71 C-68.4375 68.25 -68.4375 68.25 -67 66 C-62.51217078 63.26222531 -59.08663509 62.65655286 -53.875 62.5625 C-45.47184857 62.15683062 -36.4879475 60.82890091 -30 55 C-29.03929566 52.11788698 -28.89418117 50.30149956 -28.9375 47.3125 C-28.94652344 46.50425781 -28.95554687 45.69601562 -28.96484375 44.86328125 C-28.97644531 44.24839844 -28.98804688 43.63351562 -29 43 C-32.51534507 40.78914443 -34.98719101 40.90150286 -39.0625 41.3125 C-40.20847656 41.41433594 -41.35445313 41.51617188 -42.53515625 41.62109375 C-44.73562523 41.86173128 -46.93246077 42.1412112 -49.12109375 42.47265625 C-56.24016932 43.46758811 -56.24016932 43.46758811 -60.25 41 C-62 38 -62 38 -62.1875 34.625 C-60.49690769 29.46424453 -58.04618018 25.72527019 -53.234375 23 C-47.19959036 20.71913652 -40.57488447 20.02824718 -34.20800781 19.17675781 C-33.45100586 19.06686523 -32.69400391 18.95697266 -31.9140625 18.84375 C-31.2329541 18.75287109 -30.5518457 18.66199219 -29.85009766 18.56835938 C-27.51502941 17.85101458 -26.52106503 16.89293113 -25 15 C-23.95992349 11.70571683 -23.16110631 8.38996434 -22.35546875 5.03125 C-21 2 -21 2 -17.984375 0.13671875 C-12.18292088 -2.07299741 -5.51395159 -3.88018816 0 0 Z M-31 76 C-30.85039843 80.18884393 -27.84353724 83.1865531 -25 86 C-23.05696912 87.48692034 -21.09921002 88.73071022 -19 90 C-16.06210002 88.98693104 -15.04499542 88.06832637 -13.3125 85.4375 C-11.74493261 81.33196635 -11.03703954 77.39844531 -11 73 C-12.62021265 71.37978735 -14.39367934 71.82935288 -16.625 71.8125 C-21.942376 71.86582612 -27.06728488 72.06728488 -31 76 Z " fill="#0E3192" transform="translate(547,667)"/>
<path d="M0 0 C0.70713135 -0.00056396 1.4142627 -0.00112793 2.14282227 -0.00170898 C8.04505386 0.12343392 11.83804324 1.15054324 16.0625 5.375 C16.10342937 7.70797433 16.10491723 10.04205225 16.0625 12.375 C17.20726807 12.49093506 18.35203613 12.60687012 19.53149414 12.72631836 C23.80133512 13.15912405 28.07098277 13.5938121 32.34057617 14.02905273 C34.1842744 14.21673653 36.02802383 14.40391802 37.87182617 14.59057617 C40.53057439 14.85982559 43.18912982 15.13091422 45.84765625 15.40234375 C46.66460464 15.48467758 47.48155304 15.56701141 48.32325745 15.65184021 C51.82379887 16.01077453 55.29585692 16.40925001 58.77856445 16.92041016 C61.82054875 17.34150708 64.75286296 17.54275905 67.8203125 17.62109375 C68.85800781 17.65396484 69.89570312 17.68683594 70.96484375 17.72070312 C73.12098018 17.78212034 75.2772388 17.83938285 77.43359375 17.89257812 C78.46871094 17.92673828 79.50382812 17.96089844 80.5703125 17.99609375 C81.50504395 18.0211499 82.43977539 18.04620605 83.40283203 18.07202148 C86.24997233 18.39635608 88.46176557 19.19769222 91.0625 20.375 C87.19209173 28.8898982 82.46465948 36.79200392 74.0625 41.375 C64.1078489 44.69321703 54.28088296 41.4022203 44.60058594 38.59741211 C38.07579853 36.74076075 31.83706037 35.75049336 25.0625 35.375 C25.56136719 36.54675781 25.56136719 36.54675781 26.0703125 37.7421875 C27.0625 40.375 27.0625 40.375 26.9375 42.5 C25.23041909 46.15803053 22.48870816 47.2192701 18.8125 48.5625 C17.905 48.830625 16.9975 49.09875 16.0625 49.375 C19.12559846 51.80510662 22.29990664 53.66670606 25.75 55.5 C30.96334986 58.27584986 30.96334986 58.27584986 32.0625 59.375 C32.0625 62.81506546 31.85253042 65.36849232 29.6796875 68.13671875 C25.76827585 71.75872102 22.54687276 73.47471587 17.0625 73.375 C12.10578274 71.68760689 8.78446138 68.4797233 5.08984375 64.8984375 C2.6559916 63.06953126 1.09687368 62.55762434 -1.9375 62.375 C-4.24071179 63.1745289 -4.24071179 63.1745289 -6.375 64.5625 C-7.15746094 65.02398438 -7.93992187 65.48546875 -8.74609375 65.9609375 C-11.12369095 67.45191974 -11.12369095 67.45191974 -13.9375 69.6875 C-17.94160244 71.93980762 -21.43007718 72.07979702 -25.9375 71.375 C-28.2109375 70.3515625 -28.2109375 70.3515625 -29.9375 69.375 C-30.4325 71.355 -30.4325 71.355 -30.9375 73.375 C-25.83179208 76.17490434 -20.53147552 75.41275089 -15.09765625 73.84375 C-5.17022381 71.68951511 6.25310539 73.53335698 16.234375 74.66333008 C24.50972254 75.98607032 24.50972254 75.98607032 32.0625 73.375 C32.79382806 71.36514786 32.79382806 71.36514786 33.125 69.015625 C33.28226563 68.14679688 33.43953125 67.27796875 33.6015625 66.3828125 C33.75367188 65.47273437 33.90578125 64.56265625 34.0625 63.625 C35.32947834 56.17344942 36.40481959 50.15348407 41.8125 44.5 C45.68037012 41.971008 47.525662 41.71509629 52.0625 42.375 C55.46812549 43.73725019 56.71143415 44.57169308 58.1875 47.94921875 C59.24563437 52.09200377 59.32193161 55.80888541 59.25 60.0625 C59.23598145 61.29250732 59.23598145 61.29250732 59.22167969 62.54736328 C59.18294407 65.15705135 59.12365055 67.76574942 59.0625 70.375 C59.04848145 71.2520459 59.03446289 72.1290918 59.02001953 73.03271484 C58.97376365 75.60635404 58.89814454 78.17739868 58.8125 80.75 C58.79856201 81.53979248 58.78462402 82.32958496 58.77026367 83.14331055 C58.55386882 88.10320933 57.77460433 90.78285595 54.0625 94.375 C48.27948806 98.87003601 42.11258894 99.09964036 35.0625 98.375 C33.15584975 97.90065933 31.25625134 97.39738121 29.36328125 96.87109375 C20.73076882 94.82614937 12.2557741 94.92044883 3.4375 95 C2.1780809 95.00348953 2.1780809 95.00348953 0.89321899 95.00704956 C-9.28986378 95.04021525 -19.33024439 95.18772141 -29.32080078 97.39501953 C-35.65820196 98.78773082 -41.93475429 98.69780239 -47.75 95.625 C-52.00257295 92.6231838 -54.36648347 90.37355786 -55.8125 85.3125 C-55.92373319 81.80865438 -55.59307476 79.1580907 -54.9375 75.75 C-53.691541 69.10488533 -54.27608774 63.05610101 -54.9375 56.375 C-55.60152208 47.51332356 -55.60152208 47.51332356 -53.1875 43.375 C-49.83646183 40.39629941 -48.06589194 39.50037688 -43.5625 39 C-39.08326764 39.46336886 -37.26911094 40.33953225 -33.9375 43.375 C-30.67047118 48.61438369 -29.41663869 53.25487967 -29.9375 59.375 C-24.80145088 57.6339664 -21.01749715 56.07249741 -16.9375 52.375 C-18.79328021 47.539367 -22.50182879 45.82076088 -26.72265625 43.15625 C-28.9375 41.375 -28.9375 41.375 -29.93359375 39.46875 C-29.93917461 36.47741015 -28.61083276 34.78459918 -26.9375 32.375 C-30.14638412 32.97626386 -33.35453582 33.58134795 -36.5625 34.1875 C-37.52003174 34.36764648 -38.47756348 34.54779297 -39.46411133 34.73339844 C-44.88018728 35.76139303 -50.25460557 36.88201834 -55.625 38.125 C-60.93147089 39.27473536 -66.53066098 40.4584923 -71.9375 39.375 C-73.98445534 37.71971721 -74.83076195 36.64184513 -75.8125 34.1875 C-76.00207992 29.92195179 -75.50368695 26.86983471 -72.9375 23.375 C-62.26995803 15.66185162 -45.59620966 15.92534569 -32.98828125 14.85546875 C-32.0355835 14.77321045 -31.08288574 14.69095215 -30.10131836 14.60620117 C-28.28164656 14.45534507 -26.46077589 14.3181458 -24.63891602 14.1965332 C-21.14433313 13.92076228 -18.51816593 13.66886285 -15.3671875 12.07421875 C-13.58175471 9.95218797 -13.50806609 8.9238671 -13.6875 6.1875 C-13.77 4.929375 -13.8525 3.67125 -13.9375 2.375 C-9.25931791 0.550436 -4.97997415 -0.00996346 0 0 Z M-13.9375 32.375 C-11.49950632 34.91219904 -9.20286913 36.50231686 -6.0625 38.125 C-5.21945312 38.57359375 -4.37640625 39.0221875 -3.5078125 39.484375 C-0.47372283 40.53570091 1.03488935 40.35733624 4.0625 39.375 C6.62485661 37.52771965 8.83149422 35.60600578 11.0625 33.375 C10.02457228 32.11318905 10.02457228 32.11318905 7.74584961 32.26147461 C6.24550171 32.26932983 6.24550171 32.26932983 4.71484375 32.27734375 C3.63525391 32.28056641 2.55566406 32.28378906 1.44335938 32.28710938 C-0.26110352 32.29967773 -0.26110352 32.29967773 -2 32.3125 C-3.14017578 32.31701172 -4.28035156 32.32152344 -5.45507812 32.32617188 C-8.28260351 32.33800253 -11.1100264 32.3544859 -13.9375 32.375 Z " fill="#0E3192" transform="translate(1042.9375,735.625)"/>
<path d="M0 0 C5.64093581 0.77437699 10.44034924 0.99842404 15.92578125 -0.609375 C21.2995582 -2.10209082 24.83888782 -1.35903801 29.67578125 1.328125 C32.30078125 3.453125 32.30078125 3.453125 33.30078125 6.453125 C33.68872553 11.3994146 33.00603994 14.9043938 31.0546875 19.36328125 C28.17805316 27.33737125 28.65124107 36.55979276 28.23828125 44.953125 C28.17000122 46.30825699 28.17000122 46.30825699 28.1003418 47.69076538 C27.39613693 62.28722495 27.22585176 76.86256529 27.2421875 91.47265625 C27.24308821 92.34487194 27.24398891 93.21708763 27.24491692 94.1157341 C27.25698003 102.9864861 27.29100448 111.85691783 27.35660458 120.72743702 C27.38015361 124.10150632 27.39636023 127.47559072 27.41158867 130.84970665 C27.42544702 133.19728835 27.45071254 135.54456608 27.47633362 137.89204407 C27.48351886 139.32687091 27.49013727 140.76170074 27.49609375 142.1965332 C27.50656738 143.43393753 27.51704102 144.67134186 27.52783203 145.94624329 C27.19361911 151.10828316 26.26556046 155.14783548 23.17578125 159.328125 C19.2621591 162.22080224 17.16876518 162.453125 12.30078125 162.453125 C8.50071852 161.10199159 7.52570129 159.85476792 5.55078125 156.328125 C2.79851297 148.94646676 3.08564551 140.5088088 2.765625 132.73046875 C2.70115929 131.25133751 2.70115929 131.25133751 2.63539124 129.74232483 C2.50018297 126.62520611 2.36916315 123.50792806 2.23828125 120.390625 C2.1467623 118.2636599 2.05496812 116.13670662 1.96289062 114.00976562 C1.73900573 108.82435 1.5188743 103.63878732 1.30078125 98.453125 C-4.5476355 98.17831592 -4.5476355 98.17831592 -9.69921875 100.453125 C-10.35458218 102.79168803 -10.68360095 105.12808426 -11.05859375 107.52734375 C-12.91750195 116.01711353 -17.61831442 124.30075966 -24.69921875 129.453125 C-34.13168815 134.82897294 -44.11639278 135.68774613 -54.5859375 133.15625 C-58.64674377 131.80514995 -61.70854221 129.44380154 -64.69921875 126.453125 C-64.89453125 124.2890625 -64.89453125 124.2890625 -64.82421875 121.828125 C-64.80617188 121.01085937 -64.788125 120.19359375 -64.76953125 119.3515625 C-64.74632812 118.72507812 -64.723125 118.09859375 -64.69921875 117.453125 C-60.3907465 115.3968087 -56.44692485 114.15916832 -51.76171875 113.203125 C-44.60786986 111.45937433 -40.34467362 108.33127874 -36.20703125 102.265625 C-27.2426282 86.14030827 -27.62034398 65.47220407 -30.13671875 47.765625 C-34.60383538 14.09224873 -34.60383538 14.09224873 -30.38671875 4.453125 C-22.57261197 -4.80803859 -10.66869135 -1.63236807 0 0 Z M-9.69921875 20.453125 C-11.27801115 24.23094967 -10.92033797 28.54203549 -10.94921875 32.578125 C-10.96984375 33.30644531 -10.99046875 34.03476562 -11.01171875 34.78515625 C-11.06411791 37.14265574 -11.06411791 37.14265574 -10.69921875 40.453125 C-7.48542902 42.59565148 -6.84748694 42.72504958 -3.19921875 42.390625 C-2.42578125 42.33777344 -1.65234375 42.28492188 -0.85546875 42.23046875 C1.47492483 41.5904331 1.47492483 41.5904331 3.05859375 39.40625 C4.63583352 35.65658564 4.74089939 32.26315535 4.67578125 28.265625 C4.68738281 27.54181641 4.69898438 26.81800781 4.7109375 26.07226562 C4.73528835 23.73004929 4.73528835 23.73004929 4.30078125 20.453125 C-0.51393349 17.24331517 -4.52305018 18.10032111 -9.69921875 20.453125 Z M-7.63671875 59.578125 C-9.95152347 63.6630745 -9.81844563 67.93787093 -9.51171875 72.515625 C-9.45628906 73.53785156 -9.40085937 74.56007813 -9.34375 75.61328125 C-8.56497993 79.04458938 -7.44444148 80.30667543 -4.69921875 82.453125 C-2.11404288 82.95372416 -2.11404288 82.95372416 0.30078125 82.453125 C2.50673234 80.66658439 2.50673234 80.66658439 2.52783203 78.29833984 C2.5173584 77.42902832 2.50688477 76.5597168 2.49609375 75.6640625 C2.48964844 74.72304688 2.48320313 73.78203125 2.4765625 72.8125 C2.45142578 71.33523438 2.45142578 71.33523438 2.42578125 69.828125 C2.41675781 68.83554687 2.40773438 67.84296875 2.3984375 66.8203125 C2.37482241 64.36434366 2.34188924 61.90885332 2.30078125 59.453125 C1.02074219 59.26492188 -0.25929688 59.07671875 -1.578125 58.8828125 C-2.29814697 58.77694824 -3.01816895 58.67108398 -3.76000977 58.56201172 C-5.79209532 58.26964466 -5.79209532 58.26964466 -7.63671875 59.578125 Z " fill="#0E3192" transform="translate(937.69921875,681.546875)"/>
<path d="M0 0 C1.08796875 0.66773438 2.1759375 1.33546875 3.296875 2.0234375 C8.9450247 4.92195039 14.87051514 4.56368204 21.09130859 4.46655273 C23.12810142 4.43745569 25.16230455 4.44599948 27.19921875 4.45898438 C33.84515909 4.41608605 38.06542346 4.08661759 44 1 C49.61087424 1.17812299 54.09545124 2.25345269 59 5 C61.12397072 8.88486589 61.10039537 11.75923485 60.6328125 16.09765625 C59.82871551 25.21668534 59.85149652 34.28837185 59.875 43.4375 C59.87477477 45.24186198 59.87453039 47.04622396 59.87426758 48.85058594 C59.88638791 57.37217525 59.98251388 65.87962294 60.33203125 74.39453125 C60.37517456 75.47443581 60.37517456 75.47443581 60.41918945 76.57615662 C60.55694706 79.92596731 60.7171822 83.27147872 60.90771484 86.61889648 C60.99013428 88.37762085 60.99013428 88.37762085 61.07421875 90.171875 C61.13182373 91.1834668 61.18942871 92.19505859 61.2487793 93.23730469 C60.95063508 96.54819765 59.9407152 98.33118565 58 101 C54.99469985 103.06296027 52.0896378 103.41470416 48.5 103.75 C47.5615625 103.84796875 46.623125 103.9459375 45.65625 104.046875 C42.77487955 103.99602729 41.3576491 103.63101224 39 102 C35.76898994 95.77731396 34.93343188 89.86939787 34.68359375 82.9453125 C34.64169922 81.83671875 34.59980469 80.728125 34.55664062 79.5859375 C34.51732422 78.44382812 34.47800781 77.30171875 34.4375 76.125 C34.39431641 74.9596875 34.35113281 73.794375 34.30664062 72.59375 C34.20098371 69.72927375 34.09888201 66.86471679 34 64 C30.91598866 62.45799433 28.42239068 63.77334018 25.19140625 64.625 C23 65 23 65 20 64 C17.87749355 63.87959396 15.75088413 63.82466181 13.625 63.8125 C12.50351562 63.79832031 11.38203125 63.78414062 10.2265625 63.76953125 C6.92145787 64.00561015 4.85140548 64.31776943 2 66 C0.41849506 68.49490429 0.41849506 68.49490429 -0.75 71.5 C-5.73156919 82.12564887 -13.83023143 90.75661302 -24.86328125 95.13671875 C-31.28290983 96.90351566 -38.24550854 96.91816382 -44.5625 94.8125 C-47.35649911 92.73491092 -49.19242972 90.98944316 -51 88 C-51.25 84.6875 -51.25 84.6875 -51 82 C-46.00917438 79.40901819 -41.15596625 77.02294733 -35.8125 75.25 C-28.9019682 72.5096167 -25.70069651 67.49637873 -22.53125 60.98046875 C-17.5264229 48.94851523 -16.75986868 36.9144498 -16.42871094 24.04125977 C-16.13959979 14.82210343 -15.85678169 6.68536214 -9 0 C-5.80589134 -1.59705433 -3.44684034 -0.72272459 0 0 Z M6 20 C6.32041397 22.60280568 6.32041397 22.60280568 7 25 C8.09957031 24.98839844 9.19914062 24.97679687 10.33203125 24.96484375 C18.61536634 24.90482638 26.76128653 25.00352494 35 26 C36.35439668 23.29120665 36.06501451 20.99066732 36 18 C28.33508324 14.59337033 12.3977056 13.6022944 6 20 Z M30 39 C27.48803711 39.30297852 27.48803711 39.30297852 24.52734375 39.37890625 C22.93116211 39.43014648 22.93116211 39.43014648 21.30273438 39.48242188 C20.19220703 39.50884766 19.08167969 39.53527344 17.9375 39.5625 C15.73816839 39.62228519 13.5389363 39.68589308 11.33984375 39.75390625 C9.87599243 39.78979858 9.87599243 39.78979858 8.38256836 39.82641602 C5.98442086 39.84902314 5.98442086 39.84902314 4 41 C4 42.65 4 44.3 4 46 C7.45547603 48.09534185 10.29197531 48.30071628 14.296875 48.4140625 C15.50214844 48.45273437 16.70742188 48.49140625 17.94921875 48.53125 C19.20347656 48.5621875 20.45773437 48.593125 21.75 48.625 C23.65458984 48.68300781 23.65458984 48.68300781 25.59765625 48.7421875 C28.7316257 48.83644222 31.86558949 48.92205166 35 49 C35.19477739 47.37585622 35.38059458 45.75063577 35.5625 44.125 C35.66691406 43.22007812 35.77132812 42.31515625 35.87890625 41.3828125 C36.19674852 38.98346943 36.19674852 38.98346943 35 37 C32.67642489 36.81509993 32.67642489 36.81509993 30 39 Z " fill="#0E3192" transform="translate(253,746)"/>
<path d="M0 0 C3.46930918 0.48570328 5.33624352 1.34593264 8.125 3.4375 C10.47164399 6.95746598 10.31330702 8.35843303 10.1875 12.5 C9.93026859 16.62454492 9.93026859 16.62454492 11.125 20.4375 C14.1507831 21.04717271 17.17969312 21.39729927 20.2421875 21.77734375 C23.26559622 22.46969615 24.47153014 22.82644508 26.125 25.4375 C26.17139807 28.63896661 25.32279414 31.48183206 24.125 34.4375 C21.80778198 36.53747883 19.59456464 37.26872677 16.6796875 38.31640625 C15.79539062 38.64511719 14.91109375 38.97382812 14 39.3125 C13.15179688 39.59867188 12.30359375 39.88484375 11.4296875 40.1796875 C8.41178282 41.82674734 7.50589536 43.30598567 6.125 46.4375 C5.72775767 49.42389242 5.72775767 49.42389242 5.875 52.5 C5.89046875 53.52222656 5.9059375 54.54445313 5.921875 55.59765625 C6.09534438 58.02289159 6.43465698 60.11594322 7.125 62.4375 C8.23359375 62.39109375 9.3421875 62.3446875 10.484375 62.296875 C11.94788968 62.25934898 13.41143356 62.22294971 14.875 62.1875 C15.60460937 62.15398438 16.33421875 62.12046875 17.0859375 62.0859375 C20.57831834 62.02243967 22.71299621 62.15920552 25.640625 64.13671875 C27.43992559 66.92563466 27.51914895 68.23349055 27.125 71.5 C27.0425 72.35722656 26.96 73.21445312 26.875 74.09765625 C25.89938547 77.14137032 24.93990402 77.9539695 22.125 79.4375 C19.06487956 79.83248837 16.08329825 79.87578191 13 79.93359375 C10.0614005 80.25111791 10.0614005 80.25111791 7.7421875 82.015625 C5.4509991 85.44687333 5.87122896 87.67619657 6.25 91.75 C6.30986084 92.45785645 6.36972168 93.16571289 6.43139648 93.89501953 C6.85115774 98.55960997 7.50280416 103.17955805 8.1875 107.8125 C10.11674316 121.74428651 11.36086798 136.30925738 2.625 148.25 C-3.24184759 154.476961 -12.03846226 157.89060476 -20.41796875 158.67578125 C-27.80804958 158.88318381 -34.71962789 157.77466831 -40.640625 153.01953125 C-42.71421398 150.36192512 -42.10611059 147.67304829 -41.875 144.4375 C-41.545 143.4475 -41.215 142.4575 -40.875 141.4375 C-36.26050005 139.89933335 -31.46413092 139.71561166 -26.63671875 139.23046875 C-22.33103661 138.32283274 -20.12017584 137.42043941 -16.875 134.4375 C-12.21764052 126.78498051 -13.0714972 116.1913417 -12.6875 107.5 C-12.60596278 105.87168705 -12.52328978 104.24343055 -12.43945312 102.61523438 C-12.03786158 95.52963882 -12.03786158 95.52963882 -11.875 88.4375 C-18.76225948 86.52928682 -25.60073425 89.20277614 -31.77832031 92.43261719 C-34.29029835 93.86200051 -36.77121693 95.32302291 -39.20483398 96.88256836 C-43.34312944 99.46138365 -43.34312944 99.46138365 -46.13671875 99.3359375 C-49.1810193 97.76247879 -50.30904615 95.40162693 -51.875 92.4375 C-52.5625 89.5625 -52.5625 89.5625 -51.875 86.4375 C-44.26372829 74.77914725 -31.61338576 70.74991963 -18.68359375 67.6796875 C-16.41821067 67.22209945 -14.15771543 66.79736337 -11.875 66.4375 C-9.65503036 58.2315408 -8.73443232 49.78571393 -10.875 41.4375 C-16.38255093 38.68372453 -23.3207598 40.43716929 -28.9375 42.0625 C-34.41195851 43.55104477 -38.62235161 43.74774579 -43.875 41.4375 C-46 39.8125 -46 39.8125 -46.875 37.4375 C-47.05063971 33.37269539 -46.7591423 30.50871027 -44.12109375 27.3125 C-35.0417881 19.73325354 -19.11804963 19.30433846 -7.875 17.4375 C-7.76542969 16.54546875 -7.65585937 15.6534375 -7.54296875 14.734375 C-7.30513672 12.97867188 -7.30513672 12.97867188 -7.0625 11.1875 C-6.91167969 10.02734375 -6.76085937 8.8671875 -6.60546875 7.671875 C-5.60558706 3.24459139 -4.67125956 0.71084385 0 0 Z " fill="#0E3192" transform="translate(442.875,668.5625)"/>
<path d="M0 0 C2.34922153 2.57656555 2.9375 3.63162904 2.9375 7.125 C0.67110656 18.31531762 -9.29389102 24.02027223 -18.0625 30.125 C-17.11695766 33.58031521 -16.50081616 34.85919895 -13.3828125 36.75 C-12.32835937 37.20375 -11.27390625 37.6575 -10.1875 38.125 C-5.54671619 40.13182543 -2.89153943 41.88144086 -0.0625 46.125 C0.70281255 49.49237523 0.34214492 51.36400649 -1.2734375 54.40234375 C-3.75842419 58.29380768 -6.00567143 61.75851667 -10.0625 64.125 C-12.6484375 64.54296875 -12.6484375 64.54296875 -15.0625 64.125 C-16.4765625 62.61328125 -16.4765625 62.61328125 -17.6875 60.4375 C-21.09003191 54.84636033 -25.21562751 50.07988386 -29.4765625 45.140625 C-30.32992187 44.14546875 -31.18328125 43.1503125 -32.0625 42.125 C-32.82949219 41.23941406 -33.59648438 40.35382812 -34.38671875 39.44140625 C-36.0625 37.125 -36.0625 37.125 -36.25 33.8125 C-34.43457434 28.17512558 -30.59939035 24.63726035 -26.453125 20.53125 C-23.81849972 17.74861207 -23.06828317 16.45464092 -23 12.5625 C-24.13306544 8.89670003 -25.61923745 7.02637428 -28.0625 4.125 C-29 1.5 -29 1.5 -29.0625 -0.875 C-23.19884331 -9.51617828 -7.0187125 -4.29717092 0 0 Z " fill="#0E3192" transform="translate(1020.0625,682.875)"/>
<path d="M0 0 C4.92635248 2.36685091 9.16553821 5.23810419 12 10 C13.18052301 14.05804785 13.35318229 16.13470338 11.75 20.0625 C8.92374029 23.82082408 4.61549599 25.5363464 0.4609375 27.5078125 C-2.18789959 29.11393277 -2.95532314 30.13635638 -4 33 C-3.10796875 33.19335938 -2.2159375 33.38671875 -1.296875 33.5859375 C-0.12640625 33.84632813 1.0440625 34.10671875 2.25 34.375 C3.41015625 34.63023437 4.5703125 34.88546875 5.765625 35.1484375 C9.74641653 36.19652029 12.16558251 36.95697813 14.75 40.1875 C16.86701775 44.95078994 16.43819279 49.17825762 14.9375 54.0625 C13.07309559 58.56157919 10.19286878 61.54917853 6 64 C3.55408084 64.717153 1.57296357 64.89498108 -1 65 C-4.88089188 60.26648794 -7.97216403 55.3171002 -10.875 49.9375 C-13.70980995 44.70744417 -16.74301387 41.17655335 -21.4140625 37.51171875 C-23 36 -23 36 -24.3125 32.375 C-23.98475581 28.83536278 -23.41758999 27.60325286 -20.73828125 25.31640625 C-20.16464844 24.88199219 -19.59101562 24.44757812 -19 24 C-17.43677444 22.8134553 -15.87431906 21.62589544 -14.3125 20.4375 C-13.54550781 19.87933594 -12.77851562 19.32117188 -11.98828125 18.74609375 C-9.8181619 16.84031114 -8.8791966 15.74445346 -8 13 C-7.97406436 9.71318188 -7.97406436 9.71318188 -8.375 6.25 C-8.48585938 5.07953125 -8.59671875 3.9090625 -8.7109375 2.703125 C-8.80632812 1.81109375 -8.90171875 0.9190625 -9 0 C-5.76550476 -1.61724762 -3.48030294 -0.78587486 0 0 Z " fill="#0E3192" transform="translate(1087,678)"/>
<path d="M0 0 C2.7429854 2.36993939 4.64421792 4.25524107 5.4921875 7.84375 C5.66181796 12.47003522 5.0340214 15.96812087 1.953125 19.5625 C-2.62938195 23.3225057 -7.83473758 25.20438439 -13.33984375 27.31640625 C-15.8678164 28.4800762 -17.27389681 29.46051554 -19.046875 31.5625 C-18.221875 31.789375 -17.396875 32.01625 -16.546875 32.25 C-6.31884153 36.08551255 -6.31884153 36.08551255 -3.859375 40.875 C-4.22746325 46.15093155 -5.81104785 50.19306992 -9.359375 54.125 C-12.046875 55.5625 -12.046875 55.5625 -14.8046875 55.55078125 C-19.29161913 54.18307799 -21.49834069 51.58801807 -24.609375 48.1875 C-25.70993536 47.00842012 -26.81530932 45.83381229 -27.92578125 44.6640625 C-28.44930176 44.10879883 -28.97282227 43.55353516 -29.51220703 42.98144531 C-31.12879858 41.34978293 -31.12879858 41.34978293 -33.94921875 40.1484375 C-36.046875 38.5625 -36.046875 38.5625 -36.72265625 34.72265625 C-36.49105642 31.14227017 -36.02047742 30.53168235 -33.52734375 27.62109375 C-32.44861624 26.72412985 -31.35003978 25.8505818 -30.234375 25 C-24.40980256 20.42404026 -21.63165954 16.65599178 -20.546875 9.0625 C-21.12713991 5.00064564 -22.42575891 3.18536636 -25.05078125 0.140625 C-25.37949219 -0.38015625 -25.70820312 -0.9009375 -26.046875 -1.4375 C-25.716875 -2.4275 -25.386875 -3.4175 -25.046875 -4.4375 C-17.40532045 -7.53542752 -6.49842198 -4.56377727 0 0 Z " fill="#0E3192" transform="translate(1059.046875,677.4375)"/>
<path d="M0 0 C1.00998047 0.00515625 2.01996094 0.0103125 3.06054688 0.015625 C7.58647537 0.06342358 11.75736688 0.2583497 16.1875 1.25 C16.55408354 7.72630923 16.55408354 7.72630923 14.875 10.125 C11.59421586 12.31218943 8.35537859 12.4889661 4.5234375 12.78515625 C3.40066406 12.87216797 2.27789063 12.95917969 1.12109375 13.04882812 C-0.05324219 13.13583984 -1.22757813 13.22285156 -2.4375 13.3125 C-3.58863281 13.40337891 -4.73976563 13.49425781 -5.92578125 13.58789062 C-9.22030618 13.83770352 -12.51420386 14.05668005 -15.8125 14.25 C-17.18486816 14.33096924 -17.18486816 14.33096924 -18.58496094 14.41357422 C-21.0234375 14.49609375 -21.0234375 14.49609375 -24.8125 14.25 C-26.95451526 11.03697711 -27.46575876 9.98290719 -26.8125 6.25 C-19.65808723 0.04950894 -8.9437348 -0.18620658 0 0 Z " fill="#0E3192" transform="translate(699.8125,722.75)"/>
<path d="M0 0 C0.97042236 0.00531738 1.94084473 0.01063477 2.94067383 0.01611328 C21.38842188 0.25894792 21.38842188 0.25894792 27.375 4.25 C26.5 10 26.5 10 25.375 12.25 C19.75165694 12.3241916 14.1285992 12.37862179 8.50488281 12.41479492 C6.59207191 12.42987558 4.67929554 12.4503431 2.76660156 12.47631836 C0.0161893 12.51273347 -2.73376554 12.52973349 -5.484375 12.54296875 C-6.33868103 12.55845261 -7.19298706 12.57393646 -8.07318115 12.58988953 C-14.04652696 12.59158031 -14.04652696 12.59158031 -17.19628906 10.73168945 C-17.66776367 10.24273193 -18.13923828 9.75377441 -18.625 9.25 C-18.295 6.94 -17.965 4.63 -17.625 2.25 C-11.67111591 0.18336255 -6.27402968 -0.06137813 0 0 Z " fill="#0E3192" transform="translate(776.625,720.75)"/>
<path d="M0 0 C1.18207031 0.08701172 2.36414063 0.17402344 3.58203125 0.26367188 C4.70222656 0.35068359 5.82242188 0.43769531 6.9765625 0.52734375 C8.49757568 0.64517212 8.49757568 0.64517212 10.04931641 0.76538086 C12.375 1.0625 12.375 1.0625 13.375 2.0625 C13.75 4.375 13.75 4.375 13.375 7.0625 C8.85104012 11.46419069 5.33518966 12.22442217 -0.88330078 12.15136719 C-6.2867529 11.97622413 -11.67197182 11.59036156 -17.0625 11.1875 C-18.24521484 11.10886719 -19.42792969 11.03023437 -20.64648438 10.94921875 C-22.33547852 10.82353516 -22.33547852 10.82353516 -24.05859375 10.6953125 C-25.08009521 10.62199707 -26.10159668 10.54868164 -27.15405273 10.47314453 C-29.625 10.0625 -29.625 10.0625 -31.625 8.0625 C-31.75 4.4375 -31.75 4.4375 -31.625 1.0625 C-21.47952016 -2.54478172 -10.54027427 -0.83775573 0 0 Z " fill="#0E3192" transform="translate(789.625,738.9375)"/>
<path d="M0 0 C1.09957031 -0.00128906 2.19914063 -0.00257813 3.33203125 -0.00390625 C4.46511719 -0.00003906 5.59820313 0.00382813 6.765625 0.0078125 C7.91417969 0.00394531 9.06273437 0.00007812 10.24609375 -0.00390625 C11.34050781 -0.00261719 12.43492187 -0.00132812 13.5625 0 C14.56120117 0.00112793 15.55990234 0.00225586 16.58886719 0.00341797 C19.015625 0.1328125 19.015625 0.1328125 21.015625 1.1328125 C20.53716435 5.43895839 19.35636119 7.38161799 16.015625 10.1328125 C12.88072754 11.17777832 10.50379324 11.31830738 7.2109375 11.4140625 C5.49970703 11.47013672 5.49970703 11.47013672 3.75390625 11.52734375 C1.96533203 11.57955078 1.96533203 11.57955078 0.140625 11.6328125 C-2.21105299 11.70190424 -4.5626262 11.77468352 -6.9140625 11.8515625 C-7.95804199 11.88185547 -9.00202148 11.91214844 -10.07763672 11.94335938 C-12.97469377 12.06174489 -12.97469377 12.06174489 -15.71923828 12.71679688 C-17.984375 13.1328125 -17.984375 13.1328125 -20.296875 12.0703125 C-21.984375 10.1328125 -21.984375 10.1328125 -22.234375 6.9453125 C-22.151875 6.0171875 -22.069375 5.0890625 -21.984375 4.1328125 C-20.44420806 3.648847 -18.90215306 3.17088863 -17.359375 2.6953125 C-16.50085938 2.42847656 -15.64234375 2.16164063 -14.7578125 1.88671875 C-9.82549158 0.54596109 -5.10478964 0.0057394 0 0 Z " fill="#0E3192" transform="translate(695.984375,739.8671875)"/>
<path d="M0 0 C2.171875 0.4765625 2.171875 0.4765625 4.171875 2.4765625 C4.05814885 8.276596 2.23935579 12.41804092 -1.828125 16.4765625 C-8.12818131 21.40660657 -13.91990551 24.30977602 -21.828125 25.4765625 C-20.15803866 19.29724303 -17.04480578 13.95883816 -13.828125 8.4765625 C-13.374375 7.65542969 -12.920625 6.83429687 -12.453125 5.98828125 C-9.04171062 0.53195654 -6.38196946 -0.36744673 0 0 Z " fill="#0E3192" transform="translate(216.828125,674.5234375)"/>
<path d="M0 0 C1.62818946 0.22830701 3.2526349 0.48343576 4.875 0.75 C6.23238281 0.95882812 6.23238281 0.95882812 7.6171875 1.171875 C10 2 10 2 11.30078125 3.71484375 C13.07288531 9.50635702 12.96209203 16.53771463 10.5625 22.125 C10.046875 23.07375 9.53125 24.0225 9 25 C8.67 25.66 8.34 26.32 8 27 C2.52113467 24.8250925 0.39582368 20.13705752 -2 15 C-3.38767433 10.2193857 -3.43580961 7.0800499 -1.5625 2.4375 C-1.046875 1.633125 -0.53125 0.82875 0 0 Z " fill="#0E3192" transform="translate(145,677)"/>
</svg>
