<svg width="20" height="20" viewBox="0 0 20 20" xmlns="http://localhost/2000/svg">
<path d="M2.292 16.0815C2.08333 16.0815 1.89933 16.0052 1.74 15.8525C1.58 15.6999 1.5 15.5125 1.5 15.2905V14.1655C1.5 13.7209 1.61467 13.3352 1.844 13.0085C2.07333 12.6825 2.37533 12.4292 2.75 12.2485C3.514 11.8872 4.309 11.6025 5.135 11.3945C5.96167 11.1859 6.854 11.0815 7.812 11.0815C8.77067 11.0815 9.66333 11.1892 10.49 11.4045C11.316 11.6199 12.111 11.9012 12.875 12.2485C13.2503 12.4292 13.5523 12.6825 13.781 13.0085C14.0103 13.3352 14.125 13.7209 14.125 14.1655V15.2905C14.125 15.5125 14.045 15.6999 13.885 15.8525C13.7257 16.0052 13.5417 16.0815 13.333 16.0815H2.292ZM15.521 16.0815C15.6183 15.9849 15.6807 15.8669 15.708 15.7275C15.736 15.5889 15.75 15.4499 15.75 15.3105V14.0405C15.75 13.5539 15.6283 13.0572 15.385 12.5505C15.1423 12.0439 14.778 11.6099 14.292 11.2485C14.8753 11.3319 15.41 11.4602 15.896 11.6335C16.382 11.8075 16.861 12.0125 17.333 12.2485C17.7777 12.4845 18.0833 12.7622 18.25 13.0815C18.4167 13.4009 18.5 13.7829 18.5 14.2275V15.2905C18.5 15.5125 18.42 15.6999 18.26 15.8525C18.1007 16.0052 17.9167 16.0815 17.708 16.0815H15.521ZM7.812 9.72753C6.97867 9.72753 6.28433 9.4462 5.729 8.88353C5.17367 8.32153 4.896 7.63053 4.896 6.81053C4.896 5.9772 5.17367 5.28286 5.729 4.72753C6.28433 4.1722 6.97867 3.89453 7.812 3.89453C8.64533 3.89453 9.34 4.1722 9.896 4.72753C10.4513 5.28286 10.729 5.9772 10.729 6.81053C10.729 7.63053 10.4513 8.32153 9.896 8.88353C9.34 9.4462 8.64533 9.72753 7.812 9.72753ZM15 6.81053C15 7.63053 14.7223 8.32153 14.167 8.88353C13.611 9.4462 12.9233 9.72753 12.104 9.72753C12.0067 9.72753 11.868 9.71386 11.688 9.68653C11.5073 9.65853 11.3683 9.63053 11.271 9.60253C11.5903 9.19986 11.8367 8.76253 12.01 8.29053C12.184 7.81786 12.271 7.32453 12.271 6.81053C12.271 6.2972 12.1807 5.8042 12 5.33153C11.8193 4.85953 11.5763 4.4292 11.271 4.04053C11.3957 3.99853 11.5347 3.96386 11.688 3.93653C11.8407 3.90853 11.9793 3.89453 12.104 3.89453C12.9233 3.89453 13.611 4.1722 14.167 4.72753C14.7223 5.28286 15 5.9772 15 6.81053ZM2.833 14.7485H12.792V14.1655C12.792 13.9989 12.7503 13.8565 12.667 13.7385C12.5837 13.6199 12.4587 13.5259 12.292 13.4565C11.6253 13.1512 10.9133 12.9012 10.156 12.7065C9.39933 12.5125 8.618 12.4155 7.812 12.4155C7.00667 12.4155 6.222 12.5092 5.458 12.6965C4.694 12.8839 3.98567 13.1372 3.333 13.4565C3.15233 13.5259 3.024 13.6199 2.948 13.7385C2.87133 13.8565 2.833 13.9989 2.833 14.1655V14.7485ZM7.812 8.39453C8.27067 8.39453 8.64933 8.2452 8.948 7.94653C9.24667 7.64786 9.396 7.2692 9.396 6.81053C9.396 6.35253 9.24667 5.9742 8.948 5.67553C8.64933 5.37686 8.27067 5.22753 7.812 5.22753C7.354 5.22753 6.97567 5.37686 6.677 5.67553C6.37833 5.9742 6.229 6.35253 6.229 6.81053C6.229 7.2692 6.37833 7.64786 6.677 7.94653C6.97567 8.2452 7.354 8.39453 7.812 8.39453Z" />
</svg>
