<svg width="20" height="20" viewBox="0 0 20 20" xmlns="http://localhost/2000/svg">
<path d="M12.376 9.042L10.959 7.625L6.31297 12.25C6.25764 12.3053 6.2163 12.368 6.18897 12.438C6.16097 12.5073 6.14697 12.5837 6.14697 12.667V13.417C6.14697 13.5417 6.18864 13.6457 6.27197 13.729C6.3553 13.8123 6.4593 13.854 6.58397 13.854H7.33397C7.4173 13.854 7.4903 13.84 7.55297 13.812C7.61564 13.7847 7.68164 13.7363 7.75097 13.667L12.376 9.042ZM12.939 8.5L13.73 7.688C13.8133 7.59067 13.855 7.48633 13.855 7.375C13.855 7.26367 13.8133 7.17333 13.73 7.104L12.876 6.271C12.8066 6.18767 12.7163 6.146 12.605 6.146C12.4943 6.146 12.397 6.18767 12.313 6.271L11.501 7.062L12.939 8.5ZM4.50097 15.75H15.501C15.5563 15.75 15.612 15.7223 15.668 15.667C15.7233 15.611 15.751 15.5553 15.751 15.5V4.5C15.751 4.44467 15.7233 4.389 15.668 4.333C15.612 4.27767 15.5563 4.25 15.501 4.25H4.50097C4.44564 4.25 4.38997 4.27767 4.33397 4.333C4.27864 4.389 4.25097 4.44467 4.25097 4.5V15.5C4.25097 15.5553 4.27864 15.611 4.33397 15.667C4.38997 15.7223 4.44564 15.75 4.50097 15.75ZM4.50097 17.083C4.0703 17.083 3.69864 16.927 3.38597 16.615C3.07397 16.3023 2.91797 15.9307 2.91797 15.5V4.5C2.91797 4.06933 3.07397 3.69767 3.38597 3.385C3.69864 3.073 4.0703 2.917 4.50097 2.917H8.12597C8.16797 2.45833 8.36597 2.066 8.71997 1.74C9.07397 1.41333 9.50097 1.25 10.001 1.25C10.501 1.25 10.928 1.41333 11.282 1.74C11.636 2.066 11.834 2.45833 11.876 2.917H15.501C15.9316 2.917 16.3033 3.073 16.616 3.385C16.928 3.69767 17.084 4.06933 17.084 4.5V15.5C17.084 15.9307 16.928 16.3023 16.616 16.615C16.3033 16.927 15.9316 17.083 15.501 17.083H4.50097ZM10.001 3.708C10.1676 3.708 10.3136 3.64567 10.439 3.521C10.5636 3.39567 10.626 3.24967 10.626 3.083C10.626 2.91633 10.5636 2.77067 10.439 2.646C10.3136 2.52067 10.1676 2.458 10.001 2.458C9.8343 2.458 9.6883 2.52067 9.56297 2.646C9.4383 2.77067 9.37597 2.91633 9.37597 3.083C9.37597 3.24967 9.4383 3.39567 9.56297 3.521C9.6883 3.64567 9.8343 3.708 10.001 3.708Z" />
</svg>
