<svg width="20" height="20" viewBox="0 0 20 20" xmlns="http://localhost/2000/svg">
<path fill-rule="evenodd" clip-rule="evenodd" d="M10.5658 3.95309C10.3524 4.19802 10.1611 4.45674 9.99931 4.71446C9.8375 4.45686 9.6462 4.19848 9.43286 3.95307C9.20058 3.68621 8.84475 3.3255 8.40203 3.03057C7.95987 2.736 7.4204 2.5 6.82429 2.5C5.63794 2.5 4.67231 3.46563 4.67231 4.65198C4.67231 5.02182 4.76644 5.3706 4.93145 5.67506H2.85547C2.54384 5.67506 2.29102 5.92788 2.29102 6.23951V8.6208C2.29102 8.93243 2.54384 9.18526 2.85547 9.18526H3.08478V16.5584C3.08478 17.3074 3.69401 17.9167 4.443 17.9167H15.5557C16.3047 17.9167 16.9139 17.3074 16.9139 16.5584V9.18526H17.1432C17.4549 9.18526 17.7077 8.93243 17.7077 8.6208V6.23951C17.7077 5.92788 17.4549 5.67506 17.1432 5.67506H15.0676C15.2328 5.37046 15.3264 5.02165 15.3264 4.65198C15.3264 3.46563 14.3608 2.5 13.1744 2.5C12.5783 2.5 12.0389 2.73577 11.5967 3.03025C11.154 3.3251 10.7982 3.68575 10.5658 3.95309ZM6.82429 3.62891C7.32841 3.62891 7.97277 3.99394 8.58146 4.6937C8.87337 5.02921 9.10059 5.37993 9.24736 5.67506H6.82429C6.2604 5.67506 5.80122 5.21588 5.80122 4.65198C5.80122 4.08809 6.2604 3.62891 6.82429 3.62891ZM11.4172 4.6937C12.0259 3.99394 12.6703 3.62891 13.1744 3.62891C13.7383 3.62891 14.1975 4.08809 14.1975 4.65198C14.1975 5.21588 13.7383 5.67506 13.1744 5.67506H10.7513C10.8981 5.37993 11.1253 5.02921 11.4172 4.6937ZM8.97627 6.80397V16.7878H11.0224V6.80397H8.97627ZM7.84737 8.05635V6.80397H3.41992V8.05635H7.84737ZM4.21369 16.5584V9.18526H7.84737V16.7878H4.443C4.31647 16.7878 4.21369 16.685 4.21369 16.5584ZM15.785 16.5584C15.785 16.685 15.6822 16.7878 15.5557 16.7878H12.1513V9.18526H15.785V16.5584ZM16.5788 8.05635H12.1513V6.80397H16.5788V8.05635Z" />
</svg>
