<svg width="32" height="32" viewBox="0 0 32 32" fill="none" xmlns="http://localhost/2000/svg">
<path fill-rule="evenodd" clip-rule="evenodd" d="M8.10181 11.4086C8.65235 7.56027 12.0231 4.60156 16.0007 4.60156C19.9783 4.60156 23.3491 7.56028 23.8996 11.4087V20.6016C23.8996 20.9902 23.8507 21.3673 23.7587 21.7268C23.3074 23.4916 21.8192 24.8369 19.9877 25.0668C19.8047 25.0897 19.6181 25.1016 19.4288 25.1016H19.2898L19.2736 25.1818C19.0181 26.4488 17.9052 27.4016 16.5721 27.4016C15.0501 27.4016 13.8153 26.1598 13.8153 24.6266C13.8153 23.0934 15.0501 21.8516 16.5721 21.8516C17.702 21.8516 18.6737 22.5359 19.0994 23.5164L19.1255 23.5766H19.4288C21.0624 23.5766 22.3856 22.244 22.3856 20.6016V12.5516C22.3856 9.00373 19.5276 6.12656 16.0007 6.12656C12.4739 6.12656 9.61585 9.00373 9.61585 12.5516V19.9938C9.61585 20.4123 9.27658 20.7516 8.85807 20.7516C8.44008 20.7516 8.10103 20.4131 8.10028 19.9951L8.09961 19.6159L8.10181 11.4086ZM17.8148 24.6266C17.8148 25.3163 17.259 25.8766 16.5721 25.8766C15.8851 25.8766 15.3294 25.3163 15.3294 24.6266C15.3294 23.9368 15.8851 23.3766 16.5721 23.3766C17.259 23.3766 17.8148 23.9368 17.8148 24.6266Z" fill="#5C5C5C"/>
<path d="M15.9996 20.1012C16.7904 20.1012 17.5104 19.8677 18.1566 19.4018C18.6121 19.0732 18.9851 18.668 19.275 18.1868C19.494 17.8231 19.1993 17.4123 18.8031 17.4123C18.5958 17.4123 18.4122 17.526 18.3018 17.6908C18.0612 18.0499 17.762 18.3408 17.4038 18.5647C16.9735 18.8337 16.5061 18.9679 15.9996 18.9679C15.4931 18.9679 15.0257 18.8337 14.5954 18.5647C14.2372 18.3408 13.938 18.0499 13.6975 17.6908C13.587 17.526 13.4034 17.4123 13.1961 17.4123C12.8 17.4123 12.5052 17.8231 12.7243 18.1867C13.0143 18.668 13.3875 19.0732 13.8433 19.4018C14.4891 19.8677 15.2088 20.1012 15.9996 20.1012Z" fill="#5C5C5C"/>
<path d="M18.4918 15.1235C18.7879 15.1235 19.0403 15.015 19.2425 14.8004C19.3037 14.7355 19.3494 14.6356 19.3847 14.5315C19.4211 14.4244 19.4508 14.2998 19.4742 14.1746C19.5209 13.925 19.5446 13.6626 19.5446 13.5127C19.5446 13.2039 19.4445 12.939 19.2425 12.7246C19.0403 12.51 18.7879 12.4016 18.4918 12.4016C18.1956 12.4016 17.9432 12.51 17.741 12.7246C17.539 12.939 17.4389 13.2039 17.4389 13.5127C17.4389 13.6626 17.4626 13.925 17.5093 14.1746C17.5327 14.2998 17.5624 14.4244 17.5988 14.5315C17.6342 14.6356 17.6798 14.7355 17.741 14.8004C17.9432 15.015 18.1956 15.1235 18.4918 15.1235Z" fill="#5C5C5C"/>
<path d="M13.5075 15.1235C13.8036 15.1235 14.056 15.015 14.2583 14.8004C14.3194 14.7355 14.3651 14.6356 14.4004 14.5315C14.4368 14.4244 14.4665 14.2998 14.4899 14.1746C14.5366 13.925 14.5603 13.6626 14.5603 13.5127C14.5603 13.2039 14.4602 12.939 14.2583 12.7246C14.056 12.51 13.8036 12.4016 13.5075 12.4016C13.2113 12.4016 12.9589 12.51 12.7567 12.7246C12.5547 12.939 12.4546 13.2039 12.4546 13.5127C12.4546 13.6626 12.4783 13.925 12.525 14.1746C12.5484 14.2998 12.5781 14.4244 12.6145 14.5315C12.6499 14.6356 12.6955 14.7355 12.7567 14.8004C12.9589 15.015 13.2113 15.1235 13.5075 15.1235Z" fill="#5C5C5C"/>
<path d="M5.93905 12C4.03972 12 2.5 13.7909 2.5 16C2.5 18.2091 4.03972 20 5.93905 20H6.5V12H5.93905Z" fill="#E3EEFF"/>
<path d="M26.0609 12C27.9603 12 29.5 13.7909 29.5 16C29.5 18.2091 27.9603 20 26.0609 20H25.5V12H26.0609Z" fill="#E3EEFF"/>
<path fill-rule="evenodd" clip-rule="evenodd" d="M5.75 12.7584C4.43956 12.8741 3.25 14.1818 3.25 16C3.25 17.8182 4.43956 19.1259 5.75 19.2416V12.7584ZM1.75 16C1.75 13.487 3.52317 11.25 5.93905 11.25H7.25V20.75H5.93905C3.52317 20.75 1.75 18.513 1.75 16Z" fill="#0972E3"/>
<path fill-rule="evenodd" clip-rule="evenodd" d="M26.25 12.7584C27.5604 12.8741 28.75 14.1818 28.75 16C28.75 17.8182 27.5604 19.1259 26.25 19.2416V12.7584ZM30.25 16C30.25 13.487 28.4768 11.25 26.0609 11.25H24.75V20.75H26.0609C28.4768 20.75 30.25 18.513 30.25 16Z" fill="#0972E3"/>
</svg>
