<svg width="20" height="20" viewBox="0 0 20 20" xmlns="http://localhost/2000/svg">
<path d="M9.29296 10.729C9.39029 10.729 9.48763 10.7083 9.58496 10.667C9.68163 10.625 9.77196 10.5623 9.85596 10.479L12.647 7.688C12.7996 7.53467 12.876 7.37133 12.876 7.198C12.876 7.02467 12.7996 6.86833 12.647 6.729C12.5083 6.57633 12.352 6.5 12.178 6.5C12.0046 6.5 11.8416 6.57633 11.689 6.729L9.29296 9.125L8.66796 8.521C8.51529 8.36833 8.35563 8.292 8.18896 8.292C8.02229 8.292 7.86263 8.36833 7.70996 8.521C7.57063 8.65967 7.50096 8.816 7.50096 8.99C7.50096 9.16333 7.57063 9.31933 7.70996 9.458L8.72996 10.479C8.81396 10.5623 8.90429 10.625 9.00096 10.667C9.09829 10.7083 9.19563 10.729 9.29296 10.729ZM10.001 16.375C11.709 14.861 12.9903 13.42 13.845 12.052C14.699 10.684 15.126 9.5 15.126 8.5C15.126 6.91667 14.633 5.639 13.647 4.667C12.661 3.69433 11.4456 3.208 10.001 3.208C8.5563 3.208 7.34097 3.69433 6.35497 4.667C5.36897 5.639 4.87597 6.91667 4.87597 8.5C4.87597 9.5 5.30297 10.684 6.15697 12.052C7.01164 13.42 8.29297 14.861 10.001 16.375ZM10.001 17.833C9.88964 17.833 9.78564 17.8193 9.68897 17.792C9.59164 17.764 9.4943 17.7153 9.39697 17.646C7.42497 15.8407 5.9563 14.1843 4.99097 12.677C4.02564 11.1703 3.54297 9.778 3.54297 8.5C3.54297 6.472 4.18864 4.861 5.47997 3.667C6.77197 2.47233 8.27897 1.875 10.001 1.875C11.723 1.875 13.23 2.47233 14.522 3.667C15.8133 4.861 16.459 6.472 16.459 8.5C16.459 9.778 15.9763 11.1703 15.011 12.677C14.0456 14.1843 12.577 15.8407 10.605 17.646C10.5216 17.7153 10.428 17.764 10.324 17.792C10.22 17.8193 10.1123 17.833 10.001 17.833Z" />
</svg>
