<svg width="41" height="40" viewBox="0 0 41 40" fill="none" xmlns="http://localhost/2000/svg">
<rect x="0.5" width="40" height="40" rx="20" fill="#0972E3"/>
<path d="M20.5 29.5C19.1833 29.5 17.946 29.25 16.788 28.75C15.6293 28.25 14.625 27.575 13.775 26.725C12.925 25.875 12.25 24.8707 11.75 23.712C11.25 22.554 11 21.3167 11 20C11 18.6833 11.25 17.4457 11.75 16.287C12.25 15.129 12.925 14.125 13.775 13.275C14.625 12.425 15.6293 11.75 16.788 11.25C17.946 10.75 19.1833 10.5 20.5 10.5C21.8167 10.5 23.0543 10.75 24.213 11.25C25.371 11.75 26.375 12.425 27.225 13.275C28.075 14.125 28.75 15.129 29.25 16.287C29.75 17.4457 30 18.6833 30 20C30 21.3167 29.75 22.554 29.25 23.712C28.75 24.8707 28.075 25.875 27.225 26.725C26.375 27.575 25.371 28.25 24.213 28.75C23.0543 29.25 21.8167 29.5 20.5 29.5ZM20.5 28C22.7333 28 24.625 27.225 26.175 25.675C27.725 24.125 28.5 22.2333 28.5 20C28.5 19.0667 28.3417 18.1623 28.025 17.287C27.7083 16.4123 27.25 15.6167 26.65 14.9L15.4 26.15C16.1167 26.75 16.9127 27.2083 17.788 27.525C18.6627 27.8417 19.5667 28 20.5 28ZM14.35 25.1L25.6 13.85C24.8833 13.25 24.0877 12.7917 23.213 12.475C22.3377 12.1583 21.4333 12 20.5 12C18.2667 12 16.375 12.775 14.825 14.325C13.275 15.875 12.5 17.7667 12.5 20C12.5 20.9333 12.6583 21.8373 12.975 22.712C13.2917 23.5873 13.75 24.3833 14.35 25.1Z" fill="white"/>
</svg>
