<svg width="20" height="20" viewBox="0 0 20 20" fill="none" xmlns="http://localhost/2000/svg">
<path d="M16.1293 12.6863L13.2855 11.4675C13.164 11.4157 13.029 11.4048 12.9007 11.4364C12.7725 11.468 12.658 11.5404 12.5745 11.6427L11.3151 13.1814C9.33861 12.2495 7.74798 10.6588 6.81607 8.68234L8.35477 7.42294C8.45727 7.33958 8.52982 7.22509 8.56143 7.09681C8.59304 6.96853 8.582 6.83344 8.52997 6.71199L7.3112 3.86819C7.2541 3.73728 7.15311 3.63039 7.02564 3.56596C6.89817 3.50153 6.75222 3.4836 6.61294 3.51526L3.97227 4.12464C3.838 4.15565 3.7182 4.23126 3.63242 4.33912C3.54665 4.44698 3.49997 4.58073 3.5 4.71854C3.5 11.2314 8.7788 16.5 15.2815 16.5C15.4193 16.5001 15.5531 16.4534 15.661 16.3677C15.7689 16.2819 15.8446 16.162 15.8756 16.0277L16.485 13.3871C16.5164 13.2471 16.4981 13.1006 16.4332 12.9727C16.3683 12.8448 16.2608 12.7435 16.1293 12.6863Z" fill="#5C5C5C"/>
</svg>
