<svg width="20" height="20" viewBox="0 0 20 20" fill="none" xmlns="http://localhost/2000/svg">
<mask id="mask0_227_244397" style="mask-type:alpha" maskUnits="userSpaceOnUse" x="0" y="0" width="20" height="20">
<rect width="20" height="20" fill="#D9D9D9"/>
</mask>
<g mask="url(#mask0_227_244397)">
<path d="M13.249 6.95799V4.49999H6.74903V6.95799H5.41603V3.95799C5.41603 3.74999 5.4957 3.56599 5.65503 3.40599C5.81503 3.24666 5.99903 3.16699 6.20703 3.16699H13.791C13.999 3.16699 14.183 3.24666 14.343 3.40599C14.5024 3.56599 14.582 3.74999 14.582 3.95799V6.95799H13.249ZM14.832 10.479C15.0687 10.479 15.2737 10.3923 15.447 10.219C15.6204 10.045 15.707 9.83999 15.707 9.60399C15.707 9.36799 15.6204 9.16333 15.447 8.98999C15.2737 8.81599 15.0687 8.72899 14.832 8.72899C14.596 8.72899 14.3914 8.81599 14.218 8.98999C14.044 9.16333 13.957 9.36799 13.957 9.60399C13.957 9.83999 14.044 10.045 14.218 10.219C14.3914 10.3923 14.596 10.479 14.832 10.479ZM6.99903 15.75H12.999C13.0684 15.75 13.1274 15.7257 13.176 15.677C13.2247 15.6283 13.249 15.5693 13.249 15.5V12.604H6.74903V15.5C6.74903 15.5693 6.77336 15.6283 6.82203 15.677C6.8707 15.7257 6.9297 15.75 6.99903 15.75ZM6.99903 17.083C6.56836 17.083 6.1967 16.927 5.88403 16.615C5.57203 16.3023 5.41603 15.9307 5.41603 15.5V14.021H3.10303C2.89503 14.021 2.71436 13.941 2.56103 13.781C2.40836 13.6217 2.33203 13.4307 2.33203 13.208V9.10399C2.33203 8.52066 2.53703 8.01733 2.94703 7.59399C3.35636 7.16999 3.8667 6.95799 4.47803 6.95799H15.52C16.1174 6.95799 16.6244 7.16999 17.041 7.59399C17.4577 8.01733 17.666 8.52066 17.666 9.10399V13.208C17.666 13.4307 17.5897 13.6217 17.437 13.781C17.2837 13.941 17.103 14.021 16.895 14.021H14.582V15.5C14.582 15.9307 14.426 16.3023 14.114 16.615C13.8014 16.927 13.4297 17.083 12.999 17.083H6.99903ZM16.332 12.688V9.18799C16.332 8.93733 16.2594 8.72533 16.114 8.55199C15.968 8.37866 15.77 8.29199 15.52 8.29199H4.56103C4.2977 8.29199 4.0827 8.37866 3.91603 8.55199C3.74936 8.72533 3.66603 8.93733 3.66603 9.18799V12.688H5.41603V11.271H14.582V12.688H16.332Z" fill="#0972E3"/>
</g>
</svg>
