<svg width="20" height="20" viewBox="0 0 20 20" fill="none" xmlns="http://localhost/2000/svg">
<path fill-rule="evenodd" clip-rule="evenodd" d="M8.95423 17.6C9.23715 17.8475 9.60717 17.998 10.0123 18C10.1079 17.9981 10.2031 17.9874 10.2967 17.968H10.3336C10.6087 17.9084 10.8596 17.7802 11.0656 17.6C11.2445 17.4435 11.3896 17.2478 11.4873 17.024C11.5171 16.951 11.5414 16.8762 11.5601 16.8C11.5899 16.6788 11.6056 16.5543 11.6067 16.4291C11.6068 16.4194 11.6068 16.4097 11.6067 16.4H8.40189C8.40325 16.5382 8.42197 16.6722 8.45596 16.8C8.53969 17.1148 8.71611 17.3917 8.95423 17.6ZM3.60269 15.6V14L5.20509 13.2V8.8C5.16288 7.6713 5.41816 6.5513 5.9454 5.552C6.47022 4.62521 7.36729 3.9671 8.4099 3.744V3.6024C8.4099 2.71742 9.12732 2 10.0123 2C10.8973 2 11.6147 2.71742 11.6147 3.6024V3.744C13.681 4.2352 14.8195 6.0304 14.8195 8.8V13.2L16.4219 14V15.6H3.60269ZM14.5366 14.4H5.48799L6.40509 13.9421V8.77757L6.40425 8.75516C6.37014 7.84294 6.57482 6.93764 6.99805 6.1285C7.35478 5.50834 7.95897 5.06766 8.661 4.91743L9.6099 4.71438V3.6024C9.6099 3.38016 9.79006 3.2 10.0123 3.2C10.2345 3.2 10.4147 3.38016 10.4147 3.6024V4.69218L11.3372 4.91147C12.0737 5.08656 12.6073 5.47461 12.9785 6.06011C13.3653 6.67023 13.6195 7.5688 13.6195 8.8V13.9421L14.5366 14.4ZM3.05253 4.85448C3.47209 3.99261 4.0468 3.21749 4.74606 2.56683C4.9755 2.35334 5.33898 2.37154 5.57218 2.60603C5.8445 2.87986 5.82116 3.34465 5.52985 3.63513C4.45179 4.71015 3.74748 6.10537 3.52444 7.61284C3.47101 7.97395 3.17856 8.25003 2.83388 8.25003C2.461 8.25003 2.17617 7.94109 2.224 7.59037C2.35331 6.64211 2.63244 5.71851 3.05253 4.85448ZM15.2545 2.56685C15.0251 2.35334 14.6616 2.37155 14.4284 2.60606C14.156 2.87989 14.1794 3.34468 14.4707 3.63518C15.5486 4.71027 16.2529 6.10545 16.4761 7.61288C16.5295 7.97398 16.822 8.25003 17.1666 8.25003C17.5395 8.25003 17.8244 7.94107 17.7765 7.59032C17.6472 6.64206 17.3681 5.71846 16.948 4.85441C16.5284 3.99258 15.9538 3.21748 15.2545 2.56685Z" fill="#FF5555"/>
</svg>
