<svg width="24" height="24" viewBox="0 0 24 24" fill="none" xmlns="http://localhost/2000/svg">
<path d="M20.3506 15.7287V7.19453C20.3506 6.95001 20.2159 6.72417 19.9971 6.60186L12.3623 2.33489C12.1435 2.21257 11.8741 2.21257 11.6553 2.33489L4.02047 6.60186C3.80172 6.72417 3.66699 6.95001 3.66699 7.19453V15.7287C3.66699 15.9732 3.80172 16.199 4.02047 16.3214L11.6553 20.5883C11.8741 20.7106 12.1435 20.7106 12.3623 20.5883L19.9971 16.3214C20.2159 16.199 20.3506 15.9732 20.3506 15.7287Z" fill="#C4CCD5"/>
<path d="M18.8964 14.8171V7.96393C18.8964 7.72047 18.7623 7.49561 18.5445 7.37383L12.4134 3.94724C12.1956 3.82546 11.9274 3.82546 11.7096 3.94724L5.57851 7.37383C5.36071 7.49561 5.22656 7.72047 5.22656 7.96393V14.8171C5.22656 15.0606 5.36071 15.2854 5.57851 15.4072L11.7096 18.8338C11.9274 18.9555 12.1956 18.9555 12.4134 18.8338L18.5445 15.4072C18.7623 15.2854 18.8964 15.0606 18.8964 14.8171Z" fill="#A9B2B6"/>
<path d="M7.38353 14.6997L3.86426 19.641L6.3214 20.3274L8.38773 22.3505L12.0385 17.2035C11.9215 17.2013 11.8051 17.1709 11.7003 17.1124L7.38353 14.6997Z" fill="#E7234F"/>
<path d="M12.2046 17.1875L15.8655 22.3505L17.9318 20.3274L20.3891 19.641L16.8306 14.6384L12.4042 17.1124C12.3411 17.1476 12.2737 17.1727 12.2046 17.1875Z" fill="#E7234F"/>
<path d="M17.329 13.9664V8.85486C17.329 8.6114 17.1949 8.38654 16.9771 8.26487L12.4042 5.70903C12.1864 5.58725 11.918 5.58725 11.7003 5.70903L7.12734 8.26487C6.90954 8.38654 6.77539 8.6114 6.77539 8.85486V13.9664C6.77539 14.2099 6.90954 14.4347 7.12734 14.5565L11.7003 17.1124C11.918 17.234 12.1864 17.234 12.4042 17.1124L16.9771 14.5565C17.1949 14.4347 17.329 14.2099 17.329 13.9664Z" fill="#E1E9F2"/>
<path d="M8.88666 11.2681C8.88666 11.5274 8.66942 11.7377 8.40134 11.7377C8.13326 11.7377 7.91602 11.5274 7.91602 11.2681C7.91602 11.0089 8.13326 10.7986 8.40134 10.7986C8.66942 10.7986 8.88666 11.0089 8.88666 11.2681Z" fill="white"/>
<path d="M16.2177 11.2681C16.2177 11.5274 16.0005 11.7377 15.7324 11.7377C15.4643 11.7377 15.2471 11.5274 15.2471 11.2681C15.2471 11.0089 15.4643 10.7986 15.7324 10.7986C16.0005 10.7986 16.2177 11.0089 16.2177 11.2681Z" fill="white"/>
<mask id="mask0_2879_374583" style="mask-type:alpha" maskUnits="userSpaceOnUse" x="3" y="2" width="18" height="19">
<path d="M20.3496 15.7288V7.19465C20.3496 6.95013 20.2149 6.72429 19.9962 6.60198L12.3613 2.33501C12.1426 2.2127 11.8731 2.2127 11.6543 2.33501L4.01949 6.60198C3.80075 6.72429 3.66602 6.95013 3.66602 7.19465V15.7288C3.66602 15.9733 3.80075 16.1992 4.01949 16.3215L11.6543 20.5884C11.8731 20.7108 12.1426 20.7108 12.3613 20.5884L19.9962 16.3215C20.2149 16.1992 20.3496 15.9733 20.3496 15.7288Z" fill="#A9B9C7"/>
</mask>
<g mask="url(#mask0_2879_374583)">
<path opacity="0.1" d="M0.787974 15.2917C10.7535 15.2917 18.8483 7.39748 19 -2.39731L11.88 -6.45217C11.5309 -6.65113 11.1007 -6.65113 10.7515 -6.45217L-1.43575 0.488625C-1.78493 0.687583 -2 1.05494 -2 1.45269V15.0824C-1.09097 15.2202 -0.160124 15.2917 0.787974 15.2917Z" fill="white"/>
</g>
<path d="M10.3737 14V13.3063L12.1576 11.6215C12.2985 11.4938 12.402 11.3792 12.4681 11.2779C12.5342 11.1766 12.5782 11.0841 12.6002 11.0004C12.6267 10.9167 12.6399 10.8397 12.6399 10.7692C12.6399 10.5842 12.576 10.4432 12.4483 10.3463C12.3249 10.245 12.1421 10.1944 11.8999 10.1944C11.7061 10.1944 11.5255 10.2318 11.3581 10.3067C11.1951 10.3816 11.0564 10.4983 10.9419 10.6569L10.1623 10.1547C10.3384 9.89046 10.5851 9.68124 10.9022 9.52707C11.2194 9.37291 11.585 9.29583 11.999 9.29583C12.3426 9.29583 12.6421 9.35309 12.8975 9.46761C13.1574 9.57773 13.3578 9.73409 13.4988 9.93671C13.6441 10.1393 13.7168 10.3816 13.7168 10.6635C13.7168 10.8132 13.697 10.963 13.6573 11.1127C13.6221 11.2581 13.5472 11.4123 13.4327 11.5752C13.3226 11.7382 13.1596 11.921 12.9438 12.1236L11.4638 13.5177L11.259 13.1279H13.8688V14H10.3737Z" fill="#A9B2B6"/>
</svg>
