<svg width="20" height="20" viewBox="0 0 20 20" fill="none" xmlns="http://localhost/2000/svg">
<path d="M6.08178 16C5.89582 16 5.73492 15.9331 5.59905 15.7992C5.46319 15.666 5.39526 15.5079 5.39526 15.3247V6.21968L3.65792 7.93234C3.5152 8.05876 3.35086 8.12197 3.1649 8.12197C2.97895 8.12197 2.82182 8.05876 2.6935 7.93234C2.5645 7.80525 2.5 7.65011 2.5 7.4669C2.5 7.2837 2.5717 7.12889 2.71512 7.00248L5.50333 4.2332C5.57469 4.16289 5.6639 4.10644 5.77094 4.06385C5.87798 4.02194 5.9816 4.00098 6.08178 4.00098C6.18196 4.00098 6.28557 4.02194 6.39262 4.06385C6.49966 4.10644 6.58886 4.16289 6.66022 4.2332L9.38319 6.93716C9.5266 7.06357 9.59453 7.21838 9.58698 7.40158C9.58012 7.58479 9.51219 7.73993 9.38319 7.86702C9.25487 8.00764 9.10117 8.07794 8.92208 8.07794C8.74367 8.07794 8.58311 8.00764 8.44038 7.86702L6.7683 6.21968V15.3247C6.7683 15.5079 6.70036 15.666 6.5645 15.7992C6.42864 15.9331 6.26773 16 6.08178 16Z" fill="#333333"/>
<path d="M13.9942 4C13.8083 4 13.6474 4.06693 13.5115 4.20078C13.3756 4.33395 13.3077 4.49214 13.3077 4.67534V13.7803L11.5704 12.0677C11.4276 11.9412 11.2633 11.878 11.0774 11.878C10.8914 11.878 10.7343 11.9412 10.606 12.0677C10.477 12.1947 10.4125 12.3499 10.4125 12.5331C10.4125 12.7163 10.4842 12.8711 10.6276 12.9975L13.4158 15.7668C13.4871 15.8371 13.5763 15.8936 13.6834 15.9361C13.7904 15.9781 13.894 15.999 13.9942 15.999C14.0944 15.999 14.198 15.9781 14.3051 15.9361C14.4121 15.8936 14.5013 15.8371 14.5727 15.7668L17.2956 13.0628C17.4391 12.9364 17.507 12.7816 17.4994 12.5984C17.4926 12.4152 17.4246 12.2601 17.2956 12.133C17.1673 11.9924 17.0136 11.9221 16.8345 11.9221C16.6561 11.9221 16.4956 11.9924 16.3528 12.133L14.6807 13.7803V4.67534C14.6807 4.49214 14.6128 4.33395 14.477 4.20078C14.3411 4.06693 14.1802 4 13.9942 4Z" fill="#333333"/>
</svg>
