<svg width="20" height="22" viewBox="0 0 20 22" fill="none" xmlns="http://localhost/2000/svg">
<path d="M1.19129 1.7361C0.955228 1.7361 0.769614 1.6603 0.622524 1.51252C0.47474 1.36543 0.398438 1.17931 0.398438 0.943248C0.398438 0.707181 0.474252 0.520993 0.622275 0.372971C0.769316 0.225929 0.955009 0.150391 1.19129 0.150391H18.7913C19.0274 0.150391 19.2136 0.225836 19.3615 0.372919C19.5087 0.520863 19.5842 0.707068 19.5842 0.943248C19.5842 1.17953 19.5086 1.36523 19.3616 1.51227C19.2136 1.66029 19.0274 1.7361 18.7913 1.7361H1.19129Z" fill="#5C5C5C"/>
<path d="M9.19844 21.0575V8.3754L3.83298 13.7409C3.69533 13.8785 3.5248 13.9483 3.31048 13.9483C3.10143 13.9483 2.91888 13.8718 2.75654 13.7094C2.59421 13.5471 2.51762 13.3645 2.51762 13.1555C2.51762 12.9464 2.59421 12.7639 2.75654 12.6016L9.31165 6.04646C9.40178 5.95633 9.50477 5.88918 9.6216 5.844C9.74 5.79874 9.86292 5.7761 9.9913 5.7761C10.1196 5.7761 10.243 5.79872 10.3623 5.84404C10.4782 5.88917 10.5808 5.95627 10.6709 6.04646L17.2575 12.633C17.3951 12.7706 17.465 12.9412 17.465 13.1555C17.465 13.3645 17.3884 13.5471 17.226 13.7094C17.0637 13.8718 16.8812 13.9483 16.6721 13.9483C16.4631 13.9483 16.2805 13.8718 16.1182 13.7094L10.7842 8.3754V21.0575C10.7842 21.2936 10.7087 21.4798 10.5617 21.6277C10.4137 21.7749 10.2275 21.8504 9.9913 21.8504C9.75501 21.8504 9.56932 21.7749 9.42228 21.6278C9.27425 21.4798 9.19844 21.2936 9.19844 21.0575Z" fill="#5C5C5C"/>
</svg>
