<svg width="20" height="20" viewBox="0 0 20 20" xmlns="http://localhost/2000/svg">
<path d="M6.14599 17.083C5.70132 17.083 5.32632 16.9303 5.02099 16.625C4.71499 16.3197 4.56199 15.9447 4.56199 15.5V5.125H4.35399C4.17332 5.125 4.01699 5.059 3.88499 4.927C3.75365 4.795 3.68799 4.63866 3.68799 4.458C3.68799 4.278 3.75365 4.122 3.88499 3.99C4.01699 3.858 4.17332 3.792 4.35399 3.792H7.52099C7.52099 3.58333 7.60066 3.40266 7.75999 3.25C7.91999 3.09733 8.10399 3.021 8.31199 3.021H11.667C11.875 3.021 12.059 3.09733 12.219 3.25C12.3783 3.40266 12.458 3.58333 12.458 3.792H15.625C15.8057 3.792 15.962 3.858 16.094 3.99C16.226 4.122 16.292 4.278 16.292 4.458C16.292 4.63866 16.226 4.795 16.094 4.927C15.962 5.059 15.8057 5.125 15.625 5.125H15.417V15.5C15.417 15.9447 15.264 16.3197 14.958 16.625C14.6527 16.9303 14.2777 17.083 13.833 17.083H6.14599ZM5.89599 5.125V15.5C5.89599 15.5693 5.92032 15.6283 5.96899 15.677C6.01765 15.7257 6.07665 15.75 6.14599 15.75H13.833C13.903 15.75 13.962 15.7257 14.01 15.677C14.0587 15.6283 14.083 15.5693 14.083 15.5V5.125H5.89599ZM7.79199 13.333C7.79199 13.5137 7.85799 13.67 7.98999 13.802C8.12199 13.934 8.27799 14 8.45799 14C8.63866 14 8.79499 13.934 8.92699 13.802C9.05899 13.67 9.12499 13.5137 9.12499 13.333V7.542C9.12499 7.36133 9.05899 7.205 8.92699 7.073C8.79499 6.941 8.63866 6.875 8.45799 6.875C8.27799 6.875 8.12199 6.941 7.98999 7.073C7.85799 7.205 7.79199 7.36133 7.79199 7.542V13.333ZM10.854 13.333C10.854 13.5137 10.92 13.67 11.052 13.802C11.184 13.934 11.3403 14 11.521 14C11.7017 14 11.858 13.934 11.99 13.802C12.122 13.67 12.188 13.5137 12.188 13.333V7.542C12.188 7.36133 12.122 7.205 11.99 7.073C11.858 6.941 11.7017 6.875 11.521 6.875C11.3403 6.875 11.184 6.941 11.052 7.073C10.92 7.205 10.854 7.36133 10.854 7.542V13.333ZM5.89599 5.125V15.5C5.89599 15.5693 5.92032 15.6283 5.96899 15.677C6.01765 15.7257 6.07665 15.75 6.14599 15.75H5.89599V5.125Z"/>
</svg>
