<svg width="18" height="18" viewBox="0 0 18 18" xmlns="http://localhost/2000/svg">
<path fill-rule="evenodd" clip-rule="evenodd" d="M0 2C0 0.895431 0.895431 0 2 0H6C7.10457 0 8 0.895431 8 2V6C8 7.10457 7.10457 8 6 8H2C0.895431 8 0 7.10457 0 6V2ZM2 1.5H6C6.27614 1.5 6.5 1.72386 6.5 2V6C6.5 6.27614 6.27614 6.5 6 6.5H2C1.72386 6.5 1.5 6.27614 1.5 6V2C1.5 1.72386 1.72386 1.5 2 1.5Z" />
<path fill-rule="evenodd" clip-rule="evenodd" d="M0 12C0 10.8954 0.895431 10 2 10H6C7.10457 10 8 10.8954 8 12V16C8 17.1046 7.10457 18 6 18H2C0.895431 18 0 17.1046 0 16V12ZM2 11.5H6C6.27614 11.5 6.5 11.7239 6.5 12V16C6.5 16.2761 6.27614 16.5 6 16.5H2C1.72386 16.5 1.5 16.2761 1.5 16V12C1.5 11.7239 1.72386 11.5 2 11.5Z" />
<path d="M10 2C10 1.44772 10.4477 1 11 1H17C17.5523 1 18 1.44772 18 2C18 2.55228 17.5523 3 17 3H11C10.4477 3 10 2.55228 10 2Z" />
<path d="M11 5C10.4477 5 10 5.44772 10 6C10 6.55228 10.4477 7 11 7H17C17.5523 7 18 6.55228 18 6C18 5.44772 17.5523 5 17 5H11Z" />
<path d="M10 12C10 11.4477 10.4477 11 11 11H17C17.5523 11 18 11.4477 18 12C18 12.5523 17.5523 13 17 13H11C10.4477 13 10 12.5523 10 12Z" />
<path d="M11 15C10.4477 15 10 15.4477 10 16C10 16.5523 10.4477 17 11 17H17C17.5523 17 18 16.5523 18 16C18 15.4477 17.5523 15 17 15H11Z" />
</svg>
