<svg width="18" height="18" viewBox="0 0 18 18" xmlns="http://localhost/2000/svg">
<path fill-rule="evenodd" clip-rule="evenodd" d="M6 1.5H2C1.72386 1.5 1.5 1.72386 1.5 2V6C1.5 6.27614 1.72386 6.5 2 6.5H6C6.27614 6.5 6.5 6.27614 6.5 6V2C6.5 1.72386 6.27614 1.5 6 1.5ZM6 11.5H2C1.72386 11.5 1.5 11.7239 1.5 12V16C1.5 16.2761 1.72386 16.5 2 16.5H6C6.27614 16.5 6.5 16.2761 6.5 16V12C6.5 11.7239 6.27614 11.5 6 11.5ZM16 1.5H12C11.7239 1.5 11.5 1.72386 11.5 2V6C11.5 6.27614 11.7239 6.5 12 6.5H16C16.2761 6.5 16.5 6.27614 16.5 6V2C16.5 1.72386 16.2761 1.5 16 1.5ZM16 11.5H12C11.7239 11.5 11.5 11.7239 11.5 12V16C11.5 16.2761 11.7239 16.5 12 16.5H16C16.2761 16.5 16.5 16.2761 16.5 16V12C16.5 11.7239 16.2761 11.5 16 11.5ZM2 0C0.895431 0 0 0.895431 0 2V6C0 7.10457 0.895431 8 2 8H6C7.10457 8 8 7.10457 8 6V2C8 0.895431 7.10457 0 6 0H2ZM2 10C0.895431 10 0 10.8954 0 12V16C0 17.1046 0.895431 18 2 18H6C7.10457 18 8 17.1046 8 16V12C8 10.8954 7.10457 10 6 10H2ZM10 2C10 0.895431 10.8954 0 12 0H16C17.1046 0 18 0.895431 18 2V6C18 7.10457 17.1046 8 16 8H12C10.8954 8 10 7.10457 10 6V2ZM12 10C10.8954 10 10 10.8954 10 12V16C10 17.1046 10.8954 18 12 18H16C17.1046 18 18 17.1046 18 16V12C18 10.8954 17.1046 10 16 10H12Z" />
</svg>
