<svg width="64" height="64" viewBox="0 0 64 64" fill="none" xmlns="http://localhost/2000/svg">
<circle cx="32" cy="32" r="32" fill="#FF5555"/>
<path fill-rule="evenodd" clip-rule="evenodd" d="M29.6692 47.5137C30.3134 48.1668 31.0952 48.499 31.9992 48.499C32.9032 48.499 33.685 48.1668 34.3292 47.5137C34.9732 46.8606 35.2992 46.0698 35.2992 45.157C35.2992 44.2198 34.9752 43.4144 34.3292 42.7594C33.685 42.1062 32.9032 41.774 31.9992 41.774C31.0952 41.774 30.3134 42.1062 29.6692 42.7594C29.0232 43.4144 28.6992 44.2198 28.6992 45.157C28.6992 46.0698 29.0252 46.8606 29.6692 47.5137Z" fill="white"/>
<path fill-rule="evenodd" clip-rule="evenodd" d="M29.6692 36.3139C30.3134 36.967 31.0952 37.2992 31.9992 37.2992C32.9032 37.2992 33.685 36.967 34.3292 36.3139C34.9732 35.6608 35.2992 34.87 35.2992 33.9572V20.0412C35.2992 19.1284 34.9732 18.3376 34.3292 17.6846C33.685 17.0314 32.9032 16.6992 31.9992 16.6992C31.0952 16.6992 30.3134 17.0314 29.6692 17.6846C29.0252 18.3376 28.6992 19.1284 28.6992 20.0412V33.9572C28.6992 34.87 29.0252 35.6608 29.6692 36.3139Z" fill="white"/>
</svg>
