<svg width="48" height="48" viewBox="0 0 48 48" fill="none" xmlns="http://localhost/2000/svg">
<path d="M22.9954 6.14679C22.3854 6.35605 21.9255 6.70179 21.5783 7.19309C21.4281 7.40235 17.2422 14.408 12.268 22.7693C6.54289 32.3771 3.17354 38.1272 3.08907 38.4183C2.74181 39.683 3.43633 41.1205 4.71274 41.7392L5.18201 41.9666L23.812 41.9939C40.0768 42.0121 42.4982 41.9939 42.9112 41.8757C44.3566 41.4662 45.3045 39.8286 44.9103 38.4183C44.7601 37.8997 26.6839 7.46604 26.1771 6.89285C25.5013 6.1195 24.056 5.78286 22.9954 6.14679Z" fill="#FFC700"/>
<path d="M22.9954 6.14679C22.3854 6.35605 21.9255 6.70179 21.5783 7.19309C21.4281 7.40235 17.2422 14.408 12.268 22.7693C6.54289 32.3771 3.17354 38.1272 3.08907 38.4183C2.74181 39.683 3.43633 41.1205 4.71274 41.7392L5.18201 41.9666L23.812 41.9939C40.0768 42.0121 42.4982 41.9939 42.9112 41.8757C44.3566 41.4662 45.3045 39.8286 44.9103 38.4183C44.7601 37.8997 26.6839 7.46604 26.1771 6.89285C25.5013 6.1195 24.056 5.78286 22.9954 6.14679ZM24.6379 7.56612C24.7787 7.6389 24.9851 7.79358 25.0884 7.91185C25.2761 8.10292 42.8455 37.5267 43.3335 38.4729C43.6996 39.1644 43.4837 39.8831 42.7704 40.3472L42.4607 40.5564H23.9997H5.53865L5.22894 40.3472C4.51565 39.8831 4.29978 39.1644 4.66581 38.4638C5.05061 37.736 22.7045 8.12111 22.8641 7.94825C23.2958 7.46604 24.0935 7.29317 24.6379 7.56612Z" fill="#222222"/>
<path d="M23.3907 15.8829C23.0438 16.0423 22.7344 16.3704 22.6032 16.7173C22.5282 16.8954 22.5001 19.0423 22.5001 23.261C22.5001 30.2173 22.4813 29.9454 23.1188 30.4329C23.4094 30.6579 23.5594 30.7048 24.0001 30.7048C24.4313 30.7048 24.5907 30.6579 24.8626 30.4516C25.5376 29.936 25.5094 30.2829 25.4813 23.1204C25.4532 16.8016 25.4532 16.6985 25.2563 16.4454C25.1532 16.3048 24.9563 16.0985 24.8251 16.0048C24.5063 15.7704 23.7657 15.7048 23.3907 15.8829Z" fill="#222222"/>
<path d="M23.3907 33.8829C23.0063 34.0516 22.6126 34.5298 22.5376 34.9235C22.4438 35.4673 22.5751 35.8891 22.9688 36.2829C23.5969 36.911 24.4032 36.911 25.0313 36.2829C26.2032 35.111 24.9001 33.2266 23.3907 33.8829Z" fill="#222222"/>
</svg>
