<svg width="19" height="16" viewBox="0 0 19 16" fill="none" xmlns="http://localhost/2000/svg">
<path d="M10.3547 15.7294C10.1945 15.559 10.1099 15.3367 10.1009 15.0623C10.0919 14.7879 10.1676 14.5655 10.3278 14.3952L15.4555 8.94374H1.38132C1.13177 8.94374 0.922391 8.85379 0.753178 8.67389C0.584393 8.494 0.5 8.27162 0.5 8.00678C0.5 7.74193 0.584393 7.51955 0.753178 7.33966C0.922391 7.15976 1.13177 7.06981 1.38132 7.06981H15.4555L10.3278 1.61839C10.1676 1.44803 10.0919 1.22089 10.1009 0.936963C10.1099 0.653035 10.1945 0.425892 10.3547 0.255535C10.515 0.0851785 10.7196 0 10.9688 0C11.2179 0 11.4226 0.0851785 11.5828 0.255535L18.2596 7.35397C18.3485 7.44846 18.4109 7.54772 18.4468 7.65175C18.4823 7.75578 18.5 7.87412 18.5 8.00678C18.5 8.12035 18.4823 8.23392 18.4468 8.34749C18.4109 8.46106 18.3485 8.56509 18.2596 8.65958L11.5828 15.758C11.4226 15.9284 11.2179 16.0088 10.9688 15.9992C10.7196 15.9897 10.515 15.8998 10.3547 15.7294Z" fill="#A2A9B1"/>
</svg>
