<svg width="24" height="24" viewBox="0 0 24 24" fill="none" xmlns="http://localhost/2000/svg">
<circle cx="12" cy="12" r="12" fill="#ED1C24"/>
<path d="M14.3998 7.7999C14.3998 8.43642 14.1469 9.04687 13.6969 9.49696C13.2468 9.94705 12.6363 10.1999 11.9998 10.1999C11.3633 10.1999 10.7528 9.94705 10.3027 9.49696C9.85266 9.04687 9.5998 8.43642 9.5998 7.7999C9.5998 7.16338 9.85266 6.55293 10.3027 6.10285C10.7528 5.65276 11.3633 5.3999 11.9998 5.3999C12.6363 5.3999 13.2468 5.65276 13.6969 6.10285C14.1469 6.55293 14.3998 7.16338 14.3998 7.7999ZM18.3998 9.3999C18.3998 9.82425 18.2312 10.2312 17.9312 10.5313C17.6311 10.8313 17.2242 10.9999 16.7998 10.9999C16.3755 10.9999 15.9685 10.8313 15.6684 10.5313C15.3684 10.2312 15.1998 9.82425 15.1998 9.3999C15.1998 8.97556 15.3684 8.56859 15.6684 8.26853C15.9685 7.96847 16.3755 7.7999 16.7998 7.7999C17.2242 7.7999 17.6311 7.96847 17.9312 8.26853C18.2312 8.56859 18.3998 8.97556 18.3998 9.3999ZM15.1998 14.9999C15.1998 14.1512 14.8627 13.3373 14.2625 12.7372C13.6624 12.137 12.8485 11.7999 11.9998 11.7999C11.1511 11.7999 10.3372 12.137 9.73706 12.7372C9.13695 13.3373 8.7998 14.1512 8.7998 14.9999V17.3999H15.1998V14.9999ZM8.7998 9.3999C8.7998 9.82425 8.63123 10.2312 8.33118 10.5313C8.03112 10.8313 7.62415 10.9999 7.1998 10.9999C6.77546 10.9999 6.36849 10.8313 6.06843 10.5313C5.76838 10.2312 5.5998 9.82425 5.5998 9.3999C5.5998 8.97556 5.76838 8.56859 6.06843 8.26853C6.36849 7.96847 6.77546 7.7999 7.1998 7.7999C7.62415 7.7999 8.03112 7.96847 8.33118 8.26853C8.63123 8.56859 8.7998 8.97556 8.7998 9.3999ZM16.7998 17.3999V14.9999C16.801 14.1865 16.5944 13.3863 16.1998 12.6751C16.5545 12.5843 16.9252 12.5758 17.2837 12.6501C17.6422 12.7244 17.979 12.8796 18.2684 13.1038C18.5577 13.3281 18.7921 13.6155 18.9535 13.9441C19.1149 14.2727 19.1992 14.6338 19.1998 14.9999V17.3999H16.7998ZM7.7998 12.6751C7.4052 13.3863 7.19868 14.1865 7.1998 14.9999V17.3999H4.7998V14.9999C4.79965 14.6335 4.88338 14.272 5.04456 13.943C5.20575 13.614 5.44012 13.3262 5.72971 13.1018C6.0193 12.8774 6.35643 12.7223 6.71525 12.6483C7.07408 12.5743 7.44507 12.5835 7.7998 12.6751Z" fill="white"/>
</svg>
