<?xml version="1.0" encoding="UTF-8" standalone="no"?>
<svg
   xmlns:dc="http://purl.org/dc/elements/1.1/"
   xmlns:cc="http://creativecommons.org/ns#"
   xmlns:rdf="http://localhost/1999/02/22-rdf-syntax-ns#"
   xmlns:svg="http://localhost/2000/svg"
   xmlns="http://localhost/2000/svg"
   viewBox="0 0 1098.6667 216"
   height="216"
   width="1098.6667"
   xml:space="preserve"
   id="svg2"
   version="1.1"><metadata
     id="metadata8"><rdf:RDF><cc:Work
         rdf:about=""><dc:format>image/svg+xml</dc:format><dc:type
           rdf:resource="http://purl.org/dc/dcmitype/StillImage" /></cc:Work></rdf:RDF></metadata><defs
     id="defs6" /><g
     transform="matrix(1.3333333,0,0,-1.3333333,0,216)"
     id="g10"><g
       transform="scale(0.1)"
       id="g12"><path
         id="path14"
         style="fill:#2056ae;fill-opacity:1;fill-rule:nonzero;stroke:none"
         d="m 5227.5,1003.19 c -32.92,5.47 -43.98,-27.467 -38.45,-55.006 16.36,-32.93 65.84,-16.469 98.96,-22 87.94,16.531 203.26,-49.481 258.27,33.019 11.06,5.531 5.53,27.508 0,27.508 -104.3,10.949 -214.48,27.449 -318.78,16.479 z M 296.449,1464.94 c -16.539,38.45 -54.996,27.46 -82.5,38.45 -21.976,-5.47 -11.051,-32.92 -21.976,-49.43 -10.942,-60.49 27.496,-109.97 71.558,-159.45 38.446,44.01 43.953,115.49 32.918,170.43 z m 522.258,38.45 c -16.465,33.02 -55.012,11.04 -88.019,16.51 -49.387,-60.42 -87.938,-131.89 -115.446,-192.36 l 76.988,21.98 c 60.528,32.98 120.954,82.41 126.477,153.87 z M 7206.48,948.184 c 49.48,-5.469 76.89,55.006 98.99,88.016 16.55,27.45 5.49,60.42 -22.1,82.46 -38.46,43.92 -120.85,27.45 -120.85,93.39 54.98,66 170.33,104.5 170.33,208.93 0,27.45 -32.91,38.5 -49.48,49.49 -54.83,21.93 -137.41,43.96 -192.22,0 -11.07,-27.55 21.9,-49.49 43.95,-82.46 49.31,-104.49 -121.06,-126.47 -104.5,-225.43 60.55,-71.49 126.39,-137.44 175.88,-214.396 z m 478.28,263.866 c 87.92,-49.47 104.48,-159.38 175.86,-230.859 38.62,-5.468 77.07,32.969 104.5,60.479 16.55,38.44 32.91,76.99 16.55,115.42 -27.59,54.96 -98.99,54.96 -153.97,65.95 -5.51,5.53 -16.57,10.99 -16.57,22.04 32.93,60.42 153.99,54.94 153.99,142.93 -21.9,71.47 -93.47,104.39 -153.99,115.38 -54.8,-16.46 27.39,-71.46 -11.02,-115.38 -21.89,-76.97 -170.34,-87.99 -115.35,-175.96 z m -175.84,-148.4 c 21.85,-5.51 43.95,5.48 60.31,21.97 11.04,33.04 33.11,54.98 22.09,93.5 -33.13,43.92 -82.4,49.45 -121.05,76.94 44.16,60.49 132.07,43.96 181.56,109.92 16.39,22.03 21.89,55 21.89,82.45 -49.48,76.99 -142.95,104.45 -230.87,93.5 -43.96,-33.01 49.51,-60.47 32.95,-110 5.49,-76.95 -65.88,-131.91 -126.39,-175.87 -5.49,-16.49 -11.03,-49.47 11.07,-65.99 65.8,-27.49 87.9,-98.98 148.44,-126.42 z m 714.65,-186.947 c -88.12,5.52 -186.92,0 -280.35,16.563 -104.7,16.461 -208.99,21.988 -318.98,38.449 l 5.53,44.008 c -27.43,43.907 -82.43,60.477 -137.41,54.957 -32.95,-5.54 -71.4,-11.05 -98.99,-27.49 -10.87,-16.479 16.55,-27.467 5.52,-49.502 -21.89,-54.961 -87.93,-38.434 -142.93,-43.961 -110,-16.461 -241.92,-11 -340.88,-71.469 -11.03,-33.024 -32.92,-65.945 -11.03,-98.969 11.03,-27.465 38.63,-27.465 60.52,-27.465 104.48,27.465 203.48,49.492 318.8,60.489 16.57,-21.981 -16.36,-33.024 -16.36,-60.489 21.9,-44.004 109.99,-44.004 109.99,-104.48 -33.08,-38.457 -77.06,-71.453 -126.55,-54.895 11.03,49.438 -11.06,87.922 -27.42,126.418 -33.09,16.453 -66.04,43.965 -104.49,21.973 -93.43,-21.973 -38.46,-137.449 -43.95,-208.867 5.49,-60.489 -33.13,-115.477 -5.54,-170.489 32.92,-49.433 82.43,-87.929 148.45,-76.933 82.44,16.496 181.39,27.5 274.86,27.5 54.98,5.515 104.46,0 159.47,0 82.4,0 159.3,-54.961 241.9,-27.5 27.4,27.5 82.4,44.023 76.91,93.437 -11.07,98.985 27.39,203.418 -5.52,302.383 0,32.981 -38.46,43.977 -65.88,49.473 -110,-22.024 -104.47,-153.953 -126.56,-247.403 -21.88,-49.492 -87.92,-16.464 -126.35,-27.453 -49.51,10.989 -98.99,16.496 -153.97,16.496 h -76.91 c -49.5,-10.984 -121.06,-33.015 -170.54,0 -5.52,10.957 -5.52,32.95 5.54,49.512 16.56,0 21.89,-11.074 32.92,-11.074 66.04,-38.438 121.02,22.051 176.04,60.5 10.86,5.469 21.88,5.469 32.95,5.469 76.87,5.515 109.98,-120.903 197.93,-82.453 32.9,16.484 66.04,49.472 71.36,87.968 -38.46,43.965 -98.75,43.965 -142.94,87.957 11.06,27.453 66.05,16.489 87.93,43.989 27.59,21.968 -16.35,49.48 0,76.98 115.55,10.984 208.99,-49.492 324.5,-60.488 98.8,0 159.49,93.469 203.27,170.402 z M 7602.34,755.801 c -38.64,-5.469 -66.03,-71.453 -109.98,-49.473 0,0 -5.53,0 -11.07,5.496 -32.91,11.008 -65.84,27.465 -93.47,49.492 -5.32,16.465 16.57,10.997 27.63,16.465 h 76.91 c 38.41,0 76.87,-5.468 109.98,-5.468 z M 4507.31,1085.62 c -11.02,-21.97 0,-49.42 22.09,-60.48 l 186.87,22.03 c 43.98,-5.5 93.46,-10.97 126.37,32.94 0,10.98 11.08,33.03 0,44.02 -115.52,16.47 -241.86,21.98 -335.33,-38.51 z M 1483.88,931.715 c -33.02,11 -66.04,0 -87.92,-21.988 -49.48,0 -99.06,5.527 -153.98,5.527 -33.02,0 -66.04,0 -98.96,-5.527 -32.94,16.457 -65.95,32.988 -98.97,43.961 C 1005.6,942.715 978.105,898.727 967.07,865.703 956.117,700.84 972.578,519.402 868.191,387.48 824.23,310.488 741.723,327.012 681.301,283.027 c -10.949,-10.976 -10.949,-33.007 0,-49.472 27.492,-60.469 98.867,-65.938 153.875,-60.469 126.461,16.504 219.914,142.93 258.344,247.414 38.46,27.449 98.98,32.938 148.46,21.941 5.52,-5.468 10.95,-5.468 10.95,-5.468 43.97,-27.453 82.5,32.949 115.52,0 16.47,-109.961 -11.03,-214.414 38.45,-307.84 33.02,-32.9885 71.46,-10.996 115.43,-10.996 21.99,10.996 43.96,32.949 49.48,54.949 l -16.45,456.277 c 0,87.942 10.93,175.871 16.45,247.34 -10.95,38.551 -60.43,44.024 -87.93,55.012 z M 1357.42,541.406 c -38.44,11.043 -76.99,11.043 -115.44,11.043 -38.43,5.461 -76.98,5.461 -115.43,10.942 -16.47,11.004 -21.98,32.976 -16.47,55 l 27.42,10.972 c 32.92,5.512 71.46,0 104.48,0 49.39,-5.515 87.93,-5.515 115.44,27.453 21.98,0 16.47,-16.445 21.98,-32.968 -5.51,-27.481 5.52,-71.399 -21.98,-82.442 z m 5.51,186.895 c -33.02,16.512 -76.98,16.512 -120.95,16.512 H 1137.5 c -10.95,5.519 -10.95,32.968 -5.52,49.496 27.5,32.953 66.04,16.453 99.07,27.484 5.51,0 10.93,0 10.93,0 43.97,-5.508 98.97,5.469 137.42,-16.559 0,-27.453 5.52,-60.421 -16.47,-76.933 z m 3182.84,247.422 c -21.89,-5.516 -49.48,-22.035 -38.46,-44.008 5.53,-21.988 27.39,-32.988 43.95,-32.988 87.94,38.457 165.01,-16.504 252.94,27.457 21.89,16.531 38.44,27.504 49.52,60.527 -104.5,27.449 -208.99,5.469 -307.95,-10.988 z m 1000.51,148.407 c -98.96,21.98 -214.48,38.45 -318.78,16.47 -22.09,0 -43.98,-21.94 -32.92,-43.98 10.83,-49.45 71.34,-27.49 109.8,-32.97 77.1,5.48 165.03,-16.48 236.4,0 5.5,16.46 27.6,38.48 5.5,60.48 z m 252.93,-791.603 c -176.03,-38.496 -362.75,-11.043 -538.79,21.985 -49.47,10.996 -98.96,21.984 -142.94,32.968 -16.37,5.469 -32.93,22.04 -27.38,38.497 32.91,49.484 98.95,16.464 148.44,16.464 5.52,0 16.35,0 21.88,-5.468 87.94,-5.489 159.48,-49.493 241.9,-44.024 43.96,16.571 82.41,49.492 87.95,93.508 22.05,93.426 -11.08,197.891 32.91,291.324 5.53,21.985 5.53,66.008 -21.89,76.992 -49.48,38.493 -98.97,-5.523 -148.44,-5.523 -60.35,16.453 -126.39,10.996 -192.43,27.453 -55.01,16.563 -115.31,-11 -159.31,16.563 0,10.992 0,21.988 11.04,32.918 10.86,77.006 -5.5,164.906 10.86,236.396 16.56,33 43.98,38.5 71.57,44.01 21.9,-5.51 43.96,-5.51 65.84,-5.51 126.55,-5.5 252.93,5.51 362.76,-49.5 5.53,-65.96 0,-142.92 5.53,-208.865 22.06,-27.461 44.15,-71.469 82.61,-60.492 98.97,76.98 32.88,208.867 54.81,318.857 0,21.96 22.05,44 5.49,65.97 -32.92,82.47 -98.76,11 -153.98,11 -115.32,27.45 -236.16,38.5 -357.22,43.97 -32.92,0 -71.37,5.52 -104.29,5.52 -11.02,5.47 -16.56,16.45 -16.56,21.98 27.42,49.48 76.91,49.48 120.85,43.95 38.45,0 71.38,-10.97 104.49,-10.97 120.85,10.97 247.41,-82.48 340.87,10.97 27.4,32.98 87.93,71.47 65.84,126.43 h -27.42 c -159.47,22.03 -318.77,38.49 -483.78,49.48 -159.31,11.01 -329.83,11.01 -494.64,0 -148.44,-10.99 -302.45,-27.45 -445.36,-49.48 -27.4,-16.51 -49.48,-38.44 -38.45,-76.98 11.05,-27.46 38.45,-43.92 60.53,-60.42 115.33,-21.98 230.86,0 340.68,10.97 27.59,0 55.01,5.53 82.6,5.53 49.49,5.48 98.97,0 137.41,-33.02 5.5,-16.46 5.5,-32.97 -11.06,-43.96 -43.95,5.52 -82.4,5.52 -126.35,0 -110.03,0 -220.01,-22 -329.84,-32.97 -33.12,5.46 -82.6,32.97 -115.52,0 -49.48,-82.46 -10.85,-186.92 -27.4,-269.42 0,-54.896 0,-104.376 27.4,-137.407 22.08,-16.52 49.47,-16.52 66.04,-5.52 38.46,38.551 38.46,71.481 38.46,120.957 16.56,49.51 0,104.47 38.41,142.94 98.99,27.5 197.96,38.52 302.45,44.01 h 120.85 l 22.06,-22.03 V 964.734 c -11.02,-33.019 38.46,-60.476 5.53,-82.511 -49.47,0 -98.95,-5.52 -148.44,-10.977 -43.98,-5.543 -93.47,-16.473 -137.41,-21.996 -55.01,-5.461 -104.49,44.016 -159.5,10.996 -27.39,-5.473 -43.95,-38.453 -43.95,-71.476 32.91,-65.938 49.47,-137.403 38.41,-219.883 -16.52,-38.465 -32.92,-93.426 -5.5,-142.91 32.93,-21.993 55.01,-65.95 104.49,-55.008 66.05,27.5 137.38,33.015 203.46,49.531 16.37,0 32.92,5.477 43.95,5.477 43.99,5.507 82.4,16.464 115.36,-5.477 0,-60.473 5.5,-126.469 66.04,-164.953 93.42,-43.984 181.36,-87.93 269.29,-137.41 43.96,-16.535 82.4,-38.5081 121.06,-60.4807 82.4,-27.5118 164.8,-77.004 252.74,-49.48052 142.94,38.47262 214.48,175.89422 296.91,291.37522 0,10.937 22.05,32.976 11.02,49.492 -49.47,21.926 -93.45,-11.055 -142.94,-16.516 z m -703.58,269.36 11.02,16.504 c 54.81,10.972 109.83,0 153.77,-5.52 76.87,-10.984 126.55,-16.504 132.08,82.449 -38.64,32.981 -82.6,38.508 -132.08,38.508 -43.94,0 -93.43,-5.527 -142.94,0 -5.33,5.461 0,21.973 0,27.488 38.65,27.454 99,5.481 142.94,10.997 49.48,-16.512 109.99,0 153.97,-21.981 32.93,-49.492 11.04,-115.457 11.04,-170.449 -49.48,-27.434 -104.5,-10.996 -165.01,-5.488 -16.36,0 -32.92,5.488 -43.94,5.488 -43.99,0 -82.44,-10.996 -115.37,0 -11.01,0 -11.01,16.484 -5.48,22.004 z m -181.41,-22.004 c -49.47,-10.996 -98.95,-10.996 -148.44,-16.492 -27.59,0 -49.51,-5.481 -77.07,-10.942 -21.89,0 -54.85,-5.515 -65.88,10.942 -5.49,49.48 -16.56,120.957 16.37,159.441 43.98,10.996 82.6,21.981 126.58,27.5 38.42,0 76.86,5.469 115.33,5.469 l 16.56,-21.973 c 0,-10.996 -5.54,-16.523 -11.04,-22.004 h -120.85 c -27.59,-5.496 -55.01,-10.984 -77.07,-27.476 -21.89,-10.996 -21.89,-27.532 -27.42,-43.977 0,-21.98 21.89,-33.027 43.96,-44.004 21.87,0 43.97,0 60.53,5.52 49.49,0 98.97,10.984 148.44,10.984 0,-10.984 10.87,-27.5 0,-32.988 z M 2000.61,1124.13 c -186.9,-16.48 -357.34,-16.48 -538.8,16.47 -43.97,0 -93.36,0 -126.38,27.5 11.05,16.51 27.5,27.48 55,27.48 71.38,11.01 148.36,-44 192.32,5.5 11.05,21.96 27.52,49.48 16.57,76.97 -66.05,32.99 -153.97,27.45 -236.39,32.99 -10.95,5.51 -16.45,21.97 -10.95,38.48 5.44,16.46 32.94,0 54.92,5.46 82.5,11 142.94,-38.43 219.92,-5.46 16.45,27.46 55,60.48 38.45,93.4 -88.03,22.02 -175.87,33.02 -274.84,38.54 -33.01,5.47 -16.54,54.95 -21.98,82.41 -27.5,76.99 -104.49,38.54 -153.96,22.02 -49.49,-11.03 -33.03,-71.46 -55.01,-98.96 -93.44,-16.46 -208.792,0 -269.398,-76.93 0,-27.5 -16.375,-55.02 5.516,-71.48 44.054,-33.02 99.07,5.47 148.452,11 38.53,0 71.56,21.93 115.43,0 10.94,-11 0,-21.98 -10.94,-27.5 -82.5,-27.51 -197.852,0 -219.935,-98.98 0,-16.45 11.047,-32.97 27.512,-43.92 27.512,-16.54 54.903,-5.51 82.413,0 33.02,5.49 77.08,21.96 110.01,-5.51 -5.52,-54.95 -93.45,-33.01 -148.46,-49.48 -71.475,-5.47 -142.935,-38.51 -219.912,-27.51 0,38.49 55.008,71.48 33.016,115.43 -82.496,21.98 -170.434,-21.98 -241.895,33.03 -16.469,98.91 0,192.38 -5.523,291.33 -10.946,32.97 -49.383,49.48 -82.504,49.48 -16.375,0 -43.864,-11.03 -54.809,-27.5 -43.976,-87.92 -33.027,-203.41 -49.492,-302.33 l -11.039,-16.49 c -115.426,-16.53 -236.379,-11 -318.8947,-82.48 -16.4492,-32.96 -5.5195,-71.47 21.9883,-93.44 49.4964,-49.49 110.0154,-5.51 170.4374,0 43.961,0 93.449,16.46 126.469,-10.98 11.039,-49.48 -5.516,-104.486 -44.055,-142.943 C 258.02,810.762 158.945,750.332 37.9961,761.316 5.07422,761.316 5.07422,722.832 5.07422,700.84 27.0547,651.367 54.5508,607.344 104.137,596.367 c 98.761,-21.972 170.34,44.004 230.765,115.457 11.051,5.481 33.02,11.008 44.059,-5.496 0,-170.437 -16.555,-318.848 11.039,-472.773 27.418,-32.969 21.895,-82.469 65.852,-82.469 27.41,11.016 49.492,22 65.945,49.5 0,153.926 33.023,313.309 11.035,456.23 5.527,49.512 0,98.985 27.512,137.493 49.379,0 71.465,-71.477 126.367,-43.977 55.012,10.984 87.934,71.461 93.457,115.371 -16.473,33.024 -60.426,16.52 -87.938,33.024 -65.953,27.457 -137.41,82.464 -131.886,159.413 27.504,38.48 82.406,5.51 120.957,5.51 60.422,-10.98 0,-71.47 32.918,-104.447 71.461,-93.5 164.918,11.004 247.418,16.52 208.783,10.988 445.263,54.957 632.163,-33.008 49.47,-32.988 104.39,-71.469 159.39,-82.469 109.92,27.492 203.45,120.945 263.88,214.404 l 5.53,21.97 c 5.52,11.03 -11.04,22.04 -21.99,27.51 z m 4903.44,318.79 c -27.42,11.04 -49.32,44.01 -93.26,38.54 -60.71,-27.5 -121.02,-21.98 -187.1,-16.52 -43.96,11 -82.39,16.52 -126.35,16.52 -38.45,0 -76.89,-21.98 -93.46,-60.48 -38.46,-164.92 21.89,-329.89 21.89,-500.253 -10.87,-131.957 -21.89,-263.911 -120.85,-346.332 -54.81,-38.504 -126.4,-27.461 -175.87,-60.5 -5.5,-32.899 -5.5,-60.457 16.36,-82.411 71.57,-54.988 186.89,-54.988 269.49,-16.496 93.47,43.95 131.93,148.403 148.48,241.828 21.91,11.004 38.46,22.051 60.31,27.532 16.56,5.496 33.13,5.496 43.99,-10.996 l 11.03,-324.309 c 11.06,-55.012 0,-126.484 38.45,-175.957 22.09,-5.469 43.95,-16.477 66.04,-10.984 109.99,27.488 71.53,153.914 82.4,230.847 -10.87,296.895 -5.53,588.242 11.03,879.591 11.07,55 55.01,104.44 27.42,170.38 z M 6667.68,816.285 c -5.32,-16.519 -27.43,-16.519 -43.99,-16.519 -10.82,0 -21.85,5.468 -32.91,5.468 -27.4,33.024 -5.49,93.493 -27.4,131.95 16.35,22.019 10.83,66.006 49.49,60.476 h 10.82 l 43.99,-5.48 c 11.03,-54.996 5.52,-120.934 0,-175.895 z m -21.9,313.325 c -5.53,0 -11.01,-5.48 -22.09,-5.48 -27.38,0 -49.48,5.48 -60.31,21.98 0,54.97 -16.55,126.43 10.83,181.43 16.57,-5.52 33.11,-5.52 49.48,-5.52 27.63,5.52 55.02,5.52 66.08,-22 -22.09,-54.94 27.39,-148.44 -43.99,-170.41 z M 3908.14,414.988 c -21.99,5.512 -43.97,-11.004 -93.46,-16.519 -55,-5.52 -131.99,5.515 -153.88,11.051 -60.52,5.468 -153.96,16.457 -192.41,49.418 -27.5,10.984 -21.98,22.058 10.94,10.984 27.51,0 76.97,0 110.01,16.535 43.95,16.453 65.94,54.949 65.94,82.43 10.95,43.984 -27.51,54.961 -65.94,49.504 -49.48,-27.5 -148.45,-33.02 -225.43,-27.5 -43.98,5.476 -142.94,21.98 -192.34,38.472 -44.05,16.489 -82.5,43.989 -110,76.965 -10.94,10.977 -16.47,27.5 16.45,27.5 38.46,0 99.08,-10.996 142.95,-16.523 65.95,-21.985 110,-27.461 181.37,-38.438 16.56,0 60.52,16.453 76.99,38.438 60.53,33.027 120.95,109.957 104.48,131.945 -159.49,21.996 -368.26,44.016 -566.21,44.016 -5.52,0 -5.52,0 -11.04,0 -153.87,-5.528 -302.32,-22.02 -428.79,-33.02 -21.98,-5.473 -60.43,-10.996 -65.95,-38.453 -5.52,-22.027 -5.52,-44.012 0,-60.477 16.56,-10.984 60.53,-22.027 71.47,-22.027 43.96,5.524 76.99,11.043 110.01,16.512 16.36,5.515 21.89,-5.469 5.41,-21.973 -33.01,-27.5 -93.35,-60.476 -131.89,-71.473 -76.88,-27.48 -115.43,-10.988 -181.47,0 -32.93,5.465 -49.39,-27.48 -49.39,-55.011 5.43,-27.461 21.97,-49.434 49.39,-65.938 49.49,-22.004 82.5,-22.004 131.99,-22.004 60.43,16.489 131.99,33.047 164.91,49.485 38.45,22.004 76.98,43.984 132,76.965 16.35,10.964 43.86,16.503 32.92,-22.004 -55,-49.453 -148.46,-109.953 -219.92,-131.875 -87.93,-27.539 -175.86,-44.024 -252.85,-27.539 -49.47,5.488 -82.51,16.562 -148.45,22.023 -27.4,5.516 -38.43,-10.996 -38.43,-33.019 -5.52,-27.461 21.96,-82.469 71.47,-104.395 60.51,-27.559 126.36,-33.027 203.35,-33.027 143.02,16.511 186.99,44.011 313.36,98.972 65.95,38.45 104.5,71.469 164.92,126.418 16.46,11.043 33.02,0 21.98,-32.976 -16.47,-27.434 -87.93,-98.91 -126.47,-120.95 -43.96,-27.453 -137.42,-60.468 -186.8,-82.453 -71.56,-38.496 -143.03,-38.496 -208.98,-38.496 -21.97,-5.484 -27.49,-32.976 -21.97,-54.968 5.42,-21.973 27.49,-43.946 49.47,-54.954 49.49,-21.968 137.51,-21.968 203.36,5.493 71.57,27.488 164.92,71.453 241.9,120.925 43.97,27.461 71.48,54.961 93.45,82.481 16.57,21.972 33.03,38.476 44.07,49.48 10.94,0 21.89,0 27.39,-22.039 5.53,-32.922 -10.93,-76.933 -38.43,-109.922 -5.52,-5.461 -16.46,-16.496 -33.03,-21.98 -27.49,-11.027 -65.94,-16.496 -104.38,-22.024 -27.51,-5.468 -44.07,-38.437 -21.98,-65.937 32.91,-38.445 82.4,-54.949 126.36,-49.492 11.04,0 21.99,5.539 33.03,5.539 55,16.492 109.9,38.484 153.88,87.957 33.02,43.957 66.04,98.926 60.51,164.875 -5.52,16.504 0,16.504 5.53,10.984 27.41,-21.98 60.42,-60.422 104.4,-87.922 16.55,-10.996 60.41,-43.98 104.48,-66.004 43.95,-32.929 93.45,-60.476 120.95,-65.937 27.51,-10.984 60.42,-16.477 109.91,0 55.01,16.504 93.44,55.012 115.43,87.961 49.49,54.969 76.98,98.98 98.97,120.918 10.96,22.019 10.96,27.555 -5.51,33.023 z M 2308.46,772.313 c 5.52,-21.981 38.45,-49.481 60.52,-49.481 43.88,-5.527 54.82,32.969 65.86,65.938 5.51,21.992 5.51,33.023 11.03,55.019 5.52,38.434 16.47,60.469 55.01,60.469 115.42,5.469 192.42,16.469 313.37,21.926 87.93,5.531 148.35,5.531 192.31,5.531 88.03,5.469 131.91,0 208.99,-5.531 76.89,0 307.75,-21.926 357.22,-27.457 44.08,5.531 49.59,-22.024 55,-38.481 0,-27.457 0,-38.453 10.96,-71.476 5.51,-21.973 49.48,-60.469 76.98,-49.481 27.6,11.043 38.55,38.492 43.97,60.477 l 5.52,120.961 c 0,10.988 5.52,21.988 16.56,71.453 -11.04,49.49 -55.01,82.47 -76.98,71.47 -16.57,0 -55.02,-16.48 -82.42,-44.02 -16.55,-10.97 -44.06,-5.47 -71.57,-10.97 -82.4,0 -148.45,5.5 -236.38,10.97 -126.37,11.05 -225.34,11.05 -307.85,16.57 -175.96,0 -252.84,-5.52 -324.31,-11.06 -55,-5.51 -208.87,-10.98 -252.93,-5.51 -27.41,16.57 -43.97,22.04 -71.39,27.54 -33,-16.49 -66.04,-49.51 -71.45,-82.436 -5.53,-16.55 16.47,-22.019 16.47,-44.007 0,-55.024 -11.06,-120.961 5.51,-148.414 z m 456.3,285.827 c 32.92,5.51 54.91,16.51 93.35,32.95 55,5.53 104.49,0 148.45,0 49.59,0 98.97,-5.47 159.49,0 16.47,-21.96 54.92,-16.44 82.41,-32.95 16.47,5.51 49.49,-10.97 88.04,27.48 5.42,11 10.94,104.45 21.88,131.95 27.51,27.51 16.56,71.48 -10.94,109.97 -21.99,38.44 -82.51,5.47 -120.95,-16.5 -71.47,5.51 -148.47,10.98 -219.93,5.51 -49.48,0 -93.45,-5.51 -142.92,-16.53 -16.47,11.02 -27.51,27.52 -43.97,38.5 -38.44,5.47 -137.42,-10.98 -148.46,-49.47 5.52,-27.51 16.56,-55.02 38.45,-77 -5.42,-38.44 -5.42,-71.45 -10.95,-104.4 0,-38.52 27.51,-54.98 66.05,-49.51 z m 82.41,170.43 c 55.01,0 109.91,-5.53 159.39,-5.53 49.59,0 93.46,5.53 142.93,10.99 33.03,-10.99 27.61,-21.98 22.08,-54.91 -22.08,-22.03 -38.53,-11.02 -60.61,-16.54 -38.44,0 -71.37,0 -104.4,5.52 h -98.95 c -21.89,-5.52 -60.44,-11.01 -65.96,11.02 0,21.96 0,32.93 5.52,49.45 z m -412.33,120.95 c 55.1,0 115.43,11 197.93,21.93 126.46,11.05 192.42,16.56 296.9,16.56 27.41,0 54.92,-5.51 76.89,-5.51 137.42,-5.52 258.37,-11.05 428.8,-16.52 82.42,5.47 126.48,-11 187,0 65.85,16.52 87.83,49.48 120.95,93.5 27.41,71.47 10.95,54.95 -77.08,54.95 -98.97,0 -197.84,-11.04 -296.8,-11.04 -76.99,5.53 -148.46,11.04 -219.94,16.51 -11.02,0 -21.97,5.52 -21.97,16.51 -5.52,27.46 0,16.47 0,43.98 -5.52,32.96 -43.97,32.96 -76.89,32.96 h -44.07 c -21.97,0 -43.96,-5.46 -65.94,-32.96 -5.43,-16.52 -5.43,-27.51 -16.47,-43.98 -5.52,-10.99 -43.95,-10.99 -71.46,-10.99 -115.42,0 -236.39,-5.52 -351.81,-22.03 -137.42,-10.99 -164.92,-43.91 -164.92,-87.93 5.43,-38.48 27.5,-60.48 98.88,-65.94" /></g></g></svg>
