<svg width="24" height="24" viewBox="0 0 24 24" fill="none" xmlns="http://localhost/2000/svg">
<circle cx="12" cy="12" r="12" fill="#ED1C24"/>
<path d="M16.3999 18.3335H7.5999C7.24416 18.3335 6.94416 18.2084 6.6999 17.9583C6.45563 17.7082 6.3335 17.4052 6.3335 17.0495V9.6167C6.3335 9.26096 6.45563 8.96096 6.6999 8.7167C6.94416 8.47243 7.24416 8.3503 7.5999 8.3503H8.9663C8.9663 7.5055 9.2607 6.79136 9.8495 6.2079C10.4388 5.62496 11.1556 5.3335 11.9999 5.3335C12.8442 5.3335 13.5636 5.62496 14.1583 6.2079C14.7524 6.79136 15.0495 7.5055 15.0495 8.3503H16.3999C16.7556 8.3503 17.0556 8.47243 17.2999 8.7167C17.5442 8.96096 17.6663 9.26096 17.6663 9.6167V17.0495C17.6663 17.4052 17.5442 17.7082 17.2999 17.9583C17.0556 18.2084 16.7556 18.3335 16.3999 18.3335ZM10.0335 8.3503H13.9831C13.9831 7.81696 13.7887 7.35856 13.3999 6.9751C13.0111 6.59163 12.55 6.3999 12.0167 6.3999C11.4722 6.3999 11.0055 6.59163 10.6167 6.9751C10.2279 7.35856 10.0335 7.81696 10.0335 8.3503ZM11.9999 13.0999C12.7999 13.0999 13.4943 12.8276 14.0831 12.2831C14.6719 11.7386 14.9663 11.1498 14.9663 10.5167C14.9663 10.4058 14.9164 10.3028 14.8167 10.2079C14.7164 10.1135 14.594 10.0663 14.4495 10.0663C14.3274 10.0663 14.222 10.1082 14.1335 10.1919C14.0444 10.2751 13.9778 10.3778 13.9335 10.4999C13.8444 10.9335 13.6138 11.2975 13.2415 11.5919C12.8692 11.8863 12.4554 12.0335 11.9999 12.0335C11.5444 12.0335 11.1332 11.8863 10.7663 11.5919C10.3999 11.2975 10.1722 10.9335 10.0831 10.4999C10.05 10.4002 9.98336 10.3028 9.8831 10.2079C9.78336 10.1135 9.66683 10.0663 9.5335 10.0663C9.40016 10.0663 9.28336 10.1108 9.1831 10.1999C9.08336 10.289 9.0335 10.3946 9.0335 10.5167C9.0335 11.1498 9.3279 11.7386 9.9167 12.2831C10.5055 12.8276 11.1999 13.0999 11.9999 13.0999Z" fill="white"/>
</svg>
