<svg width="287" height="86" viewBox="0 0 287 86" fill="none" xmlns="http://localhost/2000/svg">
<rect width="287" height="86" rx="6" fill="#F5F5F5"/>
<path d="M39.618 35.196C42.012 35.196 43.426 33.754 43.426 32.06C43.426 30.562 42.6 29.764 41.34 29.246L39.982 28.672C39.1 28.322 38.372 28.056 38.372 27.314C38.372 26.628 38.946 26.222 39.856 26.222C40.71 26.222 41.396 26.53 42.054 27.076L43.104 25.774C42.264 24.92 41.06 24.444 39.856 24.444C37.756 24.444 36.272 25.746 36.272 27.44C36.272 28.952 37.322 29.792 38.372 30.226L39.758 30.814C40.682 31.206 41.312 31.444 41.312 32.214C41.312 32.942 40.738 33.404 39.66 33.404C38.75 33.404 37.77 32.942 37.028 32.256L35.838 33.684C36.846 34.65 38.232 35.196 39.618 35.196ZM45.0923 35H47.1223V33.012L48.2283 31.752L50.1323 35H52.3583L49.4183 30.394L52.1063 27.16H49.8523L47.1783 30.534H47.1223V23.828H45.0923V35ZM54.2549 38.15C56.0049 38.15 56.8449 37.086 57.5309 35.238L60.3169 27.16H58.3429L57.2649 30.8C57.0829 31.528 56.8869 32.284 56.7049 33.012H56.6349C56.4109 32.256 56.2149 31.5 55.9769 30.8L54.7309 27.16H52.6589L55.7109 34.86L55.5709 35.322C55.3469 36.008 54.8989 36.512 54.1009 36.512C53.9189 36.512 53.6949 36.456 53.5549 36.414L53.1769 37.996C53.4849 38.094 53.7929 38.15 54.2549 38.15ZM61.608 38.01H63.666V35.63L63.596 34.342C64.198 34.888 64.856 35.196 65.542 35.196C67.264 35.196 68.874 33.642 68.874 30.954C68.874 28.546 67.726 26.964 65.794 26.964C64.954 26.964 64.142 27.412 63.484 27.972H63.442L63.288 27.16H61.608V38.01ZM65.08 33.502C64.66 33.502 64.156 33.348 63.666 32.914V29.47C64.198 28.924 64.674 28.658 65.206 28.658C66.284 28.658 66.76 29.484 66.76 30.982C66.76 32.69 66.032 33.502 65.08 33.502ZM74.0337 35.196C74.9997 35.196 75.9937 34.86 76.7637 34.328L76.0637 33.068C75.5037 33.418 74.9437 33.614 74.2997 33.614C73.1377 33.614 72.2977 32.942 72.1297 31.654H76.9597C77.0157 31.472 77.0577 31.094 77.0577 30.702C77.0577 28.546 75.9377 26.964 73.7817 26.964C71.9197 26.964 70.1277 28.546 70.1277 31.08C70.1277 33.67 71.8357 35.196 74.0337 35.196ZM72.1017 30.282C72.2557 29.148 72.9837 28.56 73.8097 28.56C74.8177 28.56 75.2937 29.232 75.2937 30.282H72.1017Z" fill="#333333"/>
<g clip-path="url(#clip0_997_3738)">
<path d="M46.9984 51.9074C46.9984 53.4186 46.3905 54.8678 45.3085 55.9364C44.2265 57.005 42.7589 57.6053 41.2287 57.6053C39.6985 57.6053 38.2309 57.005 37.1489 55.9364C36.0669 54.8678 35.459 53.4186 35.459 51.9074C35.459 50.3962 36.0669 48.9469 37.1489 47.8783C38.2309 46.8098 39.6985 46.2095 41.2287 46.2095C42.7589 46.2095 44.2265 46.8098 45.3085 47.8783C46.3905 48.9469 46.9984 50.3962 46.9984 51.9074Z" fill="url(#paint0_linear_997_3738)"/>
<path d="M55.0395 60.0905C55.0395 60.839 54.8902 61.5802 54.6001 62.2717C54.3101 62.9633 53.8849 63.5916 53.349 64.1209C52.813 64.6502 52.1768 65.07 51.4765 65.3565C50.7763 65.6429 50.0257 65.7903 49.2678 65.7903C47.737 65.7903 46.269 65.1898 45.1866 64.1209C44.1042 63.052 43.4961 61.6022 43.4961 60.0905C43.4961 58.5788 44.1042 57.129 45.1866 56.0601C46.269 54.9911 47.737 54.3906 49.2678 54.3906C50.0257 54.3906 50.7763 54.5381 51.4765 54.8245C52.1768 55.1109 52.813 55.5308 53.349 56.0601C53.8849 56.5894 54.3101 57.2177 54.6001 57.9092C54.8902 58.6008 55.0395 59.342 55.0395 60.0905Z" fill="url(#paint1_linear_997_3738)"/>
<path opacity="0.05" fill-rule="evenodd" clip-rule="evenodd" d="M35.4805 52.3956C35.5701 53.4722 35.9658 54.5016 36.6216 55.3645C37.2775 56.2274 38.1667 56.8885 39.1862 57.2712C40.2057 57.6539 41.3138 57.7425 42.3821 57.5268C43.4503 57.3111 44.4351 56.7998 45.2221 56.0523C46.0091 55.3048 46.5663 54.3517 46.829 53.3033C47.0918 52.2549 47.0493 51.1542 46.7066 50.1287C46.3638 49.1032 45.7348 48.195 44.8925 47.5092C44.0501 46.8234 43.0289 46.3882 41.9471 46.2539C40.4783 46.7407 39.1365 47.544 38.0184 48.606C36.9003 49.6679 36.0335 50.9622 35.4805 52.3956Z" fill="black"/>
<path opacity="0.05" fill-rule="evenodd" clip-rule="evenodd" d="M55.0247 59.6803C54.9493 58.5906 54.5605 57.545 53.9043 56.6674C53.2482 55.7897 52.352 55.1166 51.3219 54.7277C50.2918 54.3389 49.1708 54.2504 48.0915 54.4729C47.0123 54.6954 46.0199 55.2195 45.2319 55.9833C44.4438 56.747 43.893 57.7184 43.6445 58.7826C43.3961 59.8467 43.4605 60.9591 43.8301 61.9882C44.1996 63.0172 44.8589 63.9198 45.7299 64.5893C46.6009 65.2588 47.6473 65.6671 48.7451 65.7659C50.1738 65.2618 51.4751 64.4566 52.5593 63.4058C53.6434 62.3551 54.4846 61.0838 55.0247 59.6796V59.6803Z" fill="black"/>
<path opacity="0.1" fill-rule="evenodd" clip-rule="evenodd" d="M35.75 53.6981C36.0531 54.6166 36.5863 55.4441 37.2998 56.1029C38.0133 56.7618 38.8839 57.2306 39.83 57.4655C40.7761 57.7004 41.7668 57.6936 42.7096 57.446C43.6524 57.1983 44.5164 56.7178 45.2208 56.0493C45.9251 55.3808 46.4469 54.5463 46.7373 53.6237C47.0276 52.7011 47.0771 51.7206 46.881 50.7739C46.6849 49.8272 46.2497 48.9453 45.6161 48.2106C44.9825 47.4758 44.1712 46.9123 43.2581 46.5728C41.4586 46.9442 39.8006 47.8091 38.4731 49.0689C37.1457 50.3287 36.2021 51.9327 35.75 53.6981Z" fill="black"/>
<path opacity="0.1" fill-rule="evenodd" clip-rule="evenodd" d="M54.7624 58.3417C54.4638 57.4122 53.9301 56.574 53.2122 55.9066C52.4942 55.2393 51.6159 54.7651 50.6607 54.5291C49.7055 54.2932 48.7053 54.3033 47.7552 54.5586C46.8051 54.8139 45.9367 55.3059 45.2327 55.9877C44.5287 56.6694 44.0125 57.5184 43.7332 58.4537C43.4539 59.389 43.4208 60.3796 43.637 61.3311C43.8532 62.2827 44.3116 63.1636 44.9685 63.8901C45.6255 64.6165 46.4591 65.1643 47.39 65.4814C49.1665 65.0863 50.797 64.2093 52.099 62.9484C53.401 61.6874 54.3232 60.0924 54.7624 58.3417Z" fill="black"/>
<path opacity="0.1" fill-rule="evenodd" clip-rule="evenodd" d="M35.9609 54.2382C36.3363 55.0764 36.9098 55.8126 37.633 56.3849C38.3561 56.9571 39.2077 57.3484 40.1156 57.5258C41.0236 57.7032 41.9613 57.6614 42.8496 57.404C43.7378 57.1466 44.5504 56.6811 45.2188 56.0469C45.8872 55.4127 46.3918 54.6284 46.6897 53.7603C46.9877 52.8921 47.0704 51.9657 46.9308 51.0592C46.7913 50.1527 46.4335 49.2929 45.8879 48.5523C45.3422 47.8117 44.6246 47.2121 43.7957 46.8042C41.8789 47.0998 40.0998 47.9712 38.6987 49.3006C37.2976 50.6301 36.342 52.3535 35.9609 54.2382Z" fill="black"/>
<path opacity="0.1" fill-rule="evenodd" clip-rule="evenodd" d="M54.55 57.7901C54.1765 56.9423 53.6009 56.1969 52.8726 55.6181C52.1442 55.0393 51.285 54.6443 50.3686 54.4671C49.4523 54.2899 48.5062 54.3358 47.6116 54.6008C46.7171 54.8658 45.9009 55.342 45.2331 55.9885C44.5653 56.635 44.0658 57.4325 43.7777 58.3124C43.4895 59.1923 43.4213 60.1284 43.5788 61.0403C43.7363 61.9521 44.1148 62.8124 44.6819 63.5473C45.249 64.2822 45.9876 64.8697 46.8344 65.2594C48.7345 64.9395 50.4909 64.0532 51.8695 62.7186C53.248 61.3841 54.1831 59.6648 54.55 57.7901Z" fill="black"/>
<path d="M54.3881 56.0422C54.3881 57.2273 54.1518 58.4008 53.6925 59.4958C53.2333 60.5907 52.5601 61.5855 51.7116 62.4236C50.863 63.2616 49.8556 63.9263 48.7469 64.3799C47.6381 64.8334 46.4498 65.0668 45.2497 65.0668C44.0497 65.0668 42.8613 64.8334 41.7526 64.3799C40.6439 63.9263 39.6365 63.2616 38.7879 62.4236C37.9393 61.5855 37.2662 60.5907 36.8069 59.4958C36.3477 58.4008 36.1113 57.2273 36.1113 56.0422C36.1113 54.8571 36.3477 53.6835 36.8069 52.5886C37.2662 51.4937 37.9393 50.4988 38.7879 49.6608C39.6365 48.8228 40.6439 48.1581 41.7526 47.7045C42.8613 47.251 44.0497 47.0176 45.2497 47.0176C46.4498 47.0176 47.6381 47.251 48.7469 47.7045C49.8556 48.1581 50.863 48.8228 51.7116 49.6608C52.5601 50.4988 53.2333 51.4937 53.6925 52.5886C54.1518 53.6835 54.3881 54.8571 54.3881 56.0422Z" fill="url(#paint2_linear_997_3738)"/>
<path fill-rule="evenodd" clip-rule="evenodd" d="M42.6806 55.7283C42.3113 55.4874 42.0031 55.1654 41.7801 54.7871C41.5648 54.3875 41.4585 53.9391 41.4718 53.4863C41.4555 52.9117 41.6534 52.3512 42.0278 51.9121C42.4168 51.471 42.9168 51.14 43.477 50.9526C44.0861 50.7394 44.728 50.6323 45.3741 50.6361C45.7968 50.6321 46.219 50.6642 46.6362 50.732C46.9347 50.7777 47.228 50.8527 47.5116 50.9559C47.772 51.0432 48.0071 51.1919 48.1967 51.3893C48.3363 51.5516 48.4115 51.7588 48.4081 51.9721C48.4131 52.0829 48.396 52.1936 48.3578 52.2979C48.3196 52.4021 48.261 52.4979 48.1855 52.5798C48.114 52.6552 48.0272 52.7147 47.9308 52.7546C47.8344 52.7944 47.7306 52.8135 47.6262 52.8108C47.4826 52.8096 47.3409 52.778 47.2106 52.7181C46.8894 52.5757 46.5586 52.4557 46.2205 52.3591C45.9093 52.2778 45.5885 52.2383 45.2667 52.2417C44.8473 52.2264 44.4323 52.3315 44.0718 52.5445C43.9196 52.6361 43.7951 52.7665 43.7112 52.9221C43.6273 53.0776 43.5871 53.2527 43.5949 53.4289C43.5926 53.6602 43.6815 53.8834 43.8425 54.0509C44.0339 54.2477 44.2601 54.4081 44.5098 54.5241C44.7896 54.6616 45.2067 54.8439 45.7614 55.071C45.8228 55.0903 45.8827 55.1141 45.9406 55.1422C46.4818 55.3543 47.0007 55.6186 47.4899 55.9313C47.8762 56.1808 48.2019 56.5121 48.4437 56.9011C48.6818 57.3101 48.801 57.7763 48.7882 58.2483C48.8082 58.8261 48.6411 59.3952 48.3113 59.8722C47.9755 60.3238 47.5109 60.6654 46.9774 60.8531C46.3344 61.0808 45.6549 61.1905 44.9722 61.1769C44.0341 61.2094 43.1005 61.0344 42.2392 60.6645C42.019 60.5673 41.826 60.4186 41.6767 60.2311C41.5527 60.0593 41.4884 59.8522 41.4936 59.6411C41.4874 59.5297 41.5057 59.4184 41.5472 59.3147C41.5887 59.211 41.6524 59.1175 41.734 59.0406C41.9049 58.8923 42.1268 58.8148 42.3538 58.8239C42.6068 58.8274 42.8552 58.8907 43.0784 59.0087C43.356 59.1462 43.5749 59.2493 43.7352 59.318C43.9182 59.394 44.1078 59.4534 44.3017 59.4956C44.5407 59.5475 44.7849 59.5725 45.0296 59.57C45.4623 59.6006 45.8929 59.4868 46.2528 59.2469C46.3875 59.1424 46.4952 59.0077 46.5669 58.8537C46.6386 58.6998 46.6723 58.5312 46.6652 58.3618C46.6656 58.1217 46.5732 57.8905 46.4069 57.7157C46.1873 57.491 45.9301 57.3055 45.6468 57.1674C45.3117 56.9925 44.8405 56.7793 44.2332 56.5278C43.69 56.3133 43.1699 56.0455 42.6806 55.7283Z" fill="white"/>
</g>
<path d="M68.4844 53.818V61H67.4274C67.1987 61 67.054 60.895 66.9934 60.685L66.8744 60.111C66.5804 60.4097 66.256 60.6523 65.9014 60.839C65.5467 61.021 65.129 61.112 64.6484 61.112C64.2564 61.112 63.9087 61.0467 63.6054 60.916C63.3067 60.7807 63.0547 60.5917 62.8494 60.349C62.644 60.1063 62.4877 59.8193 62.3804 59.488C62.2777 59.152 62.2264 58.7833 62.2264 58.382V53.818H63.9554V58.382C63.9554 58.8207 64.0557 59.1613 64.2564 59.404C64.4617 59.642 64.7674 59.761 65.1734 59.761C65.472 59.761 65.752 59.6957 66.0134 59.565C66.2747 59.4297 66.522 59.2453 66.7554 59.012V53.818H68.4844ZM72.5927 61.112C71.9674 61.112 71.4867 60.937 71.1507 60.587C70.8194 60.2323 70.6537 59.7447 70.6537 59.124V55.113H69.9187C69.8254 55.113 69.7461 55.0827 69.6807 55.022C69.6154 54.9613 69.5827 54.8703 69.5827 54.749V54.063L70.7377 53.874L71.1017 51.914C71.1251 51.8207 71.1694 51.7483 71.2347 51.697C71.3001 51.6457 71.3841 51.62 71.4867 51.62H72.3827V53.881H74.3007V55.113H72.3827V59.005C72.3827 59.229 72.4364 59.404 72.5437 59.53C72.6557 59.656 72.8074 59.719 72.9987 59.719C73.1061 59.719 73.1947 59.7073 73.2647 59.684C73.3394 59.656 73.4024 59.628 73.4537 59.6C73.5097 59.572 73.5587 59.5463 73.6007 59.523C73.6427 59.495 73.6847 59.481 73.7267 59.481C73.7781 59.481 73.8201 59.495 73.8527 59.523C73.8854 59.5463 73.9204 59.5837 73.9577 59.635L74.4757 60.475C74.2237 60.685 73.9344 60.8437 73.6077 60.951C73.2811 61.0583 72.9427 61.112 72.5927 61.112ZM80.5737 61.938V63.058H75.0577V61.938H80.5737ZM83.7349 53.818V61H81.9989V53.818H83.7349ZM83.9729 51.725C83.9729 51.8743 83.9425 52.0143 83.8819 52.145C83.8212 52.2757 83.7395 52.39 83.6369 52.488C83.5389 52.586 83.4222 52.6653 83.2869 52.726C83.1515 52.782 83.0069 52.81 82.8529 52.81C82.7035 52.81 82.5612 52.782 82.4259 52.726C82.2952 52.6653 82.1809 52.586 82.0829 52.488C81.9849 52.39 81.9055 52.2757 81.8449 52.145C81.7889 52.0143 81.7609 51.8743 81.7609 51.725C81.7609 51.571 81.7889 51.4263 81.8449 51.291C81.9055 51.1557 81.9849 51.039 82.0829 50.941C82.1809 50.843 82.2952 50.766 82.4259 50.71C82.5612 50.6493 82.7035 50.619 82.8529 50.619C83.0069 50.619 83.1515 50.6493 83.2869 50.71C83.4222 50.766 83.5389 50.843 83.6369 50.941C83.7395 51.039 83.8212 51.1557 83.8819 51.291C83.9425 51.4263 83.9729 51.571 83.9729 51.725ZM88.6756 53.706C89.2076 53.706 89.6906 53.7923 90.1246 53.965C90.5632 54.1377 90.9366 54.3827 91.2446 54.7C91.5572 55.0173 91.7976 55.4047 91.9656 55.862C92.1336 56.3193 92.2176 56.8303 92.2176 57.395C92.2176 57.9643 92.1336 58.4777 91.9656 58.935C91.7976 59.3923 91.5572 59.782 91.2446 60.104C90.9366 60.426 90.5632 60.6733 90.1246 60.846C89.6906 61.0187 89.2076 61.105 88.6756 61.105C88.1389 61.105 87.6512 61.0187 87.2126 60.846C86.7739 60.6733 86.3982 60.426 86.0856 60.104C85.7776 59.782 85.5372 59.3923 85.3646 58.935C85.1966 58.4777 85.1126 57.9643 85.1126 57.395C85.1126 56.8303 85.1966 56.3193 85.3646 55.862C85.5372 55.4047 85.7776 55.0173 86.0856 54.7C86.3982 54.3827 86.7739 54.1377 87.2126 53.965C87.6512 53.7923 88.1389 53.706 88.6756 53.706ZM88.6756 59.775C89.2729 59.775 89.7139 59.5743 89.9986 59.173C90.2879 58.7717 90.4326 58.1837 90.4326 57.409C90.4326 56.6343 90.2879 56.044 89.9986 55.638C89.7139 55.232 89.2729 55.029 88.6756 55.029C88.0689 55.029 87.6186 55.2343 87.3246 55.645C87.0352 56.051 86.8906 56.639 86.8906 57.409C86.8906 58.179 87.0352 58.767 87.3246 59.173C87.6186 59.5743 88.0689 59.775 88.6756 59.775ZM95.1676 55.064C95.3916 54.6347 95.6576 54.2987 95.9656 54.056C96.2736 53.8087 96.6376 53.685 97.0576 53.685C97.389 53.685 97.655 53.7573 97.8556 53.902L97.7436 55.197C97.7203 55.281 97.6853 55.3417 97.6386 55.379C97.5966 55.4117 97.5383 55.428 97.4636 55.428C97.3936 55.428 97.2886 55.4163 97.1486 55.393C97.0133 55.3697 96.8803 55.358 96.7496 55.358C96.5583 55.358 96.388 55.386 96.2386 55.442C96.0893 55.498 95.954 55.5797 95.8326 55.687C95.716 55.7897 95.611 55.9157 95.5176 56.065C95.429 56.2143 95.345 56.3847 95.2656 56.576V61H93.5366V53.818H94.5516C94.729 53.818 94.8526 53.8507 94.9226 53.916C94.9926 53.9767 95.0393 54.0887 95.0626 54.252L95.1676 55.064ZM103.076 55.652C102.88 55.414 102.665 55.246 102.432 55.148C102.203 55.05 101.956 55.001 101.69 55.001C101.429 55.001 101.193 55.05 100.983 55.148C100.773 55.246 100.593 55.3953 100.444 55.596C100.295 55.792 100.18 56.044 100.101 56.352C100.022 56.6553 99.9819 57.0147 99.9819 57.43C99.9819 57.85 100.015 58.207 100.08 58.501C100.15 58.7903 100.248 59.0283 100.374 59.215C100.5 59.397 100.654 59.53 100.836 59.614C101.018 59.6933 101.221 59.733 101.445 59.733C101.804 59.733 102.11 59.6583 102.362 59.509C102.614 59.3597 102.852 59.1473 103.076 58.872V55.652ZM104.805 50.598V61H103.748C103.519 61 103.375 60.895 103.314 60.685L103.167 59.992C102.878 60.3233 102.544 60.5917 102.166 60.797C101.793 61.0023 101.356 61.105 100.857 61.105C100.465 61.105 100.106 61.0233 99.7789 60.86C99.4522 60.6967 99.1699 60.461 98.9319 60.153C98.6985 59.8403 98.5165 59.4553 98.3859 58.998C98.2599 58.5407 98.1969 58.018 98.1969 57.43C98.1969 56.898 98.2692 56.4033 98.4139 55.946C98.5585 55.4887 98.7662 55.092 99.0369 54.756C99.3075 54.42 99.6319 54.1587 100.01 53.972C100.388 53.7807 100.813 53.685 101.284 53.685C101.685 53.685 102.028 53.748 102.313 53.874C102.598 54 102.852 54.1703 103.076 54.385V50.598H104.805ZM111.138 56.583C111.138 56.359 111.106 56.149 111.04 55.953C110.98 55.7523 110.886 55.5773 110.76 55.428C110.634 55.2787 110.473 55.162 110.277 55.078C110.086 54.9893 109.862 54.945 109.605 54.945C109.106 54.945 108.712 55.0873 108.422 55.372C108.138 55.6567 107.956 56.0603 107.876 56.583H111.138ZM107.841 57.626C107.869 57.9947 107.935 58.3143 108.037 58.585C108.14 58.851 108.275 59.0727 108.443 59.25C108.611 59.4227 108.81 59.5533 109.038 59.642C109.272 59.726 109.528 59.768 109.808 59.768C110.088 59.768 110.329 59.7353 110.529 59.67C110.735 59.6047 110.912 59.5323 111.061 59.453C111.215 59.3737 111.348 59.3013 111.46 59.236C111.577 59.1707 111.689 59.138 111.796 59.138C111.941 59.138 112.048 59.1917 112.118 59.299L112.615 59.929C112.424 60.153 112.209 60.342 111.971 60.496C111.733 60.6453 111.484 60.7667 111.222 60.86C110.966 60.9487 110.702 61.0117 110.431 61.049C110.165 61.0863 109.906 61.105 109.654 61.105C109.155 61.105 108.691 61.0233 108.261 60.86C107.832 60.692 107.459 60.447 107.141 60.125C106.824 59.7983 106.574 59.397 106.392 58.921C106.21 58.4403 106.119 57.885 106.119 57.255C106.119 56.765 106.199 56.3053 106.357 55.876C106.516 55.442 106.742 55.0663 107.036 54.749C107.335 54.427 107.697 54.1727 108.121 53.986C108.551 53.7993 109.034 53.706 109.57 53.706C110.023 53.706 110.441 53.7783 110.823 53.923C111.206 54.0677 111.535 54.28 111.81 54.56C112.086 54.8353 112.3 55.176 112.454 55.582C112.613 55.9833 112.692 56.443 112.692 56.961C112.692 57.2223 112.664 57.3997 112.608 57.493C112.552 57.5817 112.445 57.626 112.286 57.626H107.841ZM115.621 55.064C115.845 54.6347 116.111 54.2987 116.419 54.056C116.727 53.8087 117.091 53.685 117.511 53.685C117.842 53.685 118.108 53.7573 118.309 53.902L118.197 55.197C118.173 55.281 118.138 55.3417 118.092 55.379C118.05 55.4117 117.991 55.428 117.917 55.428C117.847 55.428 117.742 55.4163 117.602 55.393C117.466 55.3697 117.333 55.358 117.203 55.358C117.011 55.358 116.841 55.386 116.692 55.442C116.542 55.498 116.407 55.5797 116.286 55.687C116.169 55.7897 116.064 55.9157 115.971 56.065C115.882 56.2143 115.798 56.3847 115.719 56.576V61H113.99V53.818H115.005C115.182 53.818 115.306 53.8507 115.376 53.916C115.446 53.9767 115.492 54.0887 115.516 54.252L115.621 55.064Z" fill="#474747"/>
<path d="M159.024 35H165.31V33.264H161.096V24.626H159.024V35ZM166.95 35H169.008V27.16H166.95V35ZM167.986 25.9C168.686 25.9 169.176 25.452 169.176 24.766C169.176 24.094 168.686 23.646 167.986 23.646C167.272 23.646 166.782 24.094 166.782 24.766C166.782 25.452 167.272 25.9 167.986 25.9ZM171.202 35H173.26V29.61C173.834 29.036 174.24 28.728 174.884 28.728C175.654 28.728 175.99 29.148 175.99 30.366V35H178.048V30.114C178.048 28.14 177.32 26.964 175.626 26.964C174.562 26.964 173.764 27.524 173.078 28.196H173.036L172.882 27.16H171.202V35ZM183.586 35.196C184.552 35.196 185.546 34.86 186.316 34.328L185.616 33.068C185.056 33.418 184.496 33.614 183.852 33.614C182.69 33.614 181.85 32.942 181.682 31.654H186.512C186.568 31.472 186.61 31.094 186.61 30.702C186.61 28.546 185.49 26.964 183.334 26.964C181.472 26.964 179.68 28.546 179.68 31.08C179.68 33.67 181.388 35.196 183.586 35.196ZM181.654 30.282C181.808 29.148 182.536 28.56 183.362 28.56C184.37 28.56 184.846 29.232 184.846 30.282H181.654Z" fill="#333333"/>
<g clip-path="url(#clip1_997_3738)">
<path d="M173.241 46H162.259C159.769 46 157.75 48.0186 157.75 50.5087V61.4913C157.75 63.9814 159.769 66 162.259 66H173.241C175.731 66 177.75 63.9814 177.75 61.4913V50.5087C177.75 48.0186 175.731 46 173.241 46Z" fill="#06C755"/>
<path d="M174.416 55.0577C174.416 52.074 171.425 49.6465 167.748 49.6465C164.071 49.6465 161.08 52.074 161.08 55.0577C161.08 57.7327 163.455 59.9734 166.656 60.3965C166.874 60.4434 167.169 60.5396 167.244 60.7252C167.311 60.894 167.288 61.1584 167.266 61.3284C167.266 61.3284 167.188 61.799 167.171 61.899C167.141 62.0677 167.036 62.5584 167.748 62.259C168.46 61.9596 171.588 59.9977 172.987 58.3871C173.953 57.3277 174.416 56.2502 174.416 55.0577Z" fill="white"/>
<path d="M172.197 56.7805H170.322C170.289 56.7805 170.257 56.7673 170.234 56.7439C170.21 56.7204 170.197 56.6886 170.197 56.6555V53.7461C170.197 53.7129 170.21 53.6811 170.234 53.6577C170.257 53.6343 170.289 53.6211 170.322 53.6211H172.197C172.23 53.6211 172.262 53.6343 172.286 53.6577C172.309 53.6811 172.322 53.7129 172.322 53.7461V54.2192C172.322 54.2524 172.309 54.2842 172.286 54.3076C172.262 54.331 172.23 54.3442 172.197 54.3442H170.924V54.8348H172.197C172.23 54.8348 172.262 54.848 172.286 54.8715C172.309 54.8949 172.322 54.9267 172.322 54.9598V55.4373C172.322 55.4705 172.309 55.5023 172.286 55.5257C172.262 55.5492 172.23 55.5623 172.197 55.5623H170.924V56.0536H172.197C172.23 56.0536 172.262 56.0668 172.286 56.0902C172.309 56.1136 172.322 56.1454 172.322 56.1786V56.6511C172.323 56.6679 172.32 56.6846 172.314 56.7003C172.308 56.7159 172.299 56.7302 172.287 56.7423C172.276 56.7544 172.262 56.764 172.246 56.7706C172.231 56.7771 172.214 56.7805 172.197 56.7805Z" fill="#06C755"/>
<path d="M165.268 56.7806C165.301 56.7806 165.333 56.7674 165.356 56.744C165.379 56.7206 165.393 56.6888 165.393 56.6556V56.1831C165.393 56.15 165.379 56.1182 165.356 56.0947C165.333 56.0713 165.301 56.0581 165.268 56.0581H163.995V53.7456C163.995 53.7125 163.981 53.6807 163.958 53.6572C163.934 53.6338 163.903 53.6206 163.87 53.6206H163.395C163.361 53.6206 163.33 53.6338 163.306 53.6572C163.283 53.6807 163.27 53.7125 163.27 53.7456V56.6537C163.27 56.6869 163.283 56.7187 163.306 56.7421C163.33 56.7656 163.361 56.7787 163.395 56.7787H165.27L165.268 56.7806Z" fill="#06C755"/>
<path d="M166.395 53.6157H165.922C165.852 53.6157 165.795 53.6728 165.795 53.7432V56.6532C165.795 56.7236 165.852 56.7807 165.922 56.7807H166.395C166.465 56.7807 166.522 56.7236 166.522 56.6532V53.7432C166.522 53.6728 166.465 53.6157 166.395 53.6157Z" fill="#06C755"/>
<path d="M169.616 53.6157H169.143C169.11 53.6157 169.078 53.6289 169.055 53.6523C169.031 53.6758 169.018 53.7076 169.018 53.7407V55.4695L167.687 53.6713C167.684 53.6666 167.68 53.6622 167.676 53.6582L167.669 53.6507L167.662 53.6451H167.658L167.651 53.6401H167.648L167.641 53.6363H167.636H167.629H167.625H167.618H167.613H167.605H167.6H167.593H167.111C167.078 53.6363 167.046 53.6495 167.023 53.673C166.999 53.6964 166.986 53.7282 166.986 53.7613V56.6713C166.986 56.7045 166.999 56.7363 167.023 56.7597C167.046 56.7832 167.078 56.7963 167.111 56.7963H167.584C167.618 56.7963 167.649 56.7832 167.673 56.7597C167.696 56.7363 167.709 56.7045 167.709 56.6713V54.9257L169.043 56.7257C169.051 56.7385 169.062 56.7495 169.075 56.7582L169.083 56.7632H169.086L169.093 56.7663H169.099H169.103H169.112C169.123 56.7691 169.134 56.7705 169.146 56.7707H169.616C169.649 56.7707 169.681 56.7576 169.704 56.7341C169.728 56.7107 169.741 56.6789 169.741 56.6457V53.7432C169.741 53.7266 169.738 53.7101 169.732 53.6946C169.726 53.6792 169.717 53.6651 169.705 53.6532C169.693 53.6413 169.679 53.6319 169.664 53.6255C169.649 53.619 169.632 53.6157 169.616 53.6157Z" fill="#06C755"/>
</g>
<path d="M190.953 55.386C190.804 55.358 190.65 55.344 190.491 55.344C190.202 55.344 189.931 55.407 189.679 55.533C189.427 55.659 189.208 55.8293 189.021 56.044C188.839 56.2587 188.694 56.506 188.587 56.786C188.48 57.0613 188.426 57.3483 188.426 57.647C188.426 57.9457 188.489 58.179 188.615 58.347C188.746 58.5103 188.935 58.592 189.182 58.592C189.303 58.592 189.425 58.5733 189.546 58.536C189.672 58.4987 189.791 58.4333 189.903 58.34C190.015 58.242 190.118 58.1137 190.211 57.955C190.304 57.7963 190.381 57.598 190.442 57.36L190.953 55.386ZM191.772 57.178C191.697 57.4767 191.66 57.7217 191.66 57.913C191.665 58.0997 191.695 58.249 191.751 58.361C191.807 58.4683 191.886 58.543 191.989 58.585C192.092 58.627 192.208 58.648 192.339 58.648C192.535 58.648 192.719 58.5873 192.892 58.466C193.069 58.34 193.223 58.165 193.354 57.941C193.485 57.717 193.587 57.451 193.662 57.143C193.741 56.835 193.781 56.499 193.781 56.135C193.781 55.5283 193.685 54.994 193.494 54.532C193.307 54.07 193.044 53.685 192.703 53.377C192.362 53.0643 191.956 52.831 191.485 52.677C191.018 52.5183 190.505 52.439 189.945 52.439C189.329 52.439 188.76 52.5557 188.237 52.789C187.714 53.0177 187.259 53.3327 186.872 53.734C186.489 54.1353 186.188 54.609 185.969 55.155C185.754 55.701 185.647 56.289 185.647 56.919C185.647 57.6843 185.766 58.3587 186.004 58.942C186.242 59.5207 186.569 60.006 186.984 60.398C187.399 60.7853 187.887 61.077 188.447 61.273C189.012 61.469 189.621 61.567 190.274 61.567C190.633 61.567 190.969 61.546 191.282 61.504C191.595 61.4667 191.882 61.413 192.143 61.343C192.404 61.2777 192.642 61.2007 192.857 61.112C193.072 61.028 193.263 60.937 193.431 60.839C193.552 60.769 193.66 60.748 193.753 60.776C193.846 60.804 193.914 60.874 193.956 60.986L194.194 61.609C193.709 61.9263 193.142 62.1853 192.493 62.386C191.844 62.5867 191.105 62.687 190.274 62.687C189.429 62.687 188.648 62.554 187.929 62.288C187.21 62.022 186.587 61.6393 186.06 61.14C185.537 60.6453 185.127 60.041 184.828 59.327C184.534 58.613 184.387 57.8103 184.387 56.919C184.387 56.4197 184.45 55.9343 184.576 55.463C184.707 54.9917 184.891 54.5507 185.129 54.14C185.367 53.7247 185.654 53.3443 185.99 52.999C186.326 52.6537 186.699 52.3573 187.11 52.11C187.521 51.8627 187.964 51.6713 188.44 51.536C188.921 51.396 189.422 51.326 189.945 51.326C190.608 51.326 191.242 51.438 191.849 51.662C192.46 51.8813 192.999 52.1987 193.466 52.614C193.937 53.0247 194.313 53.5287 194.593 54.126C194.873 54.7187 195.013 55.3883 195.013 56.135C195.013 56.6343 194.938 57.1033 194.789 57.542C194.644 57.976 194.439 58.354 194.173 58.676C193.912 58.998 193.601 59.2523 193.242 59.439C192.887 59.621 192.5 59.712 192.08 59.712C191.758 59.712 191.473 59.6373 191.226 59.488C190.979 59.3387 190.808 59.0983 190.715 58.767C190.44 59.103 190.148 59.3433 189.84 59.488C189.532 59.6327 189.198 59.705 188.839 59.705C188.545 59.705 188.288 59.6537 188.069 59.551C187.854 59.4483 187.672 59.3083 187.523 59.131C187.378 58.949 187.269 58.7367 187.194 58.494C187.124 58.2467 187.089 57.9783 187.089 57.689C187.089 57.423 187.122 57.1547 187.187 56.884C187.257 56.6087 187.36 56.345 187.495 56.093C187.63 55.8363 187.798 55.5983 187.999 55.379C188.204 55.155 188.442 54.9613 188.713 54.798C188.988 54.63 189.296 54.4993 189.637 54.406C189.982 54.308 190.36 54.259 190.771 54.259C191.135 54.259 191.445 54.287 191.702 54.343C191.959 54.399 192.206 54.4783 192.444 54.581L191.772 57.178ZM202.605 53.818V61H201.548C201.319 61 201.174 60.895 201.114 60.685L200.995 60.111C200.701 60.4097 200.376 60.6523 200.022 60.839C199.667 61.021 199.249 61.112 198.769 61.112C198.377 61.112 198.029 61.0467 197.726 60.916C197.427 60.7807 197.175 60.5917 196.97 60.349C196.764 60.1063 196.608 59.8193 196.501 59.488C196.398 59.152 196.347 58.7833 196.347 58.382V53.818H198.076V58.382C198.076 58.8207 198.176 59.1613 198.377 59.404C198.582 59.642 198.888 59.761 199.294 59.761C199.592 59.761 199.872 59.6957 200.134 59.565C200.395 59.4297 200.642 59.2453 200.876 59.012V53.818H202.605ZM205.936 54.7C206.081 54.5553 206.232 54.4223 206.391 54.301C206.554 54.175 206.725 54.07 206.902 53.986C207.084 53.8973 207.278 53.8297 207.483 53.783C207.688 53.7317 207.912 53.706 208.155 53.706C208.547 53.706 208.895 53.7737 209.198 53.909C209.501 54.0397 209.753 54.2263 209.954 54.469C210.159 54.707 210.313 54.994 210.416 55.33C210.523 55.6613 210.577 56.0277 210.577 56.429V61H208.848V56.429C208.848 55.9903 208.748 55.652 208.547 55.414C208.346 55.1713 208.041 55.05 207.63 55.05C207.331 55.05 207.051 55.1177 206.79 55.253C206.529 55.3883 206.281 55.5727 206.048 55.806V61H204.319V53.818H205.376C205.6 53.818 205.747 53.923 205.817 54.133L205.936 54.7ZM214.013 53.818V61H212.277V53.818H214.013ZM214.251 51.725C214.251 51.8743 214.221 52.0143 214.16 52.145C214.1 52.2757 214.018 52.39 213.915 52.488C213.817 52.586 213.701 52.6653 213.565 52.726C213.43 52.782 213.285 52.81 213.131 52.81C212.982 52.81 212.84 52.782 212.704 52.726C212.574 52.6653 212.459 52.586 212.361 52.488C212.263 52.39 212.184 52.2757 212.123 52.145C212.067 52.0143 212.039 51.8743 212.039 51.725C212.039 51.571 212.067 51.4263 212.123 51.291C212.184 51.1557 212.263 51.039 212.361 50.941C212.459 50.843 212.574 50.766 212.704 50.71C212.84 50.6493 212.982 50.619 213.131 50.619C213.285 50.619 213.43 50.6493 213.565 50.71C213.701 50.766 213.817 50.843 213.915 50.941C214.018 51.039 214.1 51.1557 214.16 51.291C214.221 51.4263 214.251 51.571 214.251 51.725ZM218.17 61.112C217.545 61.112 217.064 60.937 216.728 60.587C216.397 60.2323 216.231 59.7447 216.231 59.124V55.113H215.496C215.403 55.113 215.323 55.0827 215.258 55.022C215.193 54.9613 215.16 54.8703 215.16 54.749V54.063L216.315 53.874L216.679 51.914C216.702 51.8207 216.747 51.7483 216.812 51.697C216.877 51.6457 216.961 51.62 217.064 51.62H217.96V53.881H219.878V55.113H217.96V59.005C217.96 59.229 218.014 59.404 218.121 59.53C218.233 59.656 218.385 59.719 218.576 59.719C218.683 59.719 218.772 59.7073 218.842 59.684C218.917 59.656 218.98 59.628 219.031 59.6C219.087 59.572 219.136 59.5463 219.178 59.523C219.22 59.495 219.262 59.481 219.304 59.481C219.355 59.481 219.397 59.495 219.43 59.523C219.463 59.5463 219.498 59.5837 219.535 59.635L220.053 60.475C219.801 60.685 219.512 60.8437 219.185 60.951C218.858 61.0583 218.52 61.112 218.17 61.112ZM225.557 56.583C225.557 56.359 225.525 56.149 225.459 55.953C225.399 55.7523 225.305 55.5773 225.179 55.428C225.053 55.2787 224.892 55.162 224.696 55.078C224.505 54.9893 224.281 54.945 224.024 54.945C223.525 54.945 223.131 55.0873 222.841 55.372C222.557 55.6567 222.375 56.0603 222.295 56.583H225.557ZM222.26 57.626C222.288 57.9947 222.354 58.3143 222.456 58.585C222.559 58.851 222.694 59.0727 222.862 59.25C223.03 59.4227 223.229 59.5533 223.457 59.642C223.691 59.726 223.947 59.768 224.227 59.768C224.507 59.768 224.748 59.7353 224.948 59.67C225.154 59.6047 225.331 59.5323 225.48 59.453C225.634 59.3737 225.767 59.3013 225.879 59.236C225.996 59.1707 226.108 59.138 226.215 59.138C226.36 59.138 226.467 59.1917 226.537 59.299L227.034 59.929C226.843 60.153 226.628 60.342 226.39 60.496C226.152 60.6453 225.903 60.7667 225.641 60.86C225.385 60.9487 225.121 61.0117 224.85 61.049C224.584 61.0863 224.325 61.105 224.073 61.105C223.574 61.105 223.11 61.0233 222.68 60.86C222.251 60.692 221.878 60.447 221.56 60.125C221.243 59.7983 220.993 59.397 220.811 58.921C220.629 58.4403 220.538 57.885 220.538 57.255C220.538 56.765 220.618 56.3053 220.776 55.876C220.935 55.442 221.161 55.0663 221.455 54.749C221.754 54.427 222.116 54.1727 222.54 53.986C222.97 53.7993 223.453 53.706 223.989 53.706C224.442 53.706 224.86 53.7783 225.242 53.923C225.625 54.0677 225.954 54.28 226.229 54.56C226.505 54.8353 226.719 55.176 226.873 55.582C227.032 55.9833 227.111 56.443 227.111 56.961C227.111 57.2223 227.083 57.3997 227.027 57.493C226.971 57.5817 226.864 57.626 226.705 57.626H222.26ZM233.554 55.337C233.502 55.4023 233.451 55.4537 233.4 55.491C233.353 55.5283 233.283 55.547 233.19 55.547C233.101 55.547 233.015 55.5213 232.931 55.47C232.847 55.414 232.746 55.3533 232.63 55.288C232.513 55.218 232.373 55.1573 232.21 55.106C232.051 55.05 231.853 55.022 231.615 55.022C231.311 55.022 231.045 55.078 230.817 55.19C230.588 55.2973 230.397 55.4537 230.243 55.659C230.093 55.8643 229.981 56.114 229.907 56.408C229.832 56.6973 229.795 57.0263 229.795 57.395C229.795 57.7777 229.834 58.1183 229.914 58.417C229.998 58.7157 230.117 58.9677 230.271 59.173C230.425 59.3737 230.611 59.5277 230.831 59.635C231.05 59.7377 231.297 59.789 231.573 59.789C231.848 59.789 232.07 59.7563 232.238 59.691C232.41 59.621 232.555 59.5463 232.672 59.467C232.788 59.383 232.889 59.3083 232.973 59.243C233.061 59.173 233.159 59.138 233.267 59.138C233.407 59.138 233.512 59.1917 233.582 59.299L234.079 59.929C233.887 60.153 233.68 60.342 233.456 60.496C233.232 60.6453 232.998 60.7667 232.756 60.86C232.518 60.9487 232.27 61.0117 232.014 61.049C231.762 61.0863 231.51 61.105 231.258 61.105C230.814 61.105 230.397 61.0233 230.005 60.86C229.613 60.692 229.27 60.4493 228.976 60.132C228.682 59.8147 228.448 59.4273 228.276 58.97C228.108 58.508 228.024 57.983 228.024 57.395C228.024 56.8677 228.098 56.38 228.248 55.932C228.402 55.4793 228.626 55.0897 228.92 54.763C229.214 54.4317 229.578 54.1727 230.012 53.986C230.446 53.7993 230.945 53.706 231.51 53.706C232.046 53.706 232.515 53.7923 232.917 53.965C233.323 54.1377 233.687 54.385 234.009 54.707L233.554 55.337ZM236.892 54.588C237.172 54.3267 237.48 54.1143 237.816 53.951C238.152 53.7877 238.546 53.706 238.999 53.706C239.391 53.706 239.738 53.7737 240.042 53.909C240.345 54.0397 240.597 54.2263 240.798 54.469C241.003 54.707 241.157 54.994 241.26 55.33C241.367 55.6613 241.421 56.0277 241.421 56.429V61H239.692V56.429C239.692 55.9903 239.591 55.652 239.391 55.414C239.19 55.1713 238.884 55.05 238.474 55.05C238.175 55.05 237.895 55.1177 237.634 55.253C237.372 55.3883 237.125 55.5727 236.892 55.806V61H235.163V50.598H236.892V54.588ZM242.813 60.048C242.813 59.9033 242.839 59.7657 242.89 59.635C242.946 59.5043 243.021 59.3923 243.114 59.299C243.207 59.2057 243.319 59.131 243.45 59.075C243.581 59.019 243.721 58.991 243.87 58.991C244.019 58.991 244.157 59.019 244.283 59.075C244.414 59.131 244.526 59.2057 244.619 59.299C244.717 59.3923 244.794 59.5043 244.85 59.635C244.906 59.7657 244.934 59.9033 244.934 60.048C244.934 60.1973 244.906 60.3373 244.85 60.468C244.794 60.594 244.717 60.7037 244.619 60.797C244.526 60.8903 244.414 60.9627 244.283 61.014C244.157 61.07 244.019 61.098 243.87 61.098C243.721 61.098 243.581 61.07 243.45 61.014C243.319 60.9627 243.207 60.8903 243.114 60.797C243.021 60.7037 242.946 60.594 242.89 60.468C242.839 60.3373 242.813 60.1973 242.813 60.048ZM248.781 61.112C248.156 61.112 247.675 60.937 247.339 60.587C247.008 60.2323 246.842 59.7447 246.842 59.124V55.113H246.107C246.014 55.113 245.935 55.0827 245.869 55.022C245.804 54.9613 245.771 54.8703 245.771 54.749V54.063L246.926 53.874L247.29 51.914C247.314 51.8207 247.358 51.7483 247.423 51.697C247.489 51.6457 247.573 51.62 247.675 51.62H248.571V53.881H250.489V55.113H248.571V59.005C248.571 59.229 248.625 59.404 248.732 59.53C248.844 59.656 248.996 59.719 249.187 59.719C249.295 59.719 249.383 59.7073 249.453 59.684C249.528 59.656 249.591 59.628 249.642 59.6C249.698 59.572 249.747 59.5463 249.789 59.523C249.831 59.495 249.873 59.481 249.915 59.481C249.967 59.481 250.009 59.495 250.041 59.523C250.074 59.5463 250.109 59.5837 250.146 59.635L250.664 60.475C250.412 60.685 250.123 60.8437 249.796 60.951C249.47 61.0583 249.131 61.112 248.781 61.112ZM261.851 53.818L259.569 61H258.183C258.025 61 257.915 60.8973 257.854 60.692L256.566 56.541C256.524 56.401 256.485 56.2633 256.447 56.128C256.415 55.988 256.387 55.848 256.363 55.708C256.335 55.848 256.303 55.9903 256.265 56.135C256.233 56.275 256.195 56.415 256.153 56.555L254.844 60.692C254.788 60.8973 254.665 61 254.473 61H253.143L250.868 53.818H252.247C252.373 53.818 252.481 53.8483 252.569 53.909C252.658 53.9697 252.716 54.0467 252.744 54.14L253.773 57.976C253.825 58.186 253.869 58.3913 253.906 58.592C253.948 58.7927 253.983 58.9933 254.011 59.194C254.063 58.9933 254.116 58.7927 254.172 58.592C254.233 58.3913 254.296 58.186 254.361 57.976L255.551 54.126C255.579 54.0327 255.633 53.9557 255.712 53.895C255.796 53.8343 255.897 53.804 256.013 53.804H256.776C256.898 53.804 257 53.8343 257.084 53.895C257.173 53.9557 257.231 54.0327 257.259 54.126L258.414 57.976C258.475 58.186 258.531 58.3937 258.582 58.599C258.638 58.7997 258.692 59.0003 258.743 59.201C258.804 58.8043 258.89 58.396 259.002 57.976L260.059 54.14C260.092 54.0467 260.15 53.9697 260.234 53.909C260.318 53.8483 260.419 53.818 260.535 53.818H261.851Z" fill="#474747"/>
<defs>
<linearGradient id="paint0_linear_997_3738" x1="40.3289" y1="46.2787" x2="42.0965" y2="57.5411" gradientUnits="userSpaceOnUse">
<stop offset="0.012" stop-color="#00B7F0"/>
<stop offset="0.339" stop-color="#009DE5"/>
<stop offset="0.755" stop-color="#0082D9"/>
<stop offset="1" stop-color="#0078D4"/>
</linearGradient>
<linearGradient id="paint1_linear_997_3738" x1="44.2721" y1="62.9479" x2="54.2166" y2="57.1537" gradientUnits="userSpaceOnUse">
<stop stop-color="#0078D4"/>
<stop offset="0.37" stop-color="#007AD5"/>
<stop offset="0.573" stop-color="#0082D9"/>
<stop offset="0.735" stop-color="#0090DF"/>
<stop offset="0.875" stop-color="#00A3E7"/>
<stop offset="1" stop-color="#00BCF2"/>
</linearGradient>
<linearGradient id="paint2_linear_997_3738" x1="41.6834" y1="49.9227" x2="50.6754" y2="65.6411" gradientUnits="userSpaceOnUse">
<stop stop-color="#00B7F0"/>
<stop offset="1" stop-color="#007CC1"/>
</linearGradient>
<clipPath id="clip0_997_3738">
<rect x="35.25" y="46" width="20" height="20" rx="4" fill="white"/>
</clipPath>
<clipPath id="clip1_997_3738">
<rect width="20" height="20" fill="white" transform="translate(157.75 46)"/>
</clipPath>
</defs>
</svg>
