<svg width="20" height="20" viewBox="0 0 20 20" fill="none" xmlns="http://localhost/2000/svg">
<path d="M7.85417 15.1048L3.27083 10.5215C3.20139 10.452 3.14944 10.372 3.115 10.2815C3.08 10.1915 3.0625 10.0979 3.0625 10.0007C3.0625 9.90343 3.08 9.80954 3.115 9.71898C3.14944 9.62898 3.20139 9.54926 3.27083 9.47982L7.875 4.87565C7.98611 4.76454 8.125 4.70898 8.29167 4.70898C8.45833 4.70898 8.60417 4.77148 8.72917 4.89648C8.85417 5.02148 8.91667 5.16732 8.91667 5.33398C8.91667 5.50065 8.85417 5.64648 8.72917 5.77148L5.125 9.37565H16.625C16.8056 9.37565 16.955 9.43454 17.0733 9.55232C17.1911 9.67065 17.25 9.8201 17.25 10.0007C17.25 10.1812 17.1911 10.3304 17.0733 10.4482C16.955 10.5665 16.8056 10.6257 16.625 10.6257H5.125L8.75 14.2507C8.86111 14.3618 8.91667 14.5007 8.91667 14.6673C8.91667 14.834 8.85417 14.9798 8.72917 15.1048C8.60417 15.2298 8.45833 15.2923 8.29167 15.2923C8.125 15.2923 7.97917 15.2298 7.85417 15.1048Z" fill="#333333"/>
</svg>
