<svg width="28" height="28" viewBox="0 0 28 28" fill="none" xmlns="http://localhost/2000/svg">
<rect width="28" height="28" rx="14" fill="#0972E3"/>
<path d="M10.1818 6.5H11.1191C11.6025 6.59744 12.0829 6.70965 12.525 6.93997C12.6547 7.00789 12.7785 7.0197 12.9229 6.99903C13.5124 6.9134 14.1049 6.88978 14.6973 6.95769C16.7428 7.18506 18.3993 8.12111 19.6372 9.75994C20.8044 11.3043 21.3674 13.0317 20.9989 14.9865C20.9871 15.0514 20.9871 15.1105 21.0196 15.1696C21.2789 15.6125 21.4086 16.1027 21.5 16.6017V17.5791C21.3939 18.1667 21.2406 18.7366 20.9459 19.2622C20.3387 20.34 19.4781 21.1077 18.2549 21.4001C17.2616 21.6363 16.3213 21.4355 15.4224 20.9896C15.2986 20.9276 15.1807 20.9069 15.0451 20.9276C14.4379 21.0132 13.8278 21.0339 13.2147 20.9719C11.3107 20.7859 9.73969 19.9561 8.54008 18.4679C7.36699 17.0121 6.82171 15.3349 6.9514 13.4599C6.97793 13.0671 6.93667 12.7128 6.79224 12.3348C5.93748 10.129 7.02214 7.65456 9.2062 6.7628C9.52158 6.63288 9.85169 6.57677 10.1818 6.5ZM14.2286 18.4738C14.435 18.4797 14.6413 18.4649 14.8447 18.4324C15.8851 18.2582 16.7487 17.7976 17.3264 16.8881C17.9572 15.8989 17.7685 14.83 16.8548 14.0977C16.2801 13.637 15.6081 13.3919 14.9036 13.2266C14.4291 13.1144 13.9457 13.0435 13.4829 12.887C13.1794 12.7837 12.8817 12.6685 12.6341 12.4588C12.357 12.2226 12.3128 11.9273 12.5014 11.6202C12.6812 11.3279 12.9377 11.1389 13.2737 11.074C14.2051 10.8909 14.9861 11.1625 15.6198 11.8653C15.726 11.9834 15.835 12.0927 15.9647 12.1813C16.3714 12.4647 16.9197 12.2846 17.0877 11.8181C17.1938 11.5257 17.1319 11.2511 16.9845 10.9913C16.7811 10.634 16.4746 10.3771 16.1239 10.1763C15.1807 9.63592 14.1638 9.49123 13.1027 9.64478C12.3158 9.75994 11.6143 10.0611 11.066 10.6635C10.3645 11.4372 10.282 12.7187 10.898 13.4835C11.2193 13.8821 11.6614 14.1006 12.1242 14.2837C12.8021 14.5495 13.5213 14.6617 14.2198 14.8566C14.5499 14.951 14.8771 15.0544 15.1659 15.2522C15.7053 15.6243 15.7318 16.3182 15.219 16.7287C14.9095 16.9767 14.5411 17.0771 14.155 17.086C13.4152 17.1037 12.8139 16.7907 12.3158 16.2621C12.136 16.0731 11.9886 15.8517 11.7646 15.704C11.4492 15.4944 10.9953 15.5121 10.6917 15.7483C10.4294 15.9521 10.3616 16.2828 10.4972 16.6696C10.5443 16.8054 10.6151 16.9324 10.7006 17.0505C10.9511 17.399 11.2783 17.6559 11.6496 17.8566C12.4543 18.2937 13.3267 18.4502 14.2286 18.4708V18.4738Z" fill="white"/>
</svg>
