<svg width="24" height="24" viewBox="0 0 24 24" fill="none" xmlns="http://localhost/2000/svg">
<path d="M20.3506 15.7287V7.19453C20.3506 6.95001 20.2159 6.72417 19.9971 6.60186L12.3623 2.33489C12.1435 2.21257 11.8741 2.21257 11.6553 2.33489L4.02047 6.60186C3.80172 6.72417 3.66699 6.95001 3.66699 7.19453V15.7287C3.66699 15.9732 3.80172 16.199 4.02047 16.3214L11.6553 20.5883C11.8741 20.7106 12.1435 20.7106 12.3623 20.5883L19.9971 16.3214C20.2159 16.199 20.3506 15.9732 20.3506 15.7287Z" fill="#FC904E"/>
<path d="M18.8964 14.8171V7.96393C18.8964 7.72047 18.7623 7.49561 18.5445 7.37383L12.4134 3.94724C12.1956 3.82546 11.9274 3.82546 11.7096 3.94724L5.57851 7.37383C5.36071 7.49561 5.22656 7.72047 5.22656 7.96393V14.8171C5.22656 15.0606 5.36071 15.2854 5.57851 15.4072L11.7096 18.8338C11.9274 18.9555 12.1956 18.9555 12.4134 18.8338L18.5445 15.4072C18.7623 15.2854 18.8964 15.0606 18.8964 14.8171Z" fill="#DF793E"/>
<path d="M7.38353 14.6997L3.86426 19.641L6.3214 20.3274L8.38773 22.3505L12.0385 17.2035C11.9215 17.2013 11.8051 17.1709 11.7003 17.1124L7.38353 14.6997Z" fill="#E7234F"/>
<path d="M12.2046 17.1875L15.8655 22.3505L17.9318 20.3274L20.3891 19.641L16.8306 14.6384L12.4042 17.1124C12.3411 17.1476 12.2737 17.1727 12.2046 17.1875Z" fill="#E7234F"/>
<path d="M17.329 13.9664V8.85486C17.329 8.6114 17.1949 8.38654 16.9771 8.26487L12.4042 5.70903C12.1864 5.58725 11.918 5.58725 11.7003 5.70903L7.12734 8.26487C6.90954 8.38654 6.77539 8.6114 6.77539 8.85486V13.9664C6.77539 14.2099 6.90954 14.4347 7.12734 14.5565L11.7003 17.1124C11.918 17.234 12.1864 17.234 12.4042 17.1124L16.9771 14.5565C17.1949 14.4347 17.329 14.2099 17.329 13.9664Z" fill="#FE9A5E"/>
<path d="M8.88666 11.2681C8.88666 11.5274 8.66942 11.7377 8.40134 11.7377C8.13326 11.7377 7.91602 11.5274 7.91602 11.2681C7.91602 11.0089 8.13326 10.7986 8.40134 10.7986C8.66942 10.7986 8.88666 11.0089 8.88666 11.2681Z" fill="white"/>
<path d="M16.2177 11.2681C16.2177 11.5274 16.0005 11.7377 15.7324 11.7377C15.4643 11.7377 15.2471 11.5274 15.2471 11.2681C15.2471 11.0089 15.4643 10.7986 15.7324 10.7986C16.0005 10.7986 16.2177 11.0089 16.2177 11.2681Z" fill="white"/>
<mask id="mask0_2879_374582" style="mask-type:alpha" maskUnits="userSpaceOnUse" x="3" y="2" width="18" height="19">
<path d="M20.3496 15.7288V7.19465C20.3496 6.95013 20.2149 6.72429 19.9962 6.60198L12.3613 2.33501C12.1426 2.2127 11.8731 2.2127 11.6543 2.33501L4.01949 6.60198C3.80075 6.72429 3.66602 6.95013 3.66602 7.19465V15.7288C3.66602 15.9733 3.80075 16.1992 4.01949 16.3215L11.6543 20.5884C11.8731 20.7108 12.1426 20.7108 12.3613 20.5884L19.9962 16.3215C20.2149 16.1992 20.3496 15.9733 20.3496 15.7288Z" fill="#EB8648"/>
</mask>
<g mask="url(#mask0_2879_374582)">
<path opacity="0.1" d="M0.787974 15.2917C10.7535 15.2917 18.8483 7.39748 19 -2.39731L11.88 -6.45217C11.5309 -6.65113 11.1007 -6.65113 10.7515 -6.45217L-1.43575 0.488625C-1.78493 0.687583 -2 1.05494 -2 1.45269V15.0824C-1.09097 15.2202 -0.160124 15.2917 0.787974 15.2917Z" fill="white"/>
</g>
<path d="M11.9067 14.0793C11.5851 14.0793 11.2658 14.0374 10.9486 13.9538C10.6315 13.8657 10.3628 13.7423 10.1426 13.5838L10.5588 12.7645C10.735 12.8922 10.9398 12.9935 11.1733 13.0684C11.4067 13.1433 11.6424 13.1807 11.8802 13.1807C12.1489 13.1807 12.3603 13.1279 12.5145 13.0222C12.6687 12.9165 12.7457 12.7711 12.7457 12.5861C12.7457 12.4099 12.6775 12.2712 12.5409 12.1699C12.4044 12.0686 12.1841 12.0179 11.8802 12.0179H11.3913V11.311L12.6797 9.85082L12.7986 10.234H10.3738V9.37511H13.6113V10.0688L12.3295 11.529L11.7877 11.2185H12.0983C12.6665 11.2185 13.0959 11.3462 13.3866 11.6017C13.6773 11.8571 13.8227 12.1853 13.8227 12.5861C13.8227 12.846 13.7544 13.0904 13.6179 13.3195C13.4813 13.5441 13.2721 13.7269 12.9902 13.8679C12.7083 14.0088 12.3471 14.0793 11.9067 14.0793Z" fill="#B85D29"/>
</svg>
