<svg width="25" height="24" viewBox="0 0 25 24" fill="none" xmlns="http://localhost/2000/svg">
<path d="M12.5 21C17.4706 21 21.5 16.9706 21.5 12C21.5 7.02944 17.4706 3 12.5 3C7.52944 3 3.5 7.02944 3.5 12C3.5 16.9706 7.52944 21 12.5 21Z" fill="#15A76C"/>
<path fill-rule="evenodd" clip-rule="evenodd" d="M16.0303 9.46967C16.3232 9.76256 16.3232 10.2374 16.0303 10.5303L12.0303 14.5303C11.7374 14.8232 11.2626 14.8232 10.9697 14.5303L8.96967 12.5303C8.67678 12.2374 8.67678 11.7626 8.96967 11.4697C9.26256 11.1768 9.73744 11.1768 10.0303 11.4697L11.5 12.9393L14.9697 9.46967C15.2626 9.17678 15.7374 9.17678 16.0303 9.46967Z" fill="white"/>
</svg>
