<svg width="28" height="28" viewBox="0 0 28 28" fill="none" xmlns="http://localhost/2000/svg">
<rect width="28" height="28" rx="14" fill="#0972E3"/>
<path d="M20.1293 16.6863L17.2855 15.4675C17.164 15.4157 17.029 15.4048 16.9007 15.4364C16.7725 15.468 16.658 15.5404 16.5745 15.6427L15.3151 17.1814C13.3386 16.2495 11.748 14.6588 10.8161 12.6823L12.3548 11.4229C12.4573 11.3396 12.5298 11.2251 12.5614 11.0968C12.593 10.9685 12.582 10.8334 12.53 10.712L11.3112 7.86819C11.2541 7.73728 11.1531 7.63039 11.0256 7.56596C10.8982 7.50153 10.7522 7.4836 10.6129 7.51526L7.97227 8.12464C7.838 8.15565 7.7182 8.23126 7.63242 8.33912C7.54665 8.44698 7.49997 8.58073 7.5 8.71854C7.5 15.2314 12.7788 20.5 19.2815 20.5C19.4193 20.5001 19.5531 20.4534 19.661 20.3677C19.7689 20.2819 19.8446 20.162 19.8756 20.0277L20.485 17.3871C20.5164 17.2471 20.4981 17.1006 20.4332 16.9727C20.3683 16.8448 20.2608 16.7435 20.1293 16.6863V16.6863Z" fill="white"/>
</svg>
