<svg width="40" height="40" viewBox="0 0 40 40" fill="none" xmlns="http://localhost/2000/svg">
<rect x="0.75" y="0.75" width="38.5" height="38.5" rx="19.25" fill="white"/>
<path fill-rule="evenodd" clip-rule="evenodd" d="M13.9484 27.4304C13.1961 27.4304 12.5602 27.1716 12.0334 26.6525C11.5057 26.1333 11.2436 25.5096 11.2436 24.7748V24.6612L11.1301 24.655C10.5541 24.6235 10.1448 24.4331 9.88059 24.1C9.60671 23.7563 9.46875 23.35 9.46875 22.8752V14.3996C9.46875 13.8977 9.63998 13.4785 9.9832 13.1344C10.3272 12.7912 10.7464 12.62 11.2484 12.62H22.8991C23.4003 12.62 23.8237 12.7951 24.1763 13.1476C24.5297 13.5011 24.7039 13.9164 24.7039 14.3996V16.4204H27.0487C27.1773 16.4204 27.2988 16.4521 27.4148 16.5167C27.5368 16.5853 27.6325 16.6632 27.7046 16.7493L30.3766 20.3222L30.3882 20.3339C30.4382 20.3846 30.4744 20.4486 30.4952 20.5298C30.5177 20.6205 30.5287 20.7106 30.5287 20.8004V23.8004C30.5287 24.0343 30.4459 24.2332 30.2759 24.4031C30.1052 24.5738 29.9142 24.6548 29.6984 24.6548H28.7288V24.7748C28.7288 25.5263 28.4665 26.1534 27.9408 26.6638C27.4139 27.1747 26.7691 27.4304 25.9988 27.4304C25.2465 27.4304 24.6101 27.1716 24.0825 26.6525C23.5557 26.1333 23.294 25.5096 23.294 24.7748V24.6548H16.6532V24.7748C16.6532 25.5264 16.3909 26.1535 15.8652 26.6639C15.3385 27.1752 14.702 27.4304 13.9484 27.4304ZM11.1739 23.2196C11.1072 23.2196 11.048 23.1936 11.0018 23.1476L10.9246 23.0715C10.886 23.0317 10.8587 22.9841 10.8452 22.9299C10.8341 22.887 10.8283 22.8435 10.8283 22.7996V14.3996C10.8283 14.2848 10.87 14.1834 10.9511 14.1023C11.0322 14.0213 11.1336 13.9796 11.2484 13.9796H22.8991C23.0238 13.9796 23.1361 14.0168 23.2216 14.1023C23.3027 14.1834 23.3443 14.2848 23.3443 14.3996V23.2196H16.1324L16.0971 23.1639C15.8765 22.8168 15.5682 22.5391 15.1686 22.3313C14.7681 22.1229 14.3538 22.0196 13.9244 22.0196C13.495 22.0196 13.0899 22.1269 12.7075 22.3426C12.3231 22.5587 12.0305 22.8324 11.8255 23.1628L11.7903 23.2196H11.1739ZM24.7039 17.78V22.0196H29.294V21.16L26.7583 17.78H24.7039ZM13.9484 26.0696C14.3146 26.0696 14.6325 25.9355 14.896 25.672C15.1594 25.4086 15.2936 25.0912 15.2936 24.7256C15.2936 24.3593 15.1595 24.0414 14.896 23.7779C14.6325 23.5144 14.3146 23.3804 13.9484 23.3804C13.5828 23.3804 13.2653 23.5145 13.0019 23.7779C12.7384 24.0414 12.6044 24.3593 12.6044 24.7256C12.6044 25.0912 12.7385 25.4086 13.0019 25.672C13.2653 25.9355 13.5828 26.0696 13.9484 26.0696ZM26.024 26.0696C26.3902 26.0696 26.7081 25.9355 26.9716 25.672C27.235 25.4086 27.3692 25.0912 27.3692 24.7256C27.3692 24.3593 27.2351 24.0414 26.9716 23.7779C26.7081 23.5144 26.3902 23.3804 26.024 23.3804C25.6579 23.3804 25.3368 23.5143 25.0658 23.7764C24.7931 24.0396 24.6536 24.3579 24.6536 24.7256C24.6536 25.0926 24.7932 25.4105 25.0658 25.6736C25.3368 25.9357 25.6579 26.0696 26.024 26.0696Z" fill="#0972E3"/>
<rect x="0.75" y="0.75" width="38.5" height="38.5" rx="19.25" stroke="#0972E3" stroke-width="1.5"/>
</svg>
