<svg width="20" height="20" viewBox="0 0 20 20" fill="none" xmlns="http://localhost/2000/svg">
<path fill-rule="evenodd" clip-rule="evenodd" d="M14.372 5.99999C14.0631 6.87389 13.2297 7.5 12.25 7.5C11.2703 7.5 10.4369 6.87389 10.128 6H4.25C3.83579 6 3.5 5.66421 3.5 5.25C3.5 4.83579 3.83579 4.5 4.25 4.5H10.128C10.4369 3.6261 11.2703 3 12.25 3C13.2297 3 14.0631 3.62612 14.372 4.50004L15.75 4.5C16.1642 4.5 16.5 4.83579 16.5 5.25C16.5 5.66421 16.1642 6 15.75 6L14.372 5.99999ZM13.5 5.25C13.5 5.94036 12.9404 6.5 12.25 6.5C11.5596 6.5 11 5.94036 11 5.25C11 4.55964 11.5596 4 12.25 4C12.9404 4 13.5 4.55964 13.5 5.25Z" fill="#333333"/>
<path fill-rule="evenodd" clip-rule="evenodd" d="M10.372 11C10.0631 11.8739 9.22966 12.5 8.25 12.5C7.27034 12.5 6.43691 11.8739 6.12803 11H4.25C3.83579 11 3.5 10.6642 3.5 10.25C3.5 9.83579 3.83579 9.5 4.25 9.5H6.12803C6.43691 8.62611 7.27034 8 8.25 8C9.22966 8 10.0631 8.62611 10.372 9.5H15.75C16.1642 9.5 16.5 9.83579 16.5 10.25C16.5 10.6642 16.1642 11 15.75 11H10.372ZM9.5 10.25C9.5 10.9404 8.94036 11.5 8.25 11.5C7.55964 11.5 7 10.9404 7 10.25C7 9.55964 7.55964 9 8.25 9C8.94036 9 9.5 9.55964 9.5 10.25Z" fill="#333333"/>
<path fill-rule="evenodd" clip-rule="evenodd" d="M12.25 17.5C13.2297 17.5 14.0631 16.8739 14.372 16L15.75 16C16.1642 16 16.5 15.6642 16.5 15.25C16.5 14.8358 16.1642 14.5 15.75 14.5H14.372C14.0631 13.6261 13.2297 13 12.25 13C11.2703 13 10.4369 13.6261 10.128 14.5H4.25C3.83579 14.5 3.5 14.8358 3.5 15.25C3.5 15.6642 3.83579 16 4.25 16H10.128C10.4369 16.8739 11.2703 17.5 12.25 17.5ZM14.3818 14.5284L14.372 14.5C14.3753 14.5094 14.3786 14.5189 14.3818 14.5284ZM12.25 16.5C12.9404 16.5 13.5 15.9404 13.5 15.25C13.5 14.5596 12.9404 14 12.25 14C11.5596 14 11 14.5596 11 15.25C11 15.9404 11.5596 16.5 12.25 16.5Z" fill="#333333"/>
</svg>
