<svg width="24" height="24" viewBox="0 0 24 24" fill="none" xmlns="http://localhost/2000/svg">
<path d="M20.3496 15.7283V7.19416C20.3496 6.94964 20.2149 6.7238 19.9962 6.60149L12.3613 2.33452C12.1426 2.21221 11.8731 2.21221 11.6543 2.33452L4.01949 6.60149C3.80075 6.7238 3.66602 6.94964 3.66602 7.19416V15.7283C3.66602 15.9728 3.80075 16.1987 4.01949 16.321L11.6543 20.588C11.8731 20.7103 12.1426 20.7103 12.3613 20.588L19.9962 16.321C20.2149 16.1987 20.3496 15.9728 20.3496 15.7283Z" fill="#FEAF18"/>
<path d="M18.8964 14.8178V7.96466C18.8964 7.7212 18.7623 7.49634 18.5445 7.37456L12.4134 3.94797C12.1956 3.82619 11.9274 3.82619 11.7096 3.94797L5.57851 7.37456C5.36071 7.49634 5.22656 7.7212 5.22656 7.96466V14.8178C5.22656 15.0613 5.36071 15.2862 5.57851 15.4079L11.7096 18.8345C11.9274 18.9562 12.1956 18.9562 12.4134 18.8345L18.5445 15.4079C18.7623 15.2862 18.8964 15.0613 18.8964 14.8178Z" fill="#F7931E"/>
<path d="M7.38255 14.698L3.86328 19.6393L6.32042 20.3257L8.38675 22.3488L12.0375 17.2018C11.9206 17.1996 11.8041 17.1692 11.6993 17.1107L7.38255 14.698Z" fill="#E7234F"/>
<path d="M12.2036 17.1858L15.8645 22.3488L17.9309 20.3257L20.3881 19.6393L16.8296 14.6367L12.4032 17.1107C12.3401 17.1459 12.2727 17.171 12.2036 17.1858Z" fill="#E7234F"/>
<path d="M17.329 13.9659V8.85437C17.329 8.61092 17.1949 8.38605 16.9771 8.26438L12.4042 5.70855C12.1864 5.58676 11.918 5.58676 11.7003 5.70855L7.12734 8.26438C6.90954 8.38605 6.77539 8.61092 6.77539 8.85437V13.9659C6.77539 14.2094 6.90954 14.4343 7.12734 14.556L11.7003 17.1119C11.918 17.2335 12.1864 17.2335 12.4042 17.1119L16.9771 14.556C17.1949 14.4343 17.329 14.2094 17.329 13.9659Z" fill="#FEC14B"/>
<path d="M8.88666 11.2687C8.88666 11.528 8.66942 11.7383 8.40134 11.7383C8.13326 11.7383 7.91602 11.528 7.91602 11.2687C7.91602 11.0095 8.13326 10.7992 8.40134 10.7992C8.66942 10.7992 8.88666 11.0095 8.88666 11.2687Z" fill="white"/>
<path d="M16.2187 11.2687C16.2187 11.528 16.0014 11.7383 15.7334 11.7383C15.4653 11.7383 15.248 11.528 15.248 11.2687C15.248 11.0095 15.4653 10.7992 15.7334 10.7992C16.0014 10.7992 16.2187 11.0095 16.2187 11.2687Z" fill="white"/>
<mask id="mask0_1170_34464" style="mask-type:alpha" maskUnits="userSpaceOnUse" x="3" y="2" width="18" height="19">
<path d="M20.3496 15.7283V7.19416C20.3496 6.94964 20.2149 6.7238 19.9962 6.60149L12.3613 2.33452C12.1426 2.21221 11.8731 2.21221 11.6543 2.33452L4.01949 6.60149C3.80075 6.7238 3.66602 6.94964 3.66602 7.19416V15.7283C3.66602 15.9728 3.80075 16.1987 4.01949 16.321L11.6543 20.588C11.8731 20.7103 12.1426 20.7103 12.3613 20.588L19.9962 16.321C20.2149 16.1987 20.3496 15.9728 20.3496 15.7283Z" fill="#FEAF18"/>
</mask>
<g mask="url(#mask0_1170_34464)">
<path opacity="0.1" d="M0.787974 15.2891C10.7535 15.2891 18.8483 7.39479 19 -2.4L11.88 -6.45486C11.5309 -6.65382 11.1007 -6.65382 10.7515 -6.45486L-1.43575 0.485939C-1.78493 0.684897 -2 1.05226 -2 1.45V15.0797C-1.09097 15.2175 -0.160124 15.2891 0.787974 15.2891Z" fill="white"/>
</g>
<path d="M11.7818 14V9.77153L12.2443 10.234H10.8568V9.37511H12.8521V14H11.7818Z" fill="#DB7600"/>
</svg>
