<svg width="16" height="13" viewBox="0 0 16 13" fill="none" xmlns="http://localhost/2000/svg">
<path d="M10.4008 2.7999C10.4008 3.43642 10.1479 4.04687 9.69784 4.49696C9.24775 4.94705 8.6373 5.1999 8.00078 5.1999C7.36426 5.1999 6.75381 4.94705 6.30373 4.49696C5.85364 4.04687 5.60078 3.43642 5.60078 2.7999C5.60078 2.16338 5.85364 1.55293 6.30373 1.10285C6.75381 0.652759 7.36426 0.399902 8.00078 0.399902C8.6373 0.399902 9.24775 0.652759 9.69784 1.10285C10.1479 1.55293 10.4008 2.16338 10.4008 2.7999ZM14.4008 4.3999C14.4008 4.82425 14.2322 5.23122 13.9322 5.53127C13.6321 5.83133 13.2251 5.9999 12.8008 5.9999C12.3764 5.9999 11.9695 5.83133 11.6694 5.53127C11.3694 5.23122 11.2008 4.82425 11.2008 4.3999C11.2008 3.97556 11.3694 3.56859 11.6694 3.26853C11.9695 2.96847 12.3764 2.7999 12.8008 2.7999C13.2251 2.7999 13.6321 2.96847 13.9322 3.26853C14.2322 3.56859 14.4008 3.97556 14.4008 4.3999ZM11.2008 9.9999C11.2008 9.15121 10.8636 8.33728 10.2635 7.73716C9.66341 7.13704 8.84947 6.7999 8.00078 6.7999C7.15209 6.7999 6.33816 7.13704 5.73804 7.73716C5.13792 8.33728 4.80078 9.15121 4.80078 9.9999V12.3999H11.2008V9.9999ZM4.80078 4.3999C4.80078 4.82425 4.63221 5.23122 4.33215 5.53127C4.03209 5.83133 3.62513 5.9999 3.20078 5.9999C2.77643 5.9999 2.36947 5.83133 2.06941 5.53127C1.76935 5.23122 1.60078 4.82425 1.60078 4.3999C1.60078 3.97556 1.76935 3.56859 2.06941 3.26853C2.36947 2.96847 2.77643 2.7999 3.20078 2.7999C3.62513 2.7999 4.03209 2.96847 4.33215 3.26853C4.63221 3.56859 4.80078 3.97556 4.80078 4.3999ZM12.8008 12.3999V9.9999C12.8019 9.18653 12.5954 8.38633 12.2008 7.6751C12.5555 7.58434 12.9262 7.57578 13.2847 7.65008C13.6432 7.72438 13.9799 7.87958 14.2693 8.10383C14.5587 8.32809 14.7931 8.61547 14.9545 8.94407C15.1159 9.27267 15.2001 9.6338 15.2008 9.9999V12.3999H12.8008ZM3.80078 7.6751C3.40618 8.38634 3.19966 9.18653 3.20078 9.9999V12.3999H0.800781V9.9999C0.800627 9.63353 0.884352 9.27199 1.04554 8.94299C1.20673 8.61399 1.4411 8.32625 1.73069 8.10183C2.02028 7.87742 2.35741 7.72228 2.71623 7.64832C3.07505 7.57435 3.44605 7.58351 3.80078 7.6751Z" fill="#43B38E"/>
</svg>
