<svg width="24" height="24" viewBox="0 0 24 24" fill="none" xmlns="http://localhost/2000/svg">
<path fill-rule="evenodd" clip-rule="evenodd" d="M13.1818 4.90596C19.0798 0.940426 29.0759 10.6664 12.0004 21C-5.07681 10.6664 4.92082 0.940414 10.819 4.90597C11.2371 5.18708 11.6346 5.53699 12.0004 5.96036C12.3662 5.53698 12.7637 5.18707 13.1818 4.90596ZM12.0004 19.1362C8.09338 16.6441 5.94424 14.2945 4.90667 12.3398C3.81775 10.2883 3.95388 8.70025 4.48509 7.64259C5.6098 5.40326 8.82873 4.71132 10.8023 6.99552C11.1031 7.34361 11.5404 7.54369 12.0004 7.54369C12.4604 7.54369 12.8977 7.34361 13.1985 6.99552C15.1721 4.7113 18.3905 5.40329 19.515 7.64251C20.0461 8.70019 20.1822 10.2883 19.0933 12.3398C18.0558 14.2946 15.9069 16.6441 12.0004 19.1362Z" fill="#858585"/>
</svg>
