<svg width="16" height="16" viewBox="0 0 16 16" fill="none" xmlns="http://localhost/2000/svg">
<path d="M8 12.7574C8.25262 12.7574 8.46314 12.6698 8.63155 12.4946C8.79997 12.3195 8.88417 12.1053 8.88417 11.852C8.88417 11.6 8.7966 11.3861 8.62145 11.2103C8.44562 11.0352 8.2314 10.9476 7.97878 10.9476C7.72616 10.9476 7.51564 11.0352 7.34723 11.2103C7.17881 11.3861 7.09461 11.6 7.09461 11.852C7.09461 12.1053 7.18252 12.3195 7.35834 12.4946C7.53349 12.6698 7.74738 12.7574 8 12.7574ZM8.04244 4.44209C8.47762 4.44209 8.82826 4.55459 9.09435 4.77959C9.36112 5.00392 9.4945 5.29864 9.4945 5.66376C9.4945 5.90224 9.42445 6.14778 9.28432 6.4004C9.14353 6.65302 8.93301 6.89857 8.65277 7.13705C8.21759 7.51564 7.90535 7.85954 7.71605 8.16875C7.52676 8.47728 7.42503 8.79289 7.41089 9.11557C7.39674 9.26984 7.44221 9.40322 7.5473 9.51573C7.65239 9.62823 7.79622 9.68448 7.97878 9.68448C8.14719 9.68448 8.29472 9.63159 8.42137 9.52583C8.54735 9.42074 8.62448 9.27691 8.65277 9.09435C8.69454 8.87003 8.78582 8.65614 8.92661 8.4527C9.06673 8.24925 9.29106 7.99326 9.5996 7.68473C10.0489 7.26302 10.3507 6.8979 10.505 6.58936C10.6593 6.28083 10.7364 5.93693 10.7364 5.55766C10.7364 4.86986 10.4945 4.31578 10.0109 3.89542C9.5265 3.47371 8.89125 3.26285 8.10509 3.26285C7.5857 3.26285 7.11549 3.37535 6.69445 3.60035C6.27342 3.82468 5.90156 4.15444 5.57888 4.58962C5.49467 4.70212 5.47379 4.82843 5.51623 4.96855C5.558 5.10867 5.6422 5.22791 5.76885 5.32626C5.89482 5.43876 6.05246 5.4775 6.24176 5.44247C6.43173 5.40743 6.5897 5.30571 6.71567 5.1373C6.88409 4.92644 7.07002 4.75803 7.27346 4.63206C7.47691 4.50541 7.73323 4.44209 8.04244 4.44209ZM8 16C6.89116 16 5.85272 15.7895 4.88468 15.3684C3.91596 14.9474 3.07019 14.3788 2.34735 13.6628C1.62452 12.9473 1.05259 12.1019 0.631552 11.1264C0.210517 10.151 0 9.10884 0 8C0 6.89116 0.210517 5.84902 0.631552 4.87356C1.05259 3.89811 1.62452 3.05267 2.34735 2.33725C3.07019 1.62115 3.91596 1.05259 4.88468 0.631552C5.85272 0.210517 6.89116 0 8 0C9.12298 0 10.1685 0.210517 11.1365 0.631552C12.1053 1.05259 12.951 1.62115 13.6739 2.33725C14.3967 3.05267 14.9649 3.89811 15.3786 4.87356C15.7929 5.84902 16 6.89116 16 8C16 9.10884 15.7929 10.151 15.3786 11.1264C14.9649 12.1019 14.3967 12.9473 13.6739 13.6628C12.951 14.3788 12.1053 14.9474 11.1365 15.3684C10.1685 15.7895 9.12298 16 8 16ZM8 14.652C9.8667 14.652 11.442 14.0029 12.726 12.7048C14.01 11.4067 14.652 9.83841 14.652 8C14.652 6.16159 14.01 4.59332 12.726 3.29519C11.442 1.99705 9.8667 1.34799 8 1.34799C6.16159 1.34799 4.59332 1.99705 3.29519 3.29519C1.99705 4.59332 1.34799 6.16159 1.34799 8C1.34799 9.83841 1.99705 11.4067 3.29519 12.7048C4.59332 14.0029 6.16159 14.652 8 14.652Z" fill="#1060B4"/>
</svg>
