<svg width="24" height="24" viewBox="0 0 24 24"  xmlns="http://localhost/2000/svg">
<path fill-rule="evenodd" clip-rule="evenodd" d="M13.4004 15.9014C13.4004 15.3491 12.9527 14.9014 12.4004 14.9014H11.6004C11.0481 14.9014 10.6004 15.3491 10.6004 15.9014V19.6016C10.6004 20.7061 9.70496 21.6016 8.60039 21.6016H5.40039C4.29582 21.6016 3.40039 20.7061 3.40039 19.6016V9.87717C3.40039 9.24347 3.70072 8.64726 4.20993 8.27006L10.8099 3.38117C11.5171 2.85732 12.4837 2.85732 13.1908 3.38117L19.7908 8.27006C20.3001 8.64725 20.6004 9.24347 20.6004 9.87717V19.6016C20.6004 20.7061 19.705 21.6016 18.6004 21.6016H15.4004C14.2958 21.6016 13.4004 20.7061 13.4004 19.6016V15.9014ZM8.02539 20.1793C8.57768 20.1793 9.02539 19.7316 9.02539 19.1793V15.5127C9.02539 14.4081 9.92082 13.5127 11.0254 13.5127H12.9754C14.08 13.5127 14.9754 14.4081 14.9754 15.5127V19.1793C14.9754 19.7316 15.4231 20.1793 15.9754 20.1793H18.1504C18.7027 20.1793 19.1504 19.7316 19.1504 19.1793V10.0816C19.1504 9.76472 19.0002 9.46662 18.7456 9.27802L12.5956 4.72246C12.242 4.46054 11.7588 4.46054 11.4052 4.72246L5.25516 9.27802C5.00055 9.46662 4.85039 9.76472 4.85039 10.0816V19.1793C4.85039 19.7316 5.29811 20.1793 5.85039 20.1793H8.02539Z" />
</svg>
