<svg width="22" height="22" viewBox="0 0 22 22" fill="none" xmlns="http://localhost/2000/svg">
<path fill-rule="evenodd" clip-rule="evenodd" d="M13.3521 3.34791C13.3521 2.51433 14.0338 1.83325 14.8674 1.83325C15.701 1.83325 16.385 2.51433 16.385 3.34791C16.385 4.1815 15.701 4.86316 14.8674 4.86316C14.0338 4.86316 13.3521 4.1815 13.3521 3.34791ZM7.41846 5.47186C7.81528 4.0736 9.10091 3.04474 10.6242 3.04474C12.1475 3.04474 13.4332 4.0736 13.83 5.47186H7.41846Z" fill="#637381"/>
<path fill-rule="evenodd" clip-rule="evenodd" d="M2.74241 4.25928C2.46446 4.25928 2.2187 4.37379 2.06206 4.55001C1.90541 4.72624 1.8335 4.94861 1.8335 5.1676C1.8335 5.38659 1.90541 5.60896 2.06206 5.78519C2.2187 5.9614 2.46446 6.07651 2.74241 6.07651H4.41872L6.09443 15.0437C6.17447 15.4716 6.55398 15.7779 6.98558 15.7779H16.687C17.103 15.7779 17.476 15.4938 17.571 15.0822L19.3906 7.19977C19.5206 6.63657 19.0894 6.07829 18.5066 6.07829H6.27622L6.05891 4.99114C5.97466 4.56842 5.59938 4.26043 5.16835 4.25928H2.74241ZM8.80459 16.3842C7.97101 16.3842 7.28994 17.0659 7.28994 17.8995C7.28993 18.7331 7.971 19.4165 8.80459 19.4165C9.63818 19.4165 10.3198 18.7331 10.3198 17.8995C10.3198 17.0659 9.63818 16.3842 8.80459 16.3842ZM13.3521 17.8995C13.3521 17.0659 14.0338 16.3842 14.8674 16.3842C15.701 16.3842 16.385 17.0659 16.385 17.8995C16.385 18.7331 15.701 19.4165 14.8674 19.4165C14.0338 19.4165 13.3521 18.7331 13.3521 17.8995Z" fill="#637381"/>
</svg>
