<svg width="22" height="22" viewBox="0 0 22 22" fill="none" xmlns="http://localhost/2000/svg">
<path d="M8.10516 2.55615C3.77341 2.55615 0.458496 5.49552 0.458496 8.69975C0.458496 11.904 3.32056 13.7606 3.32056 13.7606L2.85541 15.5237C2.79391 15.7561 3.04296 15.948 3.25204 15.8294L5.3428 14.6448C6.26739 14.9391 8.22946 15.0331 8.42053 15.0419C8.28349 14.5666 8.21585 14.0984 8.21585 13.6614C8.21585 11.1885 10.369 7.70532 15.1553 7.70532C15.2643 7.70532 15.3732 7.70795 15.4821 7.71235C14.8452 4.66405 11.6801 2.55615 8.10516 2.55615Z" fill="#637381"/>
<path opacity="0.48" d="M21.5416 13.2745C21.5416 10.4678 18.2487 8.4126 15.1547 8.4126C10.779 8.4126 8.92236 11.5729 8.92236 13.6615C8.92236 15.7544 10.7786 18.9103 15.1547 18.9103C16.1228 18.9103 16.9744 18.7715 17.715 18.5256L19.3608 19.5701C19.4908 19.6526 19.6551 19.5363 19.6204 19.386L19.247 17.7653C20.8019 16.6821 21.5416 14.9748 21.5416 13.2745Z" fill="#637381"/>
</svg>
