<svg width="24" height="24" viewBox="0 0 24 24" fill="none" xmlns="http://localhost/2000/svg">
<path fill-rule="evenodd" clip-rule="evenodd" d="M12.852 3.24991C13.0817 3.53841 13.0369 3.9608 12.7519 4.19335L12.4924 4.40517L17.1569 4.40517C18.4263 4.40517 19.4553 5.44702 19.4553 6.7322L19.4554 14.6752C20.6302 14.9745 21.5 16.0511 21.5 17.3335C21.5 18.8473 20.2879 20.0745 18.7927 20.0745C17.2976 20.0745 16.0855 18.8473 16.0855 17.3335C16.0855 16.0511 16.9552 14.9745 18.13 14.6752L18.1299 6.7322C18.1299 6.18813 17.6943 5.74708 17.1569 5.74708L12.4924 5.74708L12.7519 5.9589C13.0369 6.19145 13.0817 6.61384 12.852 6.90234C12.6223 7.19085 12.2051 7.2362 11.9201 7.00365L10.1984 5.5985C10.0423 5.47113 9.9516 5.27908 9.9516 5.07613C9.9516 4.87317 10.0423 4.68112 10.1984 4.55375L11.9201 3.1486C12.2051 2.91605 12.6223 2.96141 12.852 3.24991ZM2.5 6.66647C2.5 5.15263 3.71208 3.92543 5.20726 3.92543C6.70244 3.92543 7.91452 5.15263 7.91452 6.66647C7.91452 7.94883 7.04477 9.02552 5.86994 9.32479L5.86991 17.2678C5.86991 17.8119 6.30553 18.2529 6.84289 18.2529H11.5075L11.2479 18.0411C10.963 17.8086 10.9182 17.3862 11.1478 17.0977C11.3775 16.8092 11.7947 16.7638 12.0797 16.9963L13.8014 18.4015C13.9575 18.5289 14.0482 18.7209 14.0482 18.9239C14.0482 19.1268 13.9575 19.3189 13.8014 19.4463L12.0797 20.8514C11.7947 21.084 11.3775 21.0386 11.1478 20.7501C10.9182 20.4616 10.963 20.0392 11.2479 19.8066L11.5075 19.5948H6.84289C5.57355 19.5948 4.54455 18.553 4.54454 17.2678L4.54458 9.32479C3.36975 9.02551 2.5 7.94883 2.5 6.66647ZM5.20726 5.26733C4.44406 5.26733 3.82537 5.89375 3.82537 6.66647C3.82537 7.43919 4.44406 8.0656 5.20726 8.0656C5.97046 8.0656 6.58915 7.43919 6.58915 6.66647C6.58915 5.89375 5.97046 5.26733 5.20726 5.26733ZM18.7927 15.9344C18.0295 15.9344 17.4108 16.5608 17.4108 17.3335C17.4108 18.1062 18.0295 18.7326 18.7927 18.7326C19.5559 18.7326 20.1746 18.1062 20.1746 17.3335C20.1746 16.5608 19.5559 15.9344 18.7927 15.9344Z" fill="#333333"/>
</svg>
