<svg width="22" height="22" viewBox="0 0 22 22" fill="none" xmlns="http://localhost/2000/svg">
<path fill-rule="evenodd" clip-rule="evenodd" d="M18.3335 2.75C19.346 2.75 20.1668 3.57081 20.1668 4.58333V13.75C20.1668 14.7625 19.346 15.5833 18.3335 15.5833H3.66683C2.65431 15.5833 1.8335 14.7625 1.8335 13.75V4.58333C1.8335 3.57081 2.65431 2.75 3.66683 2.75H18.3335ZM10.5418 5.5H5.9585C5.1991 5.5 4.5835 6.11561 4.5835 6.875V8.70833C4.5835 9.46772 5.1991 10.0833 5.9585 10.0833H10.5418C11.3012 10.0833 11.9168 9.46772 11.9168 8.70833V6.875C11.9168 6.11561 11.3012 5.5 10.5418 5.5Z" fill="#637381"/>
<path opacity="0.48" fill-rule="evenodd" clip-rule="evenodd" d="M10.9998 14.6665C11.5061 14.6665 11.9165 15.0769 11.9165 15.5832V18.3332H14.6665C15.1728 18.3332 15.5832 18.7436 15.5832 19.2498C15.5832 19.7561 15.1728 20.1665 14.6665 20.1665H7.33317C6.82691 20.1665 6.4165 19.7561 6.4165 19.2498C6.4165 18.7436 6.82691 18.3332 7.33317 18.3332H10.0832V15.5832C10.0832 15.0769 10.4936 14.6665 10.9998 14.6665Z" fill="#637381"/>
</svg>
