<svg width="16" height="16" viewBox="0 0 16 16" fill="none" xmlns="http://localhost/2000/svg">
<path d="M6.50727 5.24549C6.62552 5.12724 6.78589 5.06081 6.95312 5.06081H10.6125C10.7797 5.06081 10.9401 5.12724 11.0584 5.24549C11.1766 5.36373 11.243 5.52411 11.243 5.69134V9.35074C11.243 9.51796 11.1766 9.67834 11.0584 9.79659C10.9401 9.91483 10.7797 9.98126 10.6125 9.98126C10.4453 9.98126 10.2849 9.91483 10.1667 9.79659C10.0484 9.67834 9.98199 9.51796 9.98199 9.35074V7.21335L5.93585 11.261C5.87722 11.3196 5.80761 11.3661 5.73101 11.3979C5.6544 11.4296 5.57229 11.4459 5.48936 11.4459C5.40644 11.4459 5.32433 11.4296 5.24772 11.3979C5.1711 11.3661 5.10149 11.3196 5.04286 11.261C4.98422 11.2024 4.93771 11.1328 4.90598 11.0561C4.87424 10.9795 4.85791 10.8974 4.85791 10.8145C4.85791 10.7316 4.87424 10.6495 4.90598 10.5728C4.93771 10.4962 4.98423 10.4266 5.04286 10.368L9.09051 6.32187H6.95312C6.78589 6.32187 6.62552 6.25544 6.50727 6.13719C6.38902 6.01894 6.32259 5.85856 6.32259 5.69134C6.32259 5.52411 6.38902 5.36373 6.50727 5.24549Z" fill="#0972E3"/>
<path fill-rule="evenodd" clip-rule="evenodd" d="M0.5 4.4527C0.5 2.26969 2.26969 0.5 4.4527 0.5H11.5473C13.7303 0.5 15.5 2.26969 15.5 4.4527V11.5473C15.5 13.7303 13.7303 15.5 11.5473 15.5H4.4527C2.26969 15.5 0.5 13.7303 0.5 11.5473V4.4527ZM4.4527 1.81757C2.99736 1.81757 1.81757 2.99736 1.81757 4.4527V11.5473C1.81757 13.0026 2.99736 14.1824 4.4527 14.1824H11.5473C13.0026 14.1824 14.1824 13.0026 14.1824 11.5473V4.4527C14.1824 2.99736 13.0026 1.81757 11.5473 1.81757H4.4527Z" fill="#0972E3"/>
</svg>
