<svg width="16" height="17" viewBox="0 0 16 17" fill="none" xmlns="http://localhost/2000/svg">
<path d="M7.99962 11.666C8.14415 11.666 8.26922 11.6132 8.37482 11.5076C8.48042 11.402 8.53322 11.2772 8.53322 11.1332V8.34922C8.53322 8.21588 8.48042 8.09668 8.37482 7.99162C8.26922 7.88602 8.14415 7.83322 7.99962 7.83322C7.85508 7.83322 7.73002 7.88602 7.62442 7.99162C7.51882 8.09668 7.46602 8.22148 7.46602 8.36602V11.1492C7.46602 11.2825 7.51882 11.402 7.62442 11.5076C7.73002 11.6132 7.85508 11.666 7.99962 11.666ZM7.99962 6.68282C8.15535 6.68282 8.28868 6.62442 8.39962 6.50762C8.51055 6.39135 8.56602 6.25535 8.56602 6.09962C8.56602 5.95508 8.51055 5.82442 8.39962 5.70762C8.28868 5.59135 8.15535 5.53322 7.99962 5.53322C7.84388 5.53322 7.71055 5.59135 7.59962 5.70762C7.48868 5.82442 7.43322 5.95508 7.43322 6.09962C7.43322 6.25535 7.48868 6.39135 7.59962 6.50762C7.71055 6.62442 7.84388 6.68282 7.99962 6.68282ZM7.99962 14.8332C7.12175 14.8332 6.29668 14.6665 5.52442 14.3332C4.75215 13.9999 4.08282 13.5497 3.51642 12.9828C2.94948 12.4164 2.49935 11.7471 2.16602 10.9748C1.83268 10.2025 1.66602 9.37748 1.66602 8.49962C1.66602 7.62175 1.83268 6.79668 2.16602 6.02442C2.49935 5.25215 2.94948 4.58282 3.51642 4.01642C4.08282 3.44948 4.75215 2.99935 5.52442 2.66602C6.29668 2.33268 7.12175 2.16602 7.99962 2.16602C8.87748 2.16602 9.70255 2.33268 10.4748 2.66602C11.2471 2.99935 11.9164 3.44948 12.4828 4.01642C13.0497 4.58282 13.4999 5.25215 13.8332 6.02442C14.1665 6.79668 14.3332 7.62175 14.3332 8.49962C14.3332 9.37748 14.1665 10.2025 13.8332 10.9748C13.4999 11.7471 13.0497 12.4164 12.4828 12.9828C11.9164 13.5497 11.2471 13.9999 10.4748 14.3332C9.70255 14.6665 8.87748 14.8332 7.99962 14.8332ZM7.99962 13.766C9.45508 13.766 10.6967 13.2521 11.7244 12.2244C12.7521 11.1967 13.266 9.95508 13.266 8.49962C13.266 7.04415 12.7521 5.80255 11.7244 4.77482C10.6967 3.74708 9.45508 3.23322 7.99962 3.23322C6.54415 3.23322 5.30255 3.74708 4.27482 4.77482C3.24708 5.80255 2.73322 7.04415 2.73322 8.49962C2.73322 9.95508 3.24708 11.1967 4.27482 12.2244C5.30255 13.2521 6.54415 13.766 7.99962 13.766Z" fill="#858585"/>
</svg>
