<svg width="20" height="20" viewBox="0 0 20 20" fill="none" xmlns="http://localhost/2000/svg">
<path d="M10 13.9995C10.1826 13.9995 10.3405 13.9328 10.4739 13.7994C10.6073 13.666 10.674 13.5084 10.674 13.3265V9.81003C10.674 9.64161 10.6073 9.49105 10.4739 9.35834C10.3405 9.22496 10.1826 9.15827 10 9.15827C9.81744 9.15827 9.65947 9.22496 9.52608 9.35834C9.3927 9.49105 9.32601 9.64869 9.32601 9.83125V13.3467C9.32601 13.5151 9.3927 13.666 9.52608 13.7994C9.65947 13.9328 9.81744 13.9995 10 13.9995ZM10 7.70519C10.1967 7.70519 10.3651 7.63143 10.5052 7.4839C10.6454 7.33704 10.7154 7.16526 10.7154 6.96855C10.7154 6.78599 10.6454 6.62094 10.5052 6.47341C10.3651 6.32655 10.1967 6.25313 10 6.25313C9.80329 6.25313 9.63488 6.32655 9.49476 6.47341C9.35464 6.62094 9.28458 6.78599 9.28458 6.96855C9.28458 7.16526 9.35464 7.33704 9.49476 7.4839C9.63488 7.63143 9.80329 7.70519 10 7.70519ZM10 18C8.89116 18 7.84902 17.7895 6.87356 17.3684C5.89811 16.9474 5.05267 16.3788 4.33725 15.6628C3.62115 14.9473 3.05259 14.1019 2.63155 13.1264C2.21052 12.151 2 11.1088 2 10C2 8.89116 2.21052 7.84902 2.63155 6.87356C3.05259 5.89811 3.62115 5.05267 4.33725 4.33725C5.05267 3.62115 5.89811 3.05259 6.87356 2.63155C7.84902 2.21052 8.89116 2 10 2C11.1088 2 12.151 2.21052 13.1264 2.63155C14.1019 3.05259 14.9473 3.62115 15.6628 4.33725C16.3788 5.05267 16.9474 5.89811 17.3684 6.87356C17.7895 7.84902 18 8.89116 18 10C18 11.1088 17.7895 12.151 17.3684 13.1264C16.9474 14.1019 16.3788 14.9473 15.6628 15.6628C14.9473 16.3788 14.1019 16.9474 13.1264 17.3684C12.151 17.7895 11.1088 18 10 18ZM10 16.652C11.8384 16.652 13.4067 16.0029 14.7048 14.7048C16.0029 13.4067 16.652 11.8384 16.652 10C16.652 8.16159 16.0029 6.59332 14.7048 5.29519C13.4067 3.99705 11.8384 3.34799 10 3.34799C8.16159 3.34799 6.59332 3.99705 5.29519 5.29519C3.99705 6.59332 3.34799 8.16159 3.34799 10C3.34799 11.8384 3.99705 13.4067 5.29519 14.7048C6.59332 16.0029 8.16159 16.652 10 16.652Z" fill="#0972E3"/>
</svg>
