<svg width="20" height="21" viewBox="0 0 20 21" xmlns="http://localhost/2000/svg">
<path d="M10 14.4995C10.1826 14.4995 10.3405 14.4328 10.4739 14.2994C10.6073 14.166 10.674 14.0084 10.674 13.8265V10.31C10.674 10.1416 10.6073 9.99105 10.4739 9.85834C10.3405 9.72496 10.1826 9.65827 10 9.65827C9.81744 9.65827 9.65947 9.72496 9.52608 9.85834C9.3927 9.99105 9.32601 10.1487 9.32601 10.3312V13.8467C9.32601 14.0151 9.3927 14.166 9.52608 14.2994C9.65947 14.4328 9.81744 14.4995 10 14.4995ZM10 8.20519C10.1967 8.20519 10.3651 8.13143 10.5052 7.9839C10.6454 7.83704 10.7154 7.66526 10.7154 7.46855C10.7154 7.28599 10.6454 7.12094 10.5052 6.97341C10.3651 6.82655 10.1967 6.75313 10 6.75313C9.80329 6.75313 9.63488 6.82655 9.49476 6.97341C9.35464 7.12094 9.28458 7.28599 9.28458 7.46855C9.28458 7.66526 9.35464 7.83704 9.49476 7.9839C9.63488 8.13143 9.80329 8.20519 10 8.20519ZM10 18.5C8.89116 18.5 7.84902 18.2895 6.87356 17.8684C5.89811 17.4474 5.05267 16.8788 4.33725 16.1628C3.62115 15.4473 3.05259 14.6019 2.63155 13.6264C2.21052 12.651 2 11.6088 2 10.5C2 9.39116 2.21052 8.34902 2.63155 7.37356C3.05259 6.39811 3.62115 5.55267 4.33725 4.83725C5.05267 4.12115 5.89811 3.55259 6.87356 3.13155C7.84902 2.71052 8.89116 2.5 10 2.5C11.1088 2.5 12.151 2.71052 13.1264 3.13155C14.1019 3.55259 14.9473 4.12115 15.6628 4.83725C16.3788 5.55267 16.9474 6.39811 17.3684 7.37356C17.7895 8.34902 18 9.39116 18 10.5C18 11.6088 17.7895 12.651 17.3684 13.6264C16.9474 14.6019 16.3788 15.4473 15.6628 16.1628C14.9473 16.8788 14.1019 17.4474 13.1264 17.8684C12.151 18.2895 11.1088 18.5 10 18.5ZM10 17.152C11.8384 17.152 13.4067 16.5029 14.7048 15.2048C16.0029 13.9067 16.652 12.3384 16.652 10.5C16.652 8.66159 16.0029 7.09332 14.7048 5.79519C13.4067 4.49705 11.8384 3.84799 10 3.84799C8.16159 3.84799 6.59332 4.49705 5.29519 5.79519C3.99705 7.09332 3.34799 8.66159 3.34799 10.5C3.34799 12.3384 3.99705 13.9067 5.29519 15.2048C6.59332 16.5029 8.16159 17.152 10 17.152Z" />
</svg>
