<?xml version="1.0" encoding="UTF-8"?><svg id="a" xmlns="http://localhost/2000/svg" viewBox="0 0 188.35 221.6"><path d="M103.12,37.43c1.79-.49,4.64-.24,6.32.55l73.53,34.52c1.68.79,1.62,1.94-.13,2.56l-97.08,34.26c-1.75.62-4.51.37-6.13-.54L5.21,66.57c-1.62-.92-1.47-2.07.32-2.56l97.59-26.58Z" fill="#cf9041" stroke-width="0"/><path d="M109.4,37.96c-1.66-.78-3.02.09-3.02,1.92v107.02c0,1.83,1.39,3.9,3.09,4.6l73.52,30.06c1.7.69,3.09-.24,3.09-2.07v-102.32c0-1.83-1.36-3.97-3.02-4.75l-73.65-34.46Z" fill="#b5803a" stroke-width="0"/><path d="M56.09,38.42c0-6.19,1.81-10.5,5.44-12.94,3.63-2.44,9.69-3.65,18.19-3.65h27.74c8.31,0,14.28,1.22,17.91,3.65,3.63,2.44,5.45,6.75,5.45,12.94v60.9l26.01-11.77v-54.7c0-20.26-14.38-30.39-43.13-30.39h-40.21c-13.99,0-24.34,2.3-31.06,6.9-8.49,5.58-12.74,13.4-12.74,23.49v52.11l26.41,11.47v-58.01Z" fill="#004da0" stroke-width="0"/><path d="M186.07,179.49c0,1.83-1.42,3.83-3.14,4.44l-96.63,34.1c-1.73.61-3.14-.39-3.14-2.23v-108.55c0-1.83,1.44-3.76,3.2-4.27l96.52-28.21c1.76-.51,3.2.57,3.2,2.4v102.32Z" fill="#de9e53" stroke-width="0"/><path d="M5.89,64.82c-1.64-.83-2.98,0-2.98,1.83v100.1c0,1.83,1.28,4.12,2.85,5.07l74.73,45.58c1.57.96,2.85.24,2.85-1.6v-108.55c0-1.83-1.34-4.01-2.98-4.84L5.89,64.82Z" fill="#d9b16f" stroke-width="0"/><path d="M84,212.59c-.23,0-.44.02-.66.05v5.89c.22.02.43.05.66.05,2.32,0,4.2-1.34,4.2-2.99s-1.88-2.99-4.2-2.99Z" fill="#de9e53" stroke-width="0"/><path d="M80.7,213.75v3.66c.64.58,1.57.99,2.64,1.11v-5.89c-1.07.12-2,.53-2.64,1.11Z" fill="#d9b16f" stroke-width="0"/></svg>
