<svg width="24" height="24" viewBox="0 0 24 24" fill="none" xmlns="http://localhost/2000/svg">
<g clip-path="url(#clip0_2636_165315)">
<path fill-rule="evenodd" clip-rule="evenodd" d="M12 23.3272C13.2821 22.7842 18.9054 19.2436 21.4246 16.3252C23.1565 14.4022 24 12.4565 24 10.296C24 4.90028 18.6129 0.5 12 0.5C5.37582 0.5 0 4.90028 0 10.296C0 15.1374 4.26242 19.1984 10.0319 19.9562C10.4255 20.0467 10.9541 20.2164 11.089 20.5558C11.2128 20.8612 11.1678 21.3363 11.1228 21.653C11.0328 22.2186 10.9766 22.5617 10.9541 22.6824C10.9521 22.6956 10.9499 22.7099 10.9476 22.7251C10.8953 23.0615 10.7734 23.8466 12 23.3272ZM3.74963 12.9999C3.74963 13.1244 3.85085 13.2262 3.97456 13.2262H7.34851C7.47222 13.2262 7.57344 13.1244 7.57344 12.9999V12.1403C7.57344 12.0158 7.47222 11.914 7.34851 11.914H5.05423V7.72866C5.05423 7.60423 4.95301 7.50242 4.8293 7.50242H3.97456C3.85085 7.50242 3.74963 7.60423 3.74963 7.72866V12.9999ZM16.4469 13.2262H19.8209C19.9446 13.2262 20.0458 13.1244 20.0458 12.9999V12.1403C20.0458 12.0158 19.9446 11.914 19.8209 11.914H17.5266V11.0204H19.8209C19.9446 11.0204 20.0458 10.9186 20.0458 10.7941V9.93445C20.0458 9.81003 19.9446 9.70822 19.8209 9.70822H17.5266V8.81459H19.8209C19.9446 8.81459 20.0458 8.71278 20.0458 8.58835V7.72866C20.0458 7.60423 19.9446 7.50242 19.8209 7.50242H16.4469C16.3232 7.50242 16.222 7.60423 16.222 7.72866V12.9999C16.222 13.1244 16.3232 13.2262 16.4469 13.2262ZM9.37265 7.50242H8.5181C8.3939 7.50242 8.29321 7.60371 8.29321 7.72866V12.9999C8.29321 13.1249 8.3939 13.2262 8.5181 13.2262H9.37265C9.49685 13.2262 9.59753 13.1249 9.59753 12.9999V7.72866C9.59753 7.60371 9.49685 7.50242 9.37265 7.50242ZM15.401 12.9999V7.72866C15.401 7.60423 15.2998 7.50242 15.1648 7.50242H14.3214C14.1976 7.50242 14.0852 7.60423 14.0852 7.72866V10.8507L11.6897 7.60423C11.6897 7.59668 11.6859 7.58914 11.6784 7.5816L11.6447 7.54767H11.6334C11.6334 7.54013 11.6297 7.53636 11.6222 7.53636V7.52504H11.5997L11.5885 7.51373H11.5772C11.5697 7.51373 11.566 7.50997 11.566 7.50242H10.655C10.5313 7.50242 10.4188 7.60423 10.4188 7.72866V12.9999C10.4188 13.1244 10.5313 13.2262 10.655 13.2262H11.4985C11.6334 13.2262 11.7347 13.1244 11.7347 12.9999V9.86658L14.1302 13.1244C14.1452 13.147 14.1639 13.1658 14.1864 13.1809H14.1976C14.1976 13.1885 14.2014 13.1922 14.2089 13.1922L14.2201 13.2036H14.2426V13.2149H14.2651C14.2801 13.2224 14.2989 13.2262 14.3214 13.2262H15.1648C15.2998 13.2262 15.401 13.1244 15.401 12.9999Z" fill="#333333"/>
</g>
<defs>
<clipPath id="clip0_2636_165315">
<rect width="24" height="24" fill="white"/>
</clipPath>
</defs>
</svg>
