<svg width="20" height="20" viewBox="0 0 20 20"  xmlns="http://localhost/2000/svg">
<path fill-rule="evenodd" clip-rule="evenodd" d="M4.95761 16.1936C4.33077 16.1936 3.80078 15.9779 3.3618 15.5453C2.9221 15.1127 2.70361 14.5929 2.70361 13.9806V13.8859L2.60907 13.8807C2.12903 13.8545 1.78796 13.6958 1.56781 13.4182C1.33958 13.1318 1.22461 12.7932 1.22461 12.3976V5.33456C1.22461 4.91628 1.3673 4.56695 1.65332 4.28027C1.94 3.99426 2.28933 3.85156 2.70761 3.85156H12.4166C12.8342 3.85156 13.1871 3.99745 13.4809 4.29127C13.7754 4.58578 13.9206 4.93191 13.9206 5.33456V7.01856H15.8746C15.9818 7.01856 16.083 7.04497 16.1797 7.09878C16.2813 7.15599 16.3611 7.22093 16.4211 7.29261L18.6478 10.27L18.6575 10.2798C18.6992 10.322 18.7293 10.3754 18.7467 10.4431C18.7654 10.5186 18.7746 10.5937 18.7746 10.6686V13.1686C18.7746 13.3635 18.7055 13.5292 18.5639 13.6709C18.4217 13.8131 18.2625 13.8806 18.0826 13.8806H17.2746V13.9806C17.2746 14.6069 17.0561 15.1294 16.618 15.5548C16.1789 15.9805 15.6415 16.1936 14.9996 16.1936C14.3728 16.1936 13.8424 15.9779 13.4027 15.5453C12.9637 15.1126 12.7456 14.5929 12.7456 13.9806V13.8806H7.21161V13.9806C7.21161 14.6069 6.99307 15.1294 6.55495 15.5548C6.1161 15.9809 5.58561 16.1936 4.95761 16.1936ZM2.64561 12.6846C2.58996 12.6846 2.54065 12.6629 2.50218 12.6246L2.43779 12.5611C2.40567 12.528 2.38287 12.4884 2.37167 12.4431C2.36238 12.4074 2.35761 12.3711 2.35761 12.3346V5.33456C2.35761 5.23893 2.39232 5.15443 2.4599 5.08685C2.52747 5.01928 2.61197 4.98456 2.70761 4.98456H12.4166C12.5205 4.98456 12.6141 5.0156 12.6853 5.08685C12.7529 5.15443 12.7876 5.23893 12.7876 5.33456V12.6846H6.77767L6.74821 12.6382C6.56442 12.3489 6.3075 12.1175 5.97446 11.9443C5.64072 11.7707 5.29548 11.6846 4.93761 11.6846C4.57984 11.6846 4.24225 11.774 3.9236 11.9537C3.60325 12.1338 3.35938 12.3619 3.18859 12.6373L3.15926 12.6846H2.64561ZM13.9206 8.15156V11.6846H17.7456V10.9682L15.6326 8.15156H13.9206ZM4.95761 15.0596C5.26284 15.0596 5.52774 14.9479 5.74732 14.7283C5.96685 14.5087 6.07861 14.2442 6.07861 13.9396C6.07861 13.6343 5.9669 13.3694 5.74732 13.1499C5.52774 12.9303 5.26284 12.8186 4.95761 12.8186C4.65297 12.8186 4.38843 12.9303 4.1689 13.1499C3.94932 13.3694 3.83761 13.6343 3.83761 13.9396C3.83761 14.2442 3.94937 14.5087 4.1689 14.7283C4.38843 14.9478 4.65297 15.0596 4.95761 15.0596ZM15.0206 15.0596C15.3258 15.0596 15.5907 14.9479 15.8103 14.7283C16.0298 14.5087 16.1416 14.2442 16.1416 13.9396C16.1416 13.6343 16.0299 13.3694 15.8103 13.1499C15.5907 12.9303 15.3258 12.8186 15.0206 12.8186C14.7155 12.8186 14.4479 12.9301 14.2222 13.1486C13.9949 13.3679 13.8786 13.6331 13.8786 13.9396C13.8786 14.2454 13.995 14.5103 14.2222 14.7295C14.4479 14.948 14.7155 15.0596 15.0206 15.0596Z" />
</svg>
