<svg width="20" height="20" viewBox="0 0 20 20" xmlns="http://localhost/2000/svg">
<path d="M15.5827 17.918H4.41602C3.99935 17.918 3.64518 17.7721 3.35352 17.4805C3.06185 17.1888 2.91602 16.8346 2.91602 16.418V6.91797C2.91602 6.5013 3.06185 6.14714 3.35352 5.85547C3.64518 5.5638 3.99935 5.41797 4.41602 5.41797H6.24935C6.24935 4.3763 6.61379 3.49075 7.34268 2.7613C8.07213 2.03241 8.95768 1.66797 9.99935 1.66797C11.041 1.66797 11.9266 2.03241 12.656 2.7613C13.3849 3.49075 13.7493 4.3763 13.7493 5.41797H15.5827C15.9994 5.41797 16.3535 5.5638 16.6452 5.85547C16.9368 6.14714 17.0827 6.5013 17.0827 6.91797V16.418C17.0827 16.8346 16.9368 17.1888 16.6452 17.4805C16.3535 17.7721 15.9994 17.918 15.5827 17.918ZM7.49935 5.41797H12.4993C12.4993 4.72352 12.2563 4.13325 11.7702 3.64714C11.2841 3.16102 10.6938 2.91797 9.99935 2.91797C9.3049 2.91797 8.71463 3.16102 8.22852 3.64714C7.7424 4.13325 7.49935 4.72352 7.49935 5.41797ZM15.5827 16.668C15.6521 16.668 15.7113 16.6438 15.7602 16.5955C15.8085 16.5466 15.8327 16.4874 15.8327 16.418V6.91797C15.8327 6.84852 15.8085 6.78936 15.7602 6.74047C15.7113 6.69214 15.6521 6.66797 15.5827 6.66797H4.41602C4.34657 6.66797 4.28768 6.69214 4.23935 6.74047C4.19046 6.78936 4.16602 6.84852 4.16602 6.91797V16.418C4.16602 16.4874 4.19046 16.5466 4.23935 16.5955C4.28768 16.6438 4.34657 16.668 4.41602 16.668H15.5827ZM9.99935 11.2513C10.9438 11.2513 11.791 10.9319 12.541 10.293C13.291 9.65408 13.6591 8.93186 13.6452 8.1263C13.6452 7.94575 13.5896 7.7963 13.4785 7.67797C13.3674 7.56019 13.2216 7.5013 13.041 7.5013C12.8882 7.5013 12.7563 7.55352 12.6452 7.65797C12.5341 7.76186 12.4507 7.90408 12.3952 8.08464C12.2841 8.64019 11.9993 9.09852 11.541 9.45964C11.0827 9.82075 10.5688 10.0013 9.99935 10.0013C9.4299 10.0013 8.91602 9.82075 8.45768 9.45964C7.99935 9.09852 7.71463 8.64019 7.60352 8.08464C7.54796 7.89019 7.46824 7.74436 7.36435 7.64714C7.2599 7.54991 7.13129 7.5013 6.97852 7.5013C6.81185 7.5013 6.66602 7.56019 6.54102 7.67797C6.41602 7.7963 6.35352 7.94575 6.35352 8.1263C6.35352 8.93186 6.72518 9.65408 7.46852 10.293C8.21129 10.9319 9.0549 11.2513 9.99935 11.2513Z" />
</svg>
