<svg width="20" height="20" viewBox="0 0 20 20"  xmlns="http://localhost/2000/svg">
<path d="M5.333 17.918C4.889 17.918 4.514 17.7616 4.208 17.449C3.90267 17.1363 3.75 16.7576 3.75 16.313V8.66797C3.75 8.2233 3.90267 7.8483 4.208 7.54297C4.514 7.23697 4.889 7.08397 5.333 7.08397H12.458V5.45897C12.458 4.77897 12.2187 4.1993 11.74 3.71997C11.2607 3.24064 10.6807 3.00097 10 3.00097C9.43067 3.00097 8.92733 3.17797 8.49 3.53197C8.052 3.88597 7.76367 4.32697 7.625 4.85497C7.583 5.03564 7.49267 5.18164 7.354 5.29297C7.21533 5.40364 7.06967 5.45897 6.917 5.45897C6.70833 5.45897 6.54167 5.3863 6.417 5.24097C6.29167 5.09497 6.243 4.93164 6.271 4.75097C6.45167 3.8483 6.88567 3.10864 7.573 2.53197C8.26033 1.95597 9.06933 1.66797 10 1.66797C11.0693 1.66797 11.9687 2.0323 12.698 2.76097C13.4273 3.4903 13.792 4.38964 13.792 5.45897V7.08397H14.667C15.111 7.08397 15.486 7.23697 15.792 7.54297C16.0973 7.8483 16.25 8.2233 16.25 8.66797V16.313C16.25 16.7576 16.0973 17.1363 15.792 17.449C15.486 17.7616 15.111 17.918 14.667 17.918H5.333ZM5.333 16.584H14.667C14.7363 16.584 14.7953 16.5596 14.844 16.511C14.8927 16.463 14.917 16.404 14.917 16.334V8.66797C14.917 8.59797 14.8927 8.53897 14.844 8.49097C14.7953 8.4423 14.7363 8.41797 14.667 8.41797H5.333C5.26367 8.41797 5.20467 8.4423 5.156 8.49097C5.10733 8.53897 5.083 8.59797 5.083 8.66797V16.334C5.083 16.404 5.10733 16.463 5.156 16.511C5.20467 16.5596 5.26367 16.584 5.333 16.584ZM10 13.98C10.4167 13.98 10.7673 13.8376 11.052 13.553C11.3367 13.2683 11.479 12.9176 11.479 12.501C11.479 12.0843 11.3367 11.7336 11.052 11.449C10.7673 11.1643 10.4167 11.022 10 11.022C9.58333 11.022 9.23267 11.1643 8.948 11.449C8.66333 11.7336 8.521 12.0843 8.521 12.501C8.521 12.9176 8.66333 13.2683 8.948 13.553C9.23267 13.8376 9.58333 13.98 10 13.98Z" />
</svg>
