<svg width="20" height="20" viewBox="0 0 20 20"  xmlns="http://localhost/2000/svg">
<path fill-rule="evenodd" clip-rule="evenodd" d="M11.5273 6.65805C11.1599 6.54018 10.7248 6.48125 10.2221 6.48125H7.77813V14.0005H9.17693V11.3537H10.2221C10.7109 11.3537 11.1373 11.293 11.5013 11.1717C11.8688 11.0503 12.1739 10.8805 12.4165 10.6621C12.6592 10.4437 12.8412 10.1837 12.9625 9.88205C13.0839 9.57698 13.1445 9.24245 13.1445 8.87845C13.1445 8.52832 13.0856 8.20592 12.9677 7.91125C12.8533 7.61658 12.6765 7.36352 12.4373 7.15205C12.1981 6.94058 11.8948 6.77592 11.5273 6.65805ZM10.8929 10.1681C10.7023 10.2305 10.4787 10.2617 10.2221 10.2617H9.17693V7.56285H10.2221C10.4821 7.56285 10.7075 7.59405 10.8981 7.65645C11.0888 7.71538 11.2465 7.80205 11.3713 7.91645C11.4961 8.03085 11.5897 8.16952 11.6521 8.33245C11.7145 8.49538 11.7457 8.67738 11.7457 8.87845C11.7457 9.08992 11.7145 9.28232 11.6521 9.45565C11.5897 9.62552 11.4944 9.77112 11.3661 9.89245C11.2413 10.0103 11.0836 10.1022 10.8929 10.1681Z"/>
<path fill-rule="evenodd" clip-rule="evenodd" d="M10 18C14.4183 18 18 14.4183 18 10C18 5.58172 14.4183 2 10 2C5.58172 2 2 5.58172 2 10C2 14.4183 5.58172 18 10 18ZM10 16.8C13.7555 16.8 16.8 13.7555 16.8 10C16.8 6.24446 13.7555 3.2 10 3.2C6.24446 3.2 3.2 6.24446 3.2 10C3.2 13.7555 6.24446 16.8 10 16.8Z" />
</svg>
