<svg width="20" height="20" viewBox="0 0 20 20"  xmlns="http://localhost/2000/svg">
<path fill-rule="evenodd" clip-rule="evenodd" d="M10.9641 4.03986C15.7756 0.804814 23.9303 8.73915 10.0003 17.1692C-3.93108 8.73915 4.22488 0.804804 9.03655 4.03986C9.37763 4.26919 9.70191 4.55464 10.0003 4.90002C10.2988 4.55464 10.623 4.26918 10.9641 4.03986ZM10.0003 15.6487C6.81302 13.6157 5.05978 11.699 4.21334 10.1043C3.32501 8.43072 3.43606 7.1352 3.86942 6.27237C4.78694 4.44554 7.41291 3.88107 9.02296 5.7445C9.26832 6.02847 9.62505 6.19169 10.0003 6.19169C10.3756 6.19169 10.7323 6.02847 10.9777 5.7445C12.5878 3.88106 15.2133 4.44557 16.1306 6.2723C16.5639 7.13515 16.675 8.43072 15.7867 10.1043C14.9403 11.699 13.1872 13.6157 10.0003 15.6487Z" />
</svg>
