<svg width="32" height="32" viewBox="0 0 32 32" xmlns="http://localhost/2000/svg">
<path d="M7.87438 9.27083C7.89099 9.25142 7.90765 9.23207 7.92436 9.21279L7.87438 9.27083Z" />
<path d="M16.8985 10.9042V15.5627L20.2797 18.8731C20.446 19.0389 20.5282 19.2352 20.5282 19.4646C20.5282 19.694 20.4459 19.8904 20.2795 20.0562C20.1126 20.2225 19.9202 20.3042 19.7001 20.3042C19.48 20.3042 19.2872 20.2222 19.1204 20.056L15.4908 16.4977C15.3975 16.4047 15.3338 16.3087 15.2978 16.2099C15.2608 16.1086 15.2423 16.0026 15.2423 15.8917V10.9042C15.2423 10.6635 15.3207 10.4676 15.4764 10.3125C15.632 10.1574 15.8287 10.0792 16.0704 10.0792C16.3121 10.0792 16.5088 10.1574 16.6644 10.3125C16.8201 10.4676 16.8985 10.6635 16.8985 10.9042Z" />
<path d="M9.00591 23.7882C7.112 22.0462 5.98064 19.8694 5.61144 17.2555C5.57403 16.9946 5.62558 16.775 5.76287 16.5926C5.89938 16.4112 6.0956 16.3101 6.3564 16.2915C6.57603 16.2733 6.76708 16.341 6.9327 16.4968C7.10044 16.6547 7.20233 16.844 7.23957 17.0662C7.57303 19.2548 8.53452 21.0831 10.1237 22.5492C11.7141 24.0166 13.6485 24.75 15.924 24.75C18.4154 24.75 20.5261 23.8796 22.2529 22.1394C23.9796 20.3993 24.8433 18.2866 24.8433 15.8042C24.8433 13.3795 23.9694 11.3296 22.2227 9.65763C20.4765 7.98608 18.376 7.15 15.924 7.15C14.5892 7.15 13.3372 7.45326 12.1689 8.05979C11.0022 8.66549 9.98729 9.46667 9.12453 10.4631L9.0529 10.5458H11.3577C11.5994 10.5458 11.7961 10.6241 11.9517 10.7792C12.1074 10.9343 12.1858 11.1302 12.1858 11.3708C12.1858 11.6115 12.1074 11.8074 11.9517 11.9625C11.7961 12.1176 11.5994 12.1958 11.3577 12.1958H6.99623C6.75456 12.1958 6.55786 12.1176 6.40219 11.9625C6.24653 11.8074 6.16809 11.6115 6.16809 11.3708V7.05417C6.16809 6.81351 6.24653 6.6176 6.40219 6.4625C6.55786 6.30739 6.75456 6.22917 6.99623 6.22917C7.23791 6.22917 7.43461 6.30739 7.59028 6.4625C7.74594 6.6176 7.82438 6.81351 7.82438 7.05417V9.40619L7.91237 9.30334C8.92269 8.1224 10.1222 7.19331 11.5113 6.51577C12.8997 5.83857 14.3704 5.5 15.924 5.5C17.3813 5.5 18.7504 5.771 20.0319 6.31272C21.3143 6.85482 22.4359 7.59516 23.3973 8.53369C24.3585 9.47217 25.116 10.5703 25.6696 11.8285C26.2228 13.0857 26.4996 14.4399 26.4996 15.8917C26.4996 17.3435 26.2228 18.7075 25.6695 19.9843C25.1158 21.2619 24.3583 22.3746 23.3971 23.3227C22.4357 24.271 21.314 25.021 20.0316 25.5728C18.7501 26.1242 17.3811 26.4 15.924 26.4C13.2038 26.4 10.8988 25.5292 9.00591 23.7882Z" />
</svg>
