<svg width="20" height="20" viewBox="0 0 20 20"  xmlns="http://localhost/2000/svg">
<path d="M12.1587 11.7872C12.1587 11.4347 12.443 11.1489 12.7937 11.1489H14.3175C14.6681 11.1489 14.9524 11.4347 14.9524 11.7872C14.9524 12.1397 14.6681 12.4255 14.3175 12.4255H12.7937C12.443 12.4255 12.1587 12.1397 12.1587 11.7872Z" />
<path fill-rule="evenodd" clip-rule="evenodd" d="M2 5.65957C2 4.74302 2.73909 4 3.65079 4H16.3492C17.2609 4 18 4.74302 18 5.65957V14.3404C18 15.257 17.2609 16 16.3492 16H3.65079C2.73908 16 2 15.257 2 14.3404V5.65957ZM3.65079 5.2766C3.4404 5.2766 3.26984 5.44806 3.26984 5.65957V7.06383H16.7302V5.65957C16.7302 5.44807 16.5596 5.2766 16.3492 5.2766H3.65079ZM16.7302 8.34043H3.26984V14.3404C3.26984 14.552 3.44041 14.7234 3.65079 14.7234H16.3492C16.5596 14.7234 16.7302 14.552 16.7302 14.3404V8.34043Z" />
</svg>
