<svg width="40" height="40" viewBox="0 0 40 40" fill="none" xmlns="http://localhost/2000/svg">
<rect width="40" height="40" rx="20" fill="#D2DBE7"/>
<path d="M19.15 20.8748C19.2668 20.8748 19.3836 20.85 19.5004 20.8004C19.6164 20.75 19.7248 20.6748 19.8256 20.5748L23.1748 17.2256C23.358 17.0416 23.4496 16.8456 23.4496 16.6376C23.4496 16.4296 23.358 16.242 23.1748 16.0748C23.0084 15.8916 22.8208 15.8 22.612 15.8C22.404 15.8 22.2084 15.8916 22.0252 16.0748L19.15 18.95L18.4 18.2252C18.2168 18.042 18.0252 17.9504 17.8252 17.9504C17.6252 17.9504 17.4336 18.042 17.2504 18.2252C17.0832 18.3916 16.9996 18.5792 16.9996 18.788C16.9996 18.996 17.0832 19.1832 17.2504 19.3496L18.4744 20.5748C18.5752 20.6748 18.6836 20.75 18.7996 20.8004C18.9164 20.85 19.0332 20.8748 19.15 20.8748ZM19.9996 27.65C22.0492 25.8332 23.5868 24.104 24.6124 22.4624C25.6372 20.8208 26.1496 19.4 26.1496 18.2C26.1496 16.3 25.558 14.7668 24.3748 13.6004C23.1916 12.4332 21.7332 11.8496 19.9996 11.8496C18.266 11.8496 16.8076 12.4332 15.6244 13.6004C14.4412 14.7668 13.8496 16.3 13.8496 18.2C13.8496 19.4 14.362 20.8208 15.3868 22.4624C16.4124 24.104 17.95 25.8332 19.9996 27.65ZM19.9996 29.3996C19.866 29.3996 19.7412 29.3832 19.6252 29.3504C19.5084 29.3168 19.3916 29.2584 19.2748 29.1752C16.9084 27.0088 15.146 25.0212 13.9876 23.2124C12.8292 21.4044 12.25 19.7336 12.25 18.2C12.25 15.7664 13.0248 13.8332 14.5744 12.4004C16.1248 10.9668 17.9332 10.25 19.9996 10.25C22.066 10.25 23.8744 10.9668 25.4248 12.4004C26.9744 13.8332 27.7492 15.7664 27.7492 18.2C27.7492 19.7336 27.17 21.4044 26.0116 23.2124C24.8532 25.0212 23.0908 27.0088 20.7244 29.1752C20.6244 29.2584 20.512 29.3168 20.3872 29.3504C20.2624 29.3832 20.1332 29.3996 19.9996 29.3996Z" fill="#8B98AD"/>
</svg>
