<svg width="40" height="40" viewBox="0 0 40 40" fill="none" xmlns="http://localhost/2000/svg">
<rect width="40" height="40" rx="20" fill="#0972E3"/>
<path fill-rule="evenodd" clip-rule="evenodd" d="M23.5303 20.4697C23.8232 20.7626 23.8232 21.2374 23.5303 21.5303L19.5303 25.5303C19.2374 25.8232 18.7626 25.8232 18.4697 25.5303L16.4697 23.5303C16.1768 23.2374 16.1768 22.7626 16.4697 22.4697C16.7626 22.1768 17.2374 22.1768 17.5303 22.4697L19 23.9393L22.4697 20.4697C22.7626 20.1768 23.2374 20.1768 23.5303 20.4697Z" fill="white"/>
<path fill-rule="evenodd" clip-rule="evenodd" d="M14 10.25L21.5631 10.25C22.0506 10.25 22.516 10.4533 22.8472 10.811L27.2841 15.6029C27.5836 15.9264 27.75 16.351 27.75 16.7919L27.75 28C27.75 28.9665 26.9665 29.75 26 29.75H14C13.0335 29.75 12.25 28.9665 12.25 28L12.25 12C12.25 11.0335 13.0335 10.25 14 10.25ZM21.5631 11.75L14 11.75C13.8619 11.75 13.75 11.8619 13.75 12L13.75 28C13.75 28.1381 13.8619 28.25 14 28.25H26C26.1381 28.25 26.25 28.1381 26.25 28L26.25 16.7919C26.25 16.7289 26.2262 16.6682 26.1834 16.622L26.7338 16.1125L26.1834 16.622L21.7465 11.8301C21.6992 11.779 21.6327 11.75 21.5631 11.75Z" fill="white"/>
<path fill-rule="evenodd" clip-rule="evenodd" d="M21 10.25C21.4142 10.25 21.75 10.5858 21.75 11L21.75 16C21.75 16.1381 21.8619 16.25 22 16.25L27 16.25C27.4142 16.25 27.75 16.5858 27.75 17C27.75 17.4142 27.4142 17.75 27 17.75L22 17.75C21.0335 17.75 20.25 16.9665 20.25 16L20.25 11C20.25 10.5858 20.5858 10.25 21 10.25Z" fill="white"/>
</svg>
