<svg width="40" height="40" viewBox="0 0 40 40" fill="none" xmlns="http://localhost/2000/svg">
<rect width="40" height="40" rx="20" fill="#0972E3"/>
<path fill-rule="evenodd" clip-rule="evenodd" d="M11 16.25C11.4142 16.25 11.75 16.5858 11.75 17V28C11.75 28.1381 11.8619 28.25 12 28.25H23C23.4142 28.25 23.75 28.5858 23.75 29C23.75 29.4142 23.4142 29.75 23 29.75H12C11.0335 29.75 10.25 28.9665 10.25 28V17C10.25 16.5858 10.5858 16.25 11 16.25Z" fill="white"/>
<path fill-rule="evenodd" clip-rule="evenodd" d="M28 11.75L16 11.75C15.8619 11.75 15.75 11.8619 15.75 12L15.75 24C15.75 24.1381 15.8619 24.25 16 24.25L28 24.25C28.1381 24.25 28.25 24.1381 28.25 24L28.25 12C28.25 11.8619 28.1381 11.75 28 11.75ZM16 10.25L28 10.25C28.9665 10.25 29.75 11.0335 29.75 12L29.75 24C29.75 24.9665 28.9665 25.75 28 25.75L16 25.75C15.0335 25.75 14.25 24.9665 14.25 24L14.25 12C14.25 11.0335 15.0335 10.25 16 10.25Z" fill="white"/>
<path fill-rule="evenodd" clip-rule="evenodd" d="M25.5303 15.4697C25.8232 15.7626 25.8232 16.2374 25.5303 16.5303L21.5303 20.5303C21.2374 20.8232 20.7626 20.8232 20.4697 20.5303L18.4697 18.5303C18.1768 18.2374 18.1768 17.7626 18.4697 17.4697C18.7626 17.1768 19.2374 17.1768 19.5303 17.4697L21 18.9393L24.4697 15.4697C24.7626 15.1768 25.2374 15.1768 25.5303 15.4697Z" fill="white"/>
</svg>
