<svg width="20" height="20" viewBox="0 0 20 20" fill="none" xmlns="http://localhost/2000/svg">
<path d="M10 15.7052C10.1684 15.7052 10.3089 15.6456 10.4214 15.5263C10.5332 15.4071 10.5891 15.2633 10.5891 15.0949V14.6735C11.3894 14.561 12.0105 14.2838 12.4524 13.8419C12.8944 13.3999 13.1153 12.828 13.1153 12.1261C13.1153 11.4383 12.9119 10.8805 12.505 10.4527C12.0981 10.0243 11.4665 9.64869 10.6103 9.32601C9.71235 9.03162 9.1266 8.77193 8.8531 8.54692C8.57892 8.3226 8.44183 8.02821 8.44183 7.66376C8.44183 7.27035 8.58936 6.9544 8.88443 6.71593C9.17881 6.47745 9.56482 6.35822 10.0424 6.35822C10.3368 6.35822 10.5962 6.41076 10.8205 6.51585C11.0455 6.62094 11.2422 6.77184 11.4106 6.96855C11.5366 7.10867 11.67 7.20332 11.8108 7.25249C11.9509 7.30167 12.0843 7.2983 12.2109 7.24239C12.3928 7.17233 12.5154 7.06017 12.5788 6.9059C12.6421 6.75096 12.6316 6.6105 12.5474 6.48453C12.3231 6.1477 12.0388 5.87756 11.6946 5.67412C11.351 5.47067 10.9967 5.34773 10.6316 5.30529V4.88493C10.6316 4.71652 10.5753 4.57606 10.4628 4.46356C10.351 4.35106 10.2109 4.29481 10.0424 4.29481C9.87403 4.29481 9.7302 4.35106 9.61096 4.46356C9.49173 4.57606 9.43211 4.71652 9.43211 4.88493V5.32651C8.7443 5.45249 8.20033 5.73306 7.80018 6.16825C7.40002 6.60343 7.19995 7.10193 7.19995 7.66376C7.19995 8.26668 7.38588 8.76485 7.75774 9.15827C8.12959 9.55101 8.75778 9.90872 9.64229 10.2314C10.5827 10.5824 11.1967 10.8842 11.4844 11.1368C11.7721 11.3894 11.9159 11.7192 11.9159 12.1261C11.9159 12.5895 11.7438 12.9476 11.3995 13.2002C11.056 13.4528 10.6316 13.5791 10.1263 13.5791C9.71942 13.5791 9.36508 13.4808 9.06328 13.2841C8.76148 13.0874 8.50516 12.8139 8.2943 12.4636C8.21077 12.3228 8.09153 12.2173 7.93659 12.1473C7.78232 12.0772 7.62806 12.0701 7.47379 12.1261C7.30538 12.1961 7.18951 12.312 7.12618 12.4737C7.06286 12.6353 7.08038 12.8004 7.17873 12.9688C7.40373 13.4175 7.70216 13.7785 8.07402 14.052C8.44588 14.3262 8.88443 14.5192 9.38967 14.631V15.1151C9.38967 15.2835 9.44929 15.4239 9.56852 15.5364C9.68776 15.6489 9.83159 15.7052 10 15.7052ZM10 18C8.89116 18 7.84902 17.7895 6.87356 17.3684C5.89811 16.9474 5.05267 16.3788 4.33725 15.6628C3.62115 14.9473 3.05259 14.1019 2.63155 13.1264C2.21052 12.151 2 11.1088 2 10C2 8.89116 2.21052 7.84902 2.63155 6.87356C3.05259 5.89811 3.62115 5.05267 4.33725 4.33725C5.05267 3.62115 5.89811 3.05259 6.87356 2.63155C7.84902 2.21052 8.89116 2 10 2C11.1088 2 12.151 2.21052 13.1264 2.63155C14.1019 3.05259 14.9473 3.62115 15.6628 4.33725C16.3788 5.05267 16.9474 5.89811 17.3684 6.87356C17.7895 7.84902 18 8.89116 18 10C18 11.1088 17.7895 12.151 17.3684 13.1264C16.9474 14.1019 16.3788 14.9473 15.6628 15.6628C14.9473 16.3788 14.1019 16.9474 13.1264 17.3684C12.151 17.7895 11.1088 18 10 18ZM10 16.652C11.8384 16.652 13.4067 16.0029 14.7048 14.7048C16.0029 13.4067 16.652 11.8384 16.652 10C16.652 8.16159 16.0029 6.59332 14.7048 5.29519C13.4067 3.99705 11.8384 3.34799 10 3.34799C8.16159 3.34799 6.59332 3.99705 5.29519 5.29519C3.99705 6.59332 3.34799 8.16159 3.34799 10C3.34799 11.8384 3.99705 13.4067 5.29519 14.7048C6.59332 16.0029 8.16159 16.652 10 16.652Z" fill="#333333"/>
</svg>
