<svg width="20" height="20" viewBox="0 0 20 20" fill="none" xmlns="http://localhost/2000/svg">
<path fill-rule="evenodd" clip-rule="evenodd" d="M2.70117 2.18824C2.39051 2.18824 2.13867 2.44008 2.13867 2.75074C2.13867 3.0614 2.39051 3.31324 2.70117 3.31324H4.07283L6.74849 9.62164L5.4266 11.8496C5.17189 12.2725 5.16591 12.79 5.41498 13.2191C5.65813 13.6467 6.09994 13.9082 6.59799 13.9082H15.3219C15.6325 13.9082 15.8844 13.6564 15.8844 13.3457C15.8844 13.0351 15.6325 12.7832 15.3219 12.7832H6.59799C6.47776 12.7832 6.42141 12.7114 6.39045 12.6622C6.36528 12.6139 6.33267 12.5245 6.39013 12.4246L7.63019 10.3332H13.9811C14.636 10.3332 15.2298 9.97438 15.5373 9.39869L17.7287 5.27287C17.8701 5.00333 17.9 4.69697 17.8203 4.41324H17.872L17.7039 4.13005C17.495 3.77812 17.1186 3.56324 16.7073 3.56324H5.4014L4.81615 2.18824H2.70117ZM7.7976 9.20824L5.88074 4.68824H16.7073C16.7146 4.68824 16.7194 4.68937 16.7225 4.69042C16.7257 4.69151 16.7284 4.69297 16.7308 4.69467C16.7332 4.69644 16.7354 4.6985 16.7371 4.70053C16.7381 4.70165 16.7388 4.70257 16.7392 4.70315C16.7392 4.70315 16.7395 4.70358 16.7392 4.70315C16.7439 4.71148 16.7468 4.71838 16.7475 4.72332C16.7478 4.7254 16.7478 4.72721 16.7474 4.72915C16.7471 4.73099 16.7462 4.73467 16.7431 4.74035L16.7427 4.74109L16.7423 4.74191L16.7418 4.74279L14.5511 8.86733C14.4381 9.0774 14.2209 9.20824 13.9861 9.20824H7.7976Z" fill="#858585"/>
<path d="M6.49295 14.6882C5.62975 14.6882 4.92986 15.3877 4.92986 16.2507C4.92986 17.1138 5.62975 17.8132 6.49295 17.8132C7.35614 17.8132 8.05603 17.1138 8.05603 16.2507C8.05603 15.3877 7.35614 14.6882 6.49295 14.6882Z" fill="#858585"/>
<path d="M14.5114 14.6882C13.6482 14.6882 12.9483 15.3877 12.9483 16.2507C12.9483 17.1138 13.6482 17.8132 14.5114 17.8132C15.3746 17.8132 16.0744 17.1138 16.0744 16.2507C16.0744 15.3877 15.3746 14.6882 14.5114 14.6882Z" fill="#858585"/>
</svg>
