<svg width="20" height="20" viewBox="0 0 20 20" fill="none" xmlns="http://localhost/2000/svg">
<path fill-rule="evenodd" clip-rule="evenodd" d="M15.7749 6.66666C15.3706 3.83975 12.9394 1.66666 10.0007 1.66666C7.06192 1.66666 4.63075 3.83975 4.22639 6.66666H3.75065C2.13982 6.66666 0.833984 8.15905 0.833984 10C0.833984 11.8409 2.13982 13.3333 3.75065 13.3333H5.41732V7.5C5.41732 4.96869 7.46935 2.91666 10.0007 2.91666C12.532 2.91666 14.584 4.96869 14.584 7.5V13.3333C14.584 14.4839 13.6512 15.4167 12.5007 15.4167H12.3273C12.0058 14.6809 11.2716 14.1667 10.4173 14.1667C9.26672 14.1667 8.33398 15.0994 8.33398 16.25C8.33398 17.4006 9.26672 18.3333 10.4173 18.3333C11.4252 18.3333 12.2659 17.6176 12.459 16.6667H12.5007C12.6418 16.6667 12.7808 16.6579 12.9173 16.6409C14.2833 16.4705 15.3926 15.4737 15.729 14.1667C15.7975 13.9003 15.834 13.6211 15.834 13.3333H16.2506C17.8615 13.3333 19.1673 11.8409 19.1673 10C19.1673 8.15905 17.8615 6.66666 16.2506 6.66666H15.7749ZM15.834 11.9048L16.2506 11.9048C17.1711 11.9048 17.9173 11.052 17.9173 10C17.9173 8.94803 17.1711 8.09524 16.2506 8.09524H15.834V11.9048ZM3.75065 8.09524H4.16732V11.9048L3.75065 11.9048C2.83018 11.9048 2.08398 11.052 2.08398 10C2.08398 8.94803 2.83018 8.09524 3.75065 8.09524ZM11.2507 16.25C11.2507 16.7102 10.8776 17.0833 10.4173 17.0833C9.95708 17.0833 9.58398 16.7102 9.58398 16.25C9.58398 15.7898 9.95708 15.4167 10.4173 15.4167C10.8776 15.4167 11.2507 15.7898 11.2507 16.25Z" fill="#0972E3"/>
</svg>
