<svg width="12" height="12" viewBox="0 0 12 12" fill="none" xmlns="http://localhost/2000/svg">
<path d="M5.98439 11.166C4.42839 11.166 3.10872 10.6243 2.02539 9.541C0.942057 8.45767 0.400391 7.13833 0.400391 5.583C0.400391 4.02767 0.942057 2.70833 2.02539 1.625C3.10872 0.541667 4.42839 0 5.98439 0C6.90106 0 7.74106 0.204667 8.50439 0.614C9.26839 1.024 9.90039 1.56933 10.4004 2.25V0H11.4844V4.271H7.23439V3.187H9.75439C9.35172 2.54833 8.82072 2.038 8.16139 1.656C7.50139 1.274 6.77572 1.083 5.98439 1.083C4.73439 1.083 3.67172 1.52033 2.79639 2.395C1.92172 3.27033 1.48439 4.333 1.48439 5.583C1.48439 6.833 1.92172 7.89567 2.79639 8.771C3.67172 9.64567 4.73439 10.083 5.98439 10.083C7.15106 10.083 8.15106 9.69767 8.98439 8.927C9.81772 8.15633 10.2967 7.20833 10.4214 6.083H11.5254C11.4147 7.52767 10.8281 8.736 9.76539 9.708C8.70272 10.68 7.44239 11.166 5.98439 11.166Z" fill="#858585"/>
</svg>
