<svg width="20" height="20" viewBox="0 0 20 20" xmlns="http://localhost/2000/svg">
<path fill-rule="evenodd" clip-rule="evenodd" d="M8.95374 17.6C9.23666 17.8475 9.60668 17.998 10.0118 18C10.1074 17.9981 10.2026 17.9874 10.2962 17.968H10.3331C10.6082 17.9084 10.8591 17.7802 11.0651 17.6C11.244 17.4435 11.3891 17.2478 11.4868 17.024C11.5166 16.951 11.5409 16.8762 11.5596 16.8C11.5894 16.6788 11.6051 16.5543 11.6062 16.4291C11.6063 16.4194 11.6063 16.4097 11.6062 16.4H8.4014C8.40276 16.5382 8.42148 16.6722 8.45547 16.8C8.5392 17.1148 8.71562 17.3917 8.95374 17.6ZM3.6022 15.6V14L5.2046 13.2V8.8C5.1624 7.6713 5.41767 6.5513 5.94491 5.552C6.46973 4.62521 7.36681 3.9671 8.40941 3.744V3.6024C8.40941 2.71742 9.12683 2 10.0118 2C10.8968 2 11.6142 2.71742 11.6142 3.6024V3.744C13.6805 4.2352 14.819 6.0304 14.819 8.8V13.2L16.4214 14V15.6H3.6022ZM14.5361 14.4H5.4875L6.4046 13.9421V8.77757L6.40376 8.75516C6.36965 7.84294 6.57433 6.93764 6.99757 6.1285C7.35429 5.50834 7.95848 5.06766 8.66051 4.91743L9.60941 4.71438V3.6024C9.60941 3.38016 9.78957 3.2 10.0118 3.2C10.2341 3.2 10.4142 3.38016 10.4142 3.6024V4.69218L11.3367 4.91147C12.0732 5.08656 12.6068 5.47461 12.978 6.06011C13.3648 6.67023 13.619 7.5688 13.619 8.8V13.9421L14.5361 14.4ZM3.05204 4.85448C3.4716 3.99261 4.04631 3.21749 4.74557 2.56683C4.97501 2.35334 5.33849 2.37154 5.57169 2.60603C5.84401 2.87986 5.82067 3.34465 5.52936 3.63513C4.4513 4.71015 3.74699 6.10537 3.52395 7.61284C3.47052 7.97395 3.17807 8.25003 2.83339 8.25003C2.46051 8.25003 2.17569 7.94109 2.22351 7.59037C2.35282 6.64211 2.63195 5.71851 3.05204 4.85448ZM15.2541 2.56685C15.0246 2.35334 14.6611 2.37155 14.4279 2.60606C14.1556 2.87989 14.1789 3.34468 14.4702 3.63518C15.5482 4.71027 16.2524 6.10545 16.4756 7.61288C16.529 7.97398 16.8215 8.25003 17.1662 8.25003C17.5391 8.25003 17.8239 7.94107 17.7761 7.59032C17.6467 6.64206 17.3676 5.71846 16.9475 4.85441C16.5279 3.99258 15.9533 3.21748 15.2541 2.56685Z" />
</svg>
