<svg width="16" height="16" viewBox="0 0 16 16" fill="none" xmlns="http://localhost/2000/svg">
<path fill-rule="evenodd" clip-rule="evenodd" d="M6.95374 15.6C7.23666 15.8475 7.60668 15.998 8.01181 16C8.1074 15.9981 8.20258 15.9874 8.29624 15.968H8.3331C8.60824 15.9084 8.85908 15.7802 9.06507 15.6C9.24399 15.4435 9.38906 15.2478 9.48683 15.024C9.51658 14.951 9.54087 14.8762 9.55959 14.8C9.58939 14.6788 9.60508 14.5543 9.60621 14.4291C9.60629 14.4194 9.60629 14.4097 9.60621 14.4H6.4014C6.40276 14.5382 6.42148 14.6722 6.45547 14.8C6.5392 15.1148 6.71562 15.3917 6.95374 15.6ZM1.6022 13.6V12L3.2046 11.2V6.8C3.1624 5.6713 3.41767 4.5513 3.94491 3.552C4.46973 2.62521 5.36681 1.9671 6.40941 1.744V1.6024C6.40941 0.717421 7.12683 0 8.01181 0C8.8968 0 9.61422 0.717421 9.61422 1.6024V1.744C11.6805 2.2352 12.819 4.0304 12.819 6.8V11.2L14.4214 12V13.6H1.6022ZM12.5361 12.4H3.4875L4.4046 11.9421V6.77757L4.40376 6.75516C4.36965 5.84294 4.57433 4.93764 4.99757 4.1285C5.35429 3.50834 5.95848 3.06766 6.66051 2.91743L7.60941 2.71438V1.6024C7.60941 1.38016 7.78957 1.2 8.01181 1.2C8.23406 1.2 8.41422 1.38016 8.41422 1.6024V2.69218L9.33669 2.91147C10.0732 3.08656 10.6068 3.47461 10.978 4.06011C11.3648 4.67023 11.619 5.5688 11.619 6.8V11.9421L12.5361 12.4ZM1.05204 2.85448C1.4716 1.99261 2.04631 1.21749 2.74557 0.566834C2.97501 0.353337 3.33849 0.371544 3.57169 0.606033C3.84401 0.879862 3.82067 1.34465 3.52936 1.63513C2.4513 2.71015 1.74699 4.10537 1.52395 5.61284C1.47052 5.97395 1.17807 6.25003 0.833393 6.25003C0.460513 6.25003 0.175686 5.94109 0.223514 5.59037C0.352824 4.64211 0.631952 3.71851 1.05204 2.85448ZM13.2541 0.56685C13.0246 0.353339 12.6611 0.371552 12.4279 0.606056C12.1556 0.879891 12.1789 1.34468 12.4702 1.63518C13.5482 2.71027 14.2524 4.10545 14.4756 5.61288C14.529 5.97398 14.8215 6.25003 15.1662 6.25003C15.5391 6.25003 15.8239 5.94107 15.7761 5.59032C15.6467 4.64206 15.3676 3.71846 14.9475 2.85441C14.5279 1.99258 13.9533 1.21748 13.2541 0.56685Z" fill="#FF5555"/>
</svg>
