<svg width="20" height="20" viewBox="0 0 20 20" fill="none" xmlns="http://localhost/2000/svg">
<path d="M10 17.812C9.88867 17.812 9.781 17.8017 9.677 17.781C9.573 17.7603 9.48633 17.736 9.417 17.708C7.76433 17.1107 6.40667 16.031 5.344 14.469C4.28133 12.9063 3.75 11.1737 3.75 9.271V5.542C3.75 5.20867 3.84367 4.90634 4.031 4.635C4.21833 4.36434 4.472 4.16667 4.792 4.042L9.458 2.312C9.63867 2.25667 9.81933 2.229 10 2.229C10.1807 2.229 10.3613 2.25667 10.542 2.312L15.208 4.042C15.528 4.16667 15.7817 4.36434 15.969 4.635C16.1563 4.90634 16.25 5.20867 16.25 5.542V9.271C16.25 11.1737 15.7187 12.9063 14.656 14.469C13.5933 16.031 12.2357 17.1107 10.583 17.708C10.5137 17.736 10.427 17.7603 10.323 17.781C10.219 17.8017 10.1113 17.812 10 17.812ZM10 16.479C11.3053 16.0903 12.4027 15.2883 13.292 14.073C14.1807 12.8577 14.7013 11.5 14.854 10H10V3.542L5.25 5.292C5.19467 5.30534 5.153 5.33634 5.125 5.385C5.097 5.43367 5.083 5.479 5.083 5.521V9.625C5.083 9.72234 5.097 9.84734 5.125 10H10V16.479Z" fill="#0972E3"/>
</svg>
