<svg width="24" height="24" viewBox="0 0 24 24" fill="none" xmlns="http://localhost/2000/svg">
<g clip-path="url(#clip0_2636_165313)">
<path d="M5.89106 0H7.39077C8.1642 0.155936 8.93292 0.335499 9.64032 0.704076C9.84783 0.812758 10.0459 0.83166 10.277 0.798582C11.2202 0.661548 12.1681 0.623745 13.1161 0.732428C16.389 1.09628 19.0394 2.59421 21.0202 5.21677C22.8877 7.68813 23.7885 10.4525 23.199 13.5806C23.1801 13.6846 23.1801 13.7791 23.232 13.8736C23.647 14.5824 23.8545 15.3668 24.0007 16.1654V17.7295C23.8309 18.6698 23.5857 19.5818 23.1141 20.4229C22.1426 22.1477 20.7655 23.3763 18.8083 23.8441C17.219 24.2221 15.7146 23.9008 14.2762 23.1872C14.0781 23.088 13.8895 23.0549 13.6726 23.088C12.701 23.225 11.7248 23.2581 10.7439 23.1589C7.69731 22.8612 5.18365 21.5334 3.26422 19.1518C1.38723 16.8222 0.514759 14.1382 0.722265 11.1376C0.764709 10.5092 0.698685 9.94211 0.467598 9.33727C-0.900058 5.80744 0.835451 1.84761 4.33005 0.420555C4.83466 0.21264 5.36286 0.122859 5.89106 0ZM12.3662 19.1613C12.6963 19.1707 13.0265 19.1471 13.3519 19.0951C15.0166 18.8163 16.3984 18.0791 17.3228 16.6237C18.332 15.0408 18.0302 13.3302 16.5682 12.1583C15.6486 11.4211 14.5733 11.0289 13.4462 10.7643C12.6869 10.5848 11.9135 10.4714 11.173 10.2209C10.6873 10.0555 10.211 9.87123 9.81482 9.53574C9.37151 9.15771 9.30077 8.68517 9.6026 8.19374C9.89028 7.72593 10.3006 7.42351 10.8382 7.31955C12.3285 7.02658 13.5782 7.46131 14.5922 8.58594C14.762 8.77496 14.9365 8.94979 15.144 9.09155C15.7948 9.54519 16.672 9.25694 16.9408 8.51034C17.1106 8.04253 17.0115 7.60307 16.7757 7.18724C16.4503 6.61548 15.9598 6.20437 15.3986 5.88305C13.8895 5.01831 12.2625 4.78677 10.5647 5.03249C9.30548 5.21677 8.18306 5.69876 7.30588 6.66273C6.18346 7.90077 6.05141 9.95156 7.03706 11.1754C7.55111 11.8133 8.25852 12.163 8.99894 12.456C10.0836 12.8813 11.2344 13.0608 12.3521 13.3727C12.8803 13.5239 13.4037 13.6893 13.8659 14.0059C14.7289 14.6013 14.7714 15.7118 13.9508 16.3686C13.4556 16.7655 12.8661 16.9262 12.2483 16.9403C11.0646 16.9687 10.1025 16.4678 9.30548 15.622C9.01781 15.3196 8.782 14.9651 8.42358 14.7289C7.91896 14.3934 7.19269 14.4217 6.70694 14.7998C6.28721 15.1258 6.17874 15.655 6.39568 16.2741C6.47114 16.4914 6.58432 16.6946 6.72109 16.8836C7.12195 17.4412 7.64543 17.8523 8.23966 18.1737C9.52714 18.873 10.9231 19.1234 12.3662 19.1565V19.1613Z" fill="#333333"/>
</g>
<defs>
<clipPath id="clip0_2636_165313">
<rect width="24" height="24" fill="white"/>
</clipPath>
</defs>
</svg>
