<svg width="16" height="16" viewBox="0 0 16 16" fill="none" xmlns="http://localhost/2000/svg">
<path fill-rule="evenodd" clip-rule="evenodd" d="M12.8966 0.391087C13.1502 0.48627 13.3182 0.728755 13.3182 0.999639V3.53263C13.8667 3.65509 14.3741 3.93114 14.7778 4.33482C15.3372 4.89434 15.6516 5.6532 15.6516 6.44446C15.6516 7.23573 15.3372 7.99459 14.7778 8.5541C14.3741 8.95778 13.8667 9.23384 13.3182 9.3563V11.8893C13.3182 12.1602 13.1502 12.4027 12.8966 12.4978C12.6429 12.593 12.3569 12.5209 12.1787 12.3169C11.4374 11.4685 9.89683 10.7265 7.87356 10.3926V13.6316C7.87322 14.1071 7.70511 14.5676 7.39883 14.9313C7.09255 15.2949 6.66775 15.5388 6.19928 15.62C5.73081 15.7012 5.24873 15.6144 4.83796 15.375C4.4272 15.1355 4.11411 14.7588 3.95385 14.3112L3.95212 14.3063L2.37169 9.77904C1.69593 9.42617 1.14081 8.87526 0.783615 8.19574C0.380102 7.42809 0.254186 6.54461 0.427172 5.6948C0.600158 4.84499 1.06142 4.08103 1.73292 3.53222C2.40441 2.98342 3.24489 2.68347 4.11211 2.68313H5.53729C6.09262 2.68313 6.63306 2.65266 7.15215 2.59529C9.52925 2.33253 11.3516 1.51859 12.1787 0.571974C12.3569 0.367981 12.6429 0.295904 12.8966 0.391087ZM3.89549 10.1997L5.17851 13.875C5.2358 14.0336 5.34697 14.1669 5.49262 14.2518C5.63888 14.3371 5.81054 14.368 5.97736 14.3391C6.14417 14.3102 6.29543 14.2233 6.4045 14.0938C6.51347 13.9645 6.57333 13.8008 6.57356 13.6316V10.2415C6.23527 10.218 5.8893 10.2058 5.53729 10.2058H4.11331M7.87356 9.07667C9.48311 9.31843 10.9349 9.81069 12.0182 10.5034V2.38545C10.9348 3.07811 9.4829 3.57032 7.87356 3.81208V9.07667ZM6.57356 3.95022V8.93862C6.23393 8.91694 5.88807 8.90579 5.53729 8.90579L4.11236 8.90579C3.78279 8.90627 3.45472 8.83952 3.14986 8.71011C2.62739 8.48786 2.19817 8.09281 1.93432 7.59087C1.67024 7.08848 1.58784 6.51027 1.70105 5.95411C1.81426 5.39794 2.11614 4.89797 2.55559 4.53881C2.99498 4.1797 3.54491 3.98341 4.11236 3.98313H5.53729C5.88809 3.98313 6.23395 3.97193 6.57356 3.95022ZM13.3182 7.9974C13.5182 7.91365 13.7022 7.79123 13.8585 7.63488C14.1742 7.31917 14.3516 6.89096 14.3516 6.44446C14.3516 5.99796 14.1742 5.56976 13.8585 5.25404C13.7022 5.09769 13.5182 4.97528 13.3182 4.89153V7.9974Z" fill="#1060B4"/>
</svg>
